<svg width="1887" height="111" viewBox="0 0 1887 111" fill="none" xmlns="http://www.w3.org/2000/svg">
<path d="M547.393 59.7192V52.3206V44.922V37.5234H540.033H532.672V44.922V52.3206V59.7192V67.1177V74.5164H540.033H547.393V67.1177V59.7192Z" fill="#013AEC"/>
<path d="M440.882 52.3206V59.7192V67.1177V74.5164H448.243V67.1177V59.7192V52.3206V44.922V37.5234H440.882V44.922V52.3206Z" fill="#013AEC"/>
<path d="M635.717 30.3594V23.0196H628.415V15.6797H621.113V8.35945H613.831V8.33986V1C606.743 1 521.553 1 418.507 1V8.33986H411.38V15.6797H404.254V23.0196H397.127V30.3399H390C390 47.1335 390 64.9057 390 81.6797H397.127V89H404.254V96.3203H411.38V103.66H418.507V111C521.553 111 606.743 111 613.831 111V103.68H621.113V96.3399H628.415V89H635.717V81.6993H643C643 64.9057 643 47.1334 643 30.3594H635.717ZM576.834 15.3274H584.195H591.555V22.726H584.195H576.834V15.3274ZM462.962 81.9146H455.601H448.241H440.88H433.52H426.16V74.5161H433.52V67.1174V59.7188V52.3203V44.9217V37.5231H440.88V30.1246H448.241H455.601V37.5231V44.9217V52.3203V59.7188V67.1174V74.5161H462.962V81.9146ZM510.59 37.5231V44.9217V52.3203H503.23V59.7188H510.59V67.1174V74.5161V81.9146H503.23V74.5161V67.1174V59.7188H495.869V67.1174V74.5161V81.9146H488.509V74.5161V67.1174V59.7188H481.149V67.1174V74.5161V81.9146H473.788V74.5161V67.1174V59.7188H481.149V52.3203H473.788V44.9217V37.5231V30.1246H481.149V37.5231V44.9217V52.3203H488.509V44.9217V37.5231V30.1246H495.869V37.5231V44.9217V52.3203H503.23V44.9217V37.5231V30.1246H510.59V37.5231ZM554.753 44.9217V52.3203V59.7188V67.1174V74.5161H547.392V81.9146H540.032H532.672V74.5161H525.311V67.1174V59.7188V52.3203V44.9217V37.5231H532.672V30.1246H540.032H547.392V37.5231H554.753V44.9217ZM598.915 37.5231V44.9217V52.3203V59.7188V67.1174V74.5161V81.9146H591.555V74.5161V67.1174V59.7188H584.195V67.1174H576.834V74.5161V81.9146H569.474V74.5161V67.1174V59.7188V52.3203V44.9217V37.5231V30.1246H576.834V37.5231V44.9217V52.3203V59.7188H584.195V52.3203H591.555V44.9217V37.5231V30.1246H598.915V37.5231Z" fill="#013AEC"/>
<path d="M102.665 23.0039H95.3308V15.6693H87.9961V8.33463H80.6615V1H73.3269H65.9922H58.6576H51.323H43.9884H36.6537H29.3385V8.33463H22.0039V15.6693H14.6693V23.0039H7.33463V30.3385H0V37.6731V45.0078V52.3424V59.677V67.0116V74.3463V81.6809H7.33463V88.9961H14.6693V96.3308H22.0039V103.665H29.3385V111H36.6537H43.9884H51.323H58.6576H65.9922H73.3269H80.6615V103.665H87.9961V96.3308H95.3308V88.9961H102.665V81.6809H110V74.3463V67.0116V59.677V52.3424V45.0078V37.6731V30.3385H102.665V23.0039V23.0039ZM87.9961 81.6809V88.9961H80.6615V96.3308H73.3269H65.9922H58.6576H51.323H43.9884H36.6537H29.3385V88.9961H22.0039V81.6809H14.6693V74.3463H22.0039H29.3385H36.6537H43.9884V67.0116V59.677H36.6537V52.3424H29.3385V45.0078H22.0039V37.6731H29.3385V30.3385H36.6537V23.0039H43.9884V15.6693H51.323V23.0039V30.3385V37.6731V45.0078V52.3424V59.677V67.0116V74.3463H58.6576H65.9922H73.3269V67.0116V59.677H65.9922V52.3424H58.6576V45.0078V37.6731H65.9922V30.3385H73.3269V23.0039H80.6615V30.3385V37.6731V45.0078V52.3424V59.677V67.0116V74.3463H87.9961V67.0116H95.3308V74.3463V81.6809H87.9961Z" fill="#6FCBF5"/>
<path d="M699.654 67.0107H692.338V74.3454H699.654V67.0107Z" fill="#013AEC"/>
<path d="M692.338 37.6732V45.0078V52.3424V59.677H699.654H706.988H714.323H721.657H728.992H736.327H743.661V52.3424V45.0078V37.6732V30.3385V23.0039H736.327H728.992H721.657H714.323H706.988H699.654H692.338V30.3385V37.6732Z" fill="#013AEC"/>
<path d="M743.661 67.0107H736.327V74.3454H743.661V67.0107Z" fill="#013AEC"/>
<path d="M765.665 23.0039H758.331V15.6693H750.996V8.33463H743.662V1H736.327H728.992H721.658H714.323H706.988H699.654H692.339V8.33463H685.004V15.6693H677.669V23.0039H670.335V30.3385H663V37.6732V45.0078V52.3424V59.677V67.0117V74.3463V81.6809H670.335V88.9961H677.669V96.3307H685.004V103.665H692.339V111H699.654H706.988H714.323H721.658H728.992H736.327H743.662V103.665H750.996V96.3307H758.331V88.9961H765.665V81.6809H773V74.3463V67.0117V59.677V52.3424V45.0078V37.6732V30.3385H765.665V23.0039ZM692.339 23.0039V15.6693H699.654H706.988H714.323H721.658H728.992H736.327H743.662V23.0039H750.996V30.3385V37.6732V45.0078V52.3424V59.677V67.0117V74.3463V81.6809H743.662V88.9961H736.327V81.6809H728.992H721.658H714.323H706.988H699.654V88.9961H692.339V81.6809H685.004V74.3463V67.0117V59.677V52.3424V45.0078V37.6732V30.3385V23.0039H692.339Z" fill="#013AEC"/>
<path d="M815.004 52.3418H807.669V59.6764H815.004V52.3418Z" fill="#E51041"/>
<path d="M829.654 52.3418H822.339V59.6764H829.654V52.3418Z" fill="#E51041"/>
<path d="M844.323 52.3418H836.988V59.6764H844.323V52.3418Z" fill="#E51041"/>
<path d="M895.665 23.0039H888.331V15.6692H880.996V8.33462H873.662V1H866.327H858.992H851.658H844.323H836.988H829.654H822.339V8.33462H815.004V15.6692H807.669V23.0039H800.335V30.3385H793V37.6731V45.0077V52.3424V59.677V67.0116V74.3462V81.6809H800.335V88.9961H807.669V96.3307H815.004V103.665H822.339V111H829.654H836.988H844.323H851.658H858.992H866.327H873.662V103.665H880.996V96.3307H888.331V88.9961H895.665V81.6809H903V74.3462V67.0116V59.677V52.3424V45.0077V37.6731V30.3385H895.665V23.0039ZM800.335 59.677V52.3424H807.669V45.0077H815.004H822.339H829.654H836.988V37.6731H844.323V30.3385H851.658V23.0039H858.992H866.327V30.3385V37.6731H858.992V45.0077H866.327H873.662H880.996V37.6731H888.331V45.0077V52.3424V59.677H880.996V67.0116H873.662H866.327H858.992V74.3462H866.327V81.6809V88.9961H858.992H851.658V81.6809H844.323V74.3462H836.988V67.0116H829.654H822.339H815.004H807.669H800.335V59.677V59.677Z" fill="#E51041"/>
<path d="M362.665 23.0039H355.331V15.6693H347.996V8.33463H340.662V1H333.327H325.992H318.658H311.323H303.988H296.654H289.339V8.33463H282.004V15.6693H274.669V23.0039H267.335V30.3385H260V37.6732V45.0078V52.3424V59.677V67.0117V74.3463V81.6809H267.335V88.9961H274.669V96.3307H282.004V103.665H289.339V111H296.654H303.988H311.323H318.658H325.992H333.327H340.662V103.665H347.996V96.3307H355.331V88.9961H362.665V81.6809H370V74.3463V67.0117V59.677V52.3424V45.0078V37.6732V30.3385H362.665V23.0039ZM340.662 88.9961H333.327V81.6809H325.992V74.3463H318.658H311.323H303.988H296.654H289.339H282.004V67.0117H289.339H296.654H303.988H311.323H318.658H325.992H333.327V74.3463H340.662V81.6809V88.9961ZM274.669 52.3424H282.004H289.339H296.654H303.988H311.323H318.658H325.992H333.327H340.662H347.996V59.677H340.662H333.327H325.992H318.658H311.323H303.988H296.654H289.339H282.004H274.669V52.3424ZM289.339 37.6732H296.654H303.988H311.323H318.658H325.992V30.3385H333.327V23.0039H340.662V30.3385V37.6732H333.327V45.0078H325.992H318.658H311.323H303.988H296.654H289.339H282.004V37.6732H289.339Z" fill="#6FCBF5"/>
<path d="M1025.67 23.0038H1018.33V15.6692H1011V8.33456H1003.66V1H996.327H988.992H981.658H974.323H966.988H959.654H952.339V8.33456H945.004V15.6692H937.669V23.0038H930.335V30.3385H923V37.6731V45.0077V52.3423V59.677V67.0116V74.3462V81.6808H930.335V88.9961H937.669V96.3307H945.004V103.665H952.339V111H959.654H966.988H974.323H981.658H988.992H996.327H1003.66V103.665H1011V96.3307H1018.33V88.9961H1025.67V81.6808H1033V74.3462V67.0116V59.677V52.3423V45.0077V37.6731V30.3385H1025.67V23.0038V23.0038ZM1003.66 88.9961H996.327H988.992V81.6808H996.327V74.3462V67.0116V59.677H988.992V52.3423H996.327V45.0077V37.6731H988.992V45.0077H981.658H974.323H966.988V37.6731H959.654V45.0077V52.3423H966.988V59.677H959.654V67.0116V74.3462V81.6808H966.988V88.9961H959.654H952.339H945.004V81.6808H952.339V74.3462V67.0116V59.677H945.004V52.3423H952.339V45.0077V37.6731H945.004V30.3385V23.0038H952.339H959.654V30.3385H966.988H974.323H981.658H988.992H996.327V23.0038H1003.66H1011V30.3385V37.6731H1003.66V45.0077V52.3423H1011V59.677H1003.66V67.0116V74.3462V81.6808H1011V88.9961H1003.66Z" fill="#398B67"/>
<path d="M188.658 37.6729H181.323V45.0075H173.988V52.3421H181.323V59.6768H188.658V52.3421H195.992V45.0075H188.658V37.6729Z" fill="#FFD200"/>
<path d="M232.665 23.0039H225.331V15.6692H217.996V8.33462H210.662V1H203.327H195.992H188.658H181.323H173.988H166.654H159.339V8.33462H152.004V15.6692H144.669V23.0039H137.335V30.3385H130V37.6731V45.0078V52.3424V59.677V67.0116V74.3463V81.6809H137.335V88.9961H144.669V96.3307H152.004V103.665H159.339V111H166.654H173.988H181.323H188.658H195.992H203.327H210.662V103.665H217.996V96.3307H225.331V88.9961H232.665V81.6809H240V74.3463V67.0116V59.677V52.3424V45.0078V37.6731V30.3385H232.665V23.0039ZM217.996 37.6731V45.0078V52.3424V59.677H210.662V67.0116V74.3463H203.327V81.6809H195.992V88.9961H188.658V96.3307H181.323V88.9961H173.988V81.6809H166.654V74.3463H159.339V67.0116V59.677H152.004V52.3424V45.0078V37.6731V30.3385H159.339V23.0039H166.654V15.6692H173.988H181.323H188.658H195.992H203.327V23.0039H210.662V30.3385H217.996V37.6731Z" fill="#FFD200"/>
<g clip-path="url(#clip0_372_505)">
<path d="M1600.39 59.7192V52.3206V44.922V37.5234H1593.03H1585.67V44.922V52.3206V59.7192V67.1177V74.5164H1593.03H1600.39V67.1177V59.7192Z" fill="#013AEC"/>
<path d="M1493.88 52.3206V59.7192V67.1177V74.5164H1501.24V67.1177V59.7192V52.3206V44.922V37.5234H1493.88V44.922V52.3206Z" fill="#013AEC"/>
<path d="M1688.72 30.3594V23.0196H1681.42V15.6797H1674.11V8.35945H1666.83V8.33986V1C1659.74 1 1574.55 1 1471.51 1V8.33986H1464.38V15.6797H1457.25V23.0196H1450.13V30.3399H1443C1443 47.1335 1443 64.9057 1443 81.6797H1450.13V89H1457.25V96.3203H1464.38V103.66H1471.51V111C1574.55 111 1659.74 111 1666.83 111V103.68H1674.11V96.3399H1681.42V89H1688.72V81.6993H1696C1696 64.9057 1696 47.1334 1696 30.3594H1688.72ZM1629.83 15.3274H1637.19H1644.55V22.726H1637.19H1629.83V15.3274ZM1515.96 81.9146H1508.6H1501.24H1493.88H1486.52H1479.16V74.5161H1486.52V67.1174V59.7188V52.3203V44.9217V37.5231H1493.88V30.1246H1501.24H1508.6V37.5231V44.9217V52.3203V59.7188V67.1174V74.5161H1515.96V81.9146ZM1563.59 37.5231V44.9217V52.3203H1556.23V59.7188H1563.59V67.1174V74.5161V81.9146H1556.23V74.5161V67.1174V59.7188H1548.87V67.1174V74.5161V81.9146H1541.51V74.5161V67.1174V59.7188H1534.15V67.1174V74.5161V81.9146H1526.79V74.5161V67.1174V59.7188H1534.15V52.3203H1526.79V44.9217V37.5231V30.1246H1534.15V37.5231V44.9217V52.3203H1541.51V44.9217V37.5231V30.1246H1548.87V37.5231V44.9217V52.3203H1556.23V44.9217V37.5231V30.1246H1563.59V37.5231ZM1607.75 44.9217V52.3203V59.7188V67.1174V74.5161H1600.39V81.9146H1593.03H1585.67V74.5161H1578.31V67.1174V59.7188V52.3203V44.9217V37.5231H1585.67V30.1246H1593.03H1600.39V37.5231H1607.75V44.9217ZM1651.92 37.5231V44.9217V52.3203V59.7188V67.1174V74.5161V81.9146H1644.55V74.5161V67.1174V59.7188H1637.19V67.1174H1629.83V74.5161V81.9146H1622.47V74.5161V67.1174V59.7188V52.3203V44.9217V37.5231V30.1246H1629.83V37.5231V44.9217V52.3203V59.7188H1637.19V52.3203H1644.55V44.9217V37.5231V30.1246H1651.92V37.5231Z" fill="#013AEC"/>
<path d="M1155.67 23.0039H1148.33V15.6693H1141V8.33463H1133.66V1H1126.33H1118.99H1111.66H1104.32H1096.99H1089.65H1082.34V8.33463H1075V15.6693H1067.67V23.0039H1060.33V30.3385H1053V37.6731V45.0078V52.3424V59.677V67.0116V74.3463V81.6809H1060.33V88.9961H1067.67V96.3308H1075V103.665H1082.34V111H1089.65H1096.99H1104.32H1111.66H1118.99H1126.33H1133.66V103.665H1141V96.3308H1148.33V88.9961H1155.67V81.6809H1163V74.3463V67.0116V59.677V52.3424V45.0078V37.6731V30.3385H1155.67V23.0039V23.0039ZM1141 81.6809V88.9961H1133.66V96.3308H1126.33H1118.99H1111.66H1104.32H1096.99H1089.65H1082.34V88.9961H1075V81.6809H1067.67V74.3463H1075H1082.34H1089.65H1096.99V67.0116V59.677H1089.65V52.3424H1082.34V45.0078H1075V37.6731H1082.34V30.3385H1089.65V23.0039H1096.99V15.6693H1104.32V23.0039V30.3385V37.6731V45.0078V52.3424V59.677V67.0116V74.3463H1111.66H1118.99H1126.33V67.0116V59.677H1118.99V52.3424H1111.66V45.0078V37.6731H1118.99V30.3385H1126.33V23.0039H1133.66V30.3385V37.6731V45.0078V52.3424V59.677V67.0116V74.3463H1141V67.0116H1148.33V74.3463V81.6809H1141Z" fill="#6FCBF5"/>
<path d="M1752.65 67.0107H1745.34V74.3454H1752.65V67.0107Z" fill="#013AEC"/>
<path d="M1745.34 37.6732V45.0078V52.3424V59.677H1752.65H1759.99H1767.32H1774.66H1781.99H1789.33H1796.66V52.3424V45.0078V37.6732V30.3385V23.0039H1789.33H1781.99H1774.66H1767.32H1759.99H1752.65H1745.34V30.3385V37.6732Z" fill="#013AEC"/>
<path d="M1796.66 67.0107H1789.33V74.3454H1796.66V67.0107Z" fill="#013AEC"/>
<path d="M1818.67 23.0039H1811.33V15.6693H1804V8.33463H1796.66V1H1789.33H1781.99H1774.66H1767.32H1759.99H1752.65H1745.34V8.33463H1738V15.6693H1730.67V23.0039H1723.33V30.3385H1716V37.6732V45.0078V52.3424V59.677V67.0117V74.3463V81.6809H1723.33V88.9961H1730.67V96.3307H1738V103.665H1745.34V111H1752.65H1759.99H1767.32H1774.66H1781.99H1789.33H1796.66V103.665H1804V96.3307H1811.33V88.9961H1818.67V81.6809H1826V74.3463V67.0117V59.677V52.3424V45.0078V37.6732V30.3385H1818.67V23.0039ZM1745.34 23.0039V15.6693H1752.65H1759.99H1767.32H1774.66H1781.99H1789.33H1796.66V23.0039H1804V30.3385V37.6732V45.0078V52.3424V59.677V67.0117V74.3463V81.6809H1796.66V88.9961H1789.33V81.6809H1781.99H1774.66H1767.32H1759.99H1752.65V88.9961H1745.34V81.6809H1738V74.3463V67.0117V59.677V52.3424V45.0078V37.6732V30.3385V23.0039H1745.34Z" fill="#013AEC"/>
<path d="M1868 52.3418H1860.67V59.6764H1868V52.3418Z" fill="#E51041"/>
<path d="M1882.65 52.3418H1875.34V59.6764H1882.65V52.3418Z" fill="#E51041"/>
<path d="M1948.67 23.0039H1941.33V15.6692H1934V8.33462H1926.66V1H1919.33H1911.99H1904.66H1897.32H1889.99H1882.65H1875.34V8.33462H1868V15.6692H1860.67V23.0039H1853.33V30.3385H1846V37.6731V45.0077V52.3424V59.677V67.0116V74.3462V81.6809H1853.33V88.9961H1860.67V96.3307H1868V103.665H1875.34V111H1882.65H1889.99H1897.32H1904.66H1911.99H1919.33H1926.66V103.665H1934V96.3307H1941.33V88.9961H1948.67V81.6809H1956V74.3462V67.0116V59.677V52.3424V45.0077V37.6731V30.3385H1948.67V23.0039ZM1853.33 59.677V52.3424H1860.67V45.0077H1868H1875.34H1882.65H1889.99V37.6731H1897.32V30.3385H1904.66V23.0039H1911.99H1919.33V30.3385V37.6731H1911.99V45.0077H1919.33H1926.66H1934V37.6731H1941.33V45.0077V52.3424V59.677H1934V67.0116H1926.66H1919.33H1911.99V74.3462H1919.33V81.6809V88.9961H1911.99H1904.66V81.6809H1897.32V74.3462H1889.99V67.0116H1882.65H1875.34H1868H1860.67H1853.33V59.677V59.677Z" fill="#E51041"/>
<path d="M1415.67 23.0039H1408.33V15.6693H1401V8.33463H1393.66V1H1386.33H1378.99H1371.66H1364.32H1356.99H1349.65H1342.34V8.33463H1335V15.6693H1327.67V23.0039H1320.33V30.3385H1313V37.6732V45.0078V52.3424V59.677V67.0117V74.3463V81.6809H1320.33V88.9961H1327.67V96.3307H1335V103.665H1342.34V111H1349.65H1356.99H1364.32H1371.66H1378.99H1386.33H1393.66V103.665H1401V96.3307H1408.33V88.9961H1415.67V81.6809H1423V74.3463V67.0117V59.677V52.3424V45.0078V37.6732V30.3385H1415.67V23.0039ZM1393.66 88.9961H1386.33V81.6809H1378.99V74.3463H1371.66H1364.32H1356.99H1349.65H1342.34H1335V67.0117H1342.34H1349.65H1356.99H1364.32H1371.66H1378.99H1386.33V74.3463H1393.66V81.6809V88.9961ZM1327.67 52.3424H1335H1342.34H1349.65H1356.99H1364.32H1371.66H1378.99H1386.33H1393.66H1401V59.677H1393.66H1386.33H1378.99H1371.66H1364.32H1356.99H1349.65H1342.34H1335H1327.67V52.3424ZM1342.34 37.6732H1349.65H1356.99H1364.32H1371.66H1378.99V30.3385H1386.33V23.0039H1393.66V30.3385V37.6732H1386.33V45.0078H1378.99H1371.66H1364.32H1356.99H1349.65H1342.34H1335V37.6732H1342.34Z" fill="#6FCBF5"/>
<path d="M1241.66 37.6729H1234.32V45.0075H1226.99V52.3421H1234.32V59.6768H1241.66V52.3421H1248.99V45.0075H1241.66V37.6729Z" fill="#FFD200"/>
<path d="M1285.67 23.0039H1278.33V15.6692H1271V8.33462H1263.66V1H1256.33H1248.99H1241.66H1234.32H1226.99H1219.65H1212.34V8.33462H1205V15.6692H1197.67V23.0039H1190.33V30.3385H1183V37.6731V45.0078V52.3424V59.677V67.0116V74.3463V81.6809H1190.33V88.9961H1197.67V96.3307H1205V103.665H1212.34V111H1219.65H1226.99H1234.32H1241.66H1248.99H1256.33H1263.66V103.665H1271V96.3307H1278.33V88.9961H1285.67V81.6809H1293V74.3463V67.0116V59.677V52.3424V45.0078V37.6731V30.3385H1285.67V23.0039ZM1271 37.6731V45.0078V52.3424V59.677H1263.66V67.0116V74.3463H1256.33V81.6809H1248.99V88.9961H1241.66V96.3307H1234.32V88.9961H1226.99V81.6809H1219.65V74.3463H1212.34V67.0116V59.677H1205V52.3424V45.0078V37.6731V30.3385H1212.34V23.0039H1219.65V15.6692H1226.99H1234.32H1241.66H1248.99H1256.33V23.0039H1263.66V30.3385H1271V37.6731Z" fill="#FFD200"/>
</g>
<defs>
<clipPath id="clip0_372_505">
<rect width="834" height="110" fill="white" transform="translate(1053 1)"/>
</clipPath>
</defs>
</svg>
