<svg width="1890" height="110" viewBox="0 0 1890 110" fill="none" xmlns="http://www.w3.org/2000/svg">
<g clip-path="url(#clip0_372_478)">
<path d="M1606.85 58.9155V51.5169V44.1183V36.7197H1599.51H1592.17V44.1183V51.5169V58.9155V66.3141V73.7126H1599.51H1606.85V66.3141V58.9155Z" fill="#013AEC"/>
<path d="M1548.11 58.916V66.3146V73.7132H1555.45H1562.79V66.3146V58.916H1555.45H1548.11Z" fill="#013AEC"/>
<path d="M1562.79 36.7197H1555.45H1548.11V44.1183V51.5169H1555.45H1562.79V44.1183V36.7197Z" fill="#013AEC"/>
<path d="M1694.72 29.3594V22.0196H1687.45V14.6993H1680.16V7.35942H1672.88V7.33986C1672.9 7.33986 1672.92 7.33986 1672.94 7.33986V0C1665.89 0 1577.24 0 1474.44 0V7.33986H1467.33V14.6797H1460.22V22H1453.11V29.3398H1446C1446 46.1139 1446 63.8861 1446 80.6797H1453.11V87.9804H1460.22V95.3203H1467.33V102.66H1474.44V110C1577.24 110 1665.89 110 1672.94 110V102.68H1680.16V95.3398H1687.45V88H1694.72V80.6993H1702C1702 63.9057 1702 46.1335 1702 29.3594H1694.72ZM1636.22 14.5231H1643.57H1650.91V21.9217H1643.57H1636.22V14.5231ZM1526.08 36.7189H1518.73H1511.39V44.1174V51.516V58.9146V66.3132V73.7118V81.1103H1504.05V73.7118V66.3132V58.9146V51.516V44.1174V36.7189H1496.7H1489.36V29.3203H1496.7H1504.05H1511.39H1518.73H1526.08V36.7189ZM1570.13 44.1174V51.516H1562.79V58.9146H1570.13V66.3132V73.7118V81.1103H1562.79H1555.45H1548.1H1540.76V73.7118V66.3132V58.9146V51.516V44.1174V36.7189V29.3203H1548.1H1555.45H1562.79V36.7189H1570.13V44.1174ZM1614.19 44.1174V51.516V58.9146V66.3132V73.7118H1606.85V81.1103H1599.51H1592.16V73.7118H1584.82V66.3132V58.9146V51.516V44.1174V36.7189H1592.16V29.3203H1599.51H1606.85V36.7189H1614.19V44.1174ZM1658.25 36.7189V44.1174V51.516V58.9146V66.3132V73.7118V81.1103H1650.91V73.7118V66.3132V58.9146H1643.57V66.3132H1636.22V73.7118V81.1103H1628.88V73.7118V66.3132V58.9146V51.516V44.1174V36.7189V29.3203H1636.22V36.7189V44.1174V51.516V58.9146H1643.57V51.516H1650.91V44.1174V36.7189V29.3203H1658.25V36.7189Z" fill="#013AEC"/>
<path d="M1229.99 73.347H1237.32H1244.66H1251.99V66.0124H1259.33V58.6777H1251.99H1244.66H1237.32H1229.99V66.0124H1222.66V73.347H1229.99Z" fill="#013AEC"/>
<path d="M1251.99 51.3454H1259.32V44.0107V36.6761V29.3415V22.0068H1251.99H1244.66H1237.32V29.3415V36.6761V44.0107V51.3454H1244.66H1251.99Z" fill="#013AEC"/>
<path d="M1288.67 22.0039H1281.33V14.6693H1274V7.33463H1266.66V0H1259.33H1251.99H1244.66H1237.32H1229.99H1222.65H1215.34V7.33463H1208V14.6693H1200.67V22.0039H1193.33V29.3385H1186V36.6731V44.0078V51.3424V58.677V66.0116V73.3463V80.6809H1193.33V87.9961H1200.67V95.3307H1208V102.665H1215.34V110H1222.65H1229.99H1237.32H1244.66H1251.99H1259.33H1266.66V102.665H1274V95.3307H1281.33V87.9961H1288.67V80.6809H1296V73.3463V66.0116V58.677V51.3424V44.0078V36.6731V29.3385H1288.67V22.0039V22.0039ZM1215.34 87.9961V80.6809V73.3463V66.0116H1222.65V58.677H1229.99V51.3424V44.0078V36.6731V29.3385V22.0039V14.6693H1237.32H1244.66H1251.99H1259.33H1266.66V22.0039V29.3385V36.6731V44.0078V51.3424V58.677V66.0116V73.3463V80.6809V87.9961H1259.33V80.6809V73.3463H1251.99V80.6809V87.9961V95.3307H1244.66V87.9961V80.6809H1237.32H1229.99H1222.65V87.9961V95.3307H1215.34V87.9961V87.9961Z" fill="#013AEC"/>
<path d="M1729.33 87.9961H1736.67V95.3308H1744V102.665H1751.34V110H1758.65H1765.99H1773.32H1780.66H1787.99H1795.33H1802.66V102.665H1810V95.3308H1817.33V87.9961H1824.67V80.6809H1832V73.3463V66.0116V58.677V51.3424V44.0078V36.6731V29.3385H1824.67V22.0039H1817.33V14.6693H1810V7.33463H1802.66V0H1795.33H1787.99H1780.66H1773.32H1765.99H1758.65H1751.34V7.33463H1744V14.6693H1736.67V22.0039H1729.33V29.3385H1722V36.6731V44.0078V51.3424V58.677V66.0116V73.3463V80.6809H1729.33V87.9961ZM1802.66 87.9961H1795.33H1787.99H1780.66H1773.32V80.6809V73.3463V66.0116H1765.99H1758.65V73.3463V80.6809V87.9961H1751.34V80.6809V73.3463V66.0116V58.677H1744V51.3424H1751.34V44.0078H1758.65V36.6731H1765.99V29.3385H1773.32V22.0039H1780.66V29.3385H1787.99V36.6731H1795.33V44.0078H1802.66V51.3424H1810V58.677H1802.66V66.0116V73.3463V80.6809V87.9961Z" fill="#013AEC"/>
<path d="M1808.16 66.0117V73.3464V80.681H1815.49H1822.83V73.3464V66.0117H1815.49H1808.16Z" fill="#013AEC"/>
<path d="M1352.65 73.3451H1359.98H1367.32H1374.65H1381.99H1389.32H1396.66H1403.99V66.0104V58.6758V51.3412V44.0065V36.6719H1396.66H1389.32H1381.99H1374.65H1367.32H1359.98H1352.65H1345.33H1338V44.0065V51.3412V58.6758V66.0104V73.3451H1345.33H1352.65ZM1374.65 58.6758H1367.32V51.3412H1374.65V58.6758ZM1396.66 58.6758H1389.32V51.3412H1396.66V58.6758ZM1345.33 51.3412H1352.65V58.6758H1345.33V51.3412V51.3412Z" fill="#6FCBF5"/>
<path d="M1418.67 29.3385V22.0039H1411.33V14.6693H1404V7.33464H1396.66V0H1389.33H1381.99H1374.66H1367.32H1359.99H1352.65H1345.34V7.33464H1338V14.6693H1330.67V22.0039H1323.33V29.3385H1316V36.6731V44.0078V51.3424V58.677V66.0116V73.3463V80.6809H1323.33V87.9961H1330.67V95.3307H1338V102.665H1345.34V110H1352.65H1359.99H1367.32H1374.66H1381.99H1389.33H1396.66V102.665H1404V95.3307H1411.33V87.9961H1418.67V80.6809H1426V73.3463V66.0116V58.677V51.3424V44.0078V36.6731V29.3385H1418.67ZM1352.65 102.665V95.3307V87.9961V80.6809H1345.34H1338V73.3463H1330.67V66.0116V58.677V51.3424V44.0078V36.6731H1338V29.3385H1345.34H1352.65H1359.99H1367.32H1374.66H1381.99H1389.33H1396.66H1404V36.6731H1411.33V44.0078V51.3424V58.677V66.0116V73.3463H1404V80.6809H1396.66H1389.33H1381.99H1374.66V87.9961H1367.32V95.3307H1359.99V102.665H1352.65V102.665Z" fill="#6FCBF5"/>
<path d="M1954.67 22.0039H1947.33V14.6692H1940V7.33462H1932.66V0H1925.33H1917.99H1910.66H1903.32H1895.99H1888.65H1881.34V7.33462H1874V14.6692H1866.67V22.0039H1859.33V29.3385H1852V36.6731V44.0078V51.3424V58.677V66.0116V73.3463V80.6809H1859.33V87.9961H1866.67V95.3307H1874V102.665H1881.34V110H1888.65H1895.99H1903.32H1910.66H1917.99H1925.33H1932.66V102.665H1940V95.3307H1947.33V87.9961H1954.67V80.6809H1962V73.3463V66.0116V58.677V51.3424V44.0078V36.6731V29.3385H1954.67V22.0039V22.0039ZM1895.99 87.9961V80.6809H1888.65V73.3463H1881.34V66.0116H1874V58.677V51.3424V44.0078V36.6731H1881.34V29.3385H1888.65H1895.99H1903.32V36.6731H1910.66V29.3385H1917.99H1925.33H1932.66V36.6731H1940V44.0078V51.3424V58.677V66.0116H1932.66V73.3463H1925.33V80.6809H1917.99V87.9961H1910.66V95.3307H1903.32V87.9961H1895.99Z" fill="#E51041"/>
<path d="M1136.66 58.6771V51.3424H1129.33V44.0078H1121.99H1114.66H1107.32H1099.99H1092.65V51.3424H1085.34V58.6771V66.0117V73.3463H1092.65V80.6809H1099.99H1107.32H1114.66H1121.99H1129.33V73.3463H1136.66V66.0117V58.6771ZM1114.66 73.3463H1107.32H1099.99V66.0117V58.6771V51.3424H1107.32H1114.66H1121.99V58.6771V66.0117V73.3463H1114.66Z" fill="#6FCBF5"/>
<path d="M1158.67 29.3385V22.0039H1151.33V14.6692H1144V7.33462H1136.66V0H1129.33H1121.99H1114.66H1107.32H1099.99H1092.65H1085.34V7.33462H1078V14.6692H1070.67V22.0039H1063.33V29.3385H1056V36.6731V44.0078V51.3424V58.677V66.0116V73.3463V80.6809H1063.33V87.9961H1070.67V95.3307H1078V102.665H1085.34V110H1092.65H1099.99H1107.32H1114.66H1121.99H1129.33H1136.66V102.665H1144V95.3307H1151.33V87.9961H1158.67V80.6809H1166V73.3463V66.0116V58.677V51.3424V44.0078V36.6731V29.3385H1158.67ZM1136.66 73.3463V80.6809H1129.33V87.9961H1121.99H1114.66H1107.32H1099.99H1092.65V80.6809H1085.34V73.3463H1078V66.0116V58.677V51.3424H1085.34V44.0078H1078V36.6731H1085.34V44.0078H1092.65V36.6731V29.3385H1099.99V36.6731H1107.32V29.3385H1114.66V36.6731H1121.99V29.3385H1129.33V36.6731V44.0078H1136.66V36.6731H1144V44.0078H1136.66V51.3424H1144V58.677V66.0116V73.3463H1136.66Z" fill="#6FCBF5"/>
</g>
<path d="M550.852 58.9155V51.5169V44.1183V36.7197H543.508H536.165V44.1183V51.5169V58.9155V66.3141V73.7126H543.508H550.852V66.3141V58.9155Z" fill="#013AEC"/>
<path d="M492.106 58.916V66.3146V73.7132H499.45H506.793V66.3146V58.916H499.45H492.106Z" fill="#013AEC"/>
<path d="M506.793 36.7197H499.45H492.106V44.1183V51.5169H499.45H506.793V44.1183V36.7197Z" fill="#013AEC"/>
<path d="M638.715 29.3594V22.0196H631.45V14.6993H624.165V7.35942H616.88V7.33986C616.899 7.33986 616.919 7.33986 616.938 7.33986V0C609.886 0 521.244 0 418.44 0V7.33986H411.33V14.6797H404.22V22H397.11V29.3398H390C390 46.1139 390 63.8861 390 80.6797H397.11V87.9804H404.22V95.3203H411.33V102.66H418.44V110C521.244 110 609.886 110 616.938 110V102.68H624.165V95.3398H631.45V88H638.715V80.6993H646C646 63.9057 646 46.1335 646 29.3594H638.715ZM580.223 14.5231H587.566H594.909V21.9217H587.566H580.223V14.5231ZM470.075 36.7189H462.732H455.389V44.1174V51.516V58.9146V66.3132V73.7118V81.1103H448.046V73.7118V66.3132V58.9146V51.516V44.1174V36.7189H440.703H433.36V29.3203H440.703H448.046H455.389H462.732H470.075V36.7189ZM514.134 44.1174V51.516H506.791V58.9146H514.134V66.3132V73.7118V81.1103H506.791H499.448H492.105H484.762V73.7118V66.3132V58.9146V51.516V44.1174V36.7189V29.3203H492.105H499.448H506.791V36.7189H514.134V44.1174ZM558.193 44.1174V51.516V58.9146V66.3132V73.7118H550.85V81.1103H543.507H536.164V73.7118H528.82V66.3132V58.9146V51.516V44.1174V36.7189H536.164V29.3203H543.507H550.85V36.7189H558.193V44.1174ZM602.252 36.7189V44.1174V51.516V58.9146V66.3132V73.7118V81.1103H594.909V73.7118V66.3132V58.9146H587.566V66.3132H580.223V73.7118V81.1103H572.879V73.7118V66.3132V58.9146V51.516V44.1174V36.7189V29.3203H580.223V36.7189V44.1174V51.516V58.9146H587.566V51.516H594.909V44.1174V36.7189V29.3203H602.252V36.7189Z" fill="#013AEC"/>
<path d="M173.99 73.347H181.325H188.659H195.994V66.0124H203.328V58.6777H195.994H188.659H181.325H173.99V66.0124H166.655V73.347H173.99Z" fill="#013AEC"/>
<path d="M195.99 51.3454H203.325V44.0107V36.6761V29.3415V22.0068H195.99H188.655H181.321V29.3415V36.6761V44.0107V51.3454H188.655H195.99Z" fill="#013AEC"/>
<path d="M232.665 22.0039H225.331V14.6693H217.996V7.33463H210.661V0H203.327H195.992H188.658H181.323H173.988H166.654H159.339V7.33463H152.004V14.6693H144.669V22.0039H137.335V29.3385H130V36.6731V44.0078V51.3424V58.677V66.0116V73.3463V80.6809H137.335V87.9961H144.669V95.3307H152.004V102.665H159.339V110H166.654H173.988H181.323H188.658H195.992H203.327H210.661V102.665H217.996V95.3307H225.331V87.9961H232.665V80.6809H240V73.3463V66.0116V58.677V51.3424V44.0078V36.6731V29.3385H232.665V22.0039V22.0039ZM159.339 87.9961V80.6809V73.3463V66.0116H166.654V58.677H173.988V51.3424V44.0078V36.6731V29.3385V22.0039V14.6693H181.323H188.658H195.992H203.327H210.661V22.0039V29.3385V36.6731V44.0078V51.3424V58.677V66.0116V73.3463V80.6809V87.9961H203.327V80.6809V73.3463H195.992V80.6809V87.9961V95.3307H188.658V87.9961V80.6809H181.323H173.988H166.654V87.9961V95.3307H159.339V87.9961V87.9961Z" fill="#013AEC"/>
<path d="M673.335 87.9961H680.669V95.3308H688.004V102.665H695.339V110H702.654H709.988H717.323H724.658H731.992H739.327H746.661V102.665H753.996V95.3308H761.331V87.9961H768.665V80.6809H776V73.3463V66.0116V58.677V51.3424V44.0078V36.6731V29.3385H768.665V22.0039H761.331V14.6693H753.996V7.33463H746.661V0H739.327H731.992H724.658H717.323H709.988H702.654H695.339V7.33463H688.004V14.6693H680.669V22.0039H673.335V29.3385H666V36.6731V44.0078V51.3424V58.677V66.0116V73.3463V80.6809H673.335V87.9961ZM746.661 87.9961H739.327H731.992H724.658H717.323V80.6809V73.3463V66.0116H709.988H702.654V73.3463V80.6809V87.9961H695.339V80.6809V73.3463V66.0116V58.677H688.004V51.3424H695.339V44.0078H702.654V36.6731H709.988V29.3385H717.323V22.0039H724.658V29.3385H731.992V36.6731H739.327V44.0078H746.661V51.3424H753.996V58.677H746.661V66.0116V73.3463V80.6809V87.9961Z" fill="#013AEC"/>
<path d="M752.156 66.0117V73.3464V80.681H759.49H766.825V73.3464V66.0117H759.49H752.156Z" fill="#013AEC"/>
<path d="M296.649 73.3451H303.984H311.319H318.653H325.988H333.323H340.657H347.992V66.0104V58.6758V51.3412V44.0065V36.6719H340.657H333.323H325.988H318.653H311.319H303.984H296.649H289.334H282V44.0065V51.3412V58.6758V66.0104V73.3451H289.334H296.649ZM318.653 58.6758H311.319V51.3412H318.653V58.6758ZM340.657 58.6758H333.323V51.3412H340.657V58.6758ZM289.334 51.3412H296.649V58.6758H289.334V51.3412V51.3412Z" fill="#6FCBF5"/>
<path d="M362.665 29.3385V22.0039H355.331V14.6693H347.996V7.33464H340.661V0H333.327H325.992H318.658H311.323H303.988H296.654H289.339V7.33464H282.004V14.6693H274.669V22.0039H267.335V29.3385H260V36.6731V44.0078V51.3424V58.677V66.0116V73.3463V80.6809H267.335V87.9961H274.669V95.3307H282.004V102.665H289.339V110H296.654H303.988H311.323H318.658H325.992H333.327H340.661V102.665H347.996V95.3307H355.331V87.9961H362.665V80.6809H370V73.3463V66.0116V58.677V51.3424V44.0078V36.6731V29.3385H362.665ZM296.654 102.665V95.3307V87.9961V80.6809H289.339H282.004V73.3463H274.669V66.0116V58.677V51.3424V44.0078V36.6731H282.004V29.3385H289.339H296.654H303.988H311.323H318.658H325.992H333.327H340.661H347.996V36.6731H355.331V44.0078V51.3424V58.677V66.0116V73.3463H347.996V80.6809H340.661H333.327H325.992H318.658V87.9961H311.323V95.3307H303.988V102.665H296.654V102.665Z" fill="#6FCBF5"/>
<path d="M898.665 22.0039H891.331V14.6692H883.996V7.33462H876.661V0H869.327H861.992H854.658H847.323H839.988H832.654H825.339V7.33462H818.004V14.6692H810.669V22.0039H803.335V29.3385H796V36.6731V44.0078V51.3424V58.677V66.0116V73.3463V80.6809H803.335V87.9961H810.669V95.3307H818.004V102.665H825.339V110H832.654H839.988H847.323H854.658H861.992H869.327H876.661V102.665H883.996V95.3307H891.331V87.9961H898.665V80.6809H906V73.3463V66.0116V58.677V51.3424V44.0078V36.6731V29.3385H898.665V22.0039V22.0039ZM839.988 87.9961V80.6809H832.654V73.3463H825.339V66.0116H818.004V58.677V51.3424V44.0078V36.6731H825.339V29.3385H832.654H839.988H847.323V36.6731H854.658V29.3385H861.992H869.327H876.661V36.6731H883.996V44.0078V51.3424V58.677V66.0116H876.661V73.3463H869.327V80.6809H861.992V87.9961H854.658V95.3307H847.323V87.9961H839.988Z" fill="#E51041"/>
<path d="M80.6618 58.6771V51.3424H73.3272V44.0078H65.9926H58.6579H51.3233H43.9887H36.6541V51.3424H29.3389V58.6771V66.0117V73.3463H36.6541V80.6809H43.9887H51.3233H58.6579H65.9926H73.3272V73.3463H80.6618V66.0117V58.6771ZM58.6579 73.3463H51.3233H43.9887V66.0117V58.6771V51.3424H51.3233H58.6579H65.9926V58.6771V66.0117V73.3463H58.6579Z" fill="#6FCBF5"/>
<path d="M102.665 29.3385V22.0039H95.3308V14.6692H87.9961V7.33462H80.6615V0H73.3268H65.9922H58.6576H51.323H43.9883H36.6537H29.3385V7.33462H22.0039V14.6692H14.6693V22.0039H7.33465V29.3385H0V36.6731V44.0078V51.3424V58.677V66.0116V73.3463V80.6809H7.33465V87.9961H14.6693V95.3307H22.0039V102.665H29.3385V110H36.6537H43.9883H51.323H58.6576H65.9922H73.3268H80.6615V102.665H87.9961V95.3307H95.3308V87.9961H102.665V80.6809H110V73.3463V66.0116V58.677V51.3424V44.0078V36.6731V29.3385H102.665ZM80.6615 73.3463V80.6809H73.3268V87.9961H65.9922H58.6576H51.323H43.9883H36.6537V80.6809H29.3385V73.3463H22.0039V66.0116V58.677V51.3424H29.3385V44.0078H22.0039V36.6731H29.3385V44.0078H36.6537V36.6731V29.3385H43.9883V36.6731H51.323V29.3385H58.6576V36.6731H65.9922V29.3385H73.3268V36.6731V44.0078H80.6615V36.6731H87.9961V44.0078H80.6615V51.3424H87.9961V58.677V66.0116V73.3463H80.6615Z" fill="#6FCBF5"/>
<path d="M962.667 66.0107H955.338V73.3379H962.667V66.0107Z" fill="#FFD200"/>
<path d="M970.021 73.3369H962.679V80.6641H970.021V73.3369Z" fill="#FFD200"/>
<path d="M962.679 66.0109H970.007V73.3381H977.348H984.677V66.0109H992.018V58.6705H999.346V51.3433H992.018V44.003H984.677V36.6758H977.348V44.003H970.007V51.3433H962.679V58.6705V66.0109Z" fill="#FFD200"/>
<path d="M992.018 36.6763V44.0035H999.346V51.3438H1006.69V44.0035V36.6763H999.346V29.3359H992.018H984.677V36.6763H992.018Z" fill="#FFD200"/>
<path d="M1028.67 29.3351V22.0079H1021.36V14.6675H1014.03V7.34035H1006.69V0H999.36H992.018H984.69H977.349H970.021H962.68H955.352V7.34035H948.011V14.6675H940.669V22.0079H933.341V29.3351H926V36.6754V44.0026V51.3298V58.6702V66.0105V73.3377V80.6649H933.341V88.0053H940.669V95.3325H948.011V102.673H955.352V110H962.68H970.021H977.349H984.69H992.018H999.36H1006.69V102.673H1014.03V95.3325H1021.36V88.0053H1028.67V80.6649H1036V73.3377V66.0105V58.6702V51.3298V44.0026V36.6754V29.3351H1028.67V29.3351ZM948.011 80.6781V73.3509V66.0237V58.6833H955.352V51.343H962.68V44.0158H970.021V36.6886H977.349V29.3482H984.69V22.021H992.018H999.36V29.3482H1006.69V36.6886H1014.03V44.0158V51.343H1006.69V58.6833H999.36V66.0237H992.018V73.3509H984.69V80.6781H977.349V88.0184H970.021H962.68H955.352H948.011V80.6781Z" fill="#FFD200"/>
<defs>
<clipPath id="clip0_372_478">
<rect width="834" height="110" fill="white" transform="translate(1056)"/>
</clipPath>
</defs>
</svg>
