<svg width="1846" height="110" viewBox="0 0 1846 110" fill="none" xmlns="http://www.w3.org/2000/svg">
<g clip-path="url(#clip0_371_430)">
<path d="M1866.67 22.0039H1859.33V14.6692H1852V7.33462H1844.66V0H1837.33H1829.99H1822.66H1815.32H1807.99H1800.65H1793.34V7.33462H1786V14.6692H1778.67V22.0039H1771.33V29.3385H1764V36.6731V44.0077V51.3424V58.677V66.0116V73.3462V80.6809H1771.33V87.9961H1778.67V95.3307H1786V102.665H1793.34V110H1800.65H1807.99H1815.32H1822.66H1829.99H1837.33H1844.66V102.665H1852V95.3307H1859.33V87.9961H1866.67V80.6809H1874V73.3462V66.0116V58.677V51.3424V44.0077V36.6731V29.3385H1866.67V22.0039V22.0039ZM1837.33 80.6809H1829.99H1822.66V87.9961V95.3307H1815.32V87.9961V80.6809H1807.99H1800.65H1793.34V73.3462H1800.65V66.0116H1807.99V58.677H1800.65H1793.34V51.3424H1800.65V44.0077H1807.99V36.6731H1800.65V29.3385H1807.99V22.0039H1815.32V14.6692H1822.66V22.0039H1829.99V29.3385H1837.33V36.6731H1829.99V44.0077H1837.33V51.3424H1844.66V58.677H1837.33H1829.99V66.0116H1837.33V73.3462H1844.66V80.6809H1837.33Z" fill="#398B67"/>
<path d="M1736.67 22.0039H1729.33V14.6692H1722V7.33462H1714.66V0H1707.33H1699.99H1692.66H1685.32H1677.99H1670.65H1663.34V7.33462H1656V14.6692H1648.67V22.0039H1641.33V29.3385H1634V36.6732V44.0077V51.3424V58.677V66.0117V73.3462V80.6809H1641.33V87.9962H1648.67V95.3307H1656V102.665H1663.34V110H1670.65H1677.99H1685.32H1692.66H1699.99H1707.33H1714.66V102.665H1722V95.3307H1729.33V87.9962H1736.67V80.6809H1744V73.3462V66.0117V58.677V51.3424V44.0077V36.6732V29.3385H1736.67V22.0039ZM1685.32 102.665V95.3307V87.9962H1677.99V80.6809H1670.65V73.3462H1677.99V80.6809H1685.32V73.3462V66.0117V58.677V51.3424H1677.99H1670.65V44.0077H1663.34V36.6732H1670.65V29.3385V22.0039H1677.99H1685.32H1692.66H1699.99V29.3385H1707.33V36.6732V44.0077H1699.99V51.3424H1692.66V58.677V66.0117V73.3462H1699.99V66.0117H1707.33V73.3462H1699.99V80.6809H1692.66V87.9962V95.3307V102.665H1685.32Z" fill="#E51041"/>
<path d="M1244.67 22.0039H1237.33V14.6692H1230V7.33462H1222.66V0H1215.33H1207.99H1200.66H1193.32H1185.99H1178.65H1171.34V7.33462H1164V14.6692H1156.67V22.0039H1149.33V29.3385H1142V36.6731V44.0077V51.3424V58.677V66.0116V73.3462V80.6809H1149.33V87.9961H1156.67V95.3307H1164V102.665H1171.34V110H1178.65H1185.99H1193.32H1200.66H1207.99H1215.33H1222.66V102.665H1230V95.3307H1237.33V87.9961H1244.67V80.6809H1252V73.3462V66.0116V58.677V51.3424V44.0077V36.6731V29.3385H1244.67V22.0039ZM1178.65 87.9961V80.6809H1185.99V87.9961H1193.32V80.6809V73.3462V66.0116V58.677V51.3424H1185.99H1178.65H1171.34V58.677H1164V51.3424V44.0077V36.6731H1171.34V29.3385H1178.65V22.0039H1185.99H1193.32V14.6692H1200.66V22.0039H1207.99H1215.33V29.3385H1222.66V36.6731H1230V44.0077V51.3424V58.677H1222.66V51.3424H1215.33H1207.99H1200.66V58.677V66.0116V73.3462V80.6809V87.9961V95.3307H1193.32H1185.99H1178.65V87.9961Z" fill="#6FCBF5"/>
<path d="M1070.66 51.3428V44.0081V36.6735H1063.32V29.3389H1055.99H1048.65V36.6735H1041.34V44.0081V51.3428H1048.65V58.6774H1055.99H1063.32V51.3428H1070.66Z" fill="#013AEC"/>
<path d="M1114.67 22.0039H1107.33V14.6693H1100V7.33463H1092.66V0H1085.33H1077.99H1070.66H1063.32H1055.99H1048.65H1041.34V7.33463H1034V14.6693H1026.67V22.0039H1019.33V29.3385H1012V36.6731V44.0078V51.3424V58.677V66.0116V73.3463V80.6809H1019.33V87.9961H1026.67V95.3308H1034V102.665H1041.34V110H1048.65H1055.99H1063.32H1070.66H1077.99H1085.33H1092.66V102.665H1100V95.3308H1107.33V87.9961H1114.67V80.6809H1122V73.3463V66.0116V58.677V51.3424V44.0078V36.6731V29.3385H1114.67V22.0039V22.0039ZM1092.66 87.9961V80.6809H1085.33V73.3463H1077.99V66.0116H1070.66V58.677H1063.32V66.0116H1055.99H1048.65V58.677H1041.34V51.3424H1034V44.0078V36.6731H1041.34V29.3385H1048.65V22.0039H1055.99H1063.32V29.3385H1070.66V36.6731H1077.99V44.0078V51.3424H1070.66V58.677H1077.99V66.0116H1085.33V73.3463H1092.66V80.6809H1100V87.9961H1092.66V87.9961Z" fill="#013AEC"/>
<path d="M1453.67 58.9453V66.3452V73.7451H1460.97H1468.28V66.3452V58.9453H1460.97H1453.67Z" fill="#013AEC"/>
<path d="M1366 36.7441V44.144V51.5439H1373.31H1380.61V44.144V36.7441H1373.31H1366Z" fill="#013AEC"/>
<path d="M1468.28 36.7441H1460.97H1453.67V44.144V51.5439H1460.97H1468.28V44.144V36.7441Z" fill="#013AEC"/>
<path d="M1606.77 29.3451V22.0039H1599.52V14.6628H1592.28V7.34116H1585.05V7.32159V0C1578.03 0 1402.57 0 1300.31 0V7.32159H1293.24V14.6628H1286.15V22.0039H1279.07V29.3255H1272C1272 46.1221 1272 63.8975 1272 80.6745H1279.07V87.9961H1286.15V95.3373H1293.24V102.659H1300.31V110C1402.57 110 1578.03 110 1585.05 110V102.678H1592.28V95.3373H1599.52V87.9961H1606.77V80.6941H1614C1614 63.8975 1614 46.1221 1614 29.3451H1606.77V29.3451ZM1344.09 36.745V44.1449V51.5448V58.9447V66.3445V73.7444V81.1443H1336.78V73.7444V66.3445V58.9447V51.5448V44.1449V36.745H1329.48H1322.17V44.1449V51.5448V58.9447V66.3445V73.7444V81.1443H1314.87V73.7444V66.3445V58.9447V51.5448V44.1449V36.745V29.3451H1322.17H1329.48H1336.78H1344.09V36.745ZM1387.92 36.745V44.1449V51.5448V58.9447H1380.61H1373.31H1366V66.3445V73.7444V81.1443H1358.7V73.7444V66.3445V58.9447V51.5448V44.1449V36.745V29.3451H1366H1373.31H1380.61H1387.92V36.745V36.745ZM1431.75 36.745V44.1449V51.5448V58.9447V66.3445V73.7444V81.1443H1424.45V73.7444V66.3445V58.9447H1417.14V66.3445H1409.84V73.7444V81.1443H1402.53V73.7444V66.3445V58.9447V51.5448V44.1449V36.745V29.3451H1409.84V36.745V44.1449V51.5448V58.9447H1417.14V51.5448H1424.45V44.1449V36.745V29.3451H1431.75V36.745ZM1475.58 44.1449V51.5448H1468.28V58.9447H1475.58V66.3445V73.7444V81.1443H1468.28H1460.97H1453.67H1446.36V73.7444V66.3445V58.9447V51.5448V44.1449V36.745V29.3451H1453.67H1460.97H1468.28V36.745H1475.58V44.1449ZM1519.42 36.745H1512.11H1504.81H1497.5V44.1449V51.5448H1504.81H1512.11V58.9447H1504.81H1497.5V66.3445V73.7444H1504.81H1512.11H1519.42V81.1443H1512.11H1504.81H1497.5H1490.2V73.7444V66.3445V58.9447V51.5448V44.1449V36.745V29.3451H1497.5H1504.81H1512.11H1519.42V36.745ZM1570.55 36.745H1563.25H1555.94V44.1449V51.5448V58.9447V66.3445V73.7444V81.1443H1548.64V73.7444V66.3445V58.9447V51.5448V44.1449V36.745H1541.33H1534.03V29.3451H1541.33H1548.64H1555.94H1563.25H1570.55V36.745Z" fill="#013AEC"/>
</g>
<g clip-path="url(#clip1_371_430)">
<path d="M933.323 80.6813V73.3466V66.0121V58.6774V51.3428V44.0081V36.6736H925.988V29.3389H918.654H911.339H904.004V36.6736V44.0081V51.3428V58.6774V66.0121V73.3466V80.6813H911.339H918.654H925.988V87.9966H933.323V80.6813Z" fill="#013AEC"/>
<path d="M969.996 66.0121V58.6774V51.3428V44.0081V36.6736V29.3389H962.662H955.327H947.992V36.6736H940.658V44.0081V51.3428V58.6774V66.0121V73.3466V80.6813V87.9966H947.992V80.6813H955.327H962.662H969.996V73.3466V66.0121Z" fill="#013AEC"/>
<path d="M984.665 22.0039H977.331V14.6692H969.996V7.33462H962.662V0H955.327H947.992H940.658H933.323H925.988H918.654H911.339V7.33462H904.004V14.6692H896.669V22.0039H889.335V29.3385H882V36.6732V44.0077V51.3424V58.677V66.0117V73.3462V80.6809H889.335V87.9962H896.669V95.3307H904.004V102.665H911.339V110H918.654H925.988H933.323H940.658H947.992H955.327H962.662V102.665H969.996V95.3307H977.331V87.9962H984.665V80.6809H992V73.3462V66.0117V58.677V51.3424V44.0077V36.6732V29.3385H984.665V22.0039V22.0039ZM977.331 36.6732V44.0077V51.3424V58.677V66.0117V73.3462V80.6809H969.996V87.9962H962.662H955.327H947.992V95.3307H940.658H933.323H925.988V87.9962H918.654H911.339H904.004V80.6809H896.669V73.3462V66.0117V58.677V51.3424V44.0077V36.6732V29.3385H904.004V22.0039H911.339H918.654H925.988V29.3385H933.323H940.658H947.992V22.0039H955.327H962.662H969.996V29.3385H977.331V36.6732V36.6732Z" fill="#013AEC"/>
<path d="M854.665 22.0039H847.331V14.6692H839.996V7.33462H832.661V0H825.327H817.992H810.658H803.323H795.988H788.654H781.339V7.33462H774.004V14.6692H766.669V22.0039H759.335V29.3385H752V36.6731V44.0077V51.3424V58.677V66.0116V73.3462V80.6809H759.335V87.9961H766.669V95.3307H774.004V102.665H781.339V110H788.654H795.988H803.323H810.658H817.992H825.327H832.661V102.665H839.996V95.3307H847.331V87.9961H854.665V80.6809H862V73.3462V66.0116V58.677V51.3424V44.0077V36.6731V29.3385H854.665V22.0039V22.0039ZM825.327 80.6809H817.992H810.658V87.9961V95.3307H803.323V87.9961V80.6809H795.988H788.654H781.339V73.3462H788.654V66.0116H795.988V58.677H788.654H781.339V51.3424H788.654V44.0077H795.988V36.6731H788.654V29.3385H795.988V22.0039H803.323V14.6692H810.658V22.0039H817.992V29.3385H825.327V36.6731H817.992V44.0077H825.327V51.3424H832.661V58.677H825.327H817.992V66.0116H825.327V73.3462H832.661V80.6809H825.327Z" fill="#398B67"/>
<path d="M724.665 22.0039H717.331V14.6692H709.996V7.33462H702.661V0H695.327H687.992H680.658H673.323H665.988H658.654H651.339V7.33462H644.004V14.6692H636.669V22.0039H629.335V29.3385H622V36.6732V44.0077V51.3424V58.677V66.0117V73.3462V80.6809H629.335V87.9962H636.669V95.3307H644.004V102.665H651.339V110H658.654H665.988H673.323H680.658H687.992H695.327H702.661V102.665H709.996V95.3307H717.331V87.9962H724.665V80.6809H732V73.3462V66.0117V58.677V51.3424V44.0077V36.6732V29.3385H724.665V22.0039ZM673.323 102.665V95.3307V87.9962H665.988V80.6809H658.654V73.3462H665.988V80.6809H673.323V73.3462V66.0117V58.677V51.3424H665.988H658.654V44.0077H651.339V36.6732H658.654V29.3385V22.0039H665.988H673.323H680.658H687.992V29.3385H695.327V36.6732V44.0077H687.992V51.3424H680.658V58.677V66.0117V73.3462H687.992V66.0117H695.327V73.3462H687.992V80.6809H680.658V87.9962V95.3307V102.665H673.323Z" fill="#E51041"/>
<path d="M232.665 22.0039H225.331V14.6692H217.996V7.33462H210.661V0H203.327H195.992H188.658H181.323H173.988H166.654H159.339V7.33462H152.004V14.6692H144.669V22.0039H137.335V29.3385H130V36.6731V44.0077V51.3424V58.677V66.0116V73.3462V80.6809H137.335V87.9961H144.669V95.3307H152.004V102.665H159.339V110H166.654H173.988H181.323H188.658H195.992H203.327H210.661V102.665H217.996V95.3307H225.331V87.9961H232.665V80.6809H240V73.3462V66.0116V58.677V51.3424V44.0077V36.6731V29.3385H232.665V22.0039ZM166.654 87.9961V80.6809H173.988V87.9961H181.323V80.6809V73.3462V66.0116V58.677V51.3424H173.988H166.654H159.339V58.677H152.004V51.3424V44.0077V36.6731H159.339V29.3385H166.654V22.0039H173.988H181.323V14.6692H188.658V22.0039H195.992H203.327V29.3385H210.661V36.6731H217.996V44.0077V51.3424V58.677H210.661V51.3424H203.327H195.992H188.658V58.677V66.0116V73.3462V80.6809V87.9961V95.3307H181.323H173.988H166.654V87.9961Z" fill="#6FCBF5"/>
<path d="M58.658 51.3428V44.0081V36.6735H51.3233V29.3389H43.9887H36.6541V36.6735H29.3389V44.0081V51.3428H36.6541V58.6774H43.9887H51.3233V51.3428H58.658Z" fill="#013AEC"/>
<path d="M102.665 22.0039H95.3308V14.6693H87.9961V7.33463H80.6615V0H73.3269H65.9922H58.6576H51.323H43.9884H36.6537H29.3385V7.33463H22.0039V14.6693H14.6693V22.0039H7.33463V29.3385H0V36.6731V44.0078V51.3424V58.677V66.0116V73.3463V80.6809H7.33463V87.9961H14.6693V95.3308H22.0039V102.665H29.3385V110H36.6537H43.9884H51.323H58.6576H65.9922H73.3269H80.6615V102.665H87.9961V95.3308H95.3308V87.9961H102.665V80.6809H110V73.3463V66.0116V58.677V51.3424V44.0078V36.6731V29.3385H102.665V22.0039V22.0039ZM80.6615 87.9961V80.6809H73.3269V73.3463H65.9922V66.0116H58.6576V58.677H51.323V66.0116H43.9884H36.6537V58.677H29.3385V51.3424H22.0039V44.0078V36.6731H29.3385V29.3385H36.6537V22.0039H43.9884H51.323V29.3385H58.6576V36.6731H65.9922V44.0078V51.3424H58.6576V58.677H65.9922V66.0116H73.3269V73.3463H80.6615V80.6809H87.9961V87.9961H80.6615V87.9961Z" fill="#013AEC"/>
<path d="M441.668 58.9453V66.3452V73.7451H448.973H456.279V66.3452V58.9453H448.973H441.668Z" fill="#013AEC"/>
<path d="M354.003 36.7441V44.144V51.5439H361.308H368.614V44.144V36.7441H361.308H354.003Z" fill="#013AEC"/>
<path d="M456.279 36.7441H448.973H441.668V44.144V51.5439H448.973H456.279V44.144V36.7441Z" fill="#013AEC"/>
<path d="M594.772 29.3451V22.0039H587.525V14.6628H580.277V7.34116H573.049V7.32159V0C566.034 0 390.569 0 288.313 0V7.32159H281.24V14.6628H274.147V22.0039H267.073V29.3255H260C260 46.1221 260 63.8975 260 80.6745H267.073V87.9961H274.147V95.3373H281.24V102.659H288.313V110C390.569 110 566.034 110 573.049 110V102.678H580.277V95.3373H587.525V87.9961H594.772V80.6941H602C602 63.8975 602 46.1221 602 29.3451H594.772V29.3451ZM332.087 36.745V44.1449V51.5448V58.9447V66.3445V73.7444V81.1443H324.782V73.7444V66.3445V58.9447V51.5448V44.1449V36.745H317.477H310.171V44.1449V51.5448V58.9447V66.3445V73.7444V81.1443H302.866V73.7444V66.3445V58.9447V51.5448V44.1449V36.745V29.3451H310.171H317.477H324.782H332.087V36.745ZM375.92 36.745V44.1449V51.5448V58.9447H368.614H361.309H354.004V66.3445V73.7444V81.1443H346.698V73.7444V66.3445V58.9447V51.5448V44.1449V36.745V29.3451H354.004H361.309H368.614H375.92V36.745V36.745ZM419.752 36.745V44.1449V51.5448V58.9447V66.3445V73.7444V81.1443H412.447V73.7444V66.3445V58.9447H405.141V66.3445H397.836V73.7444V81.1443H390.531V73.7444V66.3445V58.9447V51.5448V44.1449V36.745V29.3451H397.836V36.745V44.1449V51.5448V58.9447H405.141V51.5448H412.447V44.1449V36.745V29.3451H419.752V36.745ZM463.584 44.1449V51.5448H456.279V58.9447H463.584V66.3445V73.7444V81.1443H456.279H448.974H441.668H434.363V73.7444V66.3445V58.9447V51.5448V44.1449V36.745V29.3451H441.668H448.974H456.279V36.745H463.584V44.1449ZM507.417 36.745H500.111H492.806H485.5V44.1449V51.5448H492.806H500.111V58.9447H492.806H485.5V66.3445V73.7444H492.806H500.111H507.417V81.1443H500.111H492.806H485.5H478.195V73.7444V66.3445V58.9447V51.5448V44.1449V36.745V29.3451H485.5H492.806H500.111H507.417V36.745ZM558.554 36.745H551.249H543.943V44.1449V51.5448V58.9447V66.3445V73.7444V81.1443H536.638V73.7444V66.3445V58.9447V51.5448V44.1449V36.745H529.333H522.027V29.3451H529.333H536.638H543.943H551.249H558.554V36.745Z" fill="#013AEC"/>
</g>
<defs>
<clipPath id="clip0_371_430">
<rect width="834" height="110" fill="white" transform="translate(1012)"/>
</clipPath>
<clipPath id="clip1_371_430">
<rect width="992" height="110" fill="white"/>
</clipPath>
</defs>
</svg>
