<svg width="1849" height="110" viewBox="0 0 1849 110" fill="none" xmlns="http://www.w3.org/2000/svg">
<g clip-path="url(#clip0_371_451)">
<path d="M1813.99 73.347H1821.32H1828.66H1835.99V66.0124H1843.33V58.6777H1835.99H1828.66H1821.32H1813.99V66.0124H1806.66V73.347H1813.99Z" fill="#013AEC"/>
<path d="M1835.99 51.3454H1843.32V44.0107V36.6761V29.3415V22.0068H1835.99H1828.66H1821.32V29.3415V36.6761V44.0107V51.3454H1828.66H1835.99Z" fill="#013AEC"/>
<path d="M1872.67 22.0039H1865.33V14.6693H1858V7.33463H1850.66V0H1843.33H1835.99H1828.66H1821.32H1813.99H1806.65H1799.34V7.33463H1792V14.6693H1784.67V22.0039H1777.33V29.3385H1770V36.6731V44.0078V51.3424V58.677V66.0116V73.3463V80.6809H1777.33V87.9961H1784.67V95.3307H1792V102.665H1799.34V110H1806.65H1813.99H1821.32H1828.66H1835.99H1843.33H1850.66V102.665H1858V95.3307H1865.33V87.9961H1872.67V80.6809H1880V73.3463V66.0116V58.677V51.3424V44.0078V36.6731V29.3385H1872.67V22.0039V22.0039ZM1799.34 87.9961V80.6809V73.3463V66.0116H1806.65V58.677H1813.99V51.3424V44.0078V36.6731V29.3385V22.0039V14.6693H1821.32H1828.66H1835.99H1843.33H1850.66V22.0039V29.3385V36.6731V44.0078V51.3424V58.677V66.0116V73.3463V80.6809V87.9961H1843.33V80.6809V73.3463H1835.99V80.6809V87.9961V95.3307H1828.66V87.9961V80.6809H1821.32H1813.99H1806.65V87.9961V95.3307H1799.34V87.9961V87.9961Z" fill="#013AEC"/>
<path d="M1437.61 58.9253V51.5254V44.1255V36.7256H1430.19H1422.77V44.1255V51.5254V58.9253V66.3251V73.725H1430.19H1437.61V66.3251V58.9253Z" fill="#013AEC"/>
<path d="M1481.66 29.3451V22.0039H1474.3V14.6627H1466.94V7.34116H1459.59V7.32158V0C1452.46 0 1407.55 0 1303.73 0V7.32158H1296.55V14.6627H1289.36V22.0039H1282.18V29.3255H1275C1275 46.1221 1275 63.8975 1275 80.6745H1282.18V87.9961H1289.36V95.3372H1296.55V102.659H1303.73V110C1407.55 110 1452.46 110 1459.59 110V102.678H1466.94V95.3372H1474.3V87.9961H1481.66V80.6941H1489C1489 63.8975 1489 46.1221 1489 29.3451H1481.66V29.3451ZM1348.6 44.1253V51.5252V58.9251V66.325V73.7249H1341.19V81.1248H1333.77H1326.35H1318.93V73.7249H1326.35H1333.77H1341.19V66.325V58.9251H1333.77H1326.35V51.5252H1333.77H1341.19V44.1253V36.7254H1333.77H1326.35H1318.93V29.3255H1326.35H1333.77H1341.19V36.7254H1348.6V44.1253ZM1400.52 36.7254H1393.11H1385.69V44.1253V51.5252V58.9251V66.325V73.7249V81.1248H1378.27V73.7249V66.325V58.9251V51.5252V44.1253V36.7254H1370.85H1363.44V29.3255H1370.85H1378.27H1385.69H1393.11H1400.52V36.7254ZM1445.03 44.1253V51.5252V58.9251V66.325V73.7249H1437.61V81.1248H1430.19H1422.77V73.7249H1415.36V66.325V58.9251V51.5252V44.1253V36.7254H1422.77V29.3255H1430.19H1437.61V36.7254H1445.03V44.1253Z" fill="#013AEC"/>
<path d="M1203.66 51.3428H1196.32V58.6774H1203.66V51.3428Z" fill="#E51041"/>
<path d="M1203.66 36.6729H1196.32V44.0075H1203.66V36.6729Z" fill="#E51041"/>
<path d="M1247.67 22.0039H1240.33V14.6692H1233V7.33462H1225.66V0H1218.33H1210.99H1203.66H1196.32H1188.99H1181.65H1174.34V7.33462H1167V14.6692H1159.67V22.0039H1152.33V29.3385H1145V36.6731V44.0078V51.3424V58.6771V66.0117V73.3463V80.6809H1152.33V87.9961H1159.67V95.3307H1167V102.665H1174.34V110H1181.65H1188.99H1196.32H1203.66H1210.99H1218.33H1225.66V102.665H1233V95.3307H1240.33V87.9961H1247.67V80.6809H1255V73.3463V66.0117V58.6771V51.3424V44.0078V36.6731V29.3385H1247.67V22.0039ZM1218.33 95.3307H1210.99V87.9961V80.6809H1203.66V87.9961V95.3307H1196.32V87.9961V80.6809H1188.99V87.9961V95.3307H1181.65H1174.34V87.9961H1181.65V80.6809V73.3463H1188.99V66.0117V58.6771V51.3424V44.0078V36.6731V29.3385H1196.32V22.0039H1203.66V29.3385H1210.99V36.6731V44.0078V51.3424V58.6771V66.0117V73.3463H1218.33V80.6809V87.9961H1225.66V95.3307H1218.33Z" fill="#E51041"/>
<path d="M1612.67 22.0039H1605.33V14.6692H1598V7.33462H1590.66V0H1583.33H1575.99H1568.66H1561.32H1553.99H1546.65H1539.34V7.33462H1532V14.6692H1524.67V22.0039H1517.33V29.3385H1510V36.6731V44.0077V51.3424V58.677V66.0116V73.3462V80.6809H1517.33V87.9961H1524.67V95.3307H1532V102.665H1539.34V110H1546.65H1553.99H1561.32H1568.66H1575.99H1583.33H1590.66V102.665H1598V95.3307H1605.33V87.9961H1612.67V80.6809H1620V73.3462V66.0116V58.677V51.3424V44.0077V36.6731V29.3385H1612.67V22.0039ZM1590.66 73.3462V80.6809H1583.33V87.9961H1575.99H1568.66H1561.32H1553.99H1546.65V80.6809H1539.34V73.3462H1532V66.0116H1539.34V73.3462H1546.65H1553.99H1561.32H1568.66H1575.99H1583.33H1590.66V66.0116H1598V73.3462H1590.66ZM1598 51.3424H1590.66V44.0077H1583.33V51.3424H1575.99V44.0077H1583.33V36.6731H1590.66V44.0077H1598V51.3424ZM1532 44.0077H1539.34V36.6731H1546.65V44.0077H1553.99V51.3424H1546.65V44.0077H1539.34V51.3424H1532V44.0077Z" fill="#FFD200"/>
<path d="M1698.66 14.6689H1691.32V22.0036H1698.66V14.6689Z" fill="#398B67"/>
<path d="M1742.67 22.0039H1735.33V14.6692H1728V7.33462H1720.66V0H1713.33H1705.99H1698.66H1691.32H1683.99H1676.65H1669.34V7.33462H1662V14.6692H1654.67V22.0039H1647.33V29.3385H1640V36.6731V44.0077V51.3424V58.677V66.0116V73.3462V80.6809H1647.33V87.9961H1654.67V95.3307H1662V102.665H1669.34V110H1676.65H1683.99H1691.32H1698.66H1705.99H1713.33H1720.66V102.665H1728V95.3307H1735.33V87.9961H1742.67V80.6809H1750V73.3462V66.0116V58.677V51.3424V44.0077V36.6731V29.3385H1742.67V22.0039V22.0039ZM1698.66 7.33462V14.6692H1705.99V22.0039H1698.66V29.3385V36.6731V44.0077V51.3424H1705.99V44.0077H1713.33V51.3424H1705.99V58.677H1698.66V66.0116V73.3462H1705.99H1713.33H1720.66V80.6809H1713.33V87.9961V95.3307H1705.99H1698.66H1691.32H1683.99H1676.65V87.9961V80.6809H1669.34V73.3462H1676.65H1683.99H1691.32V66.0116H1683.99V58.677H1676.65V51.3424H1683.99V58.677H1691.32V51.3424V44.0077V36.6731V29.3385V22.0039H1683.99V14.6692H1691.32V7.33462H1698.66Z" fill="#398B67"/>
<path d="M1117.67 22.0039H1110.33V14.6692H1103V7.33462H1095.66V0H1088.33H1080.99H1073.66H1066.32H1058.99H1051.65H1044.34V7.33462H1037V14.6692H1029.67V22.0039H1022.33V29.3385H1015V36.6731V44.0078V51.3424V58.677V66.0116V73.3463V80.6809H1022.33V87.9961H1029.67V95.3307H1037V102.665H1044.34V110H1051.65H1058.99H1066.32H1073.66H1080.99H1088.33H1095.66V102.665H1103V95.3307H1110.33V87.9961H1117.67V80.6809H1125V73.3463V66.0116V58.677V51.3424V44.0078V36.6731V29.3385H1117.67V22.0039ZM1103 58.677H1095.66V51.3424H1103V58.677ZM1080.99 73.3463H1073.66H1066.32H1058.99V66.0116H1051.65V58.677V51.3424V44.0078H1058.99V36.6731H1066.32H1073.66H1080.99V44.0078H1088.33V51.3424V58.677V66.0116H1080.99V73.3463ZM1037 51.3424H1044.34V58.677H1037V51.3424ZM1044.34 73.3463H1051.65V80.6809H1044.34V73.3463ZM1066.32 80.6809H1073.66V87.9961H1066.32V80.6809ZM1073.66 29.3385H1066.32V22.0039H1073.66V29.3385ZM1095.66 36.6731H1088.33V29.3385H1095.66V36.6731ZM1051.65 29.3385V36.6731H1044.34V29.3385H1051.65ZM1088.33 80.6809V73.3463H1095.66V80.6809H1088.33Z" fill="#FFD200"/>
</g>
<g clip-path="url(#clip1_371_451)">
<path d="M798.99 73.347H806.325H813.659H820.994V66.0124H828.328V58.6777H820.994H813.659H806.325H798.99V66.0124H791.655V73.347H798.99Z" fill="#013AEC"/>
<path d="M820.99 51.3454H828.325V44.0107V36.6761V29.3415V22.0068H820.99H813.655H806.321V29.3415V36.6761V44.0107V51.3454H813.655H820.99Z" fill="#013AEC"/>
<path d="M857.665 22.0039H850.331V14.6693H842.996V7.33463H835.661V0H828.327H820.992H813.658H806.323H798.988H791.654H784.339V7.33463H777.004V14.6693H769.669V22.0039H762.335V29.3385H755V36.6731V44.0078V51.3424V58.677V66.0116V73.3463V80.6809H762.335V87.9961H769.669V95.3307H777.004V102.665H784.339V110H791.654H798.988H806.323H813.658H820.992H828.327H835.661V102.665H842.996V95.3307H850.331V87.9961H857.665V80.6809H865V73.3463V66.0116V58.677V51.3424V44.0078V36.6731V29.3385H857.665V22.0039V22.0039ZM784.339 87.9961V80.6809V73.3463V66.0116H791.654V58.677H798.988V51.3424V44.0078V36.6731V29.3385V22.0039V14.6693H806.323H813.658H820.992H828.327H835.661V22.0039V29.3385V36.6731V44.0078V51.3424V58.677V66.0116V73.3463V80.6809V87.9961H828.327V80.6809V73.3463H820.992V80.6809V87.9961V95.3307H813.658V87.9961V80.6809H806.323H798.988H791.654V87.9961V95.3307H784.339V87.9961V87.9961Z" fill="#013AEC"/>
<path d="M422.609 58.9253V51.5254V44.1255V36.7256H415.191H407.774V44.1255V51.5254V58.9253V66.3251V73.725H415.191H422.609V66.3251V58.9253Z" fill="#013AEC"/>
<path d="M466.661 29.3451V22.0039H459.303V14.6627H451.945V7.34116H444.586V7.32158V0C437.463 0 392.548 0 288.727 0V7.32158H281.545V14.6627H274.363V22.0039H267.182V29.3255H260C260 46.1221 260 63.8975 260 80.6745H267.182V87.9961H274.363V95.3372H281.545V102.659H288.727V110C392.548 110 437.463 110 444.586 110V102.678H451.945V95.3372H459.303V87.9961H466.661V80.6941H474C474 63.8975 474 46.1221 474 29.3451H466.661V29.3451ZM333.603 44.1253V51.5252V58.9251V66.325V73.7249H326.186V81.1248H318.769H311.351H303.934V73.7249H311.351H318.769H326.186V66.325V58.9251H318.769H311.351V51.5252H318.769H326.186V44.1253V36.7254H318.769H311.351H303.934V29.3255H311.351H318.769H326.186V36.7254H333.603V44.1253ZM385.523 36.7254H378.106H370.689V44.1253V51.5252V58.9251V66.325V73.7249V81.1248H363.272V73.7249V66.325V58.9251V51.5252V44.1253V36.7254H355.855H348.437V29.3255H355.855H363.272H370.689H378.106H385.523V36.7254ZM430.027 44.1253V51.5252V58.9251V66.325V73.7249H422.609V81.1248H415.192H407.775V73.7249H400.358V66.325V58.9251V51.5252V44.1253V36.7254H407.775V29.3255H415.192H422.609V36.7254H430.027V44.1253Z" fill="#013AEC"/>
<path d="M188.658 51.3428H181.323V58.6774H188.658V51.3428Z" fill="#E51041"/>
<path d="M188.658 36.6729H181.323V44.0075H188.658V36.6729Z" fill="#E51041"/>
<path d="M232.665 22.0039H225.331V14.6692H217.996V7.33462H210.662V0H203.327H195.992H188.658H181.323H173.988H166.654H159.339V7.33462H152.004V14.6692H144.669V22.0039H137.335V29.3385H130V36.6731V44.0078V51.3424V58.6771V66.0117V73.3463V80.6809H137.335V87.9961H144.669V95.3307H152.004V102.665H159.339V110H166.654H173.988H181.323H188.658H195.992H203.327H210.662V102.665H217.996V95.3307H225.331V87.9961H232.665V80.6809H240V73.3463V66.0117V58.6771V51.3424V44.0078V36.6731V29.3385H232.665V22.0039ZM203.327 95.3307H195.992V87.9961V80.6809H188.658V87.9961V95.3307H181.323V87.9961V80.6809H173.988V87.9961V95.3307H166.654H159.339V87.9961H166.654V80.6809V73.3463H173.988V66.0117V58.6771V51.3424V44.0078V36.6731V29.3385H181.323V22.0039H188.658V29.3385H195.992V36.6731V44.0078V51.3424V58.6771V66.0117V73.3463H203.327V80.6809V87.9961H210.662V95.3307H203.327Z" fill="#E51041"/>
<path d="M597.665 22.0039H590.331V14.6692H582.996V7.33462H575.661V0H568.327H560.992H553.658H546.323H538.988H531.654H524.339V7.33462H517.004V14.6692H509.669V22.0039H502.335V29.3385H495V36.6731V44.0077V51.3424V58.677V66.0116V73.3462V80.6809H502.335V87.9961H509.669V95.3307H517.004V102.665H524.339V110H531.654H538.988H546.323H553.658H560.992H568.327H575.661V102.665H582.996V95.3307H590.331V87.9961H597.665V80.6809H605V73.3462V66.0116V58.677V51.3424V44.0077V36.6731V29.3385H597.665V22.0039ZM575.661 73.3462V80.6809H568.327V87.9961H560.992H553.658H546.323H538.988H531.654V80.6809H524.339V73.3462H517.004V66.0116H524.339V73.3462H531.654H538.988H546.323H553.658H560.992H568.327H575.661V66.0116H582.996V73.3462H575.661ZM582.996 51.3424H575.661V44.0077H568.327V51.3424H560.992V44.0077H568.327V36.6731H575.661V44.0077H582.996V51.3424ZM517.004 44.0077H524.339V36.6731H531.654V44.0077H538.988V51.3424H531.654V44.0077H524.339V51.3424H517.004V44.0077Z" fill="#FFD200"/>
<path d="M683.657 14.6689H676.323V22.0036H683.657V14.6689Z" fill="#398B67"/>
<path d="M727.665 22.0039H720.331V14.6692H712.996V7.33462H705.661V0H698.327H690.992H683.658H676.323H668.988H661.654H654.339V7.33462H647.004V14.6692H639.669V22.0039H632.335V29.3385H625V36.6731V44.0077V51.3424V58.677V66.0116V73.3462V80.6809H632.335V87.9961H639.669V95.3307H647.004V102.665H654.339V110H661.654H668.988H676.323H683.658H690.992H698.327H705.661V102.665H712.996V95.3307H720.331V87.9961H727.665V80.6809H735V73.3462V66.0116V58.677V51.3424V44.0077V36.6731V29.3385H727.665V22.0039V22.0039ZM683.658 7.33462V14.6692H690.992V22.0039H683.658V29.3385V36.6731V44.0077V51.3424H690.992V44.0077H698.327V51.3424H690.992V58.677H683.658V66.0116V73.3462H690.992H698.327H705.661V80.6809H698.327V87.9961V95.3307H690.992H683.658H676.323H668.988H661.654V87.9961V80.6809H654.339V73.3462H661.654H668.988H676.323V66.0116H668.988V58.677H661.654V51.3424H668.988V58.677H676.323V51.3424V44.0077V36.6731V29.3385V22.0039H668.988V14.6692H676.323V7.33462H683.658Z" fill="#398B67"/>
<path d="M958.325 80.6799V73.3453H950.991V66.0107H943.656V58.6761H936.322V51.3414H943.656V44.0068H950.991V36.6722H958.325V29.3376H965.66V22.0029H958.325H950.991H943.656H936.322H928.987H921.652H914.337V29.3376H907.002V36.6722V44.0068V51.3414V58.6761V66.0107V73.3453V80.6799H914.337V87.9952H921.652H928.987H936.322H943.656H950.991H958.325H965.66V80.6799H958.325ZM936.322 29.3376V36.6722H928.987V29.3376H936.322Z" fill="#FFD200"/>
<path d="M987.665 22.0039H980.331V14.6692H972.996V7.33462H965.661V0H958.327H950.992H943.658H936.323H928.988H921.654H914.339V7.33462H907.004V14.6692H899.669V22.0039H892.335V29.3385H885V36.6731V44.0078V51.3424V58.677V66.0116V73.3463V80.6809H892.335V87.9961H899.669V95.3307H907.004V102.665H914.339V110H921.654H928.988H936.323H943.658H950.992H958.327H965.661V102.665H972.996V95.3307H980.331V87.9961H987.665V80.6809H995V73.3463V66.0116V58.677V51.3424V44.0078V36.6731V29.3385H987.665V22.0039ZM965.661 87.9961V95.3307H958.327H950.992H943.658H936.323H928.988H921.654H914.339V87.9961H907.004V80.6809H899.669V73.3463V66.0116V58.677V51.3424V44.0078V36.6731V29.3385H907.004V22.0039H914.339V14.6692H921.654H928.988H936.323H943.658H950.992H958.327H965.661V22.0039H972.996V29.3385H965.661V36.6731H958.327V44.0078H950.992V51.3424H943.658V58.677H950.992V66.0116H958.327V73.3463H965.661V80.6809H972.996V87.9961H965.661ZM980.331 58.677H972.996V51.3424H980.331V58.677ZM958.327 51.3424H965.661V58.677H958.327V51.3424Z" fill="#FFD200"/>
<path d="M102.665 22.0039H95.3308V14.6692H87.9961V7.33462H80.6615V0H73.3269H65.9922H58.6576H51.323H43.9884H36.6537H29.3385V7.33462H22.0039V14.6692H14.6693V22.0039H7.33463V29.3385H0V36.6731V44.0078V51.3424V58.677V66.0116V73.3463V80.6809H7.33463V87.9961H14.6693V95.3307H22.0039V102.665H29.3385V110H36.6537H43.9884H51.323H58.6576H65.9922H73.3269H80.6615V102.665H87.9961V95.3307H95.3308V87.9961H102.665V80.6809H110V73.3463V66.0116V58.677V51.3424V44.0078V36.6731V29.3385H102.665V22.0039ZM87.9961 58.677H80.6615V51.3424H87.9961V58.677ZM65.9922 73.3463H58.6576H51.323H43.9884V66.0116H36.6537V58.677V51.3424V44.0078H43.9884V36.6731H51.323H58.6576H65.9922V44.0078H73.3269V51.3424V58.677V66.0116H65.9922V73.3463ZM22.0039 51.3424H29.3385V58.677H22.0039V51.3424ZM29.3385 73.3463H36.6537V80.6809H29.3385V73.3463ZM51.323 80.6809H58.6576V87.9961H51.323V80.6809ZM58.6576 29.3385H51.323V22.0039H58.6576V29.3385ZM80.6615 36.6731H73.3269V29.3385H80.6615V36.6731ZM36.6537 29.3385V36.6731H29.3385V29.3385H36.6537ZM73.3269 80.6809V73.3463H80.6615V80.6809H73.3269Z" fill="#FFD200"/>
</g>
<defs>
<clipPath id="clip0_371_451">
<rect width="834" height="110" fill="white" transform="translate(1015)"/>
</clipPath>
<clipPath id="clip1_371_451">
<rect width="995" height="110" fill="white"/>
</clipPath>
</defs>
</svg>
