<svg width="160" height="160" viewBox="0 0 160 160" fill="none" xmlns="http://www.w3.org/2000/svg">
<rect x="31.7246" y="34.8359" width="100.69" height="96.6673" fill="white"/>
<path d="M149.331 32.0056H138.663V21.3371H127.994V10.6685H117.326V0H106.657H95.9887H85.3202H74.6516H63.9831H53.3145H42.6742V10.6685H32.0056V21.3371H21.3371V32.0056H10.6685V42.6742H0V53.3427V64.0113V74.6798V85.3484V96.0169V106.685V117.354H10.6685V127.994H21.3371V138.663H32.0056V149.331H42.6742V160H53.3145H63.9831H74.6516H85.3202H95.9887H106.657H117.326V149.331H127.994V138.663H138.663V127.994H149.331V117.354H160V106.685V96.0169V85.3484V74.6798V64.0113V53.3427V42.6742H149.331V32.0056ZM117.326 106.685V117.354H106.657V127.994H95.9887H85.3202H74.6516H63.9831H53.3145V117.354H42.6742V106.685H32.0056V96.0169H42.6742V106.685H53.3145H63.9831H74.6516H85.3202H95.9887H106.657H117.326V96.0169H127.994V106.685H117.326ZM127.994 74.6798H117.326V64.0113H106.657V74.6798H95.9887V64.0113H106.657V53.3427H117.326V64.0113H127.994V74.6798ZM32.0056 64.0113H42.6742V53.3427H53.3145V64.0113H63.9831V74.6798H53.3145V64.0113H42.6742V74.6798H32.0056V64.0113Z" fill="#FFD200"/>
</svg>
