<svg width="160" height="160" viewBox="0 0 160 160" fill="none" xmlns="http://www.w3.org/2000/svg">
<path d="M149.331 42.6742V32.0056H138.663V21.3371H127.994V10.6685H117.326V0H106.657H95.9887H85.3202H74.6516H63.9831H53.3146H42.6742V10.6685H32.0056V21.3371H21.3371V32.0056H10.6685V42.6742H0V53.3428V64.0113V74.6799V85.3484V96.017V106.685V117.354H10.6685V127.994H21.3371V138.663H32.0056V149.332H42.6742V160H53.3146H63.9831H74.6516H85.3202H95.9887H106.657H117.326V149.332H127.994V138.663H138.663V127.994H149.331V117.354H160V106.685V96.017V85.3484V74.6799V64.0113V53.3428V42.6742H149.331ZM21.3371 74.6799H32.0056V64.0113H42.6742V74.6799V85.3484V96.017H32.0056V85.3484H21.3371V74.6799ZM127.994 74.6799H117.326V85.3484H127.994V96.017H117.326V85.3484H106.657V96.017H95.9887V85.3484H106.657V74.6799H95.9887V64.0113H106.657V74.6799H117.326V64.0113H127.994V74.6799ZM63.9831 117.354V106.685H53.3146V96.017V85.3484V74.6799V64.0113V53.3428H63.9831V42.6742H74.6516V32.0056H85.3202V42.6742V53.3428V64.0113V74.6799V85.3484V96.017V106.685V117.354V127.994H74.6516V117.354H63.9831Z" fill="#013AEC"/>
</svg>
