<svg width="160" height="160" viewBox="0 0 160 160" fill="none" xmlns="http://www.w3.org/2000/svg">
<rect x="30.7314" y="21.3291" width="101.021" height="117.389" fill="white"/>
<path d="M149.331 32.0056H138.663V21.3371H127.994V10.6685H117.326V0H106.657H95.9887H85.3202H74.6516H63.9831H53.3145H42.6742V10.6685H32.0056V21.3371H21.3371V32.0056H10.6685V42.6742H0V53.3427V64.0113V74.6798V85.3484V96.0169V106.685V117.354H10.6685V127.994H21.3371V138.663H32.0056V149.331H42.6742V160H53.3145H63.9831H74.6516H85.3202H95.9887H106.657H117.326V149.331H127.994V138.663H138.663V127.994H149.331V117.354H160V106.685V96.0169V85.3484V74.6798V64.0113V53.3427V42.6742H149.331V32.0056ZM53.3145 127.994V117.354H63.9831V127.994H74.6516V117.354V106.685V96.0169V85.3484V74.6798H63.9831H53.3145H42.6742V85.3484H32.0056V74.6798V64.0113V53.3427H42.6742V42.6742H53.3145V32.0056H63.9831H74.6516V21.3371H85.3202V32.0056H95.9887H106.657V42.6742H117.326V53.3427H127.994V64.0113V74.6798V85.3484H117.326V74.6798H106.657H95.9887H85.3202V85.3484V96.0169V106.685V117.354V127.994V138.663H74.6516H63.9831H53.3145V127.994Z" fill="#6FCBF5"/>
</svg>
