<svg width="160" height="160" viewBox="0 0 160 160" fill="none" xmlns="http://www.w3.org/2000/svg">
<path d="M149.331 32.0057H138.663V21.3371H127.994V10.6685H117.326V0H106.657H95.9887H85.3202H74.6516H63.9831H53.3145H42.6742V10.6685H32.0057V21.3371H21.3371V32.0057H10.6686V42.6742H0V53.3428V64.0113V74.6799V85.3484V96.017V106.686V117.354H10.6686V127.994H21.3371V138.663H32.0057V149.331H42.6742V160H53.3145H63.9831H74.6516H85.3202H95.9887H106.657H117.326V149.331H127.994V138.663H138.663V127.994H149.331V117.354H160V106.686V96.017V85.3484V74.6799V64.0113V53.3428V42.6742H149.331V32.0057ZM117.326 127.994H106.657V117.354H95.9887V106.686H85.3202H74.6516H63.9831H53.3145H42.6742H32.0057V96.017H42.6742H53.3145H63.9831H74.6516H85.3202H95.9887H106.657V106.686H117.326V117.354V127.994ZM21.3371 74.6799H32.0057H42.6742H53.3145H63.9831H74.6516H85.3202H95.9887H106.657H117.326H127.994V85.3484H117.326H106.657H95.9887H85.3202H74.6516H63.9831H53.3145H42.6742H32.0057H21.3371V74.6799ZM42.6742 53.3428H53.3145H63.9831H74.6516H85.3202H95.9887V42.6742H106.657V32.0057H117.326V42.6742V53.3428H106.657V64.0113H95.9887H85.3202H74.6516H63.9831H53.3145H42.6742H32.0057V53.3428H42.6742Z" fill="#013AEC"/>
</svg>
