<svg width="160" height="160" viewBox="0 0 160 160" fill="none" xmlns="http://www.w3.org/2000/svg">
<path d="M149.331 42.6743V32.0057H138.663V21.3371H127.994V10.6685H117.326V0H106.657H95.9887H85.3202H74.6516H63.9831H53.3146H42.6742V10.6685H32.0056V21.3371H21.3371V32.0057H10.6685V42.6743H0V53.3428V64.0114V74.6799V85.3484V96.017V106.686V117.354H10.6685V127.994H21.3371V138.663H32.0056V149.331H42.6742V160H53.3146H63.9831H74.6516H85.3202H95.9887H106.657H117.326V149.331H127.994V138.663H138.663V127.994H149.331V117.354H160V106.686V96.017V85.3484V74.6799V64.0114V53.3428V42.6743H149.331ZM95.9887 106.686H85.3202H74.6516H63.9831H53.3146H42.6742V96.017H53.3146H63.9831H74.6516H85.3202H95.9887H106.657V106.686H95.9887ZM32.0056 74.6799H42.6742H53.3146H63.9831H74.6516H85.3202H95.9887V85.3484H85.3202H74.6516H63.9831H53.3146H42.6742H32.0056V74.6799ZM106.657 64.0114H95.9887H85.3202H74.6516H63.9831H53.3146H42.6742V53.3428H53.3146H63.9831H74.6516H85.3202H95.9887H106.657V64.0114ZM63.9831 117.354H74.6516H85.3202H95.9887V127.994H85.3202H74.6516H63.9831V117.354ZM42.6742 32.0057H53.3146H63.9831H74.6516H85.3202H95.9887H106.657H117.326H127.994V42.6743H117.326H106.657H95.9887H85.3202H74.6516H63.9831H53.3146H42.6742H32.0056V32.0057H42.6742ZM74.6516 149.331V138.663H85.3202V149.331H74.6516Z" fill="#013AEC"/>
</svg>
