<svg width="160" height="160" viewBox="0 0 160 160" fill="none" xmlns="http://www.w3.org/2000/svg">
<path d="M149.331 42.6742V32.0055H138.663V21.3371H127.994V10.6685H117.326V0H106.657H95.9887H85.3202H74.6516H63.9831H53.3146H42.6742V10.6685H32.0056V21.3371H21.3371V32.0055H10.6685V42.6742H0V53.3426V64.0113V74.6797V85.3484V96.0168V106.685V117.354H10.6685V127.994H21.3371V138.663H32.0056V149.331H42.6742V160H53.3146H63.9831H74.6516H85.3202H95.9887H106.657H117.326V149.331H127.994V138.663H138.663V127.994H149.331V117.354H160V106.685V96.0168V85.3484V74.6797V64.0113V53.3426V42.6742H149.331ZM117.326 127.994H106.657V117.354H95.9887H85.3202H74.6516H63.9831H53.3146V127.994H42.6742V117.354V106.685H53.3146V96.0168H63.9831H74.6516H85.3202H95.9887H106.657V106.685H117.326V117.354V127.994ZM127.994 64.0113H117.326V74.6797H127.994V85.3484H117.326V74.6797H106.657V64.0113H117.326V53.3426H127.994V64.0113ZM42.6742 53.3426V64.0113H53.3146V74.6797H42.6742V85.3484H32.0056V74.6797H42.6742V64.0113H32.0056V53.3426H42.6742Z" fill="#013AEC"/>
</svg>
