<svg width="160" height="160" viewBox="0 0 160 160" fill="none" xmlns="http://www.w3.org/2000/svg">
<rect x="27.3682" y="29.4736" width="104.211" height="94.7368" fill="white"/>
<path d="M149.331 32.0056H138.663V21.3371H127.994V10.6685H117.326V0H106.657H95.9887H85.3202H74.6516H63.9831H53.3145H42.6742V10.6685H32.0056V21.3371H21.3371V32.0056H10.6686V42.6742H0V53.3427V64.0113V74.6798V85.3484V96.0169V106.685V117.354H10.6686V127.994H21.3371V138.663H32.0056V149.331H42.6742V160H53.3145H63.9831H74.6516H85.3202H95.9887H106.657H117.326V149.331H127.994V138.663H138.663V127.994H149.331V117.354H160V106.685V96.0169V85.3484V74.6798V64.0113V53.3427V42.6742H149.331V32.0056ZM127.994 85.3484H117.326V74.6798H127.994V85.3484ZM95.9887 106.685H85.3202H74.6516H63.9831V96.0169H53.3145V85.3484V74.6798V64.0113H63.9831V53.3427H74.6516H85.3202H95.9887V64.0113H106.657V74.6798V85.3484V96.0169H95.9887V106.685ZM32.0056 74.6798H42.6742V85.3484H32.0056V74.6798ZM42.6742 106.685H53.3145V117.354H42.6742V106.685ZM74.6516 117.354H85.3202V127.994H74.6516V117.354ZM85.3202 42.6742H74.6516V32.0056H85.3202V42.6742ZM117.326 53.3427H106.657V42.6742H117.326V53.3427ZM53.3145 42.6742V53.3427H42.6742V42.6742H53.3145ZM106.657 117.354V106.685H117.326V117.354H106.657Z" fill="#FFD200"/>
</svg>
