<svg width="160" height="160" viewBox="0 0 160 160" fill="none" xmlns="http://www.w3.org/2000/svg">
<rect x="21.1123" y="31.9873" width="107.392" height="99.5163" fill="white"/>
<path d="M149.331 32.0055H138.663V21.3371H127.994V10.6685H117.326V0H106.657H95.9887H85.3202H74.6516H63.9831H53.3145H42.6742V10.6685H32.0056V21.3371H21.3371V32.0055H10.6685V42.6742H0V53.3426V64.0113V74.6797V85.3484V96.0168V106.685V117.354H10.6685V127.994H21.3371V138.663H32.0056V149.331H42.6742V160H53.3145H63.9831H74.6516H85.3202H95.9887H106.657H117.326V149.331H127.994V138.663H138.663V127.994H149.331V117.354H160V106.685V96.0168V85.3484V74.6797V64.0113V53.3426V42.6742H149.331V32.0055ZM21.3371 74.6797H32.0056V64.0113H42.6742V74.6797V85.3484V96.0168H32.0056V85.3484H21.3371V74.6797ZM127.994 74.6797H117.326V64.0113H106.657V74.6797H95.9887V64.0113H106.657V53.3426H117.326V64.0113H127.994V74.6797ZM85.3202 96.0168V106.685V117.354V127.994H74.6516V117.354H63.9831V106.685H53.3145V96.0168V85.3484V74.6797V64.0113V53.3426H63.9831V42.6742H74.6516V32.0055H85.3202V42.6742V53.3426V64.0113V74.6797V85.3484V96.0168ZM117.326 106.685V96.0168H106.657V106.685H95.9887V96.0168H106.657V85.3484H117.326V96.0168H127.994V106.685H117.326Z" fill="#6FCBF5"/>
</svg>
