<svg width="160" height="160" viewBox="0 0 160 160" fill="none" xmlns="http://www.w3.org/2000/svg">
<path d="M117.326 85.3488V74.6803H106.658V64.0117H95.9893H85.3207H74.6522H63.9836H53.3151V74.6803H42.6748V85.3488V96.0174V106.686H53.3151V117.354H63.9836H74.6522H85.3207H95.9893H106.658V106.686H117.326V96.0174V85.3488ZM85.3207 106.686H74.6522H63.9836V96.0174V85.3488V74.6803H74.6522H85.3207H95.9893V85.3488V96.0174V106.686H85.3207Z" fill="#013AEC"/>
<path d="M149.331 42.6742V32.0056H138.663V21.3371H127.994V10.6685H117.326V0H106.657H95.9887H85.3201H74.6516H63.983H53.3145H42.6742V10.6685H32.0057V21.3371H21.3371V32.0056H10.6686V42.6742H0V53.3427V64.0113V74.6799V85.3484V96.0169V106.685V117.354H10.6686V127.994H21.3371V138.663H32.0057V149.331H42.6742V160H53.3145H63.983H74.6516H85.3201H95.9887H106.657H117.326V149.331H127.994V138.663H138.663V127.994H149.331V117.354H160V106.685V96.0169V85.3484V74.6799V64.0113V53.3427V42.6742H149.331ZM117.326 106.685V117.354H106.657V127.994H95.9887H85.3201H74.6516H63.983H53.3145V117.354H42.6742V106.685H32.0057V96.0169V85.3484V74.6799H42.6742V64.0113H32.0057V53.3427H42.6742V64.0113H53.3145V53.3427V42.6742H63.983V53.3427H74.6516V42.6742H85.3201V53.3427H95.9887V42.6742H106.657V53.3427V64.0113H117.326V53.3427H127.994V64.0113H117.326V74.6799H127.994V85.3484V96.0169V106.685H117.326Z" fill="#013AEC"/>
</svg>
