<svg width="161" height="160" viewBox="0 0 161 160" fill="none" xmlns="http://www.w3.org/2000/svg">
<rect x="43.2891" y="14.7363" width="76.8421" height="129.474" fill="white"/>
<rect x="20.1309" y="38.9473" width="124.211" height="89.0512" fill="white"/>
<rect x="28.5518" y="106.315" width="26.3158" height="24.2105" fill="white"/>
<path d="M149.462 32.0057H138.794V21.3371H128.125V10.6685H117.457V0H106.788H96.1196H85.451H74.7825H64.1139H53.4454H42.8051V10.6685H32.1365V21.3371H21.468V32.0057H10.7994V42.6742H0.130859V53.3427V64.0113V74.6798V85.3484V96.0169V106.685V117.354H10.7994V127.994H21.468V138.663H32.1365V149.331H42.8051V160H53.4454H64.1139H74.7825H85.451H96.1196H106.788H117.457V149.331H128.125V138.663H138.794V127.994H149.462V117.354H160.131V106.685V96.0169V85.3484V74.6798V64.0113V53.3427V42.6742H149.462V32.0057V32.0057ZM128.125 117.354V127.994H117.457V138.663H106.788H96.1196H85.451H74.7825H64.1139H53.4454H42.8051V127.994H32.1365V117.354H21.468V106.685H32.1365H42.8051H53.4454H64.1139V96.0169V85.3484H53.4454V74.6798H42.8051V64.0113H32.1365V53.3427H42.8051V42.6742H53.4454V32.0057H64.1139V21.3371H74.7825V32.0057V42.6742V53.3427V64.0113V74.6798V85.3484V96.0169V106.685H85.451H96.1196H106.788V96.0169V85.3484H96.1196V74.6798H85.451V64.0113V53.3427H96.1196V42.6742H106.788V32.0057H117.457V42.6742V53.3427V64.0113V74.6798V85.3484V96.0169V106.685H128.125V96.0169H138.794V106.685V117.354H128.125Z" fill="#FFD200"/>
</svg>
