<svg width="675" height="675" viewBox="0 0 675 675" fill="none" xmlns="http://www.w3.org/2000/svg">
<path d="M0 606.956V68.0444H34.0219L34.0219 34.0222H68.0441V0H606.955L606.955 34.0222H640.977V68.0444H675V0L675 675L675 606.956L640.977 606.956V640.978H606.955L606.955 675H68.0439L68.0438 640.978H34.0217L34.0217 606.956L0 606.956Z" fill="#6FCBF5"/>
<rect x="286.557" y="464.858" width="98.7028" height="105.071" fill="white"/>
<path d="M342.864 514.684V503.927V493.171H332.108V482.414H321.351H310.594V493.171H299.866V503.927V514.684H310.594V525.441H321.351H332.108V514.684H342.864Z" fill="#FFD200"/>
<path d="M407.404 471.657H396.647V460.9H385.891V450.143H375.134V439.387H364.378H353.621H342.864H332.108H321.351H310.594H299.866V450.143H289.11V460.9H278.353V471.657H267.596V482.413H256.84V493.17V503.926V514.683V525.44V536.196V546.953V557.709H267.596V568.438H278.353V579.194H289.11V589.951H299.866V600.707H310.594H321.351H332.108H342.864H353.621H364.378H375.134V589.951H385.891V579.194H396.647V568.438H407.404V557.709H418.161V546.953V536.196V525.44V514.683V503.926V493.17V482.413H407.404V471.657V471.657ZM375.134 568.438V557.709H364.378V546.953H353.621V536.196H342.864V525.44H332.108V536.196H321.351H310.594V525.44H299.866V514.683H289.11V503.926V493.17H299.866V482.413H310.594V471.657H321.351H332.108V482.413H342.864V493.17H353.621V503.926V514.683H342.864V525.44H353.621V536.196H364.378V546.953H375.134V557.709H385.891V568.438H375.134V568.438Z" fill="#FFD200"/>
<rect x="481.84" y="274.882" width="75.3538" height="123.113" fill="white"/>
<path d="M503.901 364.408H514.658H525.414H536.171V353.651H546.928V342.895H536.171H525.414H514.658H503.901V353.651H493.145V364.408H503.901Z" fill="#FFD200"/>
<path d="M536.166 332.14H546.922V321.383V310.627V299.87V289.113H536.166H525.409H514.652V299.87V310.627V321.383V332.14H525.409H536.166Z" fill="#FFD200"/>
<path d="M589.951 289.11H579.194V278.353H568.438V267.596H557.681V256.84H546.924H536.168H525.411H514.655H503.898H493.141H482.413V267.596H471.657V278.353H460.9V289.11H450.143V299.866H439.387V310.623V321.38V332.136V342.893V353.649V364.406V375.163H450.143V385.891H460.9V396.647H471.657V407.404H482.413V418.161H493.141H503.898H514.655H525.411H536.168H546.924H557.681V407.404H568.438V396.647H579.194V385.891H589.951V375.163H600.707V364.406V353.649V342.893V332.136V321.38V310.623V299.866H589.951V289.11V289.11ZM482.413 385.891V375.163V364.406V353.649H493.141V342.893H503.898V332.136V321.38V310.623V299.866V289.11V278.353H514.655H525.411H536.168H546.924H557.681V289.11V299.866V310.623V321.38V332.136V342.893V353.649V364.406V375.163V385.891H546.924V375.163V364.406H536.168V375.163V385.891V396.647H525.411V385.891V375.163H514.655H503.898H493.141V385.891V396.647H482.413V385.891V385.891Z" fill="#FFD200"/>
<rect x="457.429" y="480.778" width="124.175" height="81.7217" fill="white"/>
<rect x="486.084" y="546.58" width="55.1887" height="44.5755" fill="white"/>
<path d="M493.135 546.952H503.892H514.648H525.405H536.162H546.918H557.675H568.431V536.195V525.439V514.682V503.926V493.169H557.675H546.918H536.162H525.405H514.648H503.892H493.135H482.407H471.65V503.926V514.682V525.439V536.195V546.952H482.407H493.135ZM525.405 525.439H514.648V514.682H525.405V525.439ZM557.675 525.439H546.918V514.682H557.675V525.439ZM482.407 514.682H493.135V525.439H482.407V514.682V514.682Z" fill="#013AEC"/>
<path d="M589.951 482.413V471.657H579.194V460.9H568.438V450.143H557.681V439.387H546.924H536.168H525.411H514.655H503.898H493.141H482.413V450.143H471.657V460.9H460.9V471.657H450.143V482.413H439.387V493.17V503.926V514.683V525.44V536.196V546.953V557.709H450.143V568.438H460.9V579.194H471.657V589.951H482.413V600.707H493.141H503.898H514.655H525.411H536.168H546.924H557.681V589.951H568.438V579.194H579.194V568.438H589.951V557.709H600.707V546.953V536.196V525.44V514.683V503.926V493.17V482.413H589.951ZM493.141 589.951V579.194V568.438V557.709H482.413H471.657V546.953H460.9V536.196V525.44V514.683V503.926V493.17H471.657V482.413H482.413H493.141H503.898H514.655H525.411H536.168H546.924H557.681H568.438V493.17H579.194V503.926V514.683V525.44V536.196V546.953H568.438V557.709H557.681H546.924H536.168H525.411V568.438H514.655V579.194H503.898V589.951H493.141V589.951Z" fill="#013AEC"/>
<rect x="105.071" y="288.679" width="99.7642" height="102.948" fill="white"/>
<rect x="114.623" y="277.004" width="81.7217" height="19.1038" fill="white"/>
<path d="M128.048 353.648H117.319V364.405H128.048V353.648Z" fill="#FFD200"/>
<path d="M117.319 310.622V321.378V332.135V342.891H128.048H138.804H149.561H160.317H171.074H181.831H192.587V332.135V321.378V310.622V299.865V289.108H181.831H171.074H160.317H149.561H138.804H128.048H117.319V299.865V310.622Z" fill="#FFD200"/>
<path d="M192.587 353.648H181.83V364.405H192.587V353.648Z" fill="#FFD200"/>
<path d="M224.857 289.109H214.101V278.352H203.344V267.595H192.587V256.839H181.831H171.074H160.317H149.561H138.804H128.048H117.319V267.595H106.563V278.352H95.8062V289.109H85.0496V299.865H74.293V310.622V321.379V332.135V342.892V353.648V364.405V375.162H85.0496V385.89H95.8062V396.646H106.563V407.403H117.319V418.16H128.048H138.804H149.561H160.317H171.074H181.831H192.587V407.403H203.344V396.646H214.101V385.89H224.857V375.162H235.614V364.405V353.648V342.892V332.135V321.379V310.622V299.865H224.857V289.109ZM117.319 289.109V278.352H128.048H138.804H149.561H160.317H171.074H181.831H192.587V289.109H203.344V299.865V310.622V321.379V332.135V342.892V353.648V364.405V375.162H192.587V385.89H181.831V375.162H171.074H160.317H149.561H138.804H128.048V385.89H117.319V375.162H106.563V364.405V353.648V342.892V332.135V321.379V310.622V299.865V289.109H117.319Z" fill="#FFD200"/>
<rect x="84.9062" y="167.689" width="133.726" height="26.533" fill="white"/>
<rect x="106.133" y="95.5195" width="96.5802" height="122.052" fill="white"/>
<path d="M224.857 106.563H214.101V95.8062H203.344V85.0496H192.587V74.293H181.831H171.074H160.317H149.561H138.804H128.048H117.319V85.0496H106.563V95.8062H95.8062V106.563H85.0496V117.319H74.293V128.076V138.833V149.589V160.346V171.102V181.859V192.616H85.0496V203.344H95.8062V214.101H106.563V224.857H117.319V235.614H128.048H138.804H149.561H160.317H171.074H181.831H192.587V224.857H203.344V214.101H214.101V203.344H224.857V192.616H235.614V181.859V171.102V160.346V149.589V138.833V128.076V117.319H224.857V106.563V106.563ZM203.344 192.616V203.344H192.587V214.101H181.831H171.074H160.317H149.561H138.804H128.048H117.319V203.344H106.563V192.616H95.8062V181.859H106.563H117.319H128.048H138.804V171.102V160.346H128.048V149.589H117.319V138.833H106.563V128.076H117.319V117.319H128.048V106.563H138.804V95.8062H149.561V106.563V117.319V128.076V138.833V149.589V160.346V171.102V181.859H160.317H171.074H181.831V171.102V160.346H171.074V149.589H160.317V138.833V128.076H171.074V117.319H181.831V106.563H192.587V117.319V128.076V138.833V149.589V160.346V171.102V181.859H203.344V171.102H214.101V181.859V192.616H203.344Z" fill="#013AEC"/>
<rect x="274.882" y="115.685" width="124.175" height="80.6604" fill="white"/>
<rect x="288.679" y="95.5195" width="99.7642" height="35.0236" fill="white"/>
<rect x="288.679" y="170.873" width="99.7642" height="35.0236" fill="white"/>
<rect x="319.457" y="178.303" width="44.5755" height="35.0236" fill="white"/>
<path d="M332.106 192.617V181.86V171.103V160.347V149.59V138.834V128.077H321.35V117.32H310.593H299.865H289.108V128.077V138.834V149.59V160.347V171.103V181.86V192.617H299.865H310.593H321.35V203.345H332.106V192.617Z" fill="#FFD200"/>
<path d="M385.89 171.103V160.347V149.59V138.834V128.077V117.32H375.133H364.377H353.62V128.077H342.863V138.834V149.59V160.347V171.103V181.86V192.617V203.345H353.62V192.617H364.377H375.133H385.89V181.86V171.103Z" fill="#FFD200"/>
<path d="M407.403 106.564H396.646V95.8072H385.89V85.0506H375.133V74.2939H364.377H353.62H342.863H332.107H321.35H310.593H299.865V85.0506H289.109V95.8072H278.352V106.564H267.595V117.32H256.839V128.077V138.834V149.59V160.347V171.104V181.86V192.617H267.595V203.345H278.352V214.101H289.109V224.858H299.865V235.615H310.593H321.35H332.107H342.863H353.62H364.377H375.133V224.858H385.89V214.101H396.646V203.345H407.403V192.617H418.16V181.86V171.104V160.347V149.59V138.834V128.077V117.32H407.403V106.564V106.564ZM396.646 128.077V138.834V149.59V160.347V171.104V181.86V192.617H385.89V203.345H375.133H364.377H353.62V214.101H342.863H332.107H321.35V203.345H310.593H299.865H289.109V192.617H278.352V181.86V171.104V160.347V149.59V138.834V128.077V117.32H289.109V106.564H299.865H310.593H321.35V117.32H332.107H342.863H353.62V106.564H364.377H375.133H385.89V117.32H396.646V128.077V128.077Z" fill="#FFD200"/>
<rect x="288.679" y="283.372" width="96.5802" height="88.0896" fill="white"/>
<rect x="299.292" y="371.462" width="54.1274" height="27.5943" fill="white"/>
<rect x="331.132" y="274.882" width="20.1651" height="28.6557" fill="white"/>
<path d="M407.404 289.11H396.647V278.353H385.891V267.596H375.134V256.84H364.378H353.621H342.864H332.108H321.351H310.594H299.866V267.596H289.11V278.353H278.353V289.11H267.596V299.866H256.84V310.623V321.38V332.136V342.893V353.649V364.406V375.163H267.596V385.891H278.353V396.647H289.11V407.404H299.866V418.161H310.594H321.351H332.108H342.864H353.621H364.378H375.134V407.404H385.891V396.647H396.647V385.891H407.404V375.163H418.161V364.406V353.649V342.893V332.136V321.38V310.623V299.866H407.404V289.11ZM310.594 385.891V375.163H321.351V385.891H332.108V375.163V364.406V353.649V342.893V332.136H321.351H310.594H299.866V342.893H289.11V332.136V321.38V310.623H299.866V299.866H310.594V289.11H321.351H332.108V278.353H342.864V289.11H353.621H364.378V299.866H375.134V310.623H385.891V321.38V332.136V342.893H375.134V332.136H364.378H353.621H342.864V342.893V353.649V364.406V375.163V385.891V396.647H332.108H321.351H310.594V385.891Z" fill="#FFD200"/>
<rect x="454.245" y="120.99" width="124.175" height="77.4764" fill="white"/>
<rect x="498.82" y="97.6416" width="44.5755" height="35.0236" fill="white"/>
<rect x="498.82" y="180.425" width="44.5755" height="35.0236" fill="white"/>
<path d="M589.951 106.563H579.194V95.8062H568.438V85.0495H557.681V74.293H546.924H536.168H525.411H514.655H503.898H493.141H482.413V85.0495H471.657V95.8062H460.9V106.563H450.143V117.319H439.387V128.076V138.833V149.589V160.346V171.102V181.859V192.616H450.143V203.344H460.9V214.101H471.657V224.857H482.413V235.614H493.141H503.898H514.655H525.411H536.168H546.924H557.681V224.857H568.438V214.101H579.194V203.344H589.951V192.616H600.707V181.859V171.102V160.346V149.589V138.833V128.076V117.319H589.951V106.563ZM460.9 149.589H471.657V138.833H482.413V149.589V160.346V171.102H471.657V160.346H460.9V149.589ZM568.438 149.589H557.681V138.833H546.924V149.589H536.168V138.833H546.924V128.076H557.681V138.833H568.438V149.589ZM525.411 171.102V181.859V192.616V203.344H514.655V192.616H503.898V181.859H493.141V171.102V160.346V149.589V138.833V128.076H503.898V117.319H514.655V106.563H525.411V117.319V128.076V138.833V149.589V160.346V171.102ZM557.681 181.859V171.102H546.924V181.859H536.168V171.102H546.924V160.346H557.681V171.102H568.438V181.859H557.681Z" fill="#013AEC"/>
<rect x="105.071" y="470.165" width="100.825" height="99.7642" fill="white"/>
<path d="M171.112 503.919H160.346H149.599H138.833H128.086H117.319V514.665V525.43V536.195V546.94V557.686H128.086H138.833H149.599H160.346H171.112H181.879H192.626V546.94V536.195V525.43V514.665V503.919H181.879H171.112V503.919ZM160.346 514.684V525.449H149.599V514.684H160.346ZM128.086 514.684H138.833V525.449H128.086V514.684ZM128.086 546.94V536.195H138.833V546.94H128.086V546.94ZM149.599 546.94V536.195H160.346V546.94H149.599V546.94ZM181.859 546.94H171.093V536.195H181.859V546.94ZM181.859 525.43H171.093V514.665H181.859V525.43Z" fill="#013AEC"/>
<path d="M224.867 482.408V471.662H214.139V460.897H203.392V450.152H192.626V439.387H181.879H171.112H160.346H149.599H138.833H128.086H117.32V450.152H106.573V460.897H95.8062V471.662H85.0593V482.408H74.293V493.173V503.919V514.665V525.43V536.195V546.94V557.686H85.0593V568.451H95.8062V579.197H106.573V589.962H117.32V600.707H128.086H138.833H149.599H160.346H171.112H181.879H192.626V589.962H203.392V579.197H214.139V568.451H224.867V557.686H235.614V546.94V536.195V525.43V514.665V503.919V493.173V482.408H224.867V482.408ZM192.626 568.451H181.879H171.112H160.346H149.599H138.833H128.086H117.32H106.573V557.686V546.94V536.195V525.43V514.665V503.919V493.173H117.32V482.408V471.662H128.086V482.408V493.173H138.833H149.599H160.346H171.112V482.408V471.662H181.879V482.408V493.173H192.626H203.392V503.919V514.665V525.43V536.195V546.94V557.686V568.451H192.626Z" fill="#013AEC"/>
</svg>
