<svg width="1440" height="220" viewBox="0 0 1440 220" fill="none" xmlns="http://www.w3.org/2000/svg">
<rect width="1440" height="220" fill="#6FCBF5"/>
<rect x="892" y="59" width="435" height="116" fill="white"/>
<rect x="110" y="59" width="435" height="116" fill="white"/>
<rect x="656" y="59" width="120" height="116" fill="white"/>
<path d="M1370.08 74.5472V64.4039H1360.12V54.2866H1350.17V44.1433H1340.24V34H888.899V44.1174H879.155V54.2606H869.437V64.4039H859.718V74.5213H850V145.479H859.718V155.596H869.437V165.739H879.155V175.857H888.899V186H1340.24V175.883H1350.16V165.739H1360.12V155.596H1370.07V145.505H1380V74.5472H1370.08ZM949.03 146.341H938.993V84.9888H928.956V95.2164H918.92V146.348H908.883V95.2164H918.92V84.9888H928.956V74.7612H949.03V146.341V146.341ZM1009.24 136.12H999.206V146.348H979.133V136.12H969.097V84.9888H979.133V74.7612H999.206V84.9888H1009.24V136.12ZM1079.49 84.9888H1059.41V146.341H1049.38V84.9888H1029.3V74.7612H1079.48V84.9888H1079.49ZM1139.69 84.9888H1109.59V105.444H1129.66V115.672H1109.59V136.127H1139.69V146.354H1099.55V74.7612H1139.69V84.9888ZM1199.91 115.665H1169.8V146.341H1159.77V74.7612H1199.91V115.665V115.665ZM1260.11 84.9888H1230.01V105.444H1250.08V115.672H1230.01V136.127H1260.11V146.354H1219.97V74.7612H1260.11V84.9888ZM1320.33 146.341H1310.29V115.665H1290.22V146.341H1280.18V115.665H1290.22V105.437H1280.18V84.9823H1290.22V74.7547H1320.32V146.341H1320.33Z" fill="#013AEC"/>
<path d="M999.2 115.658V105.431V95.2031V84.9756H989.164H979.127V95.2031V105.431V115.658V125.879V136.107H989.164H999.2V125.879V115.658Z" fill="#013AEC"/>
<path d="M1310.28 105.431V95.2031V84.9756H1300.25H1290.22V95.2031V105.431H1300.25H1310.28Z" fill="#013AEC"/>
<path d="M1169.8 84.9756V95.2031V105.431H1179.83H1189.86V95.2031V84.9756H1179.83H1169.8Z" fill="#013AEC"/>
<path d="M249.347 105.587V115.815H259.377H269.414V105.587V95.3594V85.1318H259.377H249.347V95.3594V105.587Z" fill="#013AEC"/>
<path d="M440.011 115.781V126.009V136.236H450.047H460.084V126.009V115.781H450.047H440.011Z" fill="#013AEC"/>
<path d="M580.072 74.5537V64.4104H570.118V54.293H560.164V44.1433H550.235V44.1173V34C540.568 34 239.361 34 98.8673 34V44.1173H89.1489V54.2606H79.4304V64.4039H69.7184V74.5472H60C60 97.7327 60 122.293 60 145.479H69.7184V155.596H79.4368V165.739H89.1489V175.883H98.8673V186C239.361 186 540.574 186 550.235 186V175.883H560.164V165.739H570.118V155.622H580.072V145.505H590C590 122.293 590 97.7587 590 74.5472H580.072V74.5537ZM159.03 85.1315H148.993H138.956H128.926V95.359V105.587V115.814V126.042V136.269H138.963H148.999H159.036V146.497H148.999H138.963H128.926V136.269H118.89V126.042V115.814V105.587V95.359V85.1315H128.926V74.9039H138.963H148.999H159.036V85.1315H159.03ZM219.237 85.1315V95.359V105.587V115.814V126.042V136.269V146.497H209.2V136.269V126.042V115.814H199.163H189.133H179.097V105.587V95.359V85.1315V74.9039H189.133V85.1315V95.359V105.587H199.17H209.206V95.359V85.1315V74.9039H219.243V85.1315H219.237ZM279.45 95.359V105.587V115.814V126.042V136.269V146.497H269.414V136.269V126.042H259.377H249.34V136.269V146.497H239.304V136.269V126.042V115.814V105.587V95.359V85.1315H249.34V74.9039H259.377H269.414V85.1315H279.45V95.359ZM339.664 85.1315H329.627H319.59H309.554V95.359V105.587V115.814V126.042V136.269H319.59H329.627H339.664V146.497H329.627H319.59H309.554V136.269H299.517V126.042V115.814V105.587V95.359V85.1315H309.554V74.9039H319.59H329.627H339.664V85.1315ZM409.907 85.1315H399.871H389.834V95.359V105.587V115.814V126.042V136.269V146.497H379.797V136.269V126.042V115.814V105.587V95.359V85.1315H369.761H359.724V74.9039H369.761H379.797H389.834H399.871H409.907V85.1315ZM470.121 115.782V126.009V136.237V146.465H460.084H450.047H440.011H429.974V136.237V126.009V115.782V105.554V95.3331V85.1055V74.8779H440.011V85.1055V95.3331V105.561H450.047H460.084H470.121V115.782ZM530.328 85.1315H520.291H510.254H500.224V95.359V105.587H510.261H520.297V115.814H510.261H500.224V126.042V136.269H510.261H520.297H530.328V146.497H520.291H510.254H500.224H490.187V136.269V126.042V115.814V105.587V95.359V85.1315V74.9039H500.224H510.261H520.297H530.328V85.1315Z" fill="#013AEC"/>
<path d="M820.051 74.5472V64.4039H810.102V54.2865H800.179V44.1433H790.23V44.1173V34C780.599 34 789.251 34 648.854 34V44.1173H639.14V54.2606H629.427V64.4039H619.713V74.5212H610C610 97.7327 610 122.3 610 145.479H619.713V155.596H629.427V165.739H639.14V175.857H648.854V186C789.244 186 780.599 186 790.23 186V175.883H800.179V165.739H810.102V155.596H820.051V145.505H830C830 122.293 830 97.7263 830 74.5472H820.051V74.5472ZM709.31 84.444V94.6716V104.899V115.127V125.354V135.582V145.81H699.279V135.582V125.354V115.127H689.247H679.216V125.354V135.582V145.81H669.184V135.582V125.354V115.127V104.899V94.6716V84.444V74.2164H679.216V84.444V94.6716V104.899H689.247H699.279V94.6716V84.444V74.2164H709.31V84.444ZM769.493 84.444H759.461H749.43H739.398V94.6716V104.899H749.43H759.461V115.127H749.43H739.398V125.354V135.582H749.43H759.461H769.493V145.81H759.461H749.43H739.398H729.367V135.582V125.354V115.127V104.899V94.6716V84.444V74.2164H739.398H749.43H759.461H769.493V84.444Z" fill="#013AEC"/>
</svg>
