<svg width="675" height="675" viewBox="0 0 675 675" fill="none" xmlns="http://www.w3.org/2000/svg">
<path d="M0 606.956V68.0444H34.0219L34.0219 34.0222H68.0441V0H606.955L606.955 34.0222H640.977V68.0444H675V0L675 675L675 606.956L640.977 606.956V640.978H606.955L606.955 675H68.0439L68.0438 640.978H34.0217L34.0217 606.956L0 606.956Z" fill="#6FCBF5"/>
<rect x="473.103" y="456.023" width="95.523" height="132.219" fill="white"/>
<path d="M589.951 471.657H579.194V460.9H568.438V450.143H557.681V439.387H546.924H536.168H525.411H514.655H503.898H493.141H482.413V450.143H471.657V460.9H460.9V471.657H450.143V482.413H439.387V493.17V503.926V514.683V525.44V536.196V546.953V557.709H450.143V568.438H460.9V579.194H471.657V589.951H482.413V600.707H493.141H503.898H514.655H525.411H536.168H546.924H557.681V589.951H568.438V579.194H579.194V568.438H589.951V557.709H600.707V546.953V536.196V525.44V514.683V503.926V493.17V482.413H589.951V471.657ZM568.438 525.44H557.681V514.683H568.438V525.44ZM536.168 546.953H525.411H514.655H503.898V536.196H493.141V525.44V514.683V503.926H503.898V493.17H514.655H525.411H536.168V503.926H546.924V514.683V525.44V536.196H536.168V546.953ZM471.657 514.683H482.413V525.44H471.657V514.683ZM482.413 546.953H493.141V557.709H482.413V546.953ZM514.655 557.709H525.411V568.438H514.655V557.709ZM525.411 482.413H514.655V471.657H525.411V482.413ZM557.681 493.17H546.924V482.413H557.681V493.17ZM493.141 482.413V493.17H482.413V482.413H493.141ZM546.924 557.709V546.953H557.681V557.709H546.924Z" fill="#FFD200"/>
<rect x="459.18" y="106.279" width="122.519" height="97.3487" fill="white"/>
<path d="M557.681 117.32H546.924H536.167H525.411H514.654H503.898H493.141H482.413V128.077H471.656V138.834V149.59V160.347V171.103H482.413H493.141H503.898V181.86V192.617H514.654H525.411H536.167H546.924H557.681V181.86H568.437V171.103V160.347V149.59V138.834V128.077H557.681V117.32ZM514.654 128.077V138.834H503.898V128.077H514.654ZM482.413 138.834H493.141V149.59H482.413V138.834ZM536.167 181.86V171.103H546.924V181.86H536.167ZM557.681 160.347H546.924V149.59H557.681V160.347ZM546.924 138.834H536.167V128.077H546.924V138.834Z" fill="#FFD200"/>
<path d="M589.951 106.563H579.194V95.8062H568.438V85.0496H557.681V74.293H546.924H536.168H525.411H514.655H503.898H493.141H482.413V85.0496H471.657V95.8062H460.9V106.563H450.143V117.319H439.387V128.076V138.833V149.589V160.346V171.103V181.859V192.616H450.143V203.344H460.9V214.101H471.657V224.857H482.413V235.614H493.141H503.898H514.655H525.411H536.168H546.924H557.681V224.857H568.438V214.101H579.194V203.344H589.951V192.616H600.707V181.859V171.103V160.346V149.589V138.833V128.076V117.319H589.951V106.563ZM579.194 128.076V138.833V149.589V160.346V171.103V181.859H568.438V192.616H557.681V203.344H546.924H536.168H525.411H514.655H503.898H493.141V192.616V181.859H482.413H471.657H460.9V171.103V160.346V149.589V138.833V128.076H471.657V117.319H482.413V106.563H493.141H503.898H514.655H525.411H536.168H546.924H557.681V117.319H568.438V128.076H579.194Z" fill="#FFD200"/>
<rect x="290.979" y="291.607" width="101.635" height="97.3487" fill="white"/>
<path d="M407.404 289.11H396.647V278.353H385.891V267.596H375.134V256.84H364.378H353.621H342.864H332.108H321.351H310.594H299.866V267.596H289.11V278.353H278.353V289.11H267.596V299.866H256.84V310.623V321.38V332.136V342.893V353.649V364.406V375.163H267.596V385.891H278.353V396.647H289.11V407.404H299.866V418.161H310.594H321.351H332.108H342.864H353.621H364.378H375.134V407.404H385.891V396.647H396.647V385.891H407.404V375.163H418.161V364.406V353.649V342.893V332.136V321.38V310.623V299.866H407.404V289.11ZM375.134 364.406V375.163H364.378V385.891H353.621H342.864H332.108H321.351H310.594V375.163H299.866V364.406H289.11V353.649H299.866V364.406H310.594H321.351H332.108H342.864H353.621H364.378H375.134V353.649H385.891V364.406H375.134ZM385.891 332.136H375.134V321.38H364.378V332.136H353.621V321.38H364.378V310.623H375.134V321.38H385.891V332.136ZM289.11 321.38H299.866V310.623H310.594V321.38H321.351V332.136H310.594V321.38H299.866V332.136H289.11V321.38Z" fill="#FFD200"/>
<rect x="107.193" y="471.227" width="96.5802" height="97.6415" fill="white"/>
<path d="M128.066 536.195H117.319V546.941H128.066V536.195Z" fill="#FFD200"/>
<path d="M138.852 546.94H128.086V557.686H138.852V546.94Z" fill="#FFD200"/>
<path d="M128.086 536.194H138.833V546.94H149.599H160.346V536.194H171.113V525.429H181.86V514.684H171.113V503.919H160.346V493.173H149.599V503.919H138.833V514.684H128.086V525.429V536.194Z" fill="#FFD200"/>
<path d="M171.112 493.173V503.919H181.859V514.684H192.625V503.919V493.173H181.859V482.408H171.112H160.346V493.173H171.112Z" fill="#FFD200"/>
<path d="M224.867 482.408V471.662H214.139V460.897H203.392V450.152H192.626V439.387H181.879H171.112H160.365H149.599H138.852H128.086H117.339V450.152H106.573V460.897H95.8063V471.662H85.0593V482.408H74.293V493.173V503.919V514.665V525.43V536.195V546.94V557.686H85.0593V568.451H95.8063V579.197H106.573V589.962H117.339V600.707H128.086H138.852H149.599H160.365H171.112H181.879H192.626V589.962H203.392V579.197H214.139V568.451H224.867V557.686H235.614V546.94V536.195V525.43V514.665V503.919V493.173V482.408H224.867V482.408ZM106.573 557.705V546.96V536.214V525.449H117.339V514.684H128.086V503.938H138.852V493.192H149.599V482.427H160.365V471.682H171.112H181.879V482.427H192.626V493.192H203.392V503.938V514.684H192.626V525.449H181.879V536.214H171.112V546.96H160.365V557.705H149.599V568.47H138.852H128.086H117.339H106.573V557.705Z" fill="#FFD200"/>
<rect x="85.0479" y="106.594" width="133.584" height="96.6983" fill="white"/>
<path d="M106.563 149.59H95.8066V160.346H106.563V149.59Z" fill="#FFD200"/>
<path d="M128.048 149.59H117.319V160.346H128.048V149.59Z" fill="#FFD200"/>
<path d="M149.561 149.59H138.805V160.346H149.561V149.59Z" fill="#FFD200"/>
<path d="M224.857 106.563H214.101V95.8062H203.344V85.0496H192.587V74.293H181.831H171.074H160.317H149.561H138.804H128.048H117.319V85.0496H106.563V95.8062H95.8062V106.563H85.0496V117.319H74.293V128.076V138.833V149.589V160.346V171.102V181.859V192.616H85.0496V203.344H95.8062V214.1H106.563V224.857H117.319V235.614H128.048H138.804H149.561H160.317H171.074H181.831H192.587V224.857H203.344V214.1H214.101V203.344H224.857V192.616H235.614V181.859V171.102V160.346V149.589V138.833V128.076V117.319H224.857V106.563ZM85.0496 160.346V149.589H95.8062V138.833H106.563H117.319H128.048H138.804V128.076H149.561V117.319H160.317V106.563H171.074H181.831V117.319V128.076H171.074V138.833H181.831H192.587H203.344V128.076H214.101V138.833V149.589V160.346H203.344V171.102H192.587H181.831H171.074V181.859H181.831V192.616V203.344H171.074H160.317V192.616H149.561V181.859H138.804V171.102H128.048H117.319H106.563H95.8062H85.0496V160.346V160.346Z" fill="#FFD200"/>
<rect x="476.533" y="286.557" width="84.9057" height="113.561" fill="white"/>
<path d="M525.411 332.137H514.654V342.893H525.411V332.137Z" fill="#E51041"/>
<path d="M525.411 310.623H514.654V321.38H525.411V310.623Z" fill="#E51041"/>
<path d="M589.951 289.11H579.194V278.353H568.438V267.596H557.681V256.84H546.924H536.168H525.411H514.655H503.898H493.141H482.413V267.596H471.657V278.353H460.9V289.11H450.143V299.866H439.387V310.623V321.38V332.136V342.893V353.649V364.406V375.163H450.143V385.891H460.9V396.647H471.657V407.404H482.413V418.161H493.141H503.898H514.655H525.411H536.168H546.924H557.681V407.404H568.438V396.647H579.194V385.891H589.951V375.163H600.707V364.406V353.649V342.893V332.136V321.38V310.623V299.866H589.951V289.11ZM546.924 396.647H536.168V385.891V375.163H525.411V385.891V396.647H514.655V385.891V375.163H503.898V385.891V396.647H493.141H482.413V385.891H493.141V375.163V364.406H503.898V353.649V342.893V332.136V321.38V310.623V299.866H514.655V289.11H525.411V299.866H536.168V310.623V321.38V332.136V342.893V353.649V364.406H546.924V375.163V385.891H557.681V396.647H546.924Z" fill="#E51041"/>
<rect x="300.354" y="469.104" width="84.9057" height="120.991" fill="white"/>
<path d="M407.404 471.657H396.647V460.9H385.891V450.143H375.134V439.387H364.378H353.621H342.864H332.108H321.351H310.594H299.866V450.143H289.11V460.9H278.353V471.657H267.596V482.413H256.84V493.17V503.926V514.683V525.44V536.196V546.953V557.71H267.596V568.438H278.353V579.194H289.11V589.951H299.866V600.707H310.594H321.351H332.108H342.864H353.621H364.378H375.134V589.951H385.891V579.194H396.647V568.438H407.404V557.71H418.161V546.953V536.196V525.44V514.683V503.926V493.17V482.413H407.404V471.657ZM332.108 589.951V579.194V568.438H321.351V557.71H310.594V546.953H321.351V557.71H332.108V546.953V536.196V525.44V514.683H321.351H310.594V503.926H299.866V493.17H310.594V482.413V471.657H321.351H332.108H342.864H353.621V482.413H364.378V493.17V503.926H353.621V514.683H342.864V525.44V536.196V546.953H353.621V536.196H364.378V546.953H353.621V557.71H342.864V568.438V579.194V589.951H332.108Z" fill="#E51041"/>
<rect x="113.562" y="286.556" width="89.7399" height="110.122" fill="white"/>
<path d="M192.587 353.648H181.83V364.405V375.162H192.587V364.405V353.648Z" fill="#E51041"/>
<path d="M224.857 289.109H214.1V278.352H203.344V267.595H192.587V256.839H181.831H171.074H160.317H149.561H138.804H128.048H117.319V267.595H106.563V278.352H95.8062V289.109H85.0496V299.865H74.293V310.622V321.379V332.135V342.892V353.648V364.405V375.162H85.0496V385.89H95.8062V396.646H106.563V407.403H117.319V418.16H128.048H138.804H149.561H160.317H171.074H181.831H192.587V407.403H203.344V396.646H214.1V385.89H224.857V375.162H235.614V364.405V353.648V342.892V332.135V321.379V310.622V299.865H224.857V289.109V289.109ZM203.344 375.162H192.587V385.89H181.831V396.646H171.074H160.317H149.561H138.804H128.048V385.89H117.319V375.162V364.405V353.648V342.892H128.048H138.804H149.561H160.317H171.074H181.831H192.587V353.648H203.344V364.405V375.162V375.162ZM138.804 321.379V310.622H149.561V299.865H160.317V310.622H149.561V321.379H160.317V332.135H149.561V321.379H138.804Z" fill="#E51041"/>
<rect x="286.804" y="109.061" width="101.635" height="105.008" fill="white"/>
<path d="M407.404 106.563H396.647V95.8062H385.891V85.0496H375.134V74.293H364.378H353.621H342.864H332.108H321.351H310.594H299.866V85.0496H289.11V95.8062H278.353V106.563H267.596V117.319H256.84V128.076V138.833V149.589V160.346V171.103V181.859V192.616H267.596V203.344H278.353V214.101H289.11V224.857H299.866V235.614H310.594H321.351H332.108H342.864H353.621H364.378H375.134V224.857H385.891V214.101H396.647V203.344H407.404V192.616H418.161V181.859V171.103V160.346V149.589V138.833V128.076V117.319H407.404V106.563V106.563ZM321.351 203.344V192.616H310.594V181.859H299.866V171.103H289.11V160.346V149.589V138.833V128.076H299.866V117.319H310.594H321.351H332.108V128.076H342.864V117.319H353.621H364.378H375.134V128.076H385.891V138.833V149.589V160.346V171.103H375.134V181.859H364.378V192.616H353.621V203.344H342.864V214.101H332.108V203.344H321.351Z" fill="#E51041"/>
</svg>
