<svg width="675" height="675" viewBox="0 0 675 675" fill="none" xmlns="http://www.w3.org/2000/svg">
<path d="M0 606.956V68.0444H34.0219L34.0219 34.0222H68.0441V0H606.955L606.955 34.0222H640.977V68.0444H675V0L675 675L675 606.956L640.977 606.956V640.978H606.955L606.955 675H68.0439L68.0438 640.978H34.0217L34.0217 606.956L0 606.956Z" fill="#6FCBF5"/>
<rect x="290.556" y="90.9287" width="95.523" height="132.219" fill="white"/>
<path d="M407.404 106.563H396.647V95.8062H385.891V85.0496H375.134V74.293H364.378H353.621H342.864H332.108H321.351H310.594H299.866V85.0496H289.11V95.8062H278.353V106.563H267.596V117.319H256.84V128.076V138.833V149.589V160.346V171.103V181.859V192.616H267.596V203.344H278.353V214.101H289.11V224.857H299.866V235.614H310.594H321.351H332.108H342.864H353.621H364.378H375.134V224.857H385.891V214.101H396.647V203.344H407.404V192.616H418.161V181.859V171.103V160.346V149.589V138.833V128.076V117.319H407.404V106.563ZM385.891 160.346H375.134V149.589H385.891V160.346ZM353.621 181.859H342.864H332.108H321.351V171.103H310.594V160.346V149.589V138.833H321.351V128.076H332.108H342.864H353.621V138.833H364.378V149.589V160.346V171.103H353.621V181.859ZM289.11 149.589H299.866V160.346H289.11V149.589ZM299.866 181.859H310.594V192.616H299.866V181.859ZM332.108 192.616H342.864V203.344H332.108V192.616ZM342.864 117.319H332.108V106.563H342.864V117.319ZM375.134 128.076H364.378V117.319H375.134V128.076ZM310.594 117.319V128.076H299.866V117.319H310.594ZM364.378 192.616V181.859H375.134V192.616H364.378Z" fill="#FFD200"/>
<rect x="478.884" y="85.418" width="80.7508" height="134.898" fill="white"/>
<path d="M525.411 95.8066H514.654V106.563H525.411V95.8066Z" fill="#398B67"/>
<path d="M589.951 106.563H579.194V95.8062H568.438V85.0496H557.681V74.293H546.924H536.168H525.411H514.655H503.898H493.141H482.413V85.0496H471.657V95.8062H460.9V106.563H450.143V117.319H439.387V128.076V138.833V149.589V160.346V171.102V181.859V192.616H450.143V203.344H460.9V214.101H471.657V224.857H482.413V235.614H493.141H503.898H514.655H525.411H536.168H546.924H557.681V224.857H568.438V214.101H579.194V203.344H589.951V192.616H600.707V181.859V171.102V160.346V149.589V138.833V128.076V117.319H589.951V106.563V106.563ZM525.411 85.0496V95.8062H536.168V106.563H525.411V117.319V128.076V138.833V149.589H536.168V138.833H546.924V149.589H536.168V160.346H525.411V171.102V181.859H536.168H546.924H557.681V192.616H546.924V203.344V214.101H536.168H525.411H514.655H503.898H493.141V203.344V192.616H482.413V181.859H493.141H503.898H514.655V171.102H503.898V160.346H493.141V149.589H503.898V160.346H514.655V149.589V138.833V128.076V117.319V106.563H503.898V95.8062H514.655V85.0496H525.411Z" fill="#398B67"/>
<rect x="471.922" y="471.374" width="101.635" height="104.302" fill="white"/>
<path d="M589.951 471.656H579.194V460.9H568.438V450.143H557.681V439.387H546.924H536.168H525.411H514.655H503.898H493.141H482.413V450.143H471.657V460.9H460.9V471.656H450.143V482.413H439.387V493.17V503.926V514.683V525.44V536.196V546.953V557.709H450.143V568.438H460.9V579.194H471.657V589.951H482.413V600.707H493.141H503.898H514.655H525.411H536.168H546.924H557.681V589.951H568.438V579.194H579.194V568.438H589.951V557.709H600.707V546.953V536.196V525.44V514.683V503.926V493.17V482.413H589.951V471.656V471.656ZM557.681 568.438H546.924H536.168V557.709H546.924V546.953V536.196V525.44H536.168V514.683H546.924V503.926V493.17H536.168V503.926H525.411H514.655H503.898V493.17H493.141V503.926V514.683H503.898V525.44H493.141V536.196V546.953V557.709H503.898V568.438H493.141H482.413H471.657V557.709H482.413V546.953V536.196V525.44H471.657V514.683H482.413V503.926V493.17H471.657V482.413V471.656H482.413H493.141V482.413H503.898H514.655H525.411H536.168H546.924V471.656H557.681H568.438V482.413V493.17H557.681V503.926V514.683H568.438V525.44H557.681V536.196V546.953V557.709H568.438V568.438H557.681Z" fill="#398B67"/>
<rect x="94.0859" y="288.826" width="122.519" height="97.3487" fill="white"/>
<path d="M192.587 299.866H181.83H171.074H160.317H149.56H138.804H128.047H117.319V310.623H106.562V321.379V332.136V342.893V353.649H117.319H128.047H138.804V364.406V375.163H149.56H160.317H171.074H181.83H192.587V364.406H203.344V353.649V342.893V332.136V321.379V310.623H192.587V299.866ZM149.56 310.623V321.379H138.804V310.623H149.56ZM117.319 321.379H128.047V332.136H117.319V321.379ZM171.074 364.406V353.649H181.83V364.406H171.074ZM192.587 342.893H181.83V332.136H192.587V342.893ZM181.83 321.379H171.074V310.623H181.83V321.379Z" fill="#FFD200"/>
<path d="M224.857 289.109H214.101V278.352H203.344V267.595H192.587V256.839H181.831H171.074H160.317H149.561H138.804H128.048H117.319V267.595H106.563V278.352H95.8062V289.109H85.0496V299.865H74.293V310.622V321.379V332.135V342.892V353.648V364.405V375.162H85.0496V385.89H95.8062V396.646H106.563V407.403H117.319V418.16H128.048H138.804H149.561H160.317H171.074H181.831H192.587V407.403H203.344V396.646H214.101V385.89H224.857V375.162H235.614V364.405V353.648V342.892V332.135V321.379V310.622V299.865H224.857V289.109ZM214.101 310.622V321.379V332.135V342.892V353.648V364.405H203.344V375.162H192.587V385.89H181.831H171.074H160.317H149.561H138.804H128.048V375.162V364.405H117.319H106.563H95.8062V353.648V342.892V332.135V321.379V310.622H106.563V299.865H117.319V289.109H128.048H138.804H149.561H160.317H171.074H181.831H192.587V299.865H203.344V310.622H214.101Z" fill="#FFD200"/>
<rect x="290.979" y="291.607" width="101.635" height="97.3487" fill="white"/>
<path d="M407.404 289.11H396.647V278.353H385.891V267.596H375.134V256.84H364.378H353.621H342.864H332.108H321.351H310.594H299.866V267.596H289.11V278.353H278.353V289.11H267.596V299.866H256.84V310.623V321.38V332.136V342.893V353.649V364.406V375.163H267.596V385.891H278.353V396.647H289.11V407.404H299.866V418.161H310.594H321.351H332.108H342.864H353.621H364.378H375.134V407.404H385.891V396.647H396.647V385.891H407.404V375.163H418.161V364.406V353.649V342.893V332.136V321.38V310.623V299.866H407.404V289.11ZM375.134 364.406V375.163H364.378V385.891H353.621H342.864H332.108H321.351H310.594V375.163H299.866V364.406H289.11V353.649H299.866V364.406H310.594H321.351H332.108H342.864H353.621H364.378H375.134V353.649H385.891V364.406H375.134ZM385.891 332.136H375.134V321.38H364.378V332.136H353.621V321.38H364.378V310.623H375.134V321.38H385.891V332.136ZM289.11 321.38H299.866V310.623H310.594V321.38H321.351V332.136H310.594V321.38H299.866V332.136H289.11V321.38Z" fill="#FFD200"/>
<rect x="106.132" y="106.132" width="97.6415" height="108.255" fill="white"/>
<path d="M128.048 138.832H117.32V149.589H128.048V138.832Z" fill="#398B67"/>
<path d="M149.561 149.59V160.347V171.104H160.317V160.347V149.59V138.834V128.077H149.561V138.834V149.59Z" fill="#398B67"/>
<path d="M192.588 138.832H181.831V149.589H192.588V138.832Z" fill="#398B67"/>
<path d="M224.857 106.563H214.1V95.8062H203.344V85.0496H192.587V74.293H181.831H171.074H160.317H149.561H138.804H128.048H117.319V85.0496H106.563V95.8062H95.8062V106.563H85.0496V117.319H74.293V128.076V138.833V149.589V160.346V171.103V181.859V192.616H85.0496V203.344H95.8062V214.101H106.563V224.857H117.319V235.614H128.048H138.804H149.561H160.317H171.074H181.831H192.587V224.857H203.344V214.101H214.1V203.344H224.857V192.616H235.614V181.859V171.103V160.346V149.589V138.833V128.076V117.319H224.857V106.563ZM181.831 214.101H171.074V203.344V192.616H160.317V181.859H149.561V192.616H138.804V203.344V214.101H128.048H117.319V203.344V192.616H128.048V181.859V171.103H117.319V160.346H106.563V149.589V138.833V128.076V117.319H117.319H128.048V128.076H138.804H149.561V117.319H138.804V106.563H149.561V117.319H160.317V106.563H171.074V117.319H160.317V128.076H171.074H181.831V117.319H192.587H203.344V128.076V138.833V149.589V160.346H192.587V171.103H181.831V181.859V192.616H192.587V203.344V214.101H181.831V214.101Z" fill="#398B67"/>
<rect x="116.746" y="460.613" width="76.4151" height="118.868" fill="white"/>
<path d="M224.857 471.657H214.101V460.9H203.344V450.143H192.587V439.387H181.831H171.074H160.317H149.561H138.804H128.048H117.319V450.143H106.563V460.9H95.8062V471.657H85.0496V482.413H74.293V493.17V503.926V514.683V525.44V536.196V546.953V557.709H85.0496V568.438H95.8062V579.194H106.563V589.951H117.319V600.707H128.048H138.804H149.561H160.317H171.074H181.831H192.587V589.951H203.344V579.194H214.101V568.438H224.857V557.709H235.614V546.953V536.196V525.44V514.683V503.926V493.17V482.413H224.857V471.657V471.657ZM181.831 557.709H171.074H160.317V568.438V579.194H149.561V568.438V557.709H138.804H128.048H117.319V546.953H128.048V536.196H138.804V525.44H128.048H117.319V514.683H128.048V503.926H138.804V493.17H128.048V482.413H138.804V471.657H149.561V460.9H160.317V471.657H171.074V482.413H181.831V493.17H171.074V503.926H181.831V514.683H192.587V525.44H181.831H171.074V536.196H181.831V546.953H192.587V557.709H181.831Z" fill="#398B67"/>
<rect x="289.74" y="471.227" width="96.5802" height="97.6415" fill="white"/>
<path d="M310.613 536.195H299.866V546.941H310.613V536.195Z" fill="#FFD200"/>
<path d="M321.398 546.94H310.632V557.686H321.398V546.94Z" fill="#FFD200"/>
<path d="M310.632 536.194H321.379V546.94H332.145H342.892V536.194H353.658V525.429H364.405V514.684H353.658V503.919H342.892V493.173H332.145V503.919H321.379V514.684H310.632V525.429V536.194Z" fill="#FFD200"/>
<path d="M353.659 493.173V503.919H364.406V514.684H375.172V503.919V493.173H364.406V482.408H353.659H342.893V493.173H353.659Z" fill="#FFD200"/>
<path d="M407.414 482.408V471.662H396.686V460.897H385.939V450.152H375.173V439.387H364.426H353.659H342.912H332.146H321.399H310.633H299.886V450.152H289.119V460.897H278.353V471.662H267.606V482.408H256.84V493.173V503.919V514.665V525.43V536.195V546.94V557.686H267.606V568.451H278.353V579.197H289.119V589.962H299.886V600.707H310.633H321.399H332.146H342.912H353.659H364.426H375.173V589.962H385.939V579.197H396.686V568.451H407.414V557.686H418.161V546.94V536.195V525.43V514.665V503.919V493.173V482.408H407.414V482.408ZM289.119 557.705V546.96V536.214V525.449H299.886V514.684H310.633V503.938H321.399V493.192H332.146V482.427H342.912V471.682H353.659H364.426V482.427H375.173V493.192H385.939V503.938V514.684H375.173V525.449H364.426V536.214H353.659V546.96H342.912V557.705H332.146V568.47H321.399H310.633H299.886H289.119V557.705Z" fill="#FFD200"/>
<rect x="450.142" y="289.141" width="133.584" height="96.6983" fill="white"/>
<path d="M471.657 332.136H460.9V342.892H471.657V332.136Z" fill="#FFD200"/>
<path d="M493.141 332.136H482.413V342.892H493.141V332.136Z" fill="#FFD200"/>
<path d="M514.655 332.136H503.898V342.892H514.655V332.136Z" fill="#FFD200"/>
<path d="M589.951 289.11H579.194V278.353H568.438V267.596H557.681V256.84H546.924H536.168H525.411H514.655H503.898H493.141H482.413V267.596H471.657V278.353H460.9V289.11H450.143V299.866H439.387V310.623V321.38V332.136V342.893V353.649V364.406V375.163H450.143V385.891H460.9V396.647H471.657V407.404H482.413V418.161H493.141H503.898H514.655H525.411H536.168H546.924H557.681V407.404H568.438V396.647H579.194V385.891H589.951V375.163H600.707V364.406V353.649V342.893V332.136V321.38V310.623V299.866H589.951V289.11ZM450.143 342.893V332.136H460.9V321.38H471.657H482.413H493.141H503.898V310.623H514.655V299.866H525.411V289.11H536.168H546.924V299.866V310.623H536.168V321.38H546.924H557.681H568.438V310.623H579.194V321.38V332.136V342.893H568.438V353.649H557.681H546.924H536.168V364.406H546.924V375.163V385.891H536.168H525.411V375.163H514.655V364.406H503.898V353.649H493.141H482.413H471.657H460.9H450.143V342.893V342.893Z" fill="#FFD200"/>
</svg>
