<svg width="675" height="675" viewBox="0 0 675 675" fill="none" xmlns="http://www.w3.org/2000/svg">
<path d="M0 606.956V68.0444H34.0219L34.0219 34.0222H68.0441V0H606.955L606.955 34.0222H640.977V68.0444H675V0L675 675L675 606.956L640.977 606.956V640.978H606.955L606.955 675H68.0439L68.0438 640.978H34.0217L34.0217 606.956L0 606.956Z" fill="#6FCBF5"/>
<rect x="108.009" y="456.023" width="95.523" height="132.219" fill="white"/>
<path d="M224.857 471.657H214.101V460.9H203.344V450.143H192.587V439.387H181.831H171.074H160.317H149.561H138.804H128.048H117.319V450.143H106.563V460.9H95.8062V471.657H85.0496V482.413H74.293V493.17V503.926V514.683V525.44V536.196V546.953V557.709H85.0496V568.438H95.8062V579.194H106.563V589.951H117.319V600.707H128.048H138.804H149.561H160.317H171.074H181.831H192.587V589.951H203.344V579.194H214.101V568.438H224.857V557.709H235.614V546.953V536.196V525.44V514.683V503.926V493.17V482.413H224.857V471.657ZM203.344 525.44H192.587V514.683H203.344V525.44ZM171.074 546.953H160.317H149.561H138.804V536.196H128.048V525.44V514.683V503.926H138.804V493.17H149.561H160.317H171.074V503.926H181.831V514.683V525.44V536.196H171.074V546.953ZM106.563 514.683H117.319V525.44H106.563V514.683ZM117.319 546.953H128.048V557.709H117.319V546.953ZM149.561 557.709H160.317V568.438H149.561V557.709ZM160.317 482.413H149.561V471.657H160.317V482.413ZM192.587 493.17H181.831V482.413H192.587V493.17ZM128.048 482.413V493.17H117.319V482.413H128.048ZM181.831 557.709V546.953H192.587V557.709H181.831Z" fill="#FFD200"/>
<rect x="478.884" y="267.965" width="80.7508" height="134.898" fill="white"/>
<path d="M525.411 278.354H514.654V289.11H525.411V278.354Z" fill="#398B67"/>
<path d="M589.951 289.11H579.194V278.353H568.438V267.596H557.681V256.84H546.924H536.168H525.411H514.655H503.898H493.141H482.413V267.596H471.657V278.353H460.9V289.11H450.143V299.866H439.387V310.623V321.38V332.136V342.893V353.649V364.406V375.163H450.143V385.891H460.9V396.647H471.657V407.404H482.413V418.161H493.141H503.898H514.655H525.411H536.168H546.924H557.681V407.404H568.438V396.647H579.194V385.891H589.951V375.163H600.707V364.406V353.649V342.893V332.136V321.38V310.623V299.866H589.951V289.11V289.11ZM525.411 267.596V278.353H536.168V289.11H525.411V299.866V310.623V321.38V332.136H536.168V321.38H546.924V332.136H536.168V342.893H525.411V353.649V364.406H536.168H546.924H557.681V375.163H546.924V385.891V396.647H536.168H525.411H514.655H503.898H493.141V385.891V375.163H482.413V364.406H493.141H503.898H514.655V353.649H503.898V342.893H493.141V332.136H503.898V342.893H514.655V332.136V321.38V310.623V299.866V289.11H503.898V278.353H514.655V267.596H525.411Z" fill="#398B67"/>
<rect x="289.375" y="106.279" width="101.635" height="104.302" fill="white"/>
<path d="M407.404 106.563H396.647V95.8062H385.891V85.0495H375.134V74.293H364.378H353.621H342.864H332.108H321.351H310.594H299.866V85.0495H289.11V95.8062H278.353V106.563H267.596V117.319H256.84V128.076V138.833V149.589V160.346V171.102V181.859V192.616H267.596V203.344H278.353V214.101H289.11V224.857H299.866V235.614H310.594H321.351H332.108H342.864H353.621H364.378H375.134V224.857H385.891V214.101H396.647V203.344H407.404V192.616H418.161V181.859V171.102V160.346V149.589V138.833V128.076V117.319H407.404V106.563V106.563ZM375.134 203.344H364.378H353.621V192.616H364.378V181.859V171.102V160.346H353.621V149.589H364.378V138.833V128.076H353.621V138.833H342.864H332.108H321.351V128.076H310.594V138.833V149.589H321.351V160.346H310.594V171.102V181.859V192.616H321.351V203.344H310.594H299.866H289.11V192.616H299.866V181.859V171.102V160.346H289.11V149.589H299.866V138.833V128.076H289.11V117.319V106.563H299.866H310.594V117.319H321.351H332.108H342.864H353.621H364.378V106.563H375.134H385.891V117.319V128.076H375.134V138.833V149.589H385.891V160.346H375.134V171.102V181.859V192.616H385.891V203.344H375.134Z" fill="#398B67"/>
<rect x="94.0859" y="106.279" width="122.519" height="97.3487" fill="white"/>
<path d="M192.587 117.32H181.83H171.074H160.317H149.56H138.804H128.047H117.319V128.077H106.562V138.834V149.59V160.347V171.103H117.319H128.047H138.804V181.86V192.617H149.56H160.317H171.074H181.83H192.587V181.86H203.344V171.103V160.347V149.59V138.834V128.077H192.587V117.32ZM149.56 128.077V138.834H138.804V128.077H149.56ZM117.319 138.834H128.047V149.59H117.319V138.834ZM171.074 181.86V171.103H181.83V181.86H171.074ZM192.587 160.347H181.83V149.59H192.587V160.347ZM181.83 138.834H171.074V128.077H181.83V138.834Z" fill="#FFD200"/>
<path d="M224.857 106.563H214.101V95.8062H203.344V85.0496H192.587V74.293H181.831H171.074H160.317H149.561H138.804H128.048H117.319V85.0496H106.563V95.8062H95.8062V106.563H85.0496V117.319H74.293V128.076V138.833V149.589V160.346V171.103V181.859V192.616H85.0496V203.344H95.8062V214.101H106.563V224.857H117.319V235.614H128.048H138.804H149.561H160.317H171.074H181.831H192.587V224.857H203.344V214.101H214.101V203.344H224.857V192.616H235.614V181.859V171.103V160.346V149.589V138.833V128.076V117.319H224.857V106.563ZM214.101 128.076V138.833V149.589V160.346V171.103V181.859H203.344V192.616H192.587V203.344H181.831H171.074H160.317H149.561H138.804H128.048V192.616V181.859H117.319H106.563H95.8062V171.103V160.346V149.589V138.833V128.076H106.563V117.319H117.319V106.563H128.048H138.804H149.561H160.317H171.074H181.831H192.587V117.319H203.344V128.076H214.101Z" fill="#FFD200"/>
<rect x="290.979" y="291.607" width="101.635" height="97.3487" fill="white"/>
<path d="M407.404 289.11H396.647V278.353H385.891V267.596H375.134V256.84H364.378H353.621H342.864H332.108H321.351H310.594H299.866V267.596H289.11V278.353H278.353V289.11H267.596V299.866H256.84V310.623V321.38V332.136V342.893V353.649V364.406V375.163H267.596V385.891H278.353V396.647H289.11V407.404H299.866V418.161H310.594H321.351H332.108H342.864H353.621H364.378H375.134V407.404H385.891V396.647H396.647V385.891H407.404V375.163H418.161V364.406V353.649V342.893V332.136V321.38V310.623V299.866H407.404V289.11ZM375.134 364.406V375.163H364.378V385.891H353.621H342.864H332.108H321.351H310.594V375.163H299.866V364.406H289.11V353.649H299.866V364.406H310.594H321.351H332.108H342.864H353.621H364.378H375.134V353.649H385.891V364.406H375.134ZM385.891 332.136H375.134V321.38H364.378V332.136H353.621V321.38H364.378V310.623H375.134V321.38H385.891V332.136ZM289.11 321.38H299.866V310.623H310.594V321.38H321.351V332.136H310.594V321.38H299.866V332.136H289.11V321.38Z" fill="#FFD200"/>
<rect x="106.132" y="288.679" width="97.6415" height="108.255" fill="white"/>
<path d="M128.048 321.378H117.319V332.135H128.048V321.378Z" fill="#398B67"/>
<path d="M149.561 332.136V342.893V353.65H160.317V342.893V332.136V321.38V310.623H149.561V321.38V332.136Z" fill="#398B67"/>
<path d="M192.588 321.378H181.831V332.135H192.588V321.378Z" fill="#398B67"/>
<path d="M224.857 289.109H214.1V278.352H203.344V267.595H192.587V256.839H181.831H171.074H160.317H149.561H138.804H128.048H117.319V267.595H106.563V278.352H95.8062V289.109H85.0496V299.865H74.293V310.622V321.379V332.135V342.892V353.648V364.405V375.162H85.0496V385.89H95.8062V396.646H106.563V407.403H117.319V418.16H128.048H138.804H149.561H160.317H171.074H181.831H192.587V407.403H203.344V396.646H214.1V385.89H224.857V375.162H235.614V364.405V353.648V342.892V332.135V321.379V310.622V299.865H224.857V289.109ZM181.831 396.646H171.074V385.89V375.162H160.317V364.405H149.561V375.162H138.804V385.89V396.646H128.048H117.319V385.89V375.162H128.048V364.405V353.648H117.319V342.892H106.563V332.135V321.379V310.622V299.865H117.319H128.048V310.622H138.804H149.561V299.865H138.804V289.109H149.561V299.865H160.317V289.109H171.074V299.865H160.317V310.622H171.074H181.831V299.865H192.587H203.344V310.622V321.379V332.135V342.892H192.587V353.648H181.831V364.405V375.162H192.587V385.89V396.646H181.831V396.646Z" fill="#398B67"/>
<rect x="299.292" y="460.613" width="76.4151" height="118.868" fill="white"/>
<path d="M407.404 471.657H396.647V460.9H385.891V450.143H375.134V439.387H364.378H353.621H342.864H332.108H321.351H310.594H299.866V450.143H289.11V460.9H278.353V471.657H267.596V482.413H256.84V493.17V503.926V514.683V525.44V536.196V546.953V557.709H267.596V568.438H278.353V579.194H289.11V589.951H299.866V600.707H310.594H321.351H332.108H342.864H353.621H364.378H375.134V589.951H385.891V579.194H396.647V568.438H407.404V557.709H418.161V546.953V536.196V525.44V514.683V503.926V493.17V482.413H407.404V471.657V471.657ZM364.378 557.709H353.621H342.864V568.438V579.194H332.108V568.438V557.709H321.351H310.594H299.866V546.953H310.594V536.196H321.351V525.44H310.594H299.866V514.683H310.594V503.926H321.351V493.17H310.594V482.413H321.351V471.657H332.108V460.9H342.864V471.657H353.621V482.413H364.378V493.17H353.621V503.926H364.378V514.683H375.134V525.44H364.378H353.621V536.196H364.378V546.953H375.134V557.709H364.378Z" fill="#398B67"/>
<rect x="472.288" y="471.227" width="96.5802" height="97.6415" fill="white"/>
<path d="M493.161 536.195H482.414V546.941H493.161V536.195Z" fill="#FFD200"/>
<path d="M503.946 546.94H493.18V557.686H503.946V546.94Z" fill="#FFD200"/>
<path d="M493.18 536.194H503.927V546.94H514.693H525.44V536.194H536.206V525.429H546.953V514.684H536.206V503.919H525.44V493.173H514.693V503.919H503.927V514.684H493.18V525.429V536.194Z" fill="#FFD200"/>
<path d="M536.206 493.173V503.919H546.953V514.684H557.719V503.919V493.173H546.953V482.408H536.206H525.439V493.173H536.206Z" fill="#FFD200"/>
<path d="M589.96 482.408V471.662H579.233V460.897H568.486V450.152H557.719V439.387H546.972H536.206H525.459H514.693H503.946H493.18H482.433V450.152H471.666V460.897H460.9V471.662H450.153V482.408H439.387V493.173V503.919V514.665V525.43V536.195V546.94V557.686H450.153V568.451H460.9V579.197H471.666V589.962H482.433V600.707H493.18H503.946H514.693H525.459H536.206H546.972H557.719V589.962H568.486V579.197H579.233V568.451H589.96V557.686H600.707V546.94V536.195V525.43V514.665V503.919V493.173V482.408H589.96V482.408ZM471.666 557.705V546.96V536.214V525.449H482.433V514.684H493.18V503.938H503.946V493.192H514.693V482.427H525.459V471.682H536.206H546.972V482.427H557.719V493.192H568.486V503.938V514.684H557.719V525.449H546.972V536.214H536.206V546.96H525.459V557.705H514.693V568.47H503.946H493.18H482.433H471.666V557.705Z" fill="#FFD200"/>
<rect x="450.142" y="106.594" width="133.584" height="96.6983" fill="white"/>
<path d="M471.657 149.589H460.9V160.345H471.657V149.589Z" fill="#FFD200"/>
<path d="M493.141 149.589H482.413V160.345H493.141V149.589Z" fill="#FFD200"/>
<path d="M514.655 149.589H503.898V160.345H514.655V149.589Z" fill="#FFD200"/>
<path d="M589.951 106.563H579.194V95.8062H568.438V85.0496H557.681V74.293H546.924H536.168H525.411H514.655H503.898H493.141H482.413V85.0496H471.657V95.8062H460.9V106.563H450.143V117.319H439.387V128.076V138.833V149.589V160.346V171.102V181.859V192.616H450.143V203.344H460.9V214.1H471.657V224.857H482.413V235.614H493.141H503.898H514.655H525.411H536.168H546.924H557.681V224.857H568.438V214.1H579.194V203.344H589.951V192.616H600.707V181.859V171.102V160.346V149.589V138.833V128.076V117.319H589.951V106.563ZM450.143 160.346V149.589H460.9V138.833H471.657H482.413H493.141H503.898V128.076H514.655V117.319H525.411V106.563H536.168H546.924V117.319V128.076H536.168V138.833H546.924H557.681H568.438V128.076H579.194V138.833V149.589V160.346H568.438V171.102H557.681H546.924H536.168V181.859H546.924V192.616V203.344H536.168H525.411V192.616H514.655V181.859H503.898V171.102H493.141H482.413H471.657H460.9H450.143V160.346V160.346Z" fill="#FFD200"/>
</svg>
