<svg width="675" height="675" viewBox="0 0 675 675" fill="none" xmlns="http://www.w3.org/2000/svg">
<path d="M0 606.956V68.0444H34.0219L34.0219 34.0222H68.0441V0H606.955L606.955 34.0222H640.977V68.0444H675V0L675 675L675 606.956L640.977 606.956V640.978H606.955L606.955 675H68.0439L68.0438 640.978H34.0217L34.0217 606.956L0 606.956Z" fill="#6FCBF5"/>
<rect x="106.34" y="99.7646" width="96.1431" height="114.623" fill="white"/>
<path d="M138.803 171.104H128.047V181.86H138.803V171.104Z" fill="#013AEC"/>
<path d="M149.56 160.346H138.804V171.102H149.56V160.346Z" fill="#013AEC"/>
<path d="M224.857 106.563H214.1V95.8062H203.344V85.0495H192.587V74.293H181.831H171.074H160.317H149.561H138.804H128.048H117.319V85.0495H106.563V95.8062H95.8062V106.563H85.0496V117.319H74.293V128.076V138.833V149.589V160.346V171.102V181.859V192.616H85.0496V203.344H95.8062V214.101H106.563V224.857H117.319V235.614H128.048H138.804H149.561H160.317H171.074H181.831H192.587V224.857H203.344V214.101H214.1V203.344H224.857V192.616H235.614V181.859V171.102V160.346V149.589V138.833V128.076V117.319H224.857V106.563ZM192.587 203.344H181.831V214.101H171.074H160.317H149.561H138.804H128.048V203.344H117.319V192.616V181.859V171.102V160.346H128.048V149.589H138.804V138.833V128.076H149.561V117.319V106.563H160.317V117.319V128.076H171.074V138.833V149.589H181.831V160.346H192.587V171.102V181.859V192.616V203.344Z" fill="#013AEC"/>
<rect x="288.888" y="282.312" width="96.1431" height="114.623" fill="white"/>
<path d="M321.35 353.648H310.594V364.405H321.35V353.648Z" fill="#013AEC"/>
<path d="M332.108 342.893H321.352V353.649H332.108V342.893Z" fill="#013AEC"/>
<path d="M407.404 289.11H396.647V278.353H385.891V267.596H375.134V256.84H364.378H353.621H342.864H332.108H321.351H310.594H299.866V267.596H289.11V278.353H278.353V289.11H267.596V299.866H256.84V310.623V321.38V332.136V342.893V353.649V364.406V375.162H267.596V385.891H278.353V396.647H289.11V407.404H299.866V418.161H310.594H321.351H332.108H342.864H353.621H364.378H375.134V407.404H385.891V396.647H396.647V385.891H407.404V375.162H418.161V364.406V353.649V342.893V332.136V321.38V310.623V299.866H407.404V289.11ZM375.134 385.891H364.378V396.647H353.621H342.864H332.108H321.351H310.594V385.891H299.866V375.162V364.406V353.649V342.893H310.594V332.136H321.351V321.38V310.623H332.108V299.866V289.11H342.864V299.866V310.623H353.621V321.38V332.136H364.378V342.893H375.134V353.649V364.406V375.162V385.891Z" fill="#013AEC"/>
<rect x="471.435" y="282.312" width="96.1431" height="114.623" fill="white"/>
<path d="M503.897 353.648H493.141V364.405H503.897V353.648Z" fill="#013AEC"/>
<path d="M514.655 342.893H503.898V353.649H514.655V342.893Z" fill="#013AEC"/>
<path d="M589.951 289.11H579.194V278.353H568.438V267.596H557.681V256.84H546.924H536.168H525.411H514.655H503.898H493.141H482.413V267.596H471.657V278.353H460.9V289.11H450.143V299.866H439.387V310.623V321.38V332.136V342.893V353.649V364.406V375.162H450.143V385.891H460.9V396.647H471.657V407.404H482.413V418.161H493.141H503.898H514.655H525.411H536.168H546.924H557.681V407.404H568.438V396.647H579.194V385.891H589.951V375.162H600.707V364.406V353.649V342.893V332.136V321.38V310.623V299.866H589.951V289.11ZM557.681 385.891H546.924V396.647H536.168H525.411H514.655H503.898H493.141V385.891H482.413V375.162V364.406V353.649V342.893H493.141V332.136H503.898V321.38V310.623H514.655V299.866V289.11H525.411V299.866V310.623H536.168V321.38V332.136H546.924V342.893H557.681V353.649V364.406V375.162V385.891Z" fill="#013AEC"/>
<rect x="103.136" y="285.495" width="105.757" height="102.948" fill="white"/>
<path d="M224.857 299.865V289.109H214.101V278.352H203.344V267.595H192.587V256.839H181.831H171.074H160.317H149.561H138.804H128.048H117.319V267.595H106.563V278.352H95.8062V289.109H85.0496V299.865H74.293V310.622V321.379V332.135V342.892V353.648V364.405V375.161H85.0496V385.89H95.8062V396.646H106.563V407.403H117.319V418.16H128.048H138.804H149.561H160.317H171.074H181.831H192.587V407.403H203.344V396.646H214.101V385.89H224.857V375.161H235.614V364.405V353.648V342.892V332.135V321.379V310.622V299.865H224.857ZM192.587 385.89H181.831V375.161H171.074H160.317H149.561H138.804H128.048V385.89H117.319V375.161V364.405H128.048V353.648H138.804H149.561H160.317H171.074H181.831V364.405H192.587V375.161V385.89ZM203.344 321.379H192.587V332.135H203.344V342.892H192.587V332.135H181.831V321.379H192.587V310.622H203.344V321.379ZM117.319 310.622V321.379H128.048V332.135H117.319V342.892H106.563V332.135H117.319V321.379H106.563V310.622H117.319Z" fill="#013AEC"/>
<rect x="288.024" y="102.948" width="105.757" height="102.948" fill="white"/>
<path d="M409.746 117.319V106.563H398.989V95.8062H388.233V85.0495H377.476V74.293H366.719H355.963H345.206H334.45H323.693H312.936H302.208V85.0495H291.451V95.8062H280.695V106.563H269.938V117.319H259.182V128.076V138.833V149.589V160.346V171.102V181.859V192.616H269.938V203.344H280.695V214.101H291.451V224.857H302.208V235.614H312.936H323.693H334.45H345.206H355.963H366.719H377.476V224.857H388.233V214.101H398.989V203.344H409.746V192.616H420.502V181.859V171.102V160.346V149.589V138.833V128.076V117.319H409.746ZM377.476 203.344H366.719V192.616H355.963H345.206H334.45H323.693H312.936V203.344H302.208V192.616V181.859H312.936V171.102H323.693H334.45H345.206H355.963H366.719V181.859H377.476V192.616V203.344ZM388.233 138.833H377.476V149.589H388.233V160.346H377.476V149.589H366.719V138.833H377.476V128.076H388.233V138.833ZM302.208 128.076V138.833H312.936V149.589H302.208V160.346H291.451V149.589H302.208V138.833H291.451V128.076H302.208Z" fill="#013AEC"/>
<rect x="468.23" y="468.042" width="105.757" height="102.948" fill="white"/>
<path d="M589.951 482.413V471.656H579.194V460.9H568.438V450.143H557.681V439.387H546.924H536.168H525.411H514.655H503.898H493.141H482.413V450.143H471.657V460.9H460.9V471.656H450.143V482.413H439.387V493.17V503.926V514.683V525.44V536.196V546.953V557.709H450.143V568.438H460.9V579.194H471.657V589.951H482.413V600.707H493.141H503.898H514.655H525.411H536.168H546.924H557.681V589.951H568.438V579.194H579.194V568.438H589.951V557.709H600.707V546.953V536.196V525.44V514.683V503.926V493.17V482.413H589.951ZM557.681 568.438H546.924V557.709H536.168H525.411H514.655H503.898H493.141V568.438H482.413V557.709V546.953H493.141V536.196H503.898H514.655H525.411H536.168H546.924V546.953H557.681V557.709V568.438ZM568.438 503.926H557.681V514.683H568.438V525.44H557.681V514.683H546.924V503.926H557.681V493.17H568.438V503.926ZM482.413 493.17V503.926H493.141V514.683H482.413V525.44H471.657V514.683H482.413V503.926H471.657V493.17H482.413Z" fill="#013AEC"/>
<rect x="95.6582" y="471.227" width="113.235" height="97.6415" fill="white"/>
<path d="M224.857 471.657H214.101V460.9H203.344V450.143H192.587V439.387H181.831H171.074H160.317H149.561H138.804H128.048H117.319V450.143H106.563V460.9H95.8062V471.657H85.0496V482.413H74.293V493.17V503.926V514.683V525.44V536.196V546.953V557.71H85.0496V568.438H95.8062V579.194H106.563V589.951H117.319V600.707H128.048H138.804H149.561H160.317H171.074H181.831H192.587V589.951H203.344V579.194H214.101V568.438H224.857V557.71H235.614V546.953V536.196V525.44V514.683V503.926V493.17V482.413H224.857V471.657ZM192.587 568.438H181.831V557.71H171.074V546.953H160.317H149.561H138.804H128.048H117.319H106.563V536.196H117.319H128.048H138.804H149.561H160.317H171.074H181.831V546.953H192.587V557.71V568.438ZM95.8062 514.683H106.563H117.319H128.048H138.804H149.561H160.317H171.074H181.831H192.587H203.344V525.44H192.587H181.831H171.074H160.317H149.561H138.804H128.048H117.319H106.563H95.8062V514.683ZM117.319 493.17H128.048H138.804H149.561H160.317H171.074V482.413H181.831V471.657H192.587V482.413V493.17H181.831V503.926H171.074H160.317H149.561H138.804H128.048H117.319H106.563V493.17H117.319Z" fill="#013AEC"/>
<rect x="278.205" y="106.134" width="113.235" height="97.6415" fill="white"/>
<path d="M407.404 106.563H396.647V95.8062H385.891V85.0496H375.134V74.293H364.378H353.621H342.864H332.108H321.351H310.594H299.866V85.0496H289.11V95.8062H278.353V106.563H267.596V117.319H256.84V128.076V138.833V149.589V160.346V171.103V181.859V192.616H267.596V203.344H278.353V214.1H289.11V224.857H299.866V235.614H310.594H321.351H332.108H342.864H353.621H364.378H375.134V224.857H385.891V214.1H396.647V203.344H407.404V192.616H418.161V181.859V171.103V160.346V149.589V138.833V128.076V117.319H407.404V106.563ZM375.134 203.344H364.378V192.616H353.621V181.859H342.864H332.108H321.351H310.594H299.866H289.11V171.103H299.866H310.594H321.351H332.108H342.864H353.621H364.378V181.859H375.134V192.616V203.344ZM278.353 149.589H289.11H299.866H310.594H321.351H332.108H342.864H353.621H364.378H375.134H385.891V160.346H375.134H364.378H353.621H342.864H332.108H321.351H310.594H299.866H289.11H278.353V149.589ZM299.866 128.076H310.594H321.351H332.108H342.864H353.621V117.319H364.378V106.563H375.134V117.319V128.076H364.378V138.833H353.621H342.864H332.108H321.351H310.594H299.866H289.11V128.076H299.866Z" fill="#013AEC"/>
<rect x="278.205" y="471.228" width="113.235" height="97.6415" fill="white"/>
<path d="M407.404 471.657H396.647V460.9H385.891V450.143H375.134V439.387H364.378H353.621H342.864H332.108H321.351H310.594H299.866V450.143H289.11V460.9H278.353V471.657H267.596V482.413H256.84V493.17V503.926V514.683V525.44V536.196V546.953V557.71H267.596V568.438H278.353V579.194H289.11V589.951H299.866V600.707H310.594H321.351H332.108H342.864H353.621H364.378H375.134V589.951H385.891V579.194H396.647V568.438H407.404V557.71H418.161V546.953V536.196V525.44V514.683V503.926V493.17V482.413H407.404V471.657ZM375.134 568.438H364.378V557.71H353.621V546.953H342.864H332.108H321.351H310.594H299.866H289.11V536.196H299.866H310.594H321.351H332.108H342.864H353.621H364.378V546.953H375.134V557.71V568.438ZM278.353 514.683H289.11H299.866H310.594H321.351H332.108H342.864H353.621H364.378H375.134H385.891V525.44H375.134H364.378H353.621H342.864H332.108H321.351H310.594H299.866H289.11H278.353V514.683ZM299.866 493.17H310.594H321.351H332.108H342.864H353.621V482.413H364.378V471.657H375.134V482.413V493.17H364.378V503.926H353.621H342.864H332.108H321.351H310.594H299.866H289.11V493.17H299.866Z" fill="#013AEC"/>
<rect x="460.752" y="106.133" width="113.235" height="97.6415" fill="white"/>
<path d="M589.951 106.563H579.194V95.8062H568.438V85.0496H557.681V74.293H546.924H536.168H525.411H514.655H503.898H493.141H482.413V85.0496H471.657V95.8062H460.9V106.563H450.143V117.319H439.387V128.076V138.833V149.589V160.346V171.103V181.859V192.616H450.143V203.344H460.9V214.1H471.657V224.857H482.413V235.614H493.141H503.898H514.655H525.411H536.168H546.924H557.681V224.857H568.438V214.1H579.194V203.344H589.951V192.616H600.707V181.859V171.103V160.346V149.589V138.833V128.076V117.319H589.951V106.563ZM557.681 203.344H546.924V192.616H536.168V181.859H525.411H514.655H503.898H493.141H482.413H471.657V171.103H482.413H493.141H503.898H514.655H525.411H536.168H546.924V181.859H557.681V192.616V203.344ZM460.9 149.589H471.657H482.413H493.141H503.898H514.655H525.411H536.168H546.924H557.681H568.438V160.346H557.681H546.924H536.168H525.411H514.655H503.898H493.141H482.413H471.657H460.9V149.589ZM482.413 128.076H493.141H503.898H514.655H525.411H536.168V117.319H546.924V106.563H557.681V117.319V128.076H546.924V138.833H536.168H525.411H514.655H503.898H493.141H482.413H471.657V128.076H482.413Z" fill="#013AEC"/>
</svg>
