<svg width="675" height="675" viewBox="0 0 675 675" fill="none" xmlns="http://www.w3.org/2000/svg">
<path d="M0 606.956V68.0444H34.0219L34.0219 34.0222H68.0441V0H606.955L606.955 34.0222H640.977V68.0444H675V0L675 675L675 606.956L640.977 606.956V640.978H606.955L606.955 675H68.0439L68.0438 640.978H34.0217L34.0217 606.956L0 606.956Z" fill="#6FCBF5"/>
<rect x="104.01" y="464.858" width="98.7028" height="105.071" fill="white"/>
<path d="M160.318 514.684V503.927V493.171H149.562V482.414H138.805H128.048V493.171H117.32V503.927V514.684H128.048V525.441H138.805H149.562V514.684H160.318Z" fill="#FFD200"/>
<path d="M224.857 471.657H214.101V460.9H203.344V450.143H192.587V439.387H181.831H171.074H160.317H149.561H138.804H128.048H117.319V450.143H106.563V460.9H95.8062V471.657H85.0496V482.413H74.293V493.17V503.926V514.683V525.44V536.196V546.953V557.709H85.0496V568.438H95.8062V579.194H106.563V589.951H117.319V600.707H128.048H138.804H149.561H160.317H171.074H181.831H192.587V589.951H203.344V579.194H214.101V568.438H224.857V557.709H235.614V546.953V536.196V525.44V514.683V503.926V493.17V482.413H224.857V471.657V471.657ZM192.587 568.438V557.709H181.831V546.953H171.074V536.196H160.317V525.44H149.561V536.196H138.804H128.048V525.44H117.319V514.683H106.563V503.926V493.17H117.319V482.413H128.048V471.657H138.804H149.561V482.413H160.317V493.17H171.074V503.926V514.683H160.317V525.44H171.074V536.196H181.831V546.953H192.587V557.709H203.344V568.438H192.587V568.438Z" fill="#FFD200"/>
<rect x="481.84" y="457.43" width="75.3538" height="123.113" fill="white"/>
<path d="M503.901 546.955H514.658H525.414H536.171V536.198H546.928V525.441H536.171H525.414H514.658H503.901V536.198H493.145V546.955H503.901Z" fill="#FFD200"/>
<path d="M536.166 514.686H546.922V503.929V493.172V482.416V471.659H536.166H525.409H514.652V482.416V493.172V503.929V514.686H525.409H536.166Z" fill="#FFD200"/>
<path d="M589.951 471.657H579.194V460.9H568.438V450.143H557.681V439.387H546.924H536.168H525.411H514.655H503.898H493.141H482.413V450.143H471.657V460.9H460.9V471.657H450.143V482.413H439.387V493.17V503.926V514.683V525.44V536.196V546.953V557.709H450.143V568.438H460.9V579.194H471.657V589.951H482.413V600.707H493.141H503.898H514.655H525.411H536.168H546.924H557.681V589.951H568.438V579.194H579.194V568.438H589.951V557.709H600.707V546.953V536.196V525.44V514.683V503.926V493.17V482.413H589.951V471.657V471.657ZM482.413 568.438V557.709V546.953V536.196H493.141V525.44H503.898V514.683V503.926V493.17V482.413V471.657V460.9H514.655H525.411H536.168H546.924H557.681V471.657V482.413V493.17V503.926V514.683V525.44V536.196V546.953V557.709V568.438H546.924V557.709V546.953H536.168V557.709V568.438V579.194H525.411V568.438V557.709H514.655H503.898H493.141V568.438V579.194H482.413V568.438V568.438Z" fill="#FFD200"/>
<rect x="457.429" y="298.23" width="124.175" height="81.7217" fill="white"/>
<rect x="486.084" y="364.032" width="55.1887" height="44.5755" fill="white"/>
<path d="M493.135 364.405H503.892H514.648H525.405H536.162H546.918H557.675H568.431V353.649V342.892V332.135V321.379V310.622H557.675H546.918H536.162H525.405H514.648H503.892H493.135H482.407H471.65V321.379V332.135V342.892V353.649V364.405H482.407H493.135ZM525.405 342.892H514.648V332.135H525.405V342.892ZM557.675 342.892H546.918V332.135H557.675V342.892ZM482.407 332.135H493.135V342.892H482.407V332.135V332.135Z" fill="#013AEC"/>
<path d="M589.951 299.866V289.11H579.194V278.353H568.438V267.596H557.681V256.84H546.924H536.168H525.411H514.655H503.898H493.141H482.413V267.596H471.657V278.353H460.9V289.11H450.143V299.866H439.387V310.623V321.38V332.136V342.893V353.649V364.406V375.163H450.143V385.891H460.9V396.647H471.657V407.404H482.413V418.161H493.141H503.898H514.655H525.411H536.168H546.924H557.681V407.404H568.438V396.647H579.194V385.891H589.951V375.163H600.707V364.406V353.649V342.893V332.136V321.38V310.623V299.866H589.951ZM493.141 407.404V396.647V385.891V375.163H482.413H471.657V364.406H460.9V353.649V342.893V332.136V321.38V310.623H471.657V299.866H482.413H493.141H503.898H514.655H525.411H536.168H546.924H557.681H568.438V310.623H579.194V321.38V332.136V342.893V353.649V364.406H568.438V375.163H557.681H546.924H536.168H525.411V385.891H514.655V396.647H503.898V407.404H493.141V407.404Z" fill="#013AEC"/>
<rect x="287.618" y="288.68" width="99.7642" height="102.948" fill="white"/>
<rect x="297.17" y="277.005" width="81.7217" height="19.1038" fill="white"/>
<path d="M310.593 353.648H299.865V364.405H310.593V353.648Z" fill="#FFD200"/>
<path d="M299.865 310.623V321.379V332.136V342.892H310.593H321.35H332.107H342.863H353.62H364.376H375.133V332.136V321.379V310.623V299.866V289.109H364.376H353.62H342.863H332.107H321.35H310.593H299.865V299.866V310.623Z" fill="#FFD200"/>
<path d="M375.134 353.648H364.377V364.405H375.134V353.648Z" fill="#FFD200"/>
<path d="M407.404 289.11H396.647V278.353H385.891V267.596H375.134V256.84H364.378H353.621H342.864H332.108H321.351H310.594H299.866V267.596H289.11V278.353H278.353V289.11H267.596V299.866H256.84V310.623V321.38V332.136V342.893V353.649V364.406V375.163H267.596V385.891H278.353V396.647H289.11V407.404H299.866V418.161H310.594H321.351H332.108H342.864H353.621H364.378H375.134V407.404H385.891V396.647H396.647V385.891H407.404V375.163H418.161V364.406V353.649V342.893V332.136V321.38V310.623V299.866H407.404V289.11ZM299.866 289.11V278.353H310.594H321.351H332.108H342.864H353.621H364.378H375.134V289.11H385.891V299.866V310.623V321.38V332.136V342.893V353.649V364.406V375.163H375.134V385.891H364.378V375.163H353.621H342.864H332.108H321.351H310.594V385.891H299.866V375.163H289.11V364.406V353.649V342.893V332.136V321.38V310.623V299.866V289.11H299.866Z" fill="#FFD200"/>
<rect x="84.9062" y="350.236" width="133.726" height="26.533" fill="white"/>
<rect x="106.133" y="278.066" width="96.5802" height="122.052" fill="white"/>
<path d="M224.857 289.11H214.101V278.353H203.344V267.596H192.587V256.84H181.831H171.074H160.317H149.561H138.804H128.048H117.319V267.596H106.563V278.353H95.8062V289.11H85.0496V299.866H74.293V310.623V321.38V332.136V342.893V353.649V364.406V375.163H85.0496V385.891H95.8062V396.647H106.563V407.404H117.319V418.161H128.048H138.804H149.561H160.317H171.074H181.831H192.587V407.404H203.344V396.647H214.101V385.891H224.857V375.163H235.614V364.406V353.649V342.893V332.136V321.38V310.623V299.866H224.857V289.11V289.11ZM203.344 375.163V385.891H192.587V396.647H181.831H171.074H160.317H149.561H138.804H128.048H117.319V385.891H106.563V375.163H95.8062V364.406H106.563H117.319H128.048H138.804V353.649V342.893H128.048V332.136H117.319V321.38H106.563V310.623H117.319V299.866H128.048V289.11H138.804V278.353H149.561V289.11V299.866V310.623V321.38V332.136V342.893V353.649V364.406H160.317H171.074H181.831V353.649V342.893H171.074V332.136H160.317V321.38V310.623H171.074V299.866H181.831V289.11H192.587V299.866V310.623V321.38V332.136V342.893V353.649V364.406H203.344V353.649H214.101V364.406V375.163H203.344Z" fill="#013AEC"/>
<rect x="457.429" y="115.685" width="124.175" height="80.6604" fill="white"/>
<rect x="471.226" y="95.5195" width="99.7642" height="35.0236" fill="white"/>
<rect x="471.226" y="170.873" width="99.7642" height="35.0236" fill="white"/>
<rect x="502.004" y="178.303" width="44.5755" height="35.0236" fill="white"/>
<path d="M514.654 192.618V181.861V171.104V160.348V149.591V138.835V128.078H503.898V117.321H493.141H482.413H471.656V128.078V138.835V149.591V160.348V171.104V181.861V192.618H482.413H493.141H503.898V203.346H514.654V192.618Z" fill="#FFD200"/>
<path d="M568.439 171.104V160.348V149.591V138.835V128.078V117.321H557.682H546.925H536.169V128.078H525.412V138.835V149.591V160.348V171.104V181.861V192.618V203.346H536.169V192.618H546.925H557.682H568.439V181.861V171.104Z" fill="#FFD200"/>
<path d="M589.951 106.564H579.194V95.8072H568.438V85.0506H557.681V74.2939H546.924H536.168H525.411H514.655H503.898H493.141H482.413V85.0506H471.657V95.8072H460.9V106.564H450.143V117.32H439.387V128.077V138.834V149.59V160.347V171.104V181.86V192.617H450.143V203.345H460.9V214.101H471.657V224.858H482.413V235.615H493.141H503.898H514.655H525.411H536.168H546.924H557.681V224.858H568.438V214.101H579.194V203.345H589.951V192.617H600.707V181.86V171.104V160.347V149.59V138.834V128.077V117.32H589.951V106.564V106.564ZM579.194 128.077V138.834V149.59V160.347V171.104V181.86V192.617H568.438V203.345H557.681H546.924H536.168V214.101H525.411H514.655H503.898V203.345H493.141H482.413H471.657V192.617H460.9V181.86V171.104V160.347V149.59V138.834V128.077V117.32H471.657V106.564H482.413H493.141H503.898V117.32H514.655H525.411H536.168V106.564H546.924H557.681H568.438V117.32H579.194V128.077V128.077Z" fill="#FFD200"/>
<rect x="106.133" y="100.826" width="96.5802" height="88.0896" fill="white"/>
<rect x="116.746" y="188.916" width="54.1274" height="27.5943" fill="white"/>
<rect x="148.585" y="92.335" width="20.1651" height="28.6557" fill="white"/>
<path d="M224.857 106.563H214.1V95.8062H203.344V85.0496H192.587V74.293H181.831H171.074H160.317H149.561H138.804H128.048H117.319V85.0496H106.563V95.8062H95.8062V106.563H85.0496V117.319H74.293V128.076V138.833V149.589V160.346V171.102V181.859V192.616H85.0496V203.344H95.8062V214.101H106.563V224.857H117.319V235.614H128.048H138.804H149.561H160.317H171.074H181.831H192.587V224.857H203.344V214.101H214.1V203.344H224.857V192.616H235.614V181.859V171.102V160.346V149.589V138.833V128.076V117.319H224.857V106.563ZM128.048 203.344V192.616H138.804V203.344H149.561V192.616V181.859V171.102V160.346V149.589H138.804H128.048H117.319V160.346H106.563V149.589V138.833V128.076H117.319V117.319H128.048V106.563H138.804H149.561V95.8062H160.317V106.563H171.074H181.831V117.319H192.587V128.076H203.344V138.833V149.589V160.346H192.587V149.589H181.831H171.074H160.317V160.346V171.102V181.859V192.616V203.344V214.101H149.561H138.804H128.048V203.344Z" fill="#FFD200"/>
<rect x="271.698" y="120.99" width="124.175" height="77.4764" fill="white"/>
<rect x="316.273" y="97.6416" width="44.5755" height="35.0236" fill="white"/>
<rect x="316.273" y="180.425" width="44.5755" height="35.0236" fill="white"/>
<path d="M407.404 106.563H396.647V95.8062H385.891V85.0495H375.134V74.293H364.378H353.621H342.864H332.108H321.351H310.594H299.866V85.0495H289.11V95.8062H278.353V106.563H267.596V117.319H256.84V128.076V138.833V149.589V160.346V171.102V181.859V192.616H267.596V203.344H278.353V214.101H289.11V224.857H299.866V235.614H310.594H321.351H332.108H342.864H353.621H364.378H375.134V224.857H385.891V214.101H396.647V203.344H407.404V192.616H418.161V181.859V171.102V160.346V149.589V138.833V128.076V117.319H407.404V106.563ZM278.353 149.589H289.11V138.833H299.866V149.589V160.346V171.102H289.11V160.346H278.353V149.589ZM385.891 149.589H375.134V138.833H364.378V149.589H353.621V138.833H364.378V128.076H375.134V138.833H385.891V149.589ZM342.864 171.102V181.859V192.616V203.344H332.108V192.616H321.351V181.859H310.594V171.102V160.346V149.589V138.833V128.076H321.351V117.319H332.108V106.563H342.864V117.319V128.076V138.833V149.589V160.346V171.102ZM375.134 181.859V171.102H364.378V181.859H353.621V171.102H364.378V160.346H375.134V171.102H385.891V181.859H375.134Z" fill="#013AEC"/>
<rect x="287.618" y="470.165" width="100.825" height="99.7642" fill="white"/>
<path d="M353.658 503.919H342.892H332.145H321.379H310.632H299.865V514.665V525.43V536.195V546.94V557.686H310.632H321.379H332.145H342.892H353.658H364.424H375.171V546.94V536.195V525.43V514.665V503.919H364.424H353.658V503.919ZM342.892 514.684V525.449H332.145V514.684H342.892ZM310.632 514.684H321.379V525.449H310.632V514.684ZM310.632 546.94V536.195H321.379V546.94H310.632V546.94ZM332.145 546.94V536.195H342.892V546.94H332.145V546.94ZM364.405 546.94H353.639V536.195H364.405V546.94ZM364.405 525.43H353.639V514.665H364.405V525.43Z" fill="#013AEC"/>
<path d="M407.414 482.408V471.662H396.686V460.897H385.939V450.152H375.173V439.387H364.426H353.659H342.893H332.146H321.38H310.633H299.866V450.152H289.119V460.897H278.353V471.662H267.606V482.408H256.84V493.173V503.919V514.665V525.43V536.195V546.94V557.686H267.606V568.451H278.353V579.197H289.119V589.962H299.866V600.707H310.633H321.38H332.146H342.893H353.659H364.426H375.173V589.962H385.939V579.197H396.686V568.451H407.414V557.686H418.161V546.94V536.195V525.43V514.665V503.919V493.173V482.408H407.414V482.408ZM375.173 568.451H364.426H353.659H342.893H332.146H321.38H310.633H299.866H289.119V557.686V546.94V536.195V525.43V514.665V503.919V493.173H299.866V482.408V471.662H310.633V482.408V493.173H321.38H332.146H342.893H353.659V482.408V471.662H364.426V482.408V493.173H375.173H385.939V503.919V514.665V525.43V536.195V546.94V557.686V568.451H375.173Z" fill="#013AEC"/>
</svg>
