<svg width="675" height="675" viewBox="0 0 675 675" fill="none" xmlns="http://www.w3.org/2000/svg">
<path d="M0 606.956V68.0444H34.0219L34.0219 34.0222H68.0441V0H606.955L606.955 34.0222H640.977V68.0444H675V0L675 675L675 606.956L640.977 606.956V640.978H606.955L606.955 675H68.0439L68.0438 640.978H34.0217L34.0217 606.956L0 606.956Z" fill="#6FCBF5"/>
<rect x="473.104" y="456.023" width="95.523" height="132.219" fill="white"/>
<path d="M589.952 471.657H579.195V460.9H568.439V450.143H557.682V439.387H546.925H536.169H525.412H514.656H503.899H493.142H482.414V450.143H471.658V460.9H460.901V471.657H450.144V482.413H439.388V493.17V503.926V514.683V525.44V536.196V546.953V557.709H450.144V568.438H460.901V579.194H471.658V589.951H482.414V600.707H493.142H503.899H514.656H525.412H536.169H546.925H557.682V589.951H568.439V579.194H579.195V568.438H589.952V557.709H600.708V546.953V536.196V525.44V514.683V503.926V493.17V482.413H589.952V471.657ZM568.439 525.44H557.682V514.683H568.439V525.44ZM536.169 546.953H525.412H514.656H503.899V536.196H493.142V525.44V514.683V503.926H503.899V493.17H514.656H525.412H536.169V503.926H546.925V514.683V525.44V536.196H536.169V546.953ZM471.658 514.683H482.414V525.44H471.658V514.683ZM482.414 546.953H493.142V557.709H482.414V546.953ZM514.656 557.709H525.412V568.438H514.656V557.709ZM525.412 482.413H514.656V471.657H525.412V482.413ZM557.682 493.17H546.925V482.413H557.682V493.17ZM493.142 482.413V493.17H482.414V482.413H493.142ZM546.925 557.709V546.953H557.682V557.709H546.925Z" fill="#398B67"/>
<rect x="459.181" y="106.279" width="122.519" height="97.3487" fill="white"/>
<path d="M557.682 117.32H546.925H536.168H525.412H514.655H503.899H493.142H482.414V128.077H471.657V138.834V149.59V160.347V171.103H482.414H493.142H503.899V181.86V192.617H514.655H525.412H536.168H546.925H557.682V181.86H568.438V171.103V160.347V149.59V138.834V128.077H557.682V117.32ZM514.655 128.077V138.834H503.899V128.077H514.655ZM482.414 138.834H493.142V149.59H482.414V138.834ZM536.168 181.86V171.103H546.925V181.86H536.168ZM557.682 160.347H546.925V149.59H557.682V160.347ZM546.925 138.834H536.168V128.077H546.925V138.834Z" fill="#398B67"/>
<path d="M589.952 106.563H579.195V95.8062H568.439V85.0496H557.682V74.293H546.925H536.169H525.412H514.656H503.899H493.142H482.414V85.0496H471.658V95.8062H460.901V106.563H450.144V117.319H439.388V128.076V138.833V149.589V160.346V171.103V181.859V192.616H450.144V203.344H460.901V214.101H471.658V224.857H482.414V235.614H493.142H503.899H514.656H525.412H536.169H546.925H557.682V224.857H568.439V214.101H579.195V203.344H589.952V192.616H600.708V181.859V171.103V160.346V149.589V138.833V128.076V117.319H589.952V106.563ZM579.195 128.076V138.833V149.589V160.346V171.103V181.859H568.439V192.616H557.682V203.344H546.925H536.169H525.412H514.656H503.899H493.142V192.616V181.859H482.414H471.658H460.901V171.103V160.346V149.589V138.833V128.076H471.658V117.319H482.414V106.563H493.142H503.899H514.656H525.412H536.169H546.925H557.682V117.319H568.439V128.076H579.195Z" fill="#398B67"/>
<rect x="290.979" y="291.607" width="101.635" height="97.3487" fill="white"/>
<path d="M407.404 289.11H396.647V278.353H385.891V267.596H375.134V256.84H364.378H353.621H342.864H332.108H321.351H310.594H299.866V267.596H289.11V278.353H278.353V289.11H267.596V299.866H256.84V310.623V321.38V332.136V342.893V353.649V364.406V375.163H267.596V385.891H278.353V396.647H289.11V407.404H299.866V418.161H310.594H321.351H332.108H342.864H353.621H364.378H375.134V407.404H385.891V396.647H396.647V385.891H407.404V375.163H418.161V364.406V353.649V342.893V332.136V321.38V310.623V299.866H407.404V289.11ZM375.134 364.406V375.163H364.378V385.891H353.621H342.864H332.108H321.351H310.594V375.163H299.866V364.406H289.11V353.649H299.866V364.406H310.594H321.351H332.108H342.864H353.621H364.378H375.134V353.649H385.891V364.406H375.134ZM385.891 332.136H375.134V321.38H364.378V332.136H353.621V321.38H364.378V310.623H375.134V321.38H385.891V332.136ZM289.11 321.38H299.866V310.623H310.594V321.38H321.351V332.136H310.594V321.38H299.866V332.136H289.11V321.38Z" fill="#398B67"/>
<rect x="107.194" y="471.227" width="96.5802" height="97.6415" fill="white"/>
<path d="M128.067 536.195H117.32V546.941H128.067V536.195Z" fill="#398B67"/>
<path d="M138.853 546.94H128.087V557.686H138.853V546.94Z" fill="#398B67"/>
<path d="M128.087 536.194H138.834V546.94H149.6H160.347V536.194H171.114V525.429H181.86V514.684H171.114V503.919H160.347V493.173H149.6V503.919H138.834V514.684H128.087V525.429V536.194Z" fill="#398B67"/>
<path d="M171.113 493.173V503.919H181.86V514.684H192.626V503.919V493.173H181.86V482.408H171.113H160.347V493.173H171.113Z" fill="#398B67"/>
<path d="M224.868 482.408V471.662H214.14V460.897H203.393V450.152H192.627V439.387H181.88H171.113H160.366H149.6H138.853H128.087H117.34V450.152H106.574V460.897H95.8073V471.662H85.0602V482.408H74.2939V493.173V503.919V514.665V525.43V536.195V546.94V557.686H85.0602V568.451H95.8073V579.197H106.574V589.962H117.34V600.707H128.087H138.853H149.6H160.366H171.113H181.88H192.627V589.962H203.393V579.197H214.14V568.451H224.868V557.686H235.615V546.94V536.195V525.43V514.665V503.919V493.173V482.408H224.868V482.408ZM106.574 557.705V546.96V536.214V525.449H117.34V514.684H128.087V503.938H138.853V493.192H149.6V482.427H160.366V471.682H171.113H181.88V482.427H192.627V493.192H203.393V503.938V514.684H192.627V525.449H181.88V536.214H171.113V546.96H160.366V557.705H149.6V568.47H138.853H128.087H117.34H106.574V557.705Z" fill="#398B67"/>
<rect x="85.0488" y="106.594" width="133.584" height="96.6983" fill="white"/>
<path d="M106.564 149.59H95.8076V160.346H106.564V149.59Z" fill="#398B67"/>
<path d="M128.048 149.59H117.32V160.346H128.048V149.59Z" fill="#398B67"/>
<path d="M149.562 149.59H138.806V160.346H149.562V149.59Z" fill="#398B67"/>
<path d="M224.858 106.563H214.101V95.8062H203.345V85.0496H192.588V74.293H181.832H171.075H160.318H149.562H138.805H128.049H117.32V85.0496H106.564V95.8062H95.8072V106.563H85.0506V117.319H74.2939V128.076V138.833V149.589V160.346V171.102V181.859V192.616H85.0506V203.344H95.8072V214.1H106.564V224.857H117.32V235.614H128.049H138.805H149.562H160.318H171.075H181.832H192.588V224.857H203.345V214.1H214.101V203.344H224.858V192.616H235.615V181.859V171.102V160.346V149.589V138.833V128.076V117.319H224.858V106.563ZM85.0506 160.346V149.589H95.8072V138.833H106.564H117.32H128.049H138.805V128.076H149.562V117.319H160.318V106.563H171.075H181.832V117.319V128.076H171.075V138.833H181.832H192.588H203.345V128.076H214.101V138.833V149.589V160.346H203.345V171.102H192.588H181.832H171.075V181.859H181.832V192.616V203.344H171.075H160.318V192.616H149.562V181.859H138.805V171.102H128.049H117.32H106.564H95.8072H85.0506V160.346V160.346Z" fill="#398B67"/>
<rect x="476.534" y="286.557" width="84.9057" height="113.561" fill="white"/>
<path d="M525.412 332.137H514.655V342.893H525.412V332.137Z" fill="#E51041"/>
<path d="M525.412 310.623H514.655V321.38H525.412V310.623Z" fill="#E51041"/>
<path d="M589.952 289.11H579.195V278.353H568.439V267.596H557.682V256.84H546.925H536.169H525.412H514.656H503.899H493.142H482.414V267.596H471.658V278.353H460.901V289.11H450.144V299.866H439.388V310.623V321.38V332.136V342.893V353.649V364.406V375.163H450.144V385.891H460.901V396.647H471.658V407.404H482.414V418.161H493.142H503.899H514.656H525.412H536.169H546.925H557.682V407.404H568.439V396.647H579.195V385.891H589.952V375.163H600.708V364.406V353.649V342.893V332.136V321.38V310.623V299.866H589.952V289.11ZM546.925 396.647H536.169V385.891V375.163H525.412V385.891V396.647H514.656V385.891V375.163H503.899V385.891V396.647H493.142H482.414V385.891H493.142V375.163V364.406H503.899V353.649V342.893V332.136V321.38V310.623V299.866H514.656V289.11H525.412V299.866H536.169V310.623V321.38V332.136V342.893V353.649V364.406H546.925V375.163V385.891H557.682V396.647H546.925Z" fill="#E51041"/>
<rect x="300.354" y="469.104" width="84.9057" height="120.991" fill="white"/>
<path d="M407.404 471.657H396.647V460.9H385.891V450.143H375.134V439.387H364.378H353.621H342.864H332.108H321.351H310.594H299.866V450.143H289.11V460.9H278.353V471.657H267.596V482.413H256.84V493.17V503.926V514.683V525.44V536.196V546.953V557.71H267.596V568.438H278.353V579.194H289.11V589.951H299.866V600.707H310.594H321.351H332.108H342.864H353.621H364.378H375.134V589.951H385.891V579.194H396.647V568.438H407.404V557.71H418.161V546.953V536.196V525.44V514.683V503.926V493.17V482.413H407.404V471.657ZM332.108 589.951V579.194V568.438H321.351V557.71H310.594V546.953H321.351V557.71H332.108V546.953V536.196V525.44V514.683H321.351H310.594V503.926H299.866V493.17H310.594V482.413V471.657H321.351H332.108H342.864H353.621V482.413H364.378V493.17V503.926H353.621V514.683H342.864V525.44V536.196V546.953H353.621V536.196H364.378V546.953H353.621V557.71H342.864V568.438V579.194V589.951H332.108Z" fill="#E51041"/>
<rect x="113.562" y="286.556" width="89.7399" height="110.122" fill="white"/>
<path d="M192.588 353.648H181.831V364.405V375.162H192.588V364.405V353.648Z" fill="#E51041"/>
<path d="M224.858 289.109H214.101V278.352H203.345V267.595H192.588V256.839H181.832H171.075H160.318H149.562H138.805H128.049H117.32V267.595H106.564V278.352H95.8072V289.109H85.0506V299.865H74.2939V310.622V321.379V332.135V342.892V353.648V364.405V375.162H85.0506V385.89H95.8072V396.646H106.564V407.403H117.32V418.16H128.049H138.805H149.562H160.318H171.075H181.832H192.588V407.403H203.345V396.646H214.101V385.89H224.858V375.162H235.615V364.405V353.648V342.892V332.135V321.379V310.622V299.865H224.858V289.109V289.109ZM203.345 375.162H192.588V385.89H181.832V396.646H171.075H160.318H149.562H138.805H128.049V385.89H117.32V375.162V364.405V353.648V342.892H128.049H138.805H149.562H160.318H171.075H181.832H192.588V353.648H203.345V364.405V375.162V375.162ZM138.805 321.379V310.622H149.562V299.865H160.318V310.622H149.562V321.379H160.318V332.135H149.562V321.379H138.805Z" fill="#E51041"/>
<rect x="286.804" y="109.061" width="101.635" height="105.008" fill="white"/>
<path d="M407.404 106.563H396.647V95.8062H385.891V85.0496H375.134V74.293H364.378H353.621H342.864H332.108H321.351H310.594H299.866V85.0496H289.11V95.8062H278.353V106.563H267.596V117.319H256.84V128.076V138.833V149.589V160.346V171.103V181.859V192.616H267.596V203.344H278.353V214.101H289.11V224.857H299.866V235.614H310.594H321.351H332.108H342.864H353.621H364.378H375.134V224.857H385.891V214.101H396.647V203.344H407.404V192.616H418.161V181.859V171.103V160.346V149.589V138.833V128.076V117.319H407.404V106.563V106.563ZM321.351 203.344V192.616H310.594V181.859H299.866V171.103H289.11V160.346V149.589V138.833V128.076H299.866V117.319H310.594H321.351H332.108V128.076H342.864V117.319H353.621H364.378H375.134V128.076H385.891V138.833V149.589V160.346V171.103H375.134V181.859H364.378V192.616H353.621V203.344H342.864V214.101H332.108V203.344H321.351Z" fill="#E51041"/>
</svg>
