<svg width="1920" height="220" viewBox="0 0 1920 220" fill="none" xmlns="http://www.w3.org/2000/svg">
<rect width="1920" height="220" fill="#013AEC"/>
<rect x="186.4" y="62.5254" width="156.298" height="101.773" fill="white"/>
<path d="M284.317 125.818V136.547H295.038V125.818V115.09H284.317V125.818Z" fill="#FFD200"/>
<path d="M380.345 72.545V61.9016H369.71V51.2867H359.075V40.6433H348.44V30C338.145 30 326.602 30 176.519 30V40.6433H166.14V51.2583H155.76V61.9016H145.38V72.545H135C135 96.8685 135 122.64 135 146.992H145.38V157.578H155.76V168.221H166.14V178.865H176.519V189.48C326.602 189.48 338.145 189.48 348.44 189.48V178.865H359.075V168.221H369.71V157.607H380.345V146.992H390.952C390.952 122.668 390.952 96.8969 390.952 72.545H380.345V72.545ZM252.156 82.9045H241.436H230.716V93.633V104.361V115.09V125.818V136.547V147.275H219.996V136.547V125.818V115.09V104.361V93.633V82.9045H209.276H198.555V72.176H209.276H219.996H230.716H241.436H252.156V82.9045ZM305.757 115.09V125.818V136.547V147.275H295.037H284.317H273.597V136.547V125.818V115.09V104.361V93.633V82.9045V72.176H284.317V82.9045V93.633V104.361H295.037H305.757V115.09ZM327.198 82.9045V93.633V104.361V115.09V125.818V136.547V147.275H316.478V136.547V125.818V115.09V104.361V93.633V82.9045V72.176H327.198V82.9045Z" fill="#FFD200"/>
<rect x="469.624" y="62.5254" width="652.467" height="101.773" fill="white"/>
<path d="M614.737 83.2227V93.9408V104.659H625.453H636.169V93.9408V83.2227H625.453H614.737Z" fill="#FFD200"/>
<path d="M946.899 115.377V126.095V136.813H957.615H968.331V126.095V115.377H957.615H946.899Z" fill="#FFD200"/>
<path d="M743.298 115.376V126.094V136.812H754.014H764.73V126.094V115.376H754.014H743.298Z" fill="#FFD200"/>
<path d="M764.73 83.2227H754.014H743.298V93.9408V104.659H754.014H764.73V93.9408V83.2227Z" fill="#FFD200"/>
<path d="M679.032 104.659V115.377H689.748H700.463V104.659V93.9408V83.2227H689.748H679.032V93.9408V104.659Z" fill="#FFD200"/>
<path d="M1096.89 104.659V93.9408V83.2227H1086.18H1075.46V93.9408V104.659H1086.18H1096.89Z" fill="#FFD200"/>
<path d="M1160.76 72.4473V61.8142H1150.13V51.2094H1139.53V40.5764H1128.9V30C1118.61 30 603.454 30 453.461 30V40.6331H443.085V51.2662H432.709V61.8709H422.334V72.504H411.93C411.93 96.8324 411.93 122.55 411.93 146.879H422.334V157.484H432.709V168.088H443.085V178.721H453.461V189.354C603.454 189.354 1118.61 189.354 1128.9 189.354V178.721V178.665H1139.53V168.032H1150.13V157.427H1160.76V146.822H1171.39C1171.39 122.494 1171.39 96.7757 1171.39 72.4473H1160.76V72.4473ZM518.294 83.2221H507.578H496.863H486.147V93.9402V104.658V115.377V126.095V136.813H496.863H507.578H518.294V147.531H507.578H496.863H486.147V136.813H475.431V126.095V115.377V104.658V93.9402V83.2221H486.147V72.504H496.863H507.578H518.294V83.2221ZM582.589 83.2221V93.9402V104.658V115.377V126.095V136.813V147.531H571.873V136.813V126.095V115.377V104.658V93.9402V83.2221H561.157H550.442V93.9402V104.658V115.377V126.095V136.813V147.531H539.726V136.813V126.095V115.377V104.658V93.9402V83.2221V72.504H550.442H561.157H571.873H582.589V83.2221ZM646.884 83.2221V93.9402V104.658V115.377H636.168H625.452H614.737V126.095V136.813V147.531H604.021V136.813V126.095V115.377V104.658V93.9402V83.2221V72.504H614.737H625.452H636.168H646.884V83.2221ZM711.179 93.9402V104.658V115.377V126.095V136.813V147.531H700.463V136.813V126.095H689.747H679.032V136.813V147.531H668.316V136.813V126.095V115.377V104.658V93.9402V83.2221H679.032V72.504H689.747H700.463V83.2221H711.179V93.9402ZM775.446 93.9402V104.658H764.73V115.377H775.446V126.095V136.813V147.531H764.73H754.014H743.298H732.582V136.813V126.095V115.377V104.658V93.9402V83.2221V72.504H743.298H754.014H764.73V83.2221H775.446V93.9402ZM839.741 83.2221V93.9402V104.658V115.377V126.095V136.813V147.531H829.025V136.813V126.095V115.377H818.309V126.095H807.593V136.813V147.531H796.877V136.813V126.095V115.377V104.658V93.9402V83.2221V72.504H807.593V83.2221V93.9402V104.658V115.377H818.309V104.658H829.025V93.9402V83.2221V72.504H839.741V83.2221ZM914.751 83.2221V93.9402V104.658V115.377V126.095V136.813V147.531H904.036H893.32H882.604H871.888H861.172V136.813V126.095V115.377V104.658V93.9402V83.2221V72.504H871.888V83.2221V93.9402V104.658V115.377V126.095V136.813H882.604V126.095V115.377V104.658V93.9402V83.2221V72.504H893.32V83.2221V93.9402V104.658V115.377V126.095V136.813H904.036V126.095V115.377V104.658V93.9402V83.2221V72.504H914.751V83.2221ZM979.046 115.377V126.095V136.813V147.531H968.331H957.615H946.899H936.183V136.813V126.095V115.377V104.687V93.9686V83.2505V72.5323H946.899V83.2505V93.9686V104.687H957.615H968.331H979.046V115.377ZM1043.31 83.2221H1032.6H1021.88H1011.17V93.9402V104.658V115.377V126.095V136.813H1021.88H1032.6H1043.31V147.531H1032.6H1021.88H1011.17V136.813H1000.45V126.095V115.377V104.658V93.9402V83.2221H1011.17V72.504H1021.88H1032.6H1043.31V83.2221ZM1107.61 83.2221V93.9402V104.658V115.377V126.095V136.813V147.531H1096.89V136.813V126.095V115.377H1086.18H1075.46V126.095V136.813V147.531H1064.74V136.813V126.095V115.377H1075.46V104.658H1064.74V93.9402V83.2221H1075.46V72.504H1086.18H1096.89H1107.61V83.2221Z" fill="#FFD200"/>
<rect x="1240.63" y="62.5254" width="78.6737" height="101.773" fill="white"/>
<path d="M1351.7 73.4499V62.8425H1341.1V52.2352H1330.52V41.6562H1319.92V41.6279V31.0488C1308.12 31.0488 1283.07 31.0488 1233.8 31.0488V41.6279H1223.45V52.2352H1213.1V62.8425H1202.75V73.4216H1192.37C1192.37 97.6911 1192.37 123.375 1192.37 147.616H1202.75V158.195H1213.1V168.803H1223.45V179.382H1233.8V189.989C1283.07 189.989 1308.12 189.989 1319.92 189.989V179.41H1330.52V179.382V168.803H1341.1V158.195H1351.7V147.645H1362.31C1362.31 123.375 1362.31 97.6911 1362.31 73.4499H1351.7V73.4499ZM1295.88 83.8026H1285.19H1274.5H1263.81V94.4948V105.187V115.879V126.571V137.264H1274.5H1285.19H1295.88V147.956H1285.19H1274.5H1263.81V137.264H1253.12V126.571V115.879V105.187V94.4948V83.8026H1263.81V73.1104H1274.5H1285.19H1295.88V83.8026Z" fill="#FFD200"/>
<rect x="1440.98" y="62.5264" width="296.862" height="101.773" fill="white"/>
<path d="M1773.41 72.545V61.9016H1762.79V51.2583H1752.17V40.615H1741.58H1741.55V30C1731.27 30 1574.61 30 1424.75 30V40.615H1414.38V51.2583H1404.02V61.9016H1393.65V72.545H1383.29C1383.29 96.8685 1383.29 122.64 1383.29 146.963H1393.65V157.578H1404.02V168.221H1414.38V178.865H1424.75V189.48C1574.61 189.48 1731.27 189.48 1741.58 189.48V178.865H1752.17V168.221H1762.79V157.578H1773.41V146.963H1784C1784 122.64 1784 96.8685 1784 72.545H1773.41V72.545ZM1489.54 94.0019V104.73V115.459V126.187V136.916H1478.84V147.644H1468.13H1457.43H1446.72V136.916H1457.43H1468.13H1478.84V126.187V115.459H1468.13H1457.43V104.73H1468.13H1478.84V94.0019V83.2734H1468.13H1457.43H1446.72V72.545H1457.43H1468.13H1478.84V83.2734H1489.54V94.0019ZM1564.44 83.2734H1553.74H1543.03V94.0019V104.73V115.459V126.187V136.916V147.644H1532.33V136.916V126.187V115.459V104.73V94.0019V83.2734H1521.63H1510.92V72.545H1521.63H1532.33H1543.03H1553.74H1564.44V83.2734ZM1629.35 83.2734V94.0019V104.73V115.459V126.187V136.916V147.644H1618.65V136.916V126.187V115.459H1607.94V126.187H1597.24V136.916V147.644H1586.53V136.916V126.187V115.459V104.73V94.0019V83.2734V72.545H1597.24V83.2734V94.0019V104.73V115.459H1607.94V104.73H1618.65V94.0019V83.2734V72.545H1629.35V83.2734ZM1720.34 83.2734V94.0019V104.73V115.459V126.187V136.916V147.644H1709.63V136.916V126.187V115.459V104.73V94.0019H1698.93V104.73H1688.23V94.0019H1677.52V104.73V115.459V126.187V136.916V147.644H1666.82V136.916V126.187V115.459V104.73V94.0019V83.2734V72.545H1677.52V83.2734H1688.23V94.0019H1698.93V83.2734H1709.63V72.545H1720.34V83.2734Z" fill="#FFD200"/>
</svg>
