<svg width="1920" height="220" viewBox="0 0 1920 220" fill="none" xmlns="http://www.w3.org/2000/svg">
<rect width="1920" height="220" fill="#6FCBF5"/>
<rect x="1141.54" y="56.3154" width="457.739" height="122.105" fill="white"/>
<rect x="318.666" y="56.3154" width="457.739" height="122.105" fill="white"/>
<rect x="893.207" y="56.3154" width="126.273" height="122.105" fill="white"/>
<path d="M1643.56 72.6812V62.0041H1633.08V51.3543H1622.61V40.6771H1612.16V30H1137.23V40.6499H1126.97V51.327H1116.75V62.0041H1106.52V72.654H1096.3V147.346H1106.52V157.996H1116.75V168.673H1126.97V179.323H1137.23V190H1612.16V179.35H1622.6V168.673H1633.08V157.996H1643.55V147.373H1654V72.6812H1643.56ZM1200.5 148.254H1189.94V83.6724H1179.38V94.4383H1168.82V148.261H1158.26V94.4383H1168.82V83.6724H1179.38V72.9065H1200.5V148.254V148.254ZM1263.86 137.495H1253.3V148.261H1232.18V137.495H1221.62V83.6724H1232.18V72.9065H1253.3V83.6724H1263.86V137.495ZM1337.78 83.6724H1316.66V148.254H1306.09V83.6724H1284.97V72.9065H1337.77V83.6724H1337.78ZM1401.13 83.6724H1369.46V105.204H1390.58V115.97H1369.46V137.502H1401.13V148.268H1358.89V72.9065H1401.13V83.6724ZM1464.49 115.963H1432.82V148.254H1422.25V72.9065H1464.49V115.963V115.963ZM1527.85 83.6724H1496.17V105.204H1517.29V115.97H1496.17V137.502H1527.85V148.268H1485.61V72.9065H1527.85V83.6724ZM1591.21 148.254H1580.65V115.963H1559.52V148.254H1548.96V115.963H1559.52V105.197H1548.96V83.6656H1559.52V72.8997H1591.2V148.254H1591.21Z" fill="#013AEC"/>
<path d="M1253.29 115.956V105.19V94.4241V83.6582H1242.73H1232.17V94.4241V105.19V115.956V126.715V137.481H1242.73H1253.29V126.715V115.956Z" fill="#013AEC"/>
<path d="M1580.64 105.19V94.4241V83.6582H1570.08H1559.52V94.4241V105.19H1570.08H1580.64Z" fill="#013AEC"/>
<path d="M1432.81 83.6582V94.4241V105.19H1443.37H1453.92V94.4241V83.6582H1443.37H1432.81Z" fill="#013AEC"/>
<path d="M464.244 105.355V116.121H474.799H485.36V105.355V94.5891V83.8232H474.799H464.244V94.5891V105.355Z" fill="#013AEC"/>
<path d="M664.875 116.086V126.852V137.618H675.436H685.998V126.852V116.086H675.436H664.875Z" fill="#013AEC"/>
<path d="M812.257 72.6881V62.0109H801.783V51.3611H791.309V40.6771H780.861V40.6498V30C770.688 30 453.737 30 305.899 30V40.6498H295.673V51.327H285.446V62.0041H275.226V72.6812H265C265 97.0871 265 122.94 265 147.346H275.226V157.996H285.453V168.673H295.673V179.35H305.899V190C453.737 190 770.695 190 780.861 190V179.35H791.309V168.673H801.783V158.023H812.257V147.373H822.705C822.705 122.94 822.705 97.1144 822.705 72.6812H812.257V72.6881ZM369.206 83.8226H358.645H348.084H337.529V94.5885V105.354V116.12V126.886V137.652H348.09H358.652H369.213V148.418H358.652H348.09H337.529V137.652H326.968V126.886V116.12V105.354V94.5885V83.8226H337.529V73.0567H348.09H358.652H369.213V83.8226H369.206ZM432.56 83.8226V94.5885V105.354V116.12V126.886V137.652V148.418H421.999V137.652V126.886V116.12H411.438H400.883H390.322V105.354V94.5885V83.8226V73.0567H400.883V83.8226V94.5885V105.354H411.445H422.006V94.5885V83.8226V73.0567H432.567V83.8226H432.56ZM495.921 94.5885V105.354V116.12V126.886V137.652V148.418H485.36V137.652V126.886H474.799H464.238V137.652V148.418H453.676V137.652V126.886V116.12V105.354V94.5885V83.8226H464.238V73.0567H474.799H485.36V83.8226H495.921V94.5885ZM559.282 83.8226H548.721H538.16H527.598V94.5885V105.354V116.12V126.886V137.652H538.16H548.721H559.282V148.418H548.721H538.16H527.598V137.652H517.037V126.886V116.12V105.354V94.5885V83.8226H527.598V73.0567H538.16H548.721H559.282V83.8226ZM633.198 83.8226H622.636H612.075V94.5885V105.354V116.12V126.886V137.652V148.418H601.514V137.652V126.886V116.12V105.354V94.5885V83.8226H590.953H580.391V73.0567H590.953H601.514H612.075H622.636H633.198V83.8226ZM696.559 116.086V126.852V137.618V148.384H685.997H675.436H664.875H654.314V137.618V126.852V116.086V105.32V94.5612V83.7953V73.0294H664.875V83.7953V94.5612V105.327H675.436H685.997H696.559V116.086ZM759.913 83.8226H749.352H738.79H728.236V94.5885V105.354H738.797H749.358V116.12H738.797H728.236V126.886V137.652H738.797H749.358H759.913V148.418H749.352H738.79H728.236H717.674V137.652V126.886V116.12V105.354V94.5885V83.8226V73.0567H728.236H738.797H749.358H759.913V83.8226Z" fill="#013AEC"/>
<path d="M1064.78 72.6812V62.0041H1054.31V51.3542H1043.87V40.6771H1033.4V40.6498V30C1023.27 30 1032.37 30 884.634 30V40.6498H874.413V51.327H864.192V62.0041H853.971V72.6539H843.75C843.75 97.0871 843.75 122.947 843.75 147.346H853.971V157.996H864.192V168.673H874.413V179.323H884.634V190C1032.36 190 1023.27 190 1033.4 190V179.35H1043.87V168.673H1054.31V157.996H1064.78V147.373H1075.25C1075.25 122.94 1075.25 97.0803 1075.25 72.6812H1064.78V72.6812ZM948.251 83.0989V93.8648V104.631V115.397V126.162V136.928V147.694H937.695V136.928V126.162V115.397H927.139H916.583V126.162V136.928V147.694H906.027V136.928V126.162V115.397V104.631V93.8648V83.0989V72.3331H916.583V83.0989V93.8648V104.631H927.139H937.695V93.8648V83.0989V72.3331H948.251V83.0989ZM1011.58 83.0989H1001.02H990.468H979.912V93.8648V104.631H990.468H1001.02V115.397H990.468H979.912V126.162V136.928H990.468H1001.02H1011.58V147.694H1001.02H990.468H979.912H969.356V136.928V126.162V115.397V104.631V93.8648V83.0989V72.3331H979.912H990.468H1001.02H1011.58V83.0989Z" fill="#013AEC"/>
</svg>
