<svg width="1280" height="196" viewBox="0 0 1280 196" fill="none" xmlns="http://www.w3.org/2000/svg">
<rect width="1280" height="195.556" fill="#013AEC"/>
<rect x="792.889" y="52.4443" width="386.667" height="103.111" fill="white"/>
<rect x="97.7778" y="52.4443" width="386.667" height="103.111" fill="white"/>
<rect x="583.111" y="52.4443" width="106.667" height="103.111" fill="white"/>
<path d="M1217.85 66.0753V57.0846H1209V48.117H1200.15V39.1264H1191.33V30.1357H790.132V39.1034H781.471V48.094H772.833V57.0846H764.194V66.0523H755.555V128.946H764.194V137.914H772.833V146.905H781.471V155.872H790.132V164.863H1191.32V155.895H1200.15V146.905H1208.99V137.914H1217.84V128.969H1226.67V66.0753H1217.85ZM843.582 129.711H834.66V75.3303H825.739V84.3957H816.817V129.717H807.896V84.3957H816.817V75.3303H825.739V66.265H843.582V129.711V129.711ZM897.105 120.651H888.183V129.717H870.341V120.651H861.419V75.3303H870.341V66.265H888.183V75.3303H897.105V120.651ZM959.544 75.3303H941.701V129.711H932.779V75.3303H914.936V66.265H959.538V75.3303H959.544ZM1013.06 75.3303H986.302V93.4611H1004.15V102.526H986.302V120.657H1013.06V129.723H977.381V66.265H1013.06V75.3303ZM1066.58 102.521H1039.83V129.711H1030.9V66.265H1066.58V102.521V102.521ZM1120.1 75.3303H1093.34V93.4611H1111.19V102.526H1093.34V120.657H1120.1V129.723H1084.42V66.265H1120.1V75.3303ZM1173.62 129.711H1164.7V102.521H1146.86V129.711H1137.94V102.521H1146.86V93.4553H1137.94V75.3246H1146.86V66.2592H1173.62V129.711H1173.62Z" fill="#FFD200"/>
<path d="M888.178 102.514V93.4491V84.3837V75.3184H879.256H870.335V84.3837V93.4491V102.514V111.574V120.639H879.256H888.178V111.574V102.514Z" fill="#FFD200"/>
<path d="M1164.7 93.4491V84.3837V75.3184H1155.78H1146.86V84.3837V93.4491H1155.78H1164.7Z" fill="#FFD200"/>
<path d="M1039.82 75.3184V84.3837V93.4491H1048.74H1057.66V84.3837V75.3184H1048.74H1039.82Z" fill="#FFD200"/>
<path d="M221.641 93.5878V102.653H230.557H239.478V93.5878V84.5224V75.457H230.557H221.641V84.5224V93.5878Z" fill="#FFD200"/>
<path d="M391.121 102.624V111.689V120.755H400.042H408.963V111.689V102.624H400.042H391.121Z" fill="#FFD200"/>
<path d="M515.619 66.081V57.0904H506.771V48.1228H497.923V39.1264H489.098V39.1034V30.1357C480.504 30.1357 212.765 30.1357 87.8817 30.1357V39.1034H79.2431V48.094H70.6045V57.0846H61.9716V66.0753H53.333C53.333 86.6261 53.333 108.396 53.333 128.946H61.9716V137.914H70.6102V146.905H79.2431V155.895H87.8817V164.863C212.765 164.863 480.51 164.863 489.098 164.863V155.895H497.923V146.905H506.771V137.937H515.619V128.969H524.444C524.444 108.396 524.444 86.6491 524.444 66.0753H515.619V66.081ZM141.359 75.4568H132.438H123.517H114.601V84.5222V93.5875V102.653V111.718V120.784H123.522H132.444H141.365V129.849H132.444H123.522H114.601V120.784H105.679V111.718V102.653V93.5875V84.5222V75.4568H114.601V66.3914H123.522H132.444H141.365V75.4568H141.359ZM194.877 75.4568V84.5222V93.5875V102.653V111.718V120.784V129.849H185.955V120.784V111.718V102.653H177.034H168.118H159.197V93.5875V84.5222V75.4568V66.3914H168.118V75.4568V84.5222V93.5875H177.04H185.961V84.5222V75.4568V66.3914H194.882V75.4568H194.877ZM248.4 84.5222V93.5875V102.653V111.718V120.784V129.849H239.478V120.784V111.718H230.557H221.635V120.784V129.849H212.714V120.784V111.718V102.653V93.5875V84.5222V75.4568H221.635V66.3914H230.557H239.478V75.4568H248.4V84.5222ZM301.923 75.4568H293.001H284.08H275.158V84.5222V93.5875V102.653V111.718V120.784H284.08H293.001H301.923V129.849H293.001H284.08H275.158V120.784H266.237V111.718V102.653V93.5875V84.5222V75.4568H275.158V66.3914H284.08H293.001H301.923V75.4568ZM364.362 75.4568H355.44H346.519V84.5222V93.5875V102.653V111.718V120.784V129.849H337.597V120.784V111.718V102.653V93.5875V84.5222V75.4568H328.676H319.754V66.3914H328.676H337.597H346.519H355.44H364.362V75.4568ZM417.885 102.624V111.69V120.755V129.82H408.963H400.042H391.12H382.199V120.755V111.69V102.624V93.5588V84.4992V75.4338V66.3685H391.12V75.4338V84.4992V93.5645H400.042H408.963H417.885V102.624ZM471.402 75.4568H462.48H453.559H444.643V84.5222V93.5875H453.565H462.486V102.653H453.565H444.643V111.718V120.784H453.565H462.486H471.402V129.849H462.48H453.559H444.643H435.722V120.784V111.718V102.653V93.5875V84.5222V75.4568V66.3914H444.643H453.565H462.486H471.402V75.4568Z" fill="#FFD200"/>
<path d="M728.934 66.0763V57.0856H720.091V48.118H711.27V39.1274H702.427V39.1043V30.1367C693.866 30.1367 701.556 30.1367 576.759 30.1367V39.1043H568.125V48.095H559.491V57.0856H550.856V66.0533H542.222C542.222 86.6271 542.222 108.402 542.222 128.947H550.856V137.915H559.491V146.906H568.125V155.873H576.759V164.864C701.55 164.864 693.866 164.864 702.427 164.864V155.896H711.27V146.906H720.091V137.915H728.934V128.97H737.778C737.778 108.397 737.778 86.6214 737.778 66.0763H728.934V66.0763ZM630.498 74.8484V83.9138V92.9792V102.045V111.11V120.175V129.241H621.581V120.175V111.11V102.045H612.664H603.747V111.11V120.175V129.241H594.83V120.175V111.11V102.045V92.9792V83.9138V74.8484V65.7831H603.747V74.8484V83.9138V92.9792H612.664H621.581V83.9138V74.8484V65.7831H630.498V74.8484ZM683.994 74.8484H675.077H666.16H657.243V83.9138V92.9792H666.16H675.077V102.045H666.16H657.243V111.11V120.175H666.16H675.077H683.994V129.241H675.077H666.16H657.243H648.326V120.175V111.11V102.045V92.9792V83.9138V74.8484V65.7831H657.243H666.16H675.077H683.994V74.8484Z" fill="#FFD200"/>
</svg>
