<svg width="4308" height="205" viewBox="0 0 4308 205" fill="none" xmlns="http://www.w3.org/2000/svg">
<path d="M361.211 181.137V158.275V135.431V112.569V89.7061V66.8626V44H338.404H315.596V66.8626H338.404V89.7061V112.569V135.431V158.275V181.137H315.596V158.275V135.431V112.569V89.7061V66.8626H292.808V89.7061V112.569V135.431V158.275V181.137H270V204H292.808H315.596H338.404H361.211H384V181.137H361.211Z" fill="#013AEC"/>
<path d="M494.396 181.14V204H516.999V181.14V158.28V135.42H494.396V158.28V181.14Z" fill="#013AEC"/>
<path d="M494.396 66.8599V89.7197V112.58H516.999V89.7197V66.8599V44H494.396V66.8599Z" fill="#013AEC"/>
<path d="M471.792 89.7197V66.8599V44H449.188V66.8599V89.7197V112.58H426.604V135.42H449.188V158.28V181.14V204H471.792V181.14V158.28V135.42H494.396V112.58H471.792V89.7197Z" fill="#013AEC"/>
<path d="M404 158.28V181.14V204H426.604V181.14V158.28V135.42H404V158.28Z" fill="#013AEC"/>
<path d="M426.604 66.8599V44H404V66.8599V89.7197V112.58H426.604V89.7197V66.8599Z" fill="#013AEC"/>
<path d="M784.496 45.3374V68.0062V90.6559V113.325H761.991V135.994H784.496V158.662V181.331V204H807.001V181.331V158.662V135.994V113.325V90.6559V68.0062V45.3374H784.496Z" fill="#013AEC"/>
<path d="M784.496 22.6688V0H761.991H739.505V22.6688H761.991H784.496Z" fill="#013AEC"/>
<path d="M739.505 113.325V90.6559V68.0062V45.3374H717V68.0062V90.6559V113.325V135.994V158.662V181.331V204H739.505V181.331V158.662H761.991V135.994H739.505V113.325Z" fill="#013AEC"/>
<path d="M600.986 150.687H611.655H622.323H632.992V140.019H643.66V129.35H632.992H622.323H611.655H600.986V140.019H590.317V150.687H600.986Z" fill="#013AEC"/>
<path d="M632.986 118.683H643.655V108.015V97.3464V86.6778V76.0093H632.986H622.318H611.649V86.6778V97.3464V108.015V118.683H622.318H632.986Z" fill="#013AEC"/>
<path d="M686.331 76.0056H675.663V65.3371H664.994V54.6685H654.326V44H643.657H632.989H622.32H611.652H600.983H590.315H579.674V54.6685H569.006V65.3371H558.337V76.0056H547.669V86.6742H537V97.3427V108.011V118.68V129.348V140.017V150.685V161.354H547.669V171.994H558.337V182.663H569.006V193.331H579.674V204H590.315H600.983H611.652H622.32H632.989H643.657H654.326V193.331H664.994V182.663H675.663V171.994H686.331V161.354H697V150.685V140.017V129.348V118.68V108.011V97.3427V86.6742H686.331V76.0056V76.0056ZM579.674 171.994V161.354V150.685V140.017H590.315V129.348H600.983V118.68V108.011V97.3427V86.6742V76.0056V65.3371H611.652H622.32H632.989H643.657H654.326V76.0056V86.6742V97.3427V108.011V118.68V129.348V140.017V150.685V161.354V171.994H643.657V161.354V150.685H632.989V161.354V171.994V182.663H622.32V171.994V161.354H611.652H600.983H590.315V171.994V182.663H579.674V171.994V171.994Z" fill="#013AEC"/>
<path d="M2335.21 181.137V158.275V135.431V112.569V89.7061V66.8626V44H2312.4H2289.6V66.8626H2312.4V89.7061V112.569V135.431V158.275V181.137H2289.6V158.275V135.431V112.569V89.7061V66.8626H2266.81V89.7061V112.569V135.431V158.275V181.137H2244V204H2266.81H2289.6H2312.4H2335.21H2358V181.137H2335.21Z" fill="#013AEC"/>
<path d="M2468.4 181.14V204H2491V181.14V158.28V135.42H2468.4V158.28V181.14Z" fill="#013AEC"/>
<path d="M2468.4 66.8599V89.7197V112.58H2491V89.7197V66.8599V44H2468.4V66.8599Z" fill="#013AEC"/>
<path d="M2445.79 89.7197V66.8599V44H2423.19V66.8599V89.7197V112.58H2400.6V135.42H2423.19V158.28V181.14V204H2445.79V181.14V158.28V135.42H2468.4V112.58H2445.79V89.7197Z" fill="#013AEC"/>
<path d="M2378 158.28V181.14V204H2400.6V181.14V158.28V135.42H2378V158.28Z" fill="#013AEC"/>
<path d="M2400.6 66.8599V44H2378V66.8599V89.7197V112.58H2400.6V89.7197V66.8599Z" fill="#013AEC"/>
<path d="M3118.5 45.3374V68.0062V90.6559V113.325H3095.99V135.994H3118.5V158.662V181.331V204H3141V181.331V158.662V135.994V113.325V90.6559V68.0062V45.3374H3118.5Z" fill="#013AEC"/>
<path d="M3118.5 22.6688V0H3095.99H3073.5V22.6688H3095.99H3118.5Z" fill="#013AEC"/>
<path d="M3073.5 113.325V90.6559V68.0062V45.3374H3051V68.0062V90.6559V113.325V135.994V158.662V181.331V204H3073.5V181.331V158.662H3095.99V135.994H3073.5V113.325Z" fill="#013AEC"/>
<path d="M3020.33 77.0056H3009.66V66.3371H2998.99V55.6685H2988.33V45H2977.66H2966.99H2956.32H2945.65H2934.98H2924.31H2913.67V55.6685H2903.01V66.3371H2892.34V77.0056H2881.67V87.6742H2871V98.3427V109.011V119.68V130.348V141.017V151.685V162.354H2881.67V172.994H2892.34V183.663H2903.01V194.331H2913.67V205H2924.31H2934.98H2945.65H2956.32H2966.99H2977.66H2988.33V194.331H2998.99V183.663H3009.66V172.994H3020.33V162.354H3031V151.685V141.017V130.348V119.68V109.011V98.3427V87.6742H3020.33V77.0056ZM2998.99 130.348H2988.33V119.68H2998.99V130.348ZM2966.99 151.685H2956.32H2945.65H2934.98V141.017H2924.31V130.348V119.68V109.011H2934.98V98.3427H2945.65H2956.32H2966.99V109.011H2977.66V119.68V130.348V141.017H2966.99V151.685ZM2903.01 119.68H2913.67V130.348H2903.01V119.68ZM2913.67 151.685H2924.31V162.354H2913.67V151.685ZM2945.65 162.354H2956.32V172.994H2945.65V162.354ZM2956.32 87.6742H2945.65V77.0056H2956.32V87.6742ZM2988.33 98.3427H2977.66V87.6742H2988.33V98.3427ZM2924.31 87.6742V98.3427H2913.67V87.6742H2924.31ZM2977.66 162.354V151.685H2988.33V162.354H2977.66Z" fill="#FFD200"/>
<path d="M2840.33 76.0053H2829.66V65.3371H2818.99V54.6685H2808.33V44H2797.66H2786.99H2776.32H2765.65H2754.98H2744.31H2733.67V54.6685H2723.01V65.3371H2712.34V76.0053H2701.67V86.6737H2691V97.3432V108.012V118.68V129.348V140.017V150.685V161.354H2701.67V171.995H2712.34V182.663H2723.01V193.332H2733.67V204H2744.31H2754.98H2765.65H2776.32H2786.99H2797.66H2808.33V193.332H2818.99V182.663H2829.66V171.995H2840.33V161.354H2851V150.685V140.017V129.348V118.68V108.012V97.3432V86.6737H2840.33V76.0053ZM2754.98 171.995V161.354H2744.31V150.685H2733.67V140.017H2723.01V129.348V118.68V108.012V97.3432H2733.67V86.6737H2744.31H2754.98H2765.65V97.3432H2776.32V86.6737H2786.99H2797.66H2808.33V97.3432H2818.99V108.012V118.68V129.348V140.017H2808.33V150.685H2797.66V161.354H2786.99V171.995H2776.32V182.663H2765.65V171.995H2754.98Z" fill="#E51041"/>
<path d="M2574.99 150.687H2585.65H2596.32H2606.99V140.019H2617.66V129.35H2606.99H2596.32H2585.65H2574.99V140.019H2564.32V150.687H2574.99Z" fill="#013AEC"/>
<path d="M2606.99 118.683H2617.66V108.015V97.3464V86.6778V76.0093H2606.99H2596.32H2585.65V86.6778V97.3464V108.015V118.683H2596.32H2606.99Z" fill="#013AEC"/>
<path d="M2660.33 76.0056H2649.66V65.3371H2638.99V54.6685H2628.33V44H2617.66H2606.99H2596.32H2585.65H2574.98H2564.31H2553.67V54.6685H2543.01V65.3371H2532.34V76.0056H2521.67V86.6742H2511V97.3427V108.011V118.68V129.348V140.017V150.685V161.354H2521.67V171.994H2532.34V182.663H2543.01V193.331H2553.67V204H2564.31H2574.98H2585.65H2596.32H2606.99H2617.66H2628.33V193.331H2638.99V182.663H2649.66V171.994H2660.33V161.354H2671V150.685V140.017V129.348V118.68V108.011V97.3427V86.6742H2660.33V76.0056V76.0056ZM2553.67 171.994V161.354V150.685V140.017H2564.31V129.348H2574.98V118.68V108.011V97.3427V86.6742V76.0056V65.3371H2585.65H2596.32H2606.99H2617.66H2628.33V76.0056V86.6742V97.3427V108.011V118.68V129.348V140.017V150.685V161.354V171.994H2617.66V161.354V150.685H2606.99V161.354V171.994V182.663H2596.32V171.994V161.354H2585.65H2574.98H2564.31V171.994V182.663H2553.67V171.994V171.994Z" fill="#013AEC"/>
<path d="M1348.21 181.137V158.275V135.431V112.569V89.7061V66.8626V44H1325.4H1302.6V66.8626H1325.4V89.7061V112.569V135.431V158.275V181.137H1302.6V158.275V135.431V112.569V89.7061V66.8626H1279.81V89.7061V112.569V135.431V158.275V181.137H1257V204H1279.81H1302.6H1325.4H1348.21H1371V181.137H1348.21Z" fill="#013AEC"/>
<path d="M1481.4 181.14V204H1504V181.14V158.28V135.42H1481.4V158.28V181.14Z" fill="#013AEC"/>
<path d="M1481.4 66.8599V89.7197V112.58H1504V89.7197V66.8599V44H1481.4V66.8599Z" fill="#013AEC"/>
<path d="M1458.79 89.7197V66.8599V44H1436.19V66.8599V89.7197V112.58H1413.6V135.42H1436.19V158.28V181.14V204H1458.79V181.14V158.28V135.42H1481.4V112.58H1458.79V89.7197Z" fill="#013AEC"/>
<path d="M1391 158.28V181.14V204H1413.6V181.14V158.28V135.42H1391V158.28Z" fill="#013AEC"/>
<path d="M1413.6 66.8599V44H1391V66.8599V89.7197V112.58H1413.6V89.7197V66.8599Z" fill="#013AEC"/>
<path d="M1951.5 45.3374V68.0062V90.6559V113.325H1928.99V135.994H1951.5V158.662V181.331V204H1974V181.331V158.662V135.994V113.325V90.6559V68.0062V45.3374H1951.5Z" fill="#013AEC"/>
<path d="M1951.5 22.6688V0H1928.99H1906.5V22.6688H1928.99H1951.5Z" fill="#013AEC"/>
<path d="M1906.5 113.325V90.6559V68.0062V45.3374H1884V68.0062V90.6559V113.325V135.994V158.662V181.331V204H1906.5V181.331V158.662H1928.99V135.994H1906.5V113.325Z" fill="#013AEC"/>
<path d="M1853.33 76.0053H1842.66V65.3371H1831.99V54.6685H1821.33V44H1810.66H1799.99H1789.32H1778.65H1767.98H1757.31H1746.67V54.6685H1736.01V65.3371H1725.34V76.0053H1714.67V86.6737H1704V97.3432V108.012V118.68V129.348V140.017V150.685V161.354H1714.67V171.995H1725.34V182.663H1736.01V193.332H1746.67V204H1757.31H1767.98H1778.65H1789.32H1799.99H1810.66H1821.33V193.332H1831.99V182.663H1842.66V171.995H1853.33V161.354H1864V150.685V140.017V129.348V118.68V108.012V97.3432V86.6737H1853.33V76.0053ZM1767.98 171.995V161.354H1757.31V150.685H1746.67V140.017H1736.01V129.348V118.68V108.012V97.3432H1746.67V86.6737H1757.31H1767.98H1778.65V97.3432H1789.32V86.6737H1799.99H1810.66H1821.33V97.3432H1831.99V108.012V118.68V129.348V140.017H1821.33V150.685H1810.66V161.354H1799.99V171.995H1789.32V182.663H1778.65V171.995H1767.98Z" fill="#E51041"/>
<path d="M1587.99 150.687H1598.65H1609.32H1619.99V140.019H1630.66V129.35H1619.99H1609.32H1598.65H1587.99V140.019H1577.32V150.687H1587.99Z" fill="#013AEC"/>
<path d="M1619.99 118.683H1630.66V108.015V97.3464V86.6778V76.0093H1619.99H1609.32H1598.65V86.6778V97.3464V108.015V118.683H1609.32H1619.99Z" fill="#013AEC"/>
<path d="M1673.33 76.0056H1662.66V65.3371H1651.99V54.6685H1641.33V44H1630.66H1619.99H1609.32H1598.65H1587.98H1577.31H1566.67V54.6685H1556.01V65.3371H1545.34V76.0056H1534.67V86.6742H1524V97.3427V108.011V118.68V129.348V140.017V150.685V161.354H1534.67V171.994H1545.34V182.663H1556.01V193.331H1566.67V204H1577.31H1587.98H1598.65H1609.32H1619.99H1630.66H1641.33V193.331H1651.99V182.663H1662.66V171.994H1673.33V161.354H1684V150.685V140.017V129.348V118.68V108.011V97.3427V86.6742H1673.33V76.0056V76.0056ZM1566.67 171.994V161.354V150.685V140.017H1577.31V129.348H1587.98V118.68V108.011V97.3427V86.6742V76.0056V65.3371H1598.65H1609.32H1619.99H1630.66H1641.33V76.0056V86.6742V97.3427V108.011V118.68V129.348V140.017V150.685V161.354V171.994H1630.66V161.354V150.685H1619.99V161.354V171.994V182.663H1609.32V171.994V161.354H1598.65H1587.98H1577.31V171.994V182.663H1566.67V171.994V171.994Z" fill="#013AEC"/>
<path d="M3502.21 181.137V158.275V135.431V112.569V89.7061V66.8626V44H3479.4H3456.6V66.8626H3479.4V89.7061V112.569V135.431V158.275V181.137H3456.6V158.275V135.431V112.569V89.7061V66.8626H3433.81V89.7061V112.569V135.431V158.275V181.137H3411V204H3433.81H3456.6H3479.4H3502.21H3525V181.137H3502.21Z" fill="#013AEC"/>
<path d="M3635.4 181.14V204H3658V181.14V158.28V135.42H3635.4V158.28V181.14Z" fill="#013AEC"/>
<path d="M3635.4 66.8599V89.7197V112.58H3658V89.7197V66.8599V44H3635.4V66.8599Z" fill="#013AEC"/>
<path d="M3612.79 89.7197V66.8599V44H3590.19V66.8599V89.7197V112.58H3567.6V135.42H3590.19V158.28V181.14V204H3612.79V181.14V158.28V135.42H3635.4V112.58H3612.79V89.7197Z" fill="#013AEC"/>
<path d="M3545 158.28V181.14V204H3567.6V181.14V158.28V135.42H3545V158.28Z" fill="#013AEC"/>
<path d="M3567.6 66.8599V44H3545V66.8599V89.7197V112.58H3567.6V89.7197V66.8599Z" fill="#013AEC"/>
<path d="M4105.5 45.3374V68.0062V90.6559V113.325H4082.99V135.994H4105.5V158.662V181.331V204H4128V181.331V158.662V135.994V113.325V90.6559V68.0062V45.3374H4105.5Z" fill="#013AEC"/>
<path d="M4105.5 22.6688V0H4082.99H4060.5V22.6688H4082.99H4105.5Z" fill="#013AEC"/>
<path d="M4060.5 113.325V90.6559V68.0062V45.3374H4038V68.0062V90.6559V113.325V135.994V158.662V181.331V204H4060.5V181.331V158.662H4082.99V135.994H4060.5V113.325Z" fill="#013AEC"/>
<path d="M4007.33 76.0053H3996.66V65.3371H3985.99V54.6685H3975.33V44H3964.66H3953.99H3943.32H3932.65H3921.98H3911.31H3900.67V54.6685H3890.01V65.3371H3879.34V76.0053H3868.67V86.6737H3858V97.3432V108.012V118.68V129.348V140.017V150.685V161.354H3868.67V171.995H3879.34V182.663H3890.01V193.332H3900.67V204H3911.31H3921.98H3932.65H3943.32H3953.99H3964.66H3975.33V193.332H3985.99V182.663H3996.66V171.995H4007.33V161.354H4018V150.685V140.017V129.348V118.68V108.012V97.3432V86.6737H4007.33V76.0053ZM3921.98 171.995V161.354H3911.31V150.685H3900.67V140.017H3890.01V129.348V118.68V108.012V97.3432H3900.67V86.6737H3911.31H3921.98H3932.65V97.3432H3943.32V86.6737H3953.99H3964.66H3975.33V97.3432H3985.99V108.012V118.68V129.348V140.017H3975.33V150.685H3964.66V161.354H3953.99V171.995H3943.32V182.663H3932.65V171.995H3921.98Z" fill="#E51041"/>
<path d="M3741.99 150.687H3752.65H3763.32H3773.99V140.019H3784.66V129.35H3773.99H3763.32H3752.65H3741.99V140.019H3731.32V150.687H3741.99Z" fill="#013AEC"/>
<path d="M3773.99 118.683H3784.66V108.015V97.3464V86.6778V76.0093H3773.99H3763.32H3752.65V86.6778V97.3464V108.015V118.683H3763.32H3773.99Z" fill="#013AEC"/>
<path d="M3827.33 76.0056H3816.66V65.3371H3805.99V54.6685H3795.33V44H3784.66H3773.99H3763.32H3752.65H3741.98H3731.31H3720.67V54.6685H3710.01V65.3371H3699.34V76.0056H3688.67V86.6742H3678V97.3427V108.011V118.68V129.348V140.017V150.685V161.354H3688.67V171.994H3699.34V182.663H3710.01V193.331H3720.67V204H3731.31H3741.98H3752.65H3763.32H3773.99H3784.66H3795.33V193.331H3805.99V182.663H3816.66V171.994H3827.33V161.354H3838V150.685V140.017V129.348V118.68V108.011V97.3427V86.6742H3827.33V76.0056V76.0056ZM3720.67 171.994V161.354V150.685V140.017H3731.31V129.348H3741.98V118.68V108.011V97.3427V86.6742V76.0056V65.3371H3752.65H3763.32H3773.99H3784.66H3795.33V76.0056V86.6742V97.3427V108.011V118.68V129.348V140.017V150.685V161.354V171.994H3784.66V161.354V150.685H3773.99V161.354V171.994V182.663H3763.32V171.994V161.354H3752.65H3741.98H3731.31V171.994V182.663H3720.67V171.994V171.994Z" fill="#013AEC"/>
</svg>
