<svg width="3864" height="183" viewBox="0 0 3864 183" fill="none" xmlns="http://www.w3.org/2000/svg">
<path d="M323.984 161.603V141.206V120.826V100.429V80.0319V59.6519V39.2549H303.527H283.07V59.6519H303.527V80.0319V100.429V120.826V141.206V161.603H283.07V141.206V120.826V100.429V80.0319V59.6519H262.63V80.0319V100.429V120.826V141.206V161.603H242.173V182H262.63H283.07H303.527H323.984H344.424V161.603H323.984Z" fill="#013AEC"/>
<path d="M443.441 161.606V182H463.715V161.606V141.211V120.816H443.441V141.211V161.606Z" fill="#013AEC"/>
<path d="M443.441 59.6495V80.044V100.439H463.715V80.044V59.6495V39.2549H443.441V59.6495Z" fill="#013AEC"/>
<path d="M423.167 80.044V59.6495V39.2549H402.893V59.6495V80.044V100.439H382.636V120.816H402.893V141.211V161.605V182H423.167V161.605V141.211V120.816H443.441V100.439H423.167V80.044Z" fill="#013AEC"/>
<path d="M362.362 141.211V161.606V182H382.636V161.606V141.211V120.816H362.362V141.211Z" fill="#013AEC"/>
<path d="M382.636 59.6495V39.2549H362.362V59.6495V80.044V100.439H382.636V80.044V59.6495Z" fill="#013AEC"/>
<path d="M703.642 40.4482V60.6724V80.8795V101.104H683.457V121.328H703.642V141.552V161.776V182H723.828V161.776V141.552V121.328V101.104V80.8795V60.6724V40.4482H703.642Z" fill="#013AEC"/>
<path d="M703.643 20.2241V0H683.457H663.289V20.2241H683.457H703.643Z" fill="#013AEC"/>
<path d="M663.289 101.104V80.8795V60.6724V40.4482H643.104V60.6724V80.8795V101.104V121.328V141.552V161.776V182H663.289V161.776V141.552H683.457V121.328H663.289V101.104Z" fill="#013AEC"/>
<path d="M539.046 134.436H548.615H558.184H567.753V124.918H577.322V115.4H567.753H558.184H548.615H539.046V124.918H529.477V134.436H539.046Z" fill="#013AEC"/>
<path d="M567.748 105.884H577.317V96.3661V86.8481V77.33V67.812H567.748H558.179H548.61V77.33V86.8481V96.3661V105.884H558.179H567.748Z" fill="#013AEC"/>
<path d="M615.595 67.8089H606.026V58.2909H596.457V48.7729H586.888V39.2549H577.319H567.75H558.181H548.612H539.043H529.474H519.93V48.7729H510.361V58.2909H500.792V67.8089H491.223V77.3269H481.654V86.8449V96.363V105.881V115.399V124.917V134.435V143.953H491.223V153.446H500.792V162.964H510.361V172.482H519.93V182H529.474H539.043H548.612H558.181H567.75H577.319H586.888V172.482H596.457V162.964H606.026V153.446H615.595V143.953H625.164V134.435V124.917V115.399V105.881V96.363V86.8449V77.3269H615.595V67.8089V67.8089ZM519.93 153.446V143.953V134.435V124.917H529.474V115.399H539.043V105.881V96.363V86.8449V77.3269V67.8089V58.2909H548.612H558.181H567.75H577.319H586.888V67.8089V77.3269V86.8449V96.363V105.881V115.399V124.917V134.435V143.953V153.446H577.319V143.953V134.435H567.75V143.953V153.446V162.964H558.181V153.446V143.953H548.612H539.043H529.474V153.446V162.964H519.93V153.446V153.446Z" fill="#013AEC"/>
<path d="M2094.54 161.603V141.206V120.826V100.429V80.0319V59.6519V39.2549H2074.08H2053.62V59.6519H2074.08V80.0319V100.429V120.826V141.206V161.603H2053.62V141.206V120.826V100.429V80.0319V59.6519H2033.18V80.0319V100.429V120.826V141.206V161.603H2012.72V182H2033.18H2053.62H2074.08H2094.54H2114.98V161.603H2094.54Z" fill="#013AEC"/>
<path d="M2213.99 161.606V182H2234.27V161.606V141.211V120.816H2213.99V141.211V161.606Z" fill="#013AEC"/>
<path d="M2213.99 59.6495V80.044V100.439H2234.27V80.044V59.6495V39.2549H2213.99V59.6495Z" fill="#013AEC"/>
<path d="M2193.72 80.044V59.6495V39.2549H2173.44V59.6495V80.044V100.439H2153.19V120.816H2173.44V141.211V161.605V182H2193.72V161.605V141.211V120.816H2213.99V100.439H2193.72V80.044Z" fill="#013AEC"/>
<path d="M2132.91 141.211V161.606V182H2153.19V161.606V141.211V120.816H2132.91V141.211Z" fill="#013AEC"/>
<path d="M2153.19 59.6495V39.2549H2132.91V59.6495V80.044V100.439H2153.19V80.044V59.6495Z" fill="#013AEC"/>
<path d="M2797.09 40.4482V60.6724V80.8795V101.104H2776.91V121.328H2797.09V141.552V161.776V182H2817.28V161.776V141.552V121.328V101.104V80.8795V60.6724V40.4482H2797.09Z" fill="#013AEC"/>
<path d="M2797.09 20.2241V0H2776.91H2756.74V20.2241H2776.91H2797.09Z" fill="#013AEC"/>
<path d="M2756.74 101.104V80.8795V60.6724V40.4482H2736.55V60.6724V80.8795V101.104V121.328V141.552V161.776V182H2756.74V161.776V141.552H2776.91V121.328H2756.74V101.104Z" fill="#013AEC"/>
<path d="M2709.04 68.701H2699.47V59.183H2689.91V49.665H2680.34V40.147H2670.77H2661.2H2651.63H2642.06H2632.49H2622.92H2613.38V49.665H2603.81V59.183H2594.24V68.701H2584.67V78.219H2575.1V87.737V97.2551V106.773V116.291V125.809V135.327V144.845H2584.67V154.338H2594.24V163.856H2603.81V173.374H2613.38V182.892H2622.92H2632.49H2642.06H2651.63H2661.2H2670.77H2680.34V173.374H2689.91V163.856H2699.47V154.338H2709.04V144.845H2718.61V135.327V125.809V116.291V106.773V97.2551V87.737V78.219H2709.04V68.701ZM2689.91 116.291H2680.34V106.773H2689.91V116.291ZM2661.2 135.327H2651.63H2642.06H2632.49V125.809H2622.92V116.291V106.773V97.2551H2632.49V87.737H2642.06H2651.63H2661.2V97.2551H2670.77V106.773V116.291V125.809H2661.2V135.327ZM2603.81 106.773H2613.38V116.291H2603.81V106.773ZM2613.38 135.327H2622.92V144.845H2613.38V135.327ZM2642.06 144.845H2651.63V154.338H2642.06V144.845ZM2651.63 78.219H2642.06V68.701H2651.63V78.219ZM2680.34 87.737H2670.77V78.219H2680.34V87.737ZM2622.92 78.219V87.737H2613.38V78.219H2622.92ZM2670.77 144.845V135.327H2680.34V144.845H2670.77Z" fill="#FFD200"/>
<path d="M2547.6 67.8086H2538.03V58.2909H2528.46V48.7729H2518.89V39.2549H2509.32H2499.75H2490.18H2480.61H2471.04H2461.47H2451.93V48.7729H2442.36V58.2909H2432.79V67.8086H2423.22V77.3265H2413.65V86.8453V96.3632V105.881V115.399V124.917V134.435V143.953H2423.22V153.446H2432.79V162.964H2442.36V172.482H2451.93V182H2461.47H2471.04H2480.61H2490.18H2499.75H2509.32H2518.89V172.482H2528.46V162.964H2538.03V153.446H2547.6V143.953H2557.16V134.435V124.917V115.399V105.881V96.3632V86.8453V77.3265H2547.6V67.8086ZM2471.04 153.446V143.953H2461.47V134.435H2451.93V124.917H2442.36V115.399V105.881V96.3632V86.8453H2451.93V77.3265H2461.47H2471.04H2480.61V86.8453H2490.18V77.3265H2499.75H2509.32H2518.89V86.8453H2528.46V96.3632V105.881V115.399V124.917H2518.89V134.435H2509.32V143.953H2499.75V153.446H2490.18V162.964H2480.61V153.446H2471.04Z" fill="#E51041"/>
<path d="M2309.6 134.436H2319.17H2328.74H2338.3V124.918H2347.87V115.4H2338.3H2328.74H2319.17H2309.6V124.918H2300.03V134.436H2309.6Z" fill="#013AEC"/>
<path d="M2338.3 105.884H2347.87V96.3661V86.8481V77.33V67.812H2338.3H2328.73H2319.16V77.33V86.8481V96.3661V105.884H2328.73H2338.3Z" fill="#013AEC"/>
<path d="M2386.15 67.8089H2376.58V58.2909H2367.01V48.7729H2357.44V39.2549H2347.87H2338.3H2328.73H2319.16H2309.59H2300.03H2290.48V48.7729H2280.91V58.2909H2271.34V67.8089H2261.78V77.3269H2252.21V86.8449V96.363V105.881V115.399V124.917V134.435V143.953H2261.78V153.446H2271.34V162.964H2280.91V172.482H2290.48V182H2300.03H2309.59H2319.16H2328.73H2338.3H2347.87H2357.44V172.482H2367.01V162.964H2376.58V153.446H2386.15V143.953H2395.72V134.435V124.917V115.399V105.881V96.363V86.8449V77.3269H2386.15V67.8089V67.8089ZM2290.48 153.446V143.953V134.435V124.917H2300.03V115.399H2309.59V105.881V96.363V86.8449V77.3269V67.8089V58.2909H2319.16H2328.73H2338.3H2347.87H2357.44V67.8089V77.3269V86.8449V96.363V105.881V115.399V124.917V134.435V143.953V153.446H2347.87V143.953V134.435H2338.3V143.953V153.446V162.964H2328.73V153.446V143.953H2319.16H2309.59H2300.03V153.446V162.964H2290.48V153.446V153.446Z" fill="#013AEC"/>
<path d="M1209.26 161.603V141.206V120.826V100.429V80.0319V59.6519V39.2549H1188.8H1168.35V59.6519H1188.8V80.0319V100.429V120.826V141.206V161.603H1168.35V141.206V120.826V100.429V80.0319V59.6519H1147.91V80.0319V100.429V120.826V141.206V161.603H1127.45V182H1147.91H1168.35H1188.8H1209.26H1229.7V161.603H1209.26Z" fill="#013AEC"/>
<path d="M1328.72 161.606V182H1348.99V161.606V141.211V120.816H1328.72V141.211V161.606Z" fill="#013AEC"/>
<path d="M1328.72 59.6495V80.044V100.439H1348.99V80.044V59.6495V39.2549H1328.72V59.6495Z" fill="#013AEC"/>
<path d="M1308.44 80.044V59.6495V39.2549H1288.17V59.6495V80.044V100.439H1267.91V120.816H1288.17V141.211V161.605V182H1308.44V161.605V141.211V120.816H1328.72V100.439H1308.44V80.044Z" fill="#013AEC"/>
<path d="M1247.64 141.211V161.606V182H1267.91V161.606V141.211V120.816H1247.64V141.211Z" fill="#013AEC"/>
<path d="M1267.91 59.6495V39.2549H1247.64V59.6495V80.044V100.439H1267.91V80.044V59.6495Z" fill="#013AEC"/>
<path d="M1750.37 40.4482V60.6724V80.8795V101.104H1730.18V121.328H1750.37V141.552V161.776V182H1770.55V161.776V141.552V121.328V101.104V80.8795V60.6724V40.4482H1750.37Z" fill="#013AEC"/>
<path d="M1750.37 20.2241V0H1730.18H1710.01V20.2241H1730.18H1750.37Z" fill="#013AEC"/>
<path d="M1710.01 101.104V80.8795V60.6724V40.4482H1689.83V60.6724V80.8795V101.104V121.328V141.552V161.776V182H1710.01V161.776V141.552H1730.18V121.328H1710.01V101.104Z" fill="#013AEC"/>
<path d="M1662.32 67.8086H1652.75V58.2909H1643.18V48.7729H1633.61V39.2549H1624.04H1614.47H1604.91H1595.34H1585.77H1576.2H1566.65V48.7729H1557.09V58.2909H1547.52V67.8086H1537.95V77.3265H1528.38V86.8453V96.3632V105.881V115.399V124.917V134.435V143.953H1537.95V153.446H1547.52V162.964H1557.09V172.482H1566.65V182H1576.2H1585.77H1595.34H1604.91H1614.47H1624.04H1633.61V172.482H1643.18V162.964H1652.75V153.446H1662.32V143.953H1671.89V134.435V124.917V115.399V105.881V96.3632V86.8453V77.3265H1662.32V67.8086ZM1585.77 153.446V143.953H1576.2V134.435H1566.65V124.917H1557.09V115.399V105.881V96.3632V86.8453H1566.65V77.3265H1576.2H1585.77H1595.34V86.8453H1604.91V77.3265H1614.47H1624.04H1633.61V86.8453H1643.18V96.3632V105.881V115.399V124.917H1633.61V134.435H1624.04V143.953H1614.47V153.446H1604.91V162.964H1595.34V153.446H1585.77Z" fill="#E51041"/>
<path d="M1424.32 134.436H1433.89H1443.46H1453.03V124.918H1462.6V115.4H1453.03H1443.46H1433.89H1424.32V124.918H1414.75V134.436H1424.32Z" fill="#013AEC"/>
<path d="M1453.02 105.884H1462.59V96.3661V86.8481V77.33V67.812H1453.02H1443.46H1433.89V77.33V86.8481V96.3661V105.884H1443.46H1453.02Z" fill="#013AEC"/>
<path d="M1500.87 67.8089H1491.3V58.2909H1481.73V48.7729H1472.16V39.2549H1462.6H1453.03H1443.46H1433.89H1424.32H1414.75H1405.21V48.7729H1395.64V58.2909H1386.07V67.8089H1376.5V77.3269H1366.93V86.8449V96.363V105.881V115.399V124.917V134.435V143.953H1376.5V153.446H1386.07V162.964H1395.64V172.482H1405.21V182H1414.75H1424.32H1433.89H1443.46H1453.03H1462.6H1472.16V172.482H1481.73V162.964H1491.3V153.446H1500.87V143.953H1510.44V134.435V124.917V115.399V105.881V96.363V86.8449V77.3269H1500.87V67.8089V67.8089ZM1405.21 153.446V143.953V134.435V124.917H1414.75V115.399H1424.32V105.881V96.363V86.8449V77.3269V67.8089V58.2909H1433.89H1443.46H1453.03H1462.6H1472.16V67.8089V77.3269V86.8449V96.363V105.881V115.399V124.917V134.435V143.953V153.446H1462.6V143.953V134.435H1453.03V143.953V153.446V162.964H1443.46V153.446V143.953H1433.89H1424.32H1414.75V153.446V162.964H1405.21V153.446V153.446Z" fill="#013AEC"/>
<path d="M3141.26 161.603V141.206V120.826V100.429V80.0319V59.6519V39.2549H3120.8H3100.35V59.6519H3120.8V80.0319V100.429V120.826V141.206V161.603H3100.35V141.206V120.826V100.429V80.0319V59.6519H3079.91V80.0319V100.429V120.826V141.206V161.603H3059.45V182H3079.91H3100.35H3120.8H3141.26H3161.7V161.603H3141.26Z" fill="#013AEC"/>
<path d="M3260.72 161.606V182H3280.99V161.606V141.211V120.816H3260.72V141.211V161.606Z" fill="#013AEC"/>
<path d="M3260.72 59.6495V80.044V100.439H3280.99V80.044V59.6495V39.2549H3260.72V59.6495Z" fill="#013AEC"/>
<path d="M3240.44 80.044V59.6495V39.2549H3220.17V59.6495V80.044V100.439H3199.91V120.816H3220.17V141.211V161.605V182H3240.44V161.605V141.211V120.816H3260.72V100.439H3240.44V80.044Z" fill="#013AEC"/>
<path d="M3179.64 141.211V161.606V182H3199.91V161.606V141.211V120.816H3179.64V141.211Z" fill="#013AEC"/>
<path d="M3199.91 59.6495V39.2549H3179.64V59.6495V80.044V100.439H3199.91V80.044V59.6495Z" fill="#013AEC"/>
<path d="M3682.37 40.4482V60.6724V80.8795V101.104H3662.18V121.328H3682.37V141.552V161.776V182H3702.55V161.776V141.552V121.328V101.104V80.8795V60.6724V40.4482H3682.37Z" fill="#013AEC"/>
<path d="M3682.37 20.2241V0H3662.18H3642.01V20.2241H3662.18H3682.37Z" fill="#013AEC"/>
<path d="M3642.01 101.104V80.8795V60.6724V40.4482H3621.83V60.6724V80.8795V101.104V121.328V141.552V161.776V182H3642.01V161.776V141.552H3662.18V121.328H3642.01V101.104Z" fill="#013AEC"/>
<path d="M3594.32 67.8086H3584.75V58.2909H3575.18V48.7729H3565.61V39.2549H3556.04H3546.47H3536.91H3527.34H3517.77H3508.2H3498.65V48.7729H3489.09V58.2909H3479.52V67.8086H3469.95V77.3265H3460.38V86.8453V96.3632V105.881V115.399V124.917V134.435V143.953H3469.95V153.446H3479.52V162.964H3489.09V172.482H3498.65V182H3508.2H3517.77H3527.34H3536.91H3546.47H3556.04H3565.61V172.482H3575.18V162.964H3584.75V153.446H3594.32V143.953H3603.89V134.435V124.917V115.399V105.881V96.3632V86.8453V77.3265H3594.32V67.8086ZM3517.77 153.446V143.953H3508.2V134.435H3498.65V124.917H3489.09V115.399V105.881V96.3632V86.8453H3498.65V77.3265H3508.2H3517.77H3527.34V86.8453H3536.91V77.3265H3546.47H3556.04H3565.61V86.8453H3575.18V96.3632V105.881V115.399V124.917H3565.61V134.435H3556.04V143.953H3546.47V153.446H3536.91V162.964H3527.34V153.446H3517.77Z" fill="#E51041"/>
<path d="M3356.32 134.436H3365.89H3375.46H3385.03V124.918H3394.6V115.4H3385.03H3375.46H3365.89H3356.32V124.918H3346.75V134.436H3356.32Z" fill="#013AEC"/>
<path d="M3385.02 105.884H3394.59V96.3661V86.8481V77.33V67.812H3385.02H3375.45H3365.89V77.33V86.8481V96.3661V105.884H3375.45H3385.02Z" fill="#013AEC"/>
<path d="M3432.87 67.8089H3423.3V58.2909H3413.73V48.7729H3404.16V39.2549H3394.59H3385.03H3375.46H3365.89H3356.32H3346.75H3337.21V48.7729H3327.64V58.2909H3318.07V67.8089H3308.5V77.3269H3298.93V86.8449V96.363V105.881V115.399V124.917V134.435V143.953H3308.5V153.446H3318.07V162.964H3327.64V172.482H3337.21V182H3346.75H3356.32H3365.89H3375.46H3385.03H3394.59H3404.16V172.482H3413.73V162.964H3423.3V153.446H3432.87V143.953H3442.44V134.435V124.917V115.399V105.881V96.363V86.8449V77.3269H3432.87V67.8089V67.8089ZM3337.21 153.446V143.953V134.435V124.917H3346.75V115.399H3356.32V105.881V96.363V86.8449V77.3269V67.8089V58.2909H3365.89H3375.46H3385.03H3394.59H3404.16V67.8089V77.3269V86.8449V96.363V105.881V115.399V124.917V134.435V143.953V153.446H3394.59V143.953V134.435H3385.03V143.953V153.446V162.964H3375.46V153.446V143.953H3365.89H3356.32H3346.75V153.446V162.964H3337.21V153.446V153.446Z" fill="#013AEC"/>
</svg>
