<svg width="4029" height="161" viewBox="0 0 4029 161" fill="none" xmlns="http://www.w3.org/2000/svg">
<g clip-path="url(#clip0_319_2894)">
<path d="M2733.79 86.7383V97.5018V108.265H2744.44H2755.09V97.5018V86.7383H2744.44H2733.79Z" fill="#013AEC"/>
<path d="M2606.02 54.4463V65.2098V75.9733H2616.66H2627.31V65.2098V54.4463H2616.66H2606.02Z" fill="#013AEC"/>
<path d="M2755.09 54.4463H2744.44H2733.79V65.2098V75.9733H2744.44H2755.09V65.2098V54.4463Z" fill="#013AEC"/>
<path d="M2956.96 43.6837V33.0057H2946.39V22.3276H2935.83V11.6781H2925.29V11.6496V1C2915.07 1 2659.31 1 2510.27 1V11.6496H2499.96V22.3276H2489.62V33.0057H2479.31V43.6553H2469C2469 68.0867 2469 93.9418 2469 118.345H2479.31V128.994H2489.62V139.672H2499.96V150.322H2510.27V161C2659.31 161 2915.07 161 2925.29 161V150.35H2935.83V139.672H2946.39V128.994H2956.96V118.373H2967.49C2967.49 93.9418 2967.49 68.0867 2967.49 43.6837H2956.96V43.6837ZM2574.07 54.4472V65.2107V75.9742V86.7377V97.5011V108.265V119.028H2563.42V108.265V97.5011V86.7377V75.9742V65.2107V54.4472H2552.78H2542.13V65.2107V75.9742V86.7377V97.5011V108.265V119.028H2531.48V108.265V97.5011V86.7377V75.9742V65.2107V54.4472V43.6837H2542.13H2552.78H2563.42H2574.07V54.4472ZM2637.96 54.4472V65.2107V75.9742V86.7377H2627.31H2616.67H2606.02V97.5011V108.265V119.028H2595.37V108.265V97.5011V86.7377V75.9742V65.2107V54.4472V43.6837H2606.02H2616.67H2627.31H2637.96V54.4472V54.4472ZM2701.85 54.4472V65.2107V75.9742V86.7377V97.5011V108.265V119.028H2691.2V108.265V97.5011V86.7377H2680.55V97.5011H2669.91V108.265V119.028H2659.26V108.265V97.5011V86.7377V75.9742V65.2107V54.4472V43.6837H2669.91V54.4472V65.2107V75.9742V86.7377H2680.55V75.9742H2691.2V65.2107V54.4472V43.6837H2701.85V54.4472ZM2765.74 65.2107V75.9742H2755.09V86.7377H2765.74V97.5011V108.265V119.028H2755.09H2744.44H2733.8H2723.15V108.265V97.5011V86.7377V75.9742V65.2107V54.4472V43.6837H2733.8H2744.44H2755.09V54.4472H2765.74V65.2107ZM2829.63 54.4472H2818.98H2808.33H2797.68V65.2107V75.9742H2808.33H2818.98V86.7377H2808.33H2797.68V97.5011V108.265H2808.33H2818.98H2829.63V119.028H2818.98H2808.33H2797.68H2787.04V108.265V97.5011V86.7377V75.9742V65.2107V54.4472V43.6837H2797.68H2808.33H2818.98H2829.63V54.4472ZM2904.17 54.4472H2893.52H2882.87V65.2107V75.9742V86.7377V97.5011V108.265V119.028H2872.22V108.265V97.5011V86.7377V75.9742V65.2107V54.4472H2861.57H2850.93V43.6837H2861.57H2872.22H2882.87H2893.52H2904.17V54.4472Z" fill="#013AEC"/>
<path d="M3583.54 86.7084V75.9449V65.1815V54.418H3572.75H3561.96V65.1815V75.9449V86.7084V97.4719V108.235H3572.75H3583.54V97.4719V86.7084Z" fill="#013AEC"/>
<path d="M3647.62 43.6837V33.0057H3636.92V22.3276H3626.21V11.6781H3615.51V11.6496V1C3605.15 1 3539.81 1 3388.79 1V11.6496H3378.34V22.3276H3367.89V33.0057H3357.45V43.6553H3347C3347 68.0866 3347 93.9418 3347 118.345H3357.45V128.994H3367.89V139.672H3378.34V150.322H3388.79V161C3539.81 161 3605.15 161 3615.51 161V150.35H3626.21V139.672H3636.92V128.994H3647.62V118.373H3658.29C3658.29 93.9418 3658.29 68.0866 3658.29 43.6837H3647.62V43.6837ZM3454.07 65.1822V75.9457V86.7092V97.4726V108.236H3443.28V119H3432.49H3421.7H3410.91V108.236H3421.7H3432.49H3443.28V97.4726V86.7092H3432.49H3421.7V75.9457H3432.49H3443.28V65.1822V54.4187H3432.49H3421.7H3410.91V43.6553H3421.7H3432.49H3443.28V54.4187H3454.07V65.1822ZM3529.59 54.4187H3518.8H3508.01V65.1822V75.9457V86.7092V97.4726V108.236V119H3497.22V108.236V97.4726V86.7092V75.9457V65.1822V54.4187H3486.43H3475.65V43.6553H3486.43H3497.22H3508.01H3518.8H3529.59V54.4187ZM3594.33 65.1822V75.9457V86.7092V97.4726V108.236H3583.54V119H3572.75H3561.96V108.236H3551.17V97.4726V86.7092V75.9457V65.1822V54.4187H3561.96V43.6553H3572.75H3583.54V54.4187H3594.33V65.1822Z" fill="#013AEC"/>
<path d="M3252.24 75.6797H3241.58V86.3482H3252.24V75.6797Z" fill="#E51041"/>
<path d="M3252.24 54.3428H3241.58V65.0114H3252.24V54.3428Z" fill="#E51041"/>
<path d="M3316.19 33.0056H3305.54V22.3371H3294.88V11.6685H3284.22V1H3273.56H3262.9H3252.24H3241.58H3230.92H3220.27H3209.64V11.6685H3198.98V22.3371H3188.32V33.0056H3177.66V43.6742H3167V54.3427V65.0113V75.6799V86.3484V97.017V107.686V118.354H3177.66V128.994H3188.32V139.663H3198.98V150.331H3209.64V161H3220.27H3230.92H3241.58H3252.24H3262.9H3273.56H3284.22V150.331H3294.88V139.663H3305.54V128.994H3316.19V118.354H3326.85V107.686V97.017V86.3484V75.6799V65.0113V54.3427V43.6742H3316.19V33.0056ZM3273.56 139.663H3262.9V128.994V118.354H3252.24V128.994V139.663H3241.58V128.994V118.354H3230.92V128.994V139.663H3220.27H3209.64V128.994H3220.27V118.354V107.686H3230.92V97.017V86.3484V75.6799V65.0113V54.3427V43.6742H3241.58V33.0056H3252.24V43.6742H3262.9V54.3427V65.0113V75.6799V86.3484V97.017V107.686H3273.56V118.354V128.994H3284.22V139.663H3273.56Z" fill="#E51041"/>
<path d="M3136.19 33.0056H3125.54V22.3371H3114.88V11.6685H3104.22V1H3093.56H3082.9H3072.24H3061.58H3050.92H3040.27H3029.64V11.6685H3018.98V22.3371H3008.32V33.0056H2997.66V43.6742H2987V54.3427V65.0113V75.6798V86.3483V97.0169V107.685V118.354H2997.66V128.994H3008.32V139.663H3018.98V150.331H3029.64V161H3040.27H3050.92H3061.58H3072.24H3082.9H3093.56H3104.22V150.331H3114.88V139.663H3125.54V128.994H3136.19V118.354H3146.85V107.685V97.0169V86.3483V75.6798V65.0113V54.3427V43.6742H3136.19V33.0056ZM3104.22 107.685V118.354H3093.56V128.994H3082.9H3072.24H3061.58H3050.92H3040.27V118.354H3029.64V107.685H3018.98V97.0169H3029.64V107.685H3040.27H3050.92H3061.58H3072.24H3082.9H3093.56H3104.22V97.0169H3114.88V107.685H3104.22ZM3114.88 75.6798H3104.22V65.0113H3093.56V75.6798H3082.9V65.0113H3093.56V54.3427H3104.22V65.0113H3114.88V75.6798ZM3018.98 65.0113H3029.64V54.3427H3040.27V65.0113H3050.92V75.6798H3040.27V65.0113H3029.64V75.6798H3018.98V65.0113Z" fill="#FFD200"/>
<path d="M3763.24 22.3369H3752.58V33.0055H3763.24V22.3369Z" fill="#398B67"/>
<path d="M3827.19 33.0056H3816.54V22.3371H3805.88V11.6685H3795.22V1H3784.56H3773.9H3763.24H3752.58H3741.92H3731.27H3720.64V11.6685H3709.98V22.3371H3699.32V33.0056H3688.66V43.6742H3678V54.3427V65.0113V75.6798V86.3483V97.0169V107.685V118.354H3688.66V128.994H3699.32V139.663H3709.98V150.331H3720.64V161H3731.27H3741.92H3752.58H3763.24H3773.9H3784.56H3795.22V150.331H3805.88V139.663H3816.54V128.994H3827.19V118.354H3837.85V107.685V97.0169V86.3483V75.6798V65.0113V54.3427V43.6742H3827.19V33.0056V33.0056ZM3763.24 11.6685V22.3371H3773.9V33.0056H3763.24V43.6742V54.3427V65.0113V75.6798H3773.9V65.0113H3784.56V75.6798H3773.9V86.3483H3763.24V97.0169V107.685H3773.9H3784.56H3795.22V118.354H3784.56V128.994V139.663H3773.9H3763.24H3752.58H3741.92H3731.27V128.994V118.354H3720.64V107.685H3731.27H3741.92H3752.58V97.0169H3741.92V86.3483H3731.27V75.6798H3741.92V86.3483H3752.58V75.6798V65.0113V54.3427V43.6742V33.0056H3741.92V22.3371H3752.58V11.6685H3763.24Z" fill="#398B67"/>
<path d="M3964.56 118.353V107.685H3953.9V97.0162H3943.24V86.3476H3932.58V75.6791H3943.24V65.0105H3953.9V54.342H3964.56V43.6734H3975.22V33.0049H3964.56H3953.9H3943.24H3932.58H3921.92H3911.26H3900.63V43.6734H3889.97V54.342V65.0105V75.6791V86.3476V97.0162V107.685V118.353H3900.63V128.994H3911.26H3921.92H3932.58H3943.24H3953.9H3964.56H3975.22V118.353H3964.56ZM3932.58 43.6734V54.342H3921.92V43.6734H3932.58Z" fill="#FFD200"/>
<path d="M4007.19 33.0056H3996.54V22.3371H3985.88V11.6685H3975.22V1H3964.56H3953.9H3943.24H3932.58H3921.92H3911.27H3900.64V11.6685H3889.98V22.3371H3879.32V33.0056H3868.66V43.6742H3858V54.3427V65.0113V75.6798V86.3484V97.0169V107.685V118.354H3868.66V128.994H3879.32V139.663H3889.98V150.331H3900.64V161H3911.27H3921.92H3932.58H3943.24H3953.9H3964.56H3975.22V150.331H3985.88V139.663H3996.54V128.994H4007.19V118.354H4017.85V107.685V97.0169V86.3484V75.6798V65.0113V54.3427V43.6742H4007.19V33.0056ZM3975.22 128.994V139.663H3964.56H3953.9H3943.24H3932.58H3921.92H3911.27H3900.64V128.994H3889.98V118.354H3879.32V107.685V97.0169V86.3484V75.6798V65.0113V54.3427V43.6742H3889.98V33.0056H3900.64V22.3371H3911.27H3921.92H3932.58H3943.24H3953.9H3964.56H3975.22V33.0056H3985.88V43.6742H3975.22V54.3427H3964.56V65.0113H3953.9V75.6798H3943.24V86.3484H3953.9V97.0169H3964.56V107.685H3975.22V118.354H3985.88V128.994H3975.22ZM3996.54 86.3484H3985.88V75.6798H3996.54V86.3484ZM3964.56 75.6798H3975.22V86.3484H3964.56V75.6798Z" fill="#FFD200"/>
<path d="M2438.19 33.0056H2427.54V22.3371H2416.88V11.6685H2406.22V1H2395.56H2384.9H2374.24H2363.58H2352.92H2342.27H2331.64V11.6685H2320.98V22.3371H2310.32V33.0056H2299.66V43.6742H2289V54.3427V65.0113V75.6798V86.3484V97.0169V107.685V118.354H2299.66V128.994H2310.32V139.663H2320.98V150.331H2331.64V161H2342.27H2352.92H2363.58H2374.24H2384.9H2395.56H2406.22V150.331H2416.88V139.663H2427.54V128.994H2438.19V118.354H2448.85V107.685V97.0169V86.3484V75.6798V65.0113V54.3427V43.6742H2438.19V33.0056ZM2416.88 86.3484H2406.22V75.6798H2416.88V86.3484ZM2384.9 107.685H2374.24H2363.58H2352.92V97.0169H2342.27V86.3484V75.6798V65.0113H2352.92V54.3427H2363.58H2374.24H2384.9V65.0113H2395.56V75.6798V86.3484V97.0169H2384.9V107.685ZM2320.98 75.6798H2331.64V86.3484H2320.98V75.6798ZM2331.64 107.685H2342.27V118.354H2331.64V107.685ZM2363.58 118.354H2374.24V128.994H2363.58V118.354ZM2374.24 43.6742H2363.58V33.0056H2374.24V43.6742ZM2406.22 54.3427H2395.56V43.6742H2406.22V54.3427ZM2342.27 43.6742V54.3427H2331.64V43.6742H2342.27ZM2395.56 118.354V107.685H2406.22V118.354H2395.56Z" fill="#FFD200"/>
<path d="M2258.33 33.0053H2247.66V22.3371H2236.99V11.6685H2226.33V1H2215.66H2204.99H2194.32H2183.65H2172.98H2162.31H2151.67V11.6685H2141.01V22.3371H2130.34V33.0053H2119.67V43.6737H2109V54.3432V65.0116V75.68V86.3484V97.0168V107.685V118.354H2119.67V128.995H2130.34V139.663H2141.01V150.332H2151.67V161H2162.31H2172.98H2183.65H2194.32H2204.99H2215.66H2226.33V150.332H2236.99V139.663H2247.66V128.995H2258.33V118.354H2269V107.685V97.0168V86.3484V75.68V65.0116V54.3432V43.6737H2258.33V33.0053ZM2172.98 128.995V118.354H2162.31V107.685H2151.67V97.0168H2141.01V86.3484V75.68V65.0116V54.3432H2151.67V43.6737H2162.31H2172.98H2183.65V54.3432H2194.32V43.6737H2204.99H2215.66H2226.33V54.3432H2236.99V65.0116V75.68V86.3484V97.0168H2226.33V107.685H2215.66V118.354H2204.99V128.995H2194.32V139.663H2183.65V128.995H2172.98Z" fill="#E51041"/>
</g>
<path d="M624.794 86.7383V97.5018V108.265H635.442H646.09V97.5018V86.7383H635.442H624.794Z" fill="#013AEC"/>
<path d="M497.016 54.4463V65.2098V75.9733H507.664H518.312V65.2098V54.4463H507.664H497.016Z" fill="#013AEC"/>
<path d="M646.09 54.4463H635.442H624.794V65.2098V75.9733H635.442H646.09V65.2098V54.4463Z" fill="#013AEC"/>
<path d="M847.956 43.6837V33.0057H837.392V22.3276H826.829V11.6781H816.293V11.6496V1C806.067 1 550.315 1 401.269 1V11.6496H390.959V22.3276H380.62V33.0057H370.31V43.6553H360C360 68.0867 360 93.9418 360 118.345H370.31V128.994H380.62V139.672H390.959V150.322H401.269V161C550.315 161 806.067 161 816.293 161V150.35H826.829V139.672H837.392V128.994H847.956V118.373H858.491C858.491 93.9418 858.491 68.0867 858.491 43.6837H847.956V43.6837ZM465.073 54.4472V65.2107V75.9742V86.7377V97.5011V108.265V119.028H454.425V108.265V97.5011V86.7377V75.9742V65.2107V54.4472H443.777H433.129V65.2107V75.9742V86.7377V97.5011V108.265V119.028H422.48V108.265V97.5011V86.7377V75.9742V65.2107V54.4472V43.6837H433.129H443.777H454.425H465.073V54.4472ZM528.962 54.4472V65.2107V75.9742V86.7377H518.314H507.666H497.018V97.5011V108.265V119.028H486.369V108.265V97.5011V86.7377V75.9742V65.2107V54.4472V43.6837H497.018H507.666H518.314H528.962V54.4472V54.4472ZM592.851 54.4472V65.2107V75.9742V86.7377V97.5011V108.265V119.028H582.203V108.265V97.5011V86.7377H571.555V97.5011H560.906V108.265V119.028H550.258V108.265V97.5011V86.7377V75.9742V65.2107V54.4472V43.6837H560.906V54.4472V65.2107V75.9742V86.7377H571.555V75.9742H582.203V65.2107V54.4472V43.6837H592.851V54.4472ZM656.74 65.2107V75.9742H646.092V86.7377H656.74V97.5011V108.265V119.028H646.092H635.443H624.795H614.147V108.265V97.5011V86.7377V75.9742V65.2107V54.4472V43.6837H624.795H635.443H646.092V54.4472H656.74V65.2107ZM720.629 54.4472H709.981H699.332H688.684V65.2107V75.9742H699.332H709.981V86.7377H699.332H688.684V97.5011V108.265H699.332H709.981H720.629V119.028H709.981H699.332H688.684H678.036V108.265V97.5011V86.7377V75.9742V65.2107V54.4472V43.6837H688.684H699.332H709.981H720.629V54.4472ZM795.166 54.4472H784.518H773.869V65.2107V75.9742V86.7377V97.5011V108.265V119.028H763.221V108.265V97.5011V86.7377V75.9742V65.2107V54.4472H752.573H741.925V43.6837H752.573H763.221H773.869H784.518H795.166V54.4472Z" fill="#013AEC"/>
<path d="M1474.54 86.7084V75.9449V65.1815V54.418H1463.75H1452.96V65.1815V75.9449V86.7084V97.4719V108.235H1463.75H1474.54V97.4719V86.7084Z" fill="#013AEC"/>
<path d="M1538.62 43.6837V33.0057H1527.92V22.3276H1517.21V11.6781H1506.51V11.6496V1C1496.15 1 1430.81 1 1279.79 1V11.6496H1269.34V22.3276H1258.89V33.0057H1248.45V43.6553H1238C1238 68.0866 1238 93.9418 1238 118.345H1248.45V128.994H1258.89V139.672H1269.34V150.322H1279.79V161C1430.81 161 1496.15 161 1506.51 161V150.35H1517.21V139.672H1527.92V128.994H1538.62V118.373H1549.29C1549.29 93.9418 1549.29 68.0866 1549.29 43.6837H1538.62V43.6837ZM1345.07 65.1822V75.9457V86.7092V97.4726V108.236H1334.28V119H1323.49H1312.7H1301.91V108.236H1312.7H1323.49H1334.28V97.4726V86.7092H1323.49H1312.7V75.9457H1323.49H1334.28V65.1822V54.4187H1323.49H1312.7H1301.91V43.6553H1312.7H1323.49H1334.28V54.4187H1345.07V65.1822ZM1420.59 54.4187H1409.8H1399.01V65.1822V75.9457V86.7092V97.4726V108.236V119H1388.22V108.236V97.4726V86.7092V75.9457V65.1822V54.4187H1377.43H1366.65V43.6553H1377.43H1388.22H1399.01H1409.8H1420.59V54.4187ZM1485.33 65.1822V75.9457V86.7092V97.4726V108.236H1474.54V119H1463.75H1452.96V108.236H1442.17V97.4726V86.7092V75.9457V65.1822V54.4187H1452.96V43.6553H1463.75H1474.54V54.4187H1485.33V65.1822Z" fill="#013AEC"/>
<path d="M1143.24 75.6797H1132.58V86.3482H1143.24V75.6797Z" fill="#E51041"/>
<path d="M1143.24 54.3428H1132.58V65.0114H1143.24V54.3428Z" fill="#E51041"/>
<path d="M1207.19 33.0056H1196.54V22.3371H1185.88V11.6685H1175.22V1H1164.56H1153.9H1143.24H1132.58H1121.92H1111.27H1100.64V11.6685H1089.98V22.3371H1079.32V33.0056H1068.66V43.6742H1058V54.3427V65.0113V75.6799V86.3484V97.017V107.686V118.354H1068.66V128.994H1079.32V139.663H1089.98V150.331H1100.64V161H1111.27H1121.92H1132.58H1143.24H1153.9H1164.56H1175.22V150.331H1185.88V139.663H1196.54V128.994H1207.19V118.354H1217.85V107.686V97.017V86.3484V75.6799V65.0113V54.3427V43.6742H1207.19V33.0056ZM1164.56 139.663H1153.9V128.994V118.354H1143.24V128.994V139.663H1132.58V128.994V118.354H1121.92V128.994V139.663H1111.27H1100.64V128.994H1111.27V118.354V107.686H1121.92V97.017V86.3484V75.6799V65.0113V54.3427V43.6742H1132.58V33.0056H1143.24V43.6742H1153.9V54.3427V65.0113V75.6799V86.3484V97.017V107.686H1164.56V118.354V128.994H1175.22V139.663H1164.56Z" fill="#E51041"/>
<path d="M1027.19 33.0056H1016.54V22.3371H1005.88V11.6685H995.219V1H984.56H973.901H963.242H952.583H941.925H931.266H920.635V11.6685H909.976V22.3371H899.318V33.0056H888.659V43.6742H878V54.3427V65.0113V75.6798V86.3483V97.0169V107.685V118.354H888.659V128.994H899.318V139.663H909.976V150.331H920.635V161H931.266H941.925H952.583H963.242H973.901H984.56H995.219V150.331H1005.88V139.663H1016.54V128.994H1027.19V118.354H1037.85V107.685V97.0169V86.3483V75.6798V65.0113V54.3427V43.6742H1027.19V33.0056ZM995.219 107.685V118.354H984.56V128.994H973.901H963.242H952.583H941.925H931.266V118.354H920.635V107.685H909.976V97.0169H920.635V107.685H931.266H941.925H952.583H963.242H973.901H984.56H995.219V97.0169H1005.88V107.685H995.219ZM1005.88 75.6798H995.219V65.0113H984.56V75.6798H973.901V65.0113H984.56V54.3427H995.219V65.0113H1005.88V75.6798ZM909.976 65.0113H920.635V54.3427H931.266V65.0113H941.925V75.6798H931.266V65.0113H920.635V75.6798H909.976V65.0113Z" fill="#FFD200"/>
<path d="M1654.24 22.3369H1643.58V33.0055H1654.24V22.3369Z" fill="#398B67"/>
<path d="M1718.19 33.0056H1707.54V22.3371H1696.88V11.6685H1686.22V1H1675.56H1664.9H1654.24H1643.58H1632.92H1622.27H1611.64V11.6685H1600.98V22.3371H1590.32V33.0056H1579.66V43.6742H1569V54.3427V65.0113V75.6798V86.3483V97.0169V107.685V118.354H1579.66V128.994H1590.32V139.663H1600.98V150.331H1611.64V161H1622.27H1632.92H1643.58H1654.24H1664.9H1675.56H1686.22V150.331H1696.88V139.663H1707.54V128.994H1718.19V118.354H1728.85V107.685V97.0169V86.3483V75.6798V65.0113V54.3427V43.6742H1718.19V33.0056V33.0056ZM1654.24 11.6685V22.3371H1664.9V33.0056H1654.24V43.6742V54.3427V65.0113V75.6798H1664.9V65.0113H1675.56V75.6798H1664.9V86.3483H1654.24V97.0169V107.685H1664.9H1675.56H1686.22V118.354H1675.56V128.994V139.663H1664.9H1654.24H1643.58H1632.92H1622.27V128.994V118.354H1611.64V107.685H1622.27H1632.92H1643.58V97.0169H1632.92V86.3483H1622.27V75.6798H1632.92V86.3483H1643.58V75.6798V65.0113V54.3427V43.6742V33.0056H1632.92V22.3371H1643.58V11.6685H1654.24Z" fill="#398B67"/>
<path d="M1855.56 118.353V107.685H1844.9V97.0162H1834.24V86.3476H1823.58V75.6791H1834.24V65.0105H1844.9V54.342H1855.56V43.6734H1866.22V33.0049H1855.56H1844.9H1834.24H1823.58H1812.92H1802.26H1791.63V43.6734H1780.97V54.342V65.0105V75.6791V86.3476V97.0162V107.685V118.353H1791.63V128.994H1802.26H1812.92H1823.58H1834.24H1844.9H1855.56H1866.22V118.353H1855.56ZM1823.58 43.6734V54.342H1812.92V43.6734H1823.58Z" fill="#FFD200"/>
<path d="M1898.19 33.0056H1887.54V22.3371H1876.88V11.6685H1866.22V1H1855.56H1844.9H1834.24H1823.58H1812.92H1802.27H1791.64V11.6685H1780.98V22.3371H1770.32V33.0056H1759.66V43.6742H1749V54.3427V65.0113V75.6798V86.3484V97.0169V107.685V118.354H1759.66V128.994H1770.32V139.663H1780.98V150.331H1791.64V161H1802.27H1812.92H1823.58H1834.24H1844.9H1855.56H1866.22V150.331H1876.88V139.663H1887.54V128.994H1898.19V118.354H1908.85V107.685V97.0169V86.3484V75.6798V65.0113V54.3427V43.6742H1898.19V33.0056ZM1866.22 128.994V139.663H1855.56H1844.9H1834.24H1823.58H1812.92H1802.27H1791.64V128.994H1780.98V118.354H1770.32V107.685V97.0169V86.3484V75.6798V65.0113V54.3427V43.6742H1780.98V33.0056H1791.64V22.3371H1802.27H1812.92H1823.58H1834.24H1844.9H1855.56H1866.22V33.0056H1876.88V43.6742H1866.22V54.3427H1855.56V65.0113H1844.9V75.6798H1834.24V86.3484H1844.9V97.0169H1855.56V107.685H1866.22V118.354H1876.88V128.994H1866.22ZM1887.54 86.3484H1876.88V75.6798H1887.54V86.3484ZM1855.56 75.6798H1866.22V86.3484H1855.56V75.6798Z" fill="#FFD200"/>
<path d="M329.195 33.0056H318.536V22.3371H307.877V11.6685H297.219V1H286.56H275.901H265.242H254.583H243.925H233.266H222.635V11.6685H211.976V22.3371H201.318V33.0056H190.659V43.6742H180V54.3427V65.0113V75.6798V86.3484V97.0169V107.685V118.354H190.659V128.994H201.318V139.663H211.976V150.331H222.635V161H233.266H243.925H254.583H265.242H275.901H286.56H297.219V150.331H307.877V139.663H318.536V128.994H329.195V118.354H339.854V107.685V97.0169V86.3484V75.6798V65.0113V54.3427V43.6742H329.195V33.0056ZM307.877 86.3484H297.219V75.6798H307.877V86.3484ZM275.901 107.685H265.242H254.583H243.925V97.0169H233.266V86.3484V75.6798V65.0113H243.925V54.3427H254.583H265.242H275.901V65.0113H286.56V75.6798V86.3484V97.0169H275.901V107.685ZM211.976 75.6798H222.635V86.3484H211.976V75.6798ZM222.635 107.685H233.266V118.354H222.635V107.685ZM254.583 118.354H265.242V128.994H254.583V118.354ZM265.242 43.6742H254.583V33.0056H265.242V43.6742ZM297.219 54.3427H286.56V43.6742H297.219V54.3427ZM233.266 43.6742V54.3427H222.635V43.6742H233.266ZM286.56 118.354V107.685H297.219V118.354H286.56Z" fill="#FFD200"/>
<path d="M149.332 33.0053H138.663V22.3371H127.995V11.6685H117.326V1H106.657H95.9884H85.32H74.6516H63.9832H53.3147H42.6737V11.6685H32.0053V22.3371H21.3368V33.0053H10.6684V43.6737H0V54.3432V65.0116V75.68V86.3484V97.0168V107.685V118.354H10.6684V128.995H21.3368V139.663H32.0053V150.332H42.6737V161H53.3147H63.9832H74.6516H85.32H95.9884H106.657H117.326V150.332H127.995V139.663H138.663V128.995H149.332V118.354H160V107.685V97.0168V86.3484V75.68V65.0116V54.3432V43.6737H149.332V33.0053ZM63.9832 128.995V118.354H53.3147V107.685H42.6737V97.0168H32.0053V86.3484V75.68V65.0116V54.3432H42.6737V43.6737H53.3147H63.9832H74.6516V54.3432H85.32V43.6737H95.9884H106.657H117.326V54.3432H127.995V65.0116V75.68V86.3484V97.0168H117.326V107.685H106.657V118.354H95.9884V128.995H85.32V139.663H74.6516V128.995H63.9832Z" fill="#E51041"/>
<path d="M1982.31 107.685H1992.98H2003.65H2014.31H2024.98H2035.65H2046.32H2056.99V97.016V86.3475V75.6789V65.0104V54.3418H2046.32H2035.65H2024.98H2014.31H2003.65H1992.98H1982.31H1971.67H1961V65.0104V75.6789V86.3475V97.016V107.685H1971.67H1982.31ZM2014.31 86.3475H2003.65V75.6789H2014.31V86.3475ZM2046.32 86.3475H2035.65V75.6789H2046.32V86.3475ZM1971.67 75.6789H1982.31V86.3475H1971.67V75.6789V75.6789Z" fill="#6FCBF5"/>
<path d="M2078.33 43.6742V33.0057H2067.66V22.3371H2056.99V11.6686H2046.33V1H2035.66H2024.99H2014.32H2003.65H1992.98H1982.31H1971.67V11.6686H1961.01V22.3371H1950.34V33.0057H1939.67V43.6742H1929V54.3427V65.0113V75.6799V86.3484V97.0169V107.685V118.354H1939.67V128.994H1950.34V139.663H1961.01V150.331H1971.67V161H1982.31H1992.98H2003.65H2014.32H2024.99H2035.66H2046.33V150.331H2056.99V139.663H2067.66V128.994H2078.33V118.354H2089V107.685V97.0169V86.3484V75.6799V65.0113V54.3427V43.6742H2078.33ZM1982.31 150.331V139.663V128.994V118.354H1971.67H1961.01V107.685H1950.34V97.0169V86.3484V75.6799V65.0113V54.3427H1961.01V43.6742H1971.67H1982.31H1992.98H2003.65H2014.32H2024.99H2035.66H2046.33H2056.99V54.3427H2067.66V65.0113V75.6799V86.3484V97.0169V107.685H2056.99V118.354H2046.33H2035.66H2024.99H2014.32V128.994H2003.65V139.663H1992.98V150.331H1982.31V150.331Z" fill="#6FCBF5"/>
<defs>
<clipPath id="clip0_319_2894">
<rect width="1920" height="160" fill="white" transform="translate(2109)"/>
</clipPath>
</defs>
</svg>
