<svg width="3872" height="160" viewBox="0 0 3872 160" fill="none" xmlns="http://www.w3.org/2000/svg">
<g clip-path="url(#clip0_320_3016)">
<path d="M2271.24 33.59H2260.72V23.06H2250.2V12.53H2239.68V2H2229.15H2218.63H2208.11H2197.59H2187.07H2176.55H2166.06V12.53H2155.54V23.06H2145.01V33.59H2134.49V44.12H2123.97V54.6499V65.1799V75.7099V86.2399V96.7699V107.3V117.83H2134.49V128.332H2145.01V138.862H2155.54V149.392H2166.06V159.922H2176.55H2187.07H2197.59H2208.11H2218.63H2229.15H2239.68V149.392H2250.2V138.862H2260.72V128.332H2271.24V117.83H2281.76V107.3V96.7699V86.2399V75.7099V65.1799V54.6499V44.12H2271.24V33.59V33.59ZM2250.2 117.83V128.332H2239.68V138.862H2229.15H2218.63H2208.11H2197.59H2187.07H2176.55H2166.06V128.332H2155.54V117.83H2145.01V107.3H2155.54H2166.06H2176.55H2187.07V96.7699V86.2399H2176.55V75.7099H2166.06V65.1799H2155.54V54.6499H2166.06V44.12H2176.55V33.59H2187.07V23.06H2197.59V33.59V44.12V54.6499V65.1799V75.7099V86.2399V96.7699V107.3H2208.11H2218.63H2229.15V96.7699V86.2399H2218.63V75.7099H2208.11V65.1799V54.6499H2218.63V44.12H2229.15V33.59H2239.68V44.12V54.6499V65.1799V75.7099V86.2399V96.7699V107.3H2250.2V96.7699H2260.72V107.3V117.83H2250.2Z" fill="#6FCBF5"/>
<path d="M2385.9 54.6504H2375.38V65.1804H2364.86V75.7104H2375.38V86.2404H2385.9V75.7104H2396.42V65.1804H2385.9V54.6504Z" fill="#FFD200"/>
<path d="M2449.02 33.59H2438.5V23.06H2427.98V12.53H2417.46V2H2406.94H2396.42H2385.9H2375.38H2364.85H2354.33H2343.84V12.53H2333.32V23.06H2322.8V33.59H2312.28V44.1199H2301.76V54.6499V65.1799V75.7099V86.2399V96.7699V107.3V117.83H2312.28V128.332H2322.8V138.862H2333.32V149.392H2343.84V159.922H2354.33H2364.85H2375.38H2385.9H2396.42H2406.94H2417.46V149.392H2427.98V138.862H2438.5V128.332H2449.02V117.83H2459.54V107.3V96.7699V86.2399V75.7099V65.1799V54.6499V44.1199H2449.02V33.59ZM2427.98 54.6499V65.1799V75.7099V86.2399H2417.46V96.7699V107.3H2406.94V117.83H2396.42V128.332H2385.9V138.862H2375.38V128.332H2364.85V117.83H2354.33V107.3H2343.84V96.7699V86.2399H2333.32V75.7099V65.1799V54.6499V44.1199H2343.84V33.59H2354.33V23.06H2364.85H2375.38H2385.9H2396.42H2406.94V33.59H2417.46V44.1199H2427.98V54.6499Z" fill="#FFD200"/>
<path d="M2532.12 96.7695H2521.62V107.3H2532.12V96.7695Z" fill="#013AEC"/>
<path d="M2521.62 54.6498V65.1798V75.7098V86.2398H2532.12H2542.64H2553.16H2563.68H2574.2H2584.72H2595.24V75.7098V65.1798V54.6498V44.1198V33.5898H2584.72H2574.2H2563.68H2553.16H2542.64H2532.12H2521.62V44.1198V54.6498Z" fill="#013AEC"/>
<path d="M2595.24 96.7695H2584.72V107.3H2595.24V96.7695Z" fill="#013AEC"/>
<path d="M2626.81 33.59H2616.28V23.06H2605.76V12.53H2595.24V2H2584.72H2574.2H2563.68H2553.16H2542.64H2532.12H2521.62V12.53H2511.1V23.06H2500.58V33.59H2490.06V44.12H2479.54V54.65V65.18V75.7099V86.2399V96.7699V107.3V117.83H2490.06V128.332H2500.58V138.862H2511.1V149.392H2521.62V159.922H2532.12H2542.64H2553.16H2563.68H2574.2H2584.72H2595.24V149.392H2605.76V138.862H2616.28V128.332H2626.81V117.83H2637.33V107.3V96.7699V86.2399V75.7099V65.18V54.65V44.12H2626.81V33.59ZM2521.62 33.59V23.06H2532.12H2542.64H2553.16H2563.68H2574.2H2584.72H2595.24V33.59H2605.76V44.12V54.65V65.18V75.7099V86.2399V96.7699V107.3V117.83H2595.24V128.332H2584.72V117.83H2574.2H2563.68H2553.16H2542.64H2532.12V128.332H2521.62V117.83H2511.1V107.3V96.7699V86.2399V75.7099V65.18V54.65V44.12V33.59H2521.62Z" fill="#013AEC"/>
<path d="M2688.89 75.71H2678.37V86.2399H2688.89V75.71Z" fill="#E51041"/>
<path d="M2709.9 75.71H2699.41V86.2399H2709.9V75.71Z" fill="#E51041"/>
<path d="M2730.94 75.71H2720.42V86.2399H2730.94V75.71Z" fill="#E51041"/>
<path d="M2804.59 33.59H2794.07V23.06H2783.55V12.53H2773.03V2H2762.51H2751.98H2741.46H2730.94H2720.42H2709.9H2699.41V12.53H2688.89V23.06H2678.37V33.59H2667.84V44.1199H2657.32V54.6499V65.1799V75.7099V86.2399V96.7699V107.3V117.83H2667.84V128.332H2678.37V138.862H2688.89V149.392H2699.41V159.922H2709.9H2720.42H2730.94H2741.46H2751.98H2762.51H2773.03V149.392H2783.55V138.862H2794.07V128.332H2804.59V117.83H2815.11V107.3V96.7699V86.2399V75.7099V65.1799V54.6499V44.1199H2804.59V33.59ZM2667.84 86.2399V75.7099H2678.37V65.1799H2688.89H2699.41H2709.9H2720.42V54.6499H2730.94V44.1199H2741.46V33.59H2751.98H2762.51V44.1199V54.6499H2751.98V65.1799H2762.51H2773.03H2783.55V54.6499H2794.07V65.1799V75.7099V86.2399H2783.55V96.7699H2773.03H2762.51H2751.98V107.3H2762.51V117.83V128.332H2751.98H2741.46V117.83H2730.94V107.3H2720.42V96.7699H2709.9H2699.41H2688.89H2678.37H2667.84V86.2399V86.2399Z" fill="#E51041"/>
<path d="M2982.37 33.59H2971.85V23.06H2961.33V12.53H2950.81V2H2940.29H2929.77H2919.25H2908.73H2898.21H2887.68H2877.19V12.53H2866.67V23.06H2856.15V33.59H2845.63V44.12H2835.11V54.65V65.18V75.7099V86.2399V96.7699V107.3V117.83H2845.63V128.332H2856.15V138.862H2866.67V149.392H2877.19V159.922H2887.68H2898.21H2908.73H2919.25H2929.77H2940.29H2950.81V149.392H2961.33V138.862H2971.85V128.332H2982.37V117.83H2992.89V107.3V96.7699V86.2399V75.7099V65.18V54.65V44.12H2982.37V33.59ZM2950.81 128.332H2940.29V117.83H2929.77V107.3H2919.25H2908.73H2898.21H2887.68H2877.19H2866.67V96.7699H2877.19H2887.68H2898.21H2908.73H2919.25H2929.77H2940.29V107.3H2950.81V117.83V128.332ZM2856.15 75.7099H2866.67H2877.19H2887.68H2898.21H2908.73H2919.25H2929.77H2940.29H2950.81H2961.33V86.2399H2950.81H2940.29H2929.77H2919.25H2908.73H2898.21H2887.68H2877.19H2866.67H2856.15V75.7099ZM2877.19 54.65H2887.68H2898.21H2908.73H2919.25H2929.77V44.12H2940.29V33.59H2950.81V44.12V54.65H2940.29V65.18H2929.77H2919.25H2908.73H2898.21H2887.68H2877.19H2866.67V54.65H2877.19Z" fill="#6FCBF5"/>
<path d="M3160.16 33.5945H3149.64V23.0631H3139.11V12.5314H3128.59V2H3118.07H3107.55H3097.03H3086.51H3075.99H3065.47H3054.97V12.5314H3044.45V23.0631H3033.93V33.5945H3023.41V44.1261H3012.89V54.6576V65.1892V75.7206V86.2523V96.7837V107.315V117.847H3023.41V128.351H3033.93V138.882H3044.45V149.414H3054.97V159.945H3065.47H3075.99H3086.51H3097.03H3107.55H3118.07H3128.59V149.414H3139.11V138.882H3149.64V128.351H3160.16V117.847H3170.68V107.315V96.7837V86.2523V75.7206V65.1892V54.6576V44.1261H3160.16V33.5945V33.5945ZM3128.59 128.351H3118.07H3107.55V117.847H3118.07V107.315V96.7837V86.2523H3107.55V75.7206H3118.07V65.1892V54.6576H3107.55V65.1892H3097.03H3086.51H3075.99V54.6576H3065.47V65.1892V75.7206H3075.99V86.2523H3065.47V96.7837V107.315V117.847H3075.99V128.351H3065.47H3054.97H3044.45V117.847H3054.97V107.315V96.7837V86.2523H3044.45V75.7206H3054.97V65.1892V54.6576H3044.45V44.1261V33.5945H3054.97H3065.47V44.1261H3075.99H3086.51H3097.03H3107.55H3118.07V33.5945H3128.59H3139.11V44.1261V54.6576H3128.59V65.1892V75.7206H3139.11V86.2523H3128.59V96.7837V107.315V117.847H3139.11V128.351H3128.59Z" fill="#398B67"/>
<path d="M3337.94 33.59H3327.42V23.06H3316.9V12.53H3306.38V2H3295.86H3285.34H3274.81H3264.29H3253.77H3243.25H3232.76V12.53H3222.24V23.06H3211.72V33.59H3201.2V44.12H3190.67V54.6499V65.1799V75.7099V86.2399V96.7699V107.3V117.83H3201.2V128.332H3211.72V138.862H3222.24V149.392H3232.76V159.922H3243.25H3253.77H3264.29H3274.81H3285.34H3295.86H3306.38V149.392H3316.9V138.862H3327.42V128.332H3337.94V117.83H3348.46V107.3V96.7699V86.2399V75.7099V65.1799V54.6499V44.12H3337.94V33.59V33.59ZM3316.9 117.83V128.332H3306.38V138.862H3295.86H3285.34H3274.81H3264.29H3253.77H3243.25H3232.76V128.332H3222.24V117.83H3211.72V107.3H3222.24H3232.76H3243.25H3253.77V96.7699V86.2399H3243.25V75.7099H3232.76V65.1799H3222.24V54.6499H3232.76V44.12H3243.25V33.59H3253.77V23.06H3264.29V33.59V44.12V54.6499V65.1799V75.7099V86.2399V96.7699V107.3H3274.81H3285.34H3295.86V96.7699V86.2399H3285.34V75.7099H3274.81V65.1799V54.6499H3285.34V44.12H3295.86V33.59H3306.38V44.12V54.6499V65.1799V75.7099V86.2399V96.7699V107.3H3316.9V96.7699H3327.42V107.3V117.83H3316.9Z" fill="#6FCBF5"/>
<path d="M3452.6 54.6504H3442.08V65.1804H3431.56V75.7104H3442.08V86.2404H3452.6V75.7104H3463.12V65.1804H3452.6V54.6504Z" fill="#FFD200"/>
<path d="M3515.72 33.59H3505.2V23.06H3494.68V12.53H3484.16V2H3473.64H3463.12H3452.6H3442.08H3431.56H3421.04H3410.54V12.53H3400.02V23.06H3389.5V33.59H3378.98V44.1199H3368.46V54.6499V65.1799V75.7099V86.2399V96.7699V107.3V117.83H3378.98V128.332H3389.5V138.862H3400.02V149.392H3410.54V159.922H3421.04H3431.56H3442.08H3452.6H3463.12H3473.64H3484.16V149.392H3494.68V138.862H3505.2V128.332H3515.72V117.83H3526.24V107.3V96.7699V86.2399V75.7099V65.1799V54.6499V44.1199H3515.72V33.59ZM3494.68 54.6499V65.1799V75.7099V86.2399H3484.16V96.7699V107.3H3473.64V117.83H3463.12V128.332H3452.6V138.862H3442.08V128.332H3431.56V117.83H3421.04V107.3H3410.54V96.7699V86.2399H3400.02V75.7099V65.1799V54.6499V44.1199H3410.54V33.59H3421.04V23.06H3431.56H3442.08H3452.6H3463.12H3473.64V33.59H3484.16V44.1199H3494.68V54.6499Z" fill="#FFD200"/>
<path d="M3598.82 96.7695H3588.33V107.3H3598.82V96.7695Z" fill="#013AEC"/>
<path d="M3588.33 54.6498V65.1798V75.7098V86.2398H3598.82H3609.34H3619.86H3630.38H3640.9H3651.42H3661.94V75.7098V65.1798V54.6498V44.1198V33.5898H3651.42H3640.9H3630.38H3619.86H3609.34H3598.82H3588.33V44.1198V54.6498Z" fill="#013AEC"/>
<path d="M3661.94 96.7695H3651.42V107.3H3661.94V96.7695Z" fill="#013AEC"/>
<path d="M3693.51 33.59H3682.99V23.06H3672.47V12.53H3661.94V2H3651.42H3640.9H3630.38H3619.86H3609.34H3598.82H3588.33V12.53H3577.8V23.06H3567.28V33.59H3556.76V44.12H3546.24V54.65V65.18V75.7099V86.2399V96.7699V107.3V117.83H3556.76V128.332H3567.28V138.862H3577.8V149.392H3588.33V159.922H3598.82H3609.34H3619.86H3630.38H3640.9H3651.42H3661.94V149.392H3672.47V138.862H3682.99V128.332H3693.51V117.83H3704.03V107.3V96.7699V86.2399V75.7099V65.18V54.65V44.12H3693.51V33.59ZM3588.33 33.59V23.06H3598.82H3609.34H3619.86H3630.38H3640.9H3651.42H3661.94V33.59H3672.47V44.12V54.65V65.18V75.7099V86.2399V96.7699V107.3V117.83H3661.94V128.332H3651.42V117.83H3640.9H3630.38H3619.86H3609.34H3598.82V128.332H3588.33V117.83H3577.8V107.3V96.7699V86.2399V75.7099V65.18V54.65V44.12V33.59H3588.33Z" fill="#013AEC"/>
<path d="M2093.84 38.405H2083.71V28.27H2073.58V18.135H2063.44V8H2053.31H2043.17H2033.04H2022.91H2012.77H2002.64H1992.53V18.135H1982.4V28.27H1972.27V38.405H1962.13V48.54H1952V58.676V68.811V78.946V89.081V99.216V109.351V119.486H1962.13V129.595H1972.27V139.73H1982.4V149.865H1992.53V160H2002.64H2012.77H2022.91H2033.04H2043.17H2053.31H2063.44V149.865H2073.58V139.73H2083.71V129.595H2093.84V119.486H2103.98V109.351V99.216V89.081V78.946V68.811V58.676V48.54H2093.84V38.405ZM2022.91 149.865V139.73V129.595H2012.77V119.486H2002.64V109.351H2012.77V119.486H2022.91V109.351V99.216V89.081V78.946H2012.77H2002.64V68.811H1992.53V58.676H2002.64V48.54V38.405H2012.77H2022.91H2033.04H2043.17V48.54H2053.31V58.676V68.811H2043.17V78.946H2033.04V89.081V99.216V109.351H2043.17V99.216H2053.31V109.351H2043.17V119.486H2033.04V129.595V139.73V149.865H2022.91Z" fill="#E51041"/>
<path d="M3873.33 32.0053H3862.67V21.3371H3852V10.6684H3841.33V0H3830.67H3820H3809.33H3798.67H3788H3777.33H3766.69V10.6684H3756.03V21.3371H3745.36V32.0053H3734.69V42.6737H3724.03V53.3432V64.0116V74.68V85.3484V96.0168V106.685V117.354H3734.69V127.995H3745.36V138.663H3756.03V149.332H3766.69V160H3777.33H3788H3798.67H3809.33H3820H3830.67H3841.33V149.332H3852V138.663H3862.67V127.995H3873.33V117.354H3884V106.685V96.0168V85.3484V74.68V64.0116V53.3432V42.6737H3873.33V32.0053ZM3841.33 127.995H3830.67H3820V117.354H3830.67V106.685V96.0168V85.3484H3820V74.68H3830.67V64.0116V53.3432H3820V64.0116H3809.33H3798.67H3788V53.3432H3777.33V64.0116V74.68H3788V85.3484H3777.33V96.0168V106.685V117.354H3788V127.995H3777.33H3766.69H3756.03V117.354H3766.69V106.685V96.0168V85.3484H3756.03V74.68H3766.69V64.0116V53.3432H3756.03V42.6737V32.0053H3766.69H3777.33V42.6737H3788H3798.67H3809.33H3820H3830.67V32.0053H3841.33H3852V42.6737V53.3432H3841.33V64.0116V74.68H3852V85.3484H3841.33V96.0168V106.685V117.354H3852V127.995H3841.33Z" fill="#398B67"/>
</g>
<path d="M319.238 33.59H308.717V23.06H298.196V12.53H287.675V2H277.154H266.634H256.113H245.592H235.071H224.55H214.057V12.53H203.536V23.06H193.015V33.59H182.494V44.12H171.973V54.6499V65.1799V75.7099V86.2399V96.7699V107.3V117.83H182.494V128.332H193.015V138.862H203.536V149.392H214.057V159.922H224.55H235.071H245.592H256.113H266.634H277.154H287.675V149.392H298.196V138.862H308.717V128.332H319.238V117.83H329.759V107.3V96.7699V86.2399V75.7099V65.1799V54.6499V44.12H319.238V33.59V33.59ZM298.196 117.83V128.332H287.675V138.862H277.154H266.634H256.113H245.592H235.071H224.55H214.057V128.332H203.536V117.83H193.015V107.3H203.536H214.057H224.55H235.071V96.7699V86.2399H224.55V75.7099H214.057V65.1799H203.536V54.6499H214.057V44.12H224.55V33.59H235.071V23.06H245.592V33.59V44.12V54.6499V65.1799V75.7099V86.2399V96.7699V107.3H256.113H266.634H277.154V96.7699V86.2399H266.634V75.7099H256.113V65.1799V54.6499H266.634V44.12H277.154V33.59H287.675V44.12V54.6499V65.1799V75.7099V86.2399V96.7699V107.3H298.196V96.7699H308.717V107.3V117.83H298.196Z" fill="#6FCBF5"/>
<path d="M433.897 54.6504H423.376V65.1804H412.855V75.7104H423.376V86.2404H433.897V75.7104H444.418V65.1804H433.897V54.6504Z" fill="#FFD200"/>
<path d="M497.023 33.59H486.502V23.06H475.981V12.53H465.46V2H454.939H444.418H433.897H423.376H412.855H402.334H391.841V12.53H381.32V23.06H370.799V33.59H360.278V44.1199H349.757V54.6499V65.1799V75.7099V86.2399V96.7699V107.3V117.83H360.278V128.332H370.799V138.862H381.32V149.392H391.841V159.922H402.334H412.855H423.376H433.897H444.418H454.939H465.46V149.392H475.981V138.862H486.502V128.332H497.023V117.83H507.543V107.3V96.7699V86.2399V75.7099V65.1799V54.6499V44.1199H497.023V33.59ZM475.981 54.6499V65.1799V75.7099V86.2399H465.46V96.7699V107.3H454.939V117.83H444.418V128.332H433.897V138.862H423.376V128.332H412.855V117.83H402.334V107.3H391.841V96.7699V86.2399H381.32V75.7099V65.1799V54.6499V44.1199H391.841V33.59H402.334V23.06H412.855H423.376H433.897H444.418H454.939V33.59H465.46V44.1199H475.981V54.6499Z" fill="#FFD200"/>
<path d="M580.117 96.7695H569.624V107.3H580.117V96.7695Z" fill="#013AEC"/>
<path d="M569.624 54.6498V65.1798V75.7098V86.2398H580.117H590.638H601.159H611.68H622.201H632.722H643.243V75.7098V65.1798V54.6498V44.1198V33.5898H632.722H622.201H611.68H601.159H590.638H580.117H569.624V44.1198V54.6498Z" fill="#013AEC"/>
<path d="M643.242 96.7695H632.721V107.3H643.242V96.7695Z" fill="#013AEC"/>
<path d="M674.806 33.59H664.285V23.06H653.764V12.53H643.243V2H632.722H622.201H611.68H601.159H590.638H580.117H569.624V12.53H559.103V23.06H548.582V33.59H538.061V44.12H527.54V54.65V65.18V75.7099V86.2399V96.7699V107.3V117.83H538.061V128.332H548.582V138.862H559.103V149.392H569.624V159.922H580.117H590.638H601.159H611.68H622.201H632.722H643.243V149.392H653.764V138.862H664.285V128.332H674.806V117.83H685.327V107.3V96.7699V86.2399V75.7099V65.18V54.65V44.12H674.806V33.59ZM569.624 33.59V23.06H580.117H590.638H601.159H611.68H622.201H632.722H643.243V33.59H653.764V44.12V54.65V65.18V75.7099V86.2399V96.7699V107.3V117.83H643.243V128.332H632.722V117.83H622.201H611.68H601.159H590.638H580.117V128.332H569.624V117.83H559.103V107.3V96.7699V86.2399V75.7099V65.18V54.65V44.12V33.59H569.624Z" fill="#013AEC"/>
<path d="M736.887 75.71H726.366V86.2399H736.887V75.71Z" fill="#E51041"/>
<path d="M757.901 75.71H747.408V86.2399H757.901V75.71Z" fill="#E51041"/>
<path d="M778.942 75.71H768.421V86.2399H778.942V75.71Z" fill="#E51041"/>
<path d="M852.589 33.59H842.068V23.06H831.547V12.53H821.027V2H810.506H799.985H789.464H778.943H768.422H757.901H747.408V12.53H736.887V23.06H726.366V33.59H715.845V44.1199H705.324V54.6499V65.1799V75.7099V86.2399V96.7699V107.3V117.83H715.845V128.332H726.366V138.862H736.887V149.392H747.408V159.922H757.901H768.422H778.943H789.464H799.985H810.506H821.027V149.392H831.547V138.862H842.068V128.332H852.589V117.83H863.11V107.3V96.7699V86.2399V75.7099V65.1799V54.6499V44.1199H852.589V33.59ZM715.845 86.2399V75.7099H726.366V65.1799H736.887H747.408H757.901H768.422V54.6499H778.943V44.1199H789.464V33.59H799.985H810.506V44.1199V54.6499H799.985V65.1799H810.506H821.027H831.547V54.6499H842.068V65.1799V75.7099V86.2399H831.547V96.7699H821.027H810.506H799.985V107.3H810.506V117.83V128.332H799.985H789.464V117.83H778.943V107.3H768.422V96.7699H757.901H747.408H736.887H726.366H715.845V86.2399V86.2399Z" fill="#E51041"/>
<path d="M1030.37 33.59H1019.85V23.06H1009.33V12.53H998.81V2H988.289H977.768H967.247H956.726H946.205H935.684H925.191V12.53H914.67V23.06H904.149V33.59H893.628V44.12H883.107V54.65V65.18V75.7099V86.2399V96.7699V107.3V117.83H893.628V128.332H904.149V138.862H914.67V149.392H925.191V159.922H935.684H946.205H956.726H967.247H977.768H988.289H998.81V149.392H1009.33V138.862H1019.85V128.332H1030.37V117.83H1040.89V107.3V96.7699V86.2399V75.7099V65.18V54.65V44.12H1030.37V33.59ZM998.81 128.332H988.289V117.83H977.768V107.3H967.247H956.726H946.205H935.684H925.191H914.67V96.7699H925.191H935.684H946.205H956.726H967.247H977.768H988.289V107.3H998.81V117.83V128.332ZM904.149 75.7099H914.67H925.191H935.684H946.205H956.726H967.247H977.768H988.289H998.81H1009.33V86.2399H998.81H988.289H977.768H967.247H956.726H946.205H935.684H925.191H914.67H904.149V75.7099ZM925.191 54.65H935.684H946.205H956.726H967.247H977.768V44.12H988.289V33.59H998.81V44.12V54.65H988.289V65.18H977.768H967.247H956.726H946.205H935.684H925.191H914.67V54.65H925.191Z" fill="#6FCBF5"/>
<path d="M1208.16 33.5945H1197.64V23.0631H1187.11V12.5314H1176.59V2H1166.07H1155.55H1145.03H1134.51H1123.99H1113.47H1102.97V12.5314H1092.45V23.0631H1081.93V33.5945H1071.41V44.1261H1060.89V54.6576V65.1892V75.7206V86.2523V96.7837V107.315V117.847H1071.41V128.351H1081.93V138.882H1092.45V149.414H1102.97V159.945H1113.47H1123.99H1134.51H1145.03H1155.55H1166.07H1176.59V149.414H1187.11V138.882H1197.64V128.351H1208.16V117.847H1218.68V107.315V96.7837V86.2523V75.7206V65.1892V54.6576V44.1261H1208.16V33.5945V33.5945ZM1176.59 128.351H1166.07H1155.55V117.847H1166.07V107.315V96.7837V86.2523H1155.55V75.7206H1166.07V65.1892V54.6576H1155.55V65.1892H1145.03H1134.51H1123.99V54.6576H1113.47V65.1892V75.7206H1123.99V86.2523H1113.47V96.7837V107.315V117.847H1123.99V128.351H1113.47H1102.97H1092.45V117.847H1102.97V107.315V96.7837V86.2523H1092.45V75.7206H1102.97V65.1892V54.6576H1092.45V44.1261V33.5945H1102.97H1113.47V44.1261H1123.99H1134.51H1145.03H1155.55H1166.07V33.5945H1176.59H1187.11V44.1261V54.6576H1176.59V65.1892V75.7206H1187.11V86.2523H1176.59V96.7837V107.315V117.847H1187.11V128.351H1176.59Z" fill="#398B67"/>
<path d="M1385.94 33.59H1375.42V23.06H1364.9V12.53H1354.38V2H1343.86H1333.34H1322.81H1312.29H1301.77H1291.25H1280.76V12.53H1270.24V23.06H1259.72V33.59H1249.2V44.12H1238.67V54.6499V65.1799V75.7099V86.2399V96.7699V107.3V117.83H1249.2V128.332H1259.72V138.862H1270.24V149.392H1280.76V159.922H1291.25H1301.77H1312.29H1322.81H1333.34H1343.86H1354.38V149.392H1364.9V138.862H1375.42V128.332H1385.94V117.83H1396.46V107.3V96.7699V86.2399V75.7099V65.1799V54.6499V44.12H1385.94V33.59V33.59ZM1364.9 117.83V128.332H1354.38V138.862H1343.86H1333.34H1322.81H1312.29H1301.77H1291.25H1280.76V128.332H1270.24V117.83H1259.72V107.3H1270.24H1280.76H1291.25H1301.77V96.7699V86.2399H1291.25V75.7099H1280.76V65.1799H1270.24V54.6499H1280.76V44.12H1291.25V33.59H1301.77V23.06H1312.29V33.59V44.12V54.6499V65.1799V75.7099V86.2399V96.7699V107.3H1322.81H1333.34H1343.86V96.7699V86.2399H1333.34V75.7099H1322.81V65.1799V54.6499H1333.34V44.12H1343.86V33.59H1354.38V44.12V54.6499V65.1799V75.7099V86.2399V96.7699V107.3H1364.9V96.7699H1375.42V107.3V117.83H1364.9Z" fill="#6FCBF5"/>
<path d="M1500.6 54.6504H1490.08V65.1804H1479.56V75.7104H1490.08V86.2404H1500.6V75.7104H1511.12V65.1804H1500.6V54.6504Z" fill="#FFD200"/>
<path d="M1563.72 33.59H1553.2V23.06H1542.68V12.53H1532.16V2H1521.64H1511.12H1500.6H1490.08H1479.56H1469.04H1458.54V12.53H1448.02V23.06H1437.5V33.59H1426.98V44.1199H1416.46V54.6499V65.1799V75.7099V86.2399V96.7699V107.3V117.83H1426.98V128.332H1437.5V138.862H1448.02V149.392H1458.54V159.922H1469.04H1479.56H1490.08H1500.6H1511.12H1521.64H1532.16V149.392H1542.68V138.862H1553.2V128.332H1563.72V117.83H1574.24V107.3V96.7699V86.2399V75.7099V65.1799V54.6499V44.1199H1563.72V33.59ZM1542.68 54.6499V65.1799V75.7099V86.2399H1532.16V96.7699V107.3H1521.64V117.83H1511.12V128.332H1500.6V138.862H1490.08V128.332H1479.56V117.83H1469.04V107.3H1458.54V96.7699V86.2399H1448.02V75.7099V65.1799V54.6499V44.1199H1458.54V33.59H1469.04V23.06H1479.56H1490.08H1500.6H1511.12H1521.64V33.59H1532.16V44.1199H1542.68V54.6499Z" fill="#FFD200"/>
<path d="M1646.82 96.7695H1636.33V107.3H1646.82V96.7695Z" fill="#013AEC"/>
<path d="M1636.33 54.6498V65.1798V75.7098V86.2398H1646.82H1657.34H1667.86H1678.38H1688.9H1699.42H1709.94V75.7098V65.1798V54.6498V44.1198V33.5898H1699.42H1688.9H1678.38H1667.86H1657.34H1646.82H1636.33V44.1198V54.6498Z" fill="#013AEC"/>
<path d="M1709.94 96.7695H1699.42V107.3H1709.94V96.7695Z" fill="#013AEC"/>
<path d="M1741.51 33.59H1730.99V23.06H1720.47V12.53H1709.94V2H1699.42H1688.9H1678.38H1667.86H1657.34H1646.82H1636.33V12.53H1625.8V23.06H1615.28V33.59H1604.76V44.12H1594.24V54.65V65.18V75.7099V86.2399V96.7699V107.3V117.83H1604.76V128.332H1615.28V138.862H1625.8V149.392H1636.33V159.922H1646.82H1657.34H1667.86H1678.38H1688.9H1699.42H1709.94V149.392H1720.47V138.862H1730.99V128.332H1741.51V117.83H1752.03V107.3V96.7699V86.2399V75.7099V65.18V54.65V44.12H1741.51V33.59ZM1636.33 33.59V23.06H1646.82H1657.34H1667.86H1678.38H1688.9H1699.42H1709.94V33.59H1720.47V44.12V54.65V65.18V75.7099V86.2399V96.7699V107.3V117.83H1709.94V128.332H1699.42V117.83H1688.9H1678.38H1667.86H1657.34H1646.82V128.332H1636.33V117.83H1625.8V107.3V96.7699V86.2399V75.7099V65.18V54.65V44.12V33.59H1636.33Z" fill="#013AEC"/>
<path d="M141.843 38.405H131.709V28.27H121.576V18.135H111.442V8H101.308H91.1747H81.0412H70.9079H60.7744H50.641H40.5336V18.135H30.4002V28.27H20.2668V38.405H10.1334V48.54H0V58.676V68.811V78.946V89.081V99.216V109.351V119.486H10.1334V129.595H20.2668V139.73H30.4002V149.865H40.5336V160H50.641H60.7744H70.9079H81.0412H91.1747H101.308H111.442V149.865H121.576V139.73H131.709V129.595H141.843V119.486H151.976V109.351V99.216V89.081V78.946V68.811V58.676V48.54H141.843V38.405ZM70.9079 149.865V139.73V129.595H60.7744V119.486H50.641V109.351H60.7744V119.486H70.9079V109.351V99.216V89.081V78.946H60.7744H50.641V68.811H40.5336V58.676H50.641V48.54V38.405H60.7744H70.9079H81.0412H91.1747V48.54H101.308V58.676V68.811H91.1747V78.946H81.0412V89.081V99.216V109.351H91.1747V99.216H101.308V109.351H91.1747V119.486H81.0412V129.595V139.73V149.865H70.9079Z" fill="#E51041"/>
<path d="M1921.33 32.0053H1910.67V21.3371H1900V10.6684H1889.33V0H1878.67H1868H1857.33H1846.67H1836H1825.33H1814.69V10.6684H1804.03V21.3371H1793.36V32.0053H1782.69V42.6737H1772.03V53.3432V64.0116V74.68V85.3484V96.0168V106.685V117.354H1782.69V127.995H1793.36V138.663H1804.03V149.332H1814.69V160H1825.33H1836H1846.67H1857.33H1868H1878.67H1889.33V149.332H1900V138.663H1910.67V127.995H1921.33V117.354H1932V106.685V96.0168V85.3484V74.68V64.0116V53.3432V42.6737H1921.33V32.0053ZM1889.33 127.995H1878.67H1868V117.354H1878.67V106.685V96.0168V85.3484H1868V74.68H1878.67V64.0116V53.3432H1868V64.0116H1857.33H1846.67H1836V53.3432H1825.33V64.0116V74.68H1836V85.3484H1825.33V96.0168V106.685V117.354H1836V127.995H1825.33H1814.69H1804.03V117.354H1814.69V106.685V96.0168V85.3484H1804.03V74.68H1814.69V64.0116V53.3432H1804.03V42.6737V32.0053H1814.69H1825.33V42.6737H1836H1846.67H1857.33H1868H1878.67V32.0053H1889.33H1900V42.6737V53.3432H1889.33V64.0116V74.68H1900V85.3484H1889.33V96.0168V106.685V117.354H1900V127.995H1889.33Z" fill="#398B67"/>
<defs>
<clipPath id="clip0_320_3016">
<rect width="1920" height="160" fill="white" transform="translate(1952)"/>
</clipPath>
</defs>
</svg>
