<svg width="4080" height="160" viewBox="0 0 4080 160" fill="none" xmlns="http://www.w3.org/2000/svg">
<g clip-path="url(#clip0_313_2699)">
<path d="M3113.67 95.3877H3103.08V105.976H3113.67V95.3877Z" fill="#FFD200"/>
<path d="M3124.28 105.976H3113.68V116.564H3124.28V105.976Z" fill="#FFD200"/>
<path d="M3113.68 95.3874H3124.27V105.975H3134.86H3145.45V95.3874H3156.05V84.7803H3166.63V74.1922H3156.05V63.5851H3145.45V52.9971H3134.86V63.5851H3124.27V74.1922H3113.68V84.7803V95.3874Z" fill="#FFD200"/>
<path d="M3156.05 52.9977V63.5858H3166.63V74.1929H3177.23V63.5858V52.9977H3166.63V42.3906H3156.05H3145.45V52.9977H3156.05Z" fill="#FFD200"/>
<path d="M3208.97 42.3903V31.8023H3198.41V21.1952H3187.83V10.6071H3177.23V0H3166.65H3156.05H3145.47H3134.87H3124.28H3113.68H3103.1V10.6071H3092.5V21.1952H3081.9V31.8023H3071.32V42.3903H3060.72V52.9974V63.5855V74.1736V84.7807V95.3878V105.976V116.564H3071.32V127.171H3081.9V137.759H3092.5V148.366H3103.1V158.954H3113.68H3124.28H3134.87H3145.47H3156.05H3166.65H3177.23V148.366H3187.83V137.759H3198.41V127.171H3208.97V116.564H3219.55V105.976V95.3878V84.7807V74.1736V63.5855V52.9974V42.3903H3208.97V42.3903ZM3092.5 116.583V105.995V95.4068V84.7997H3103.1V74.1926H3113.68V63.6045H3124.28V53.0164H3134.87V42.4093H3145.47V31.8213H3156.05H3166.65V42.4093H3177.23V53.0164H3187.83V63.6045V74.1926H3177.23V84.7997H3166.65V95.4068H3156.05V105.995H3145.47V116.583H3134.87V127.19H3124.28H3113.68H3103.1H3092.5V116.583Z" fill="#FFD200"/>
<path d="M2955.1 117.633V107.034V96.4356V85.8367V75.2379V64.639V54.0403H2944.51V43.4414H2933.92H2923.36H2912.77V54.0403V64.639V75.2379V85.8367V96.4356V107.034V117.633H2923.36H2933.92H2944.51V128.204H2955.1V117.633Z" fill="#013AEC"/>
<path d="M3008.05 96.4356V85.8367V75.2379V64.639V54.0403V43.4414H2997.46H2986.87H2976.28V54.0403H2965.69V64.639V75.2379V85.8367V96.4356V107.034V117.633V128.204H2976.28V117.633H2986.87H2997.46H3008.05V107.034V96.4356Z" fill="#013AEC"/>
<path d="M3029.23 32.8423H3018.64V22.2435H3008.05V11.6447H2997.46V1.0459H2986.87H2976.28H2965.69H2955.1H2944.51H2933.92H2923.36V11.6447H2912.77V22.2435H2902.18V32.8423H2891.59V43.4412H2881V54.0401V64.6388V75.2377V85.8364V96.4353V107.034V117.633H2891.59V128.204H2902.18V138.803H2912.77V149.401H2923.36V160H2933.92H2944.51H2955.1H2965.69H2976.28H2986.87H2997.46V149.401H3008.05V138.803H3018.64V128.204H3029.23V117.633H3039.82V107.034V96.4353V85.8364V75.2377V64.6388V54.0401V43.4412H3029.23V32.8423V32.8423ZM3018.64 54.0401V64.6388V75.2377V85.8364V96.4353V107.034V117.633H3008.05V128.204H2997.46H2986.87H2976.28V138.803H2965.69H2955.1H2944.51V128.204H2933.92H2923.36H2912.77V117.633H2902.18V107.034V96.4353V85.8364V75.2377V64.6388V54.0401V43.4412H2912.77V32.8423H2923.36H2933.92H2944.51V43.4412H2955.1H2965.69H2976.28V32.8423H2986.87H2997.46H3008.05V43.4412H3018.64V54.0401V54.0401Z" fill="#013AEC"/>
<path d="M4035.55 117.633V107.034V96.4356V85.8367V75.2379V64.639V54.0403H4024.96V43.4414H4014.37H4003.81H3993.22V54.0403V64.639V75.2379V85.8367V96.4356V107.034V117.633H4003.81H4014.37H4024.96V128.204H4035.55V117.633Z" fill="#013AEC"/>
<path d="M4088.5 96.4356V85.8367V75.2379V64.639V54.0403V43.4414H4077.91H4067.32H4056.73V54.0403H4046.14V64.639V75.2379V85.8367V96.4356V107.034V117.633V128.204H4056.73V117.633H4067.32H4077.91H4088.5V107.034V96.4356Z" fill="#013AEC"/>
<path d="M4109.68 32.8423H4099.09V22.2435H4088.5V11.6447H4077.91V1.0459H4067.32H4056.73H4046.14H4035.55H4024.96H4014.37H4003.81V11.6447H3993.22V22.2435H3982.63V32.8423H3972.04V43.4412H3961.45V54.0401V64.6388V75.2377V85.8364V96.4353V107.034V117.633H3972.04V128.204H3982.63V138.803H3993.22V149.401H4003.81V160H4014.37H4024.96H4035.55H4046.14H4056.73H4067.32H4077.91V149.401H4088.5V138.803H4099.09V128.204H4109.68V117.633H4120.27V107.034V96.4353V85.8364V75.2377V64.6388V54.0401V43.4412H4109.68V32.8423V32.8423ZM4099.09 54.0401V64.6388V75.2377V85.8364V96.4353V107.034V117.633H4088.5V128.204H4077.91H4067.32H4056.73V138.803H4046.14H4035.55H4024.96V128.204H4014.37H4003.81H3993.22V117.633H3982.63V107.034V96.4353V85.8364V75.2377V64.6388V54.0401V43.4412H3993.22V32.8423H4003.81H4014.37H4024.96V43.4412H4035.55H4046.14H4056.73V32.8423H4067.32H4077.91H4088.5V43.4412H4099.09V54.0401V54.0401Z" fill="#013AEC"/>
<path d="M2849.51 32.8423H2838.92V22.2435H2828.33V11.6447H2817.74V1.0459H2807.15H2796.56H2785.96H2775.37H2764.78H2754.19H2743.63V11.6447H2733.04V22.2435H2722.45V32.8423H2711.86V43.4412H2701.27V54.04V64.6388V75.2376V85.8364V96.4352V107.034V117.633H2711.86V128.204H2722.45V138.802H2733.04V149.401H2743.63V160H2754.19H2764.78H2775.37H2785.96H2796.56H2807.15H2817.74V149.401H2828.33V138.802H2838.92V128.204H2849.51V117.633H2860.1V107.034V96.4352V85.8364V75.2376V64.6388V54.04V43.4412H2849.51V32.8423V32.8423ZM2807.15 117.633H2796.56H2785.96V128.204V138.802H2775.37V128.204V117.633H2764.78H2754.19H2743.63V107.034H2754.19V96.4352H2764.78V85.8364H2754.19H2743.63V75.2376H2754.19V64.6388H2764.78V54.04H2754.19V43.4412H2764.78V32.8423H2775.37V22.2435H2785.96V32.8423H2796.56V43.4412H2807.15V54.04H2796.56V64.6388H2807.15V75.2376H2817.74V85.8364H2807.15H2796.56V96.4352H2807.15V107.034H2817.74V117.633H2807.15Z" fill="#398B67"/>
<path d="M3929.96 32.8423H3919.37V22.2435H3908.78V11.6447H3898.19V1.0459H3887.59H3877H3866.41H3855.82H3845.23H3834.64H3824.08V11.6447H3813.49V22.2435H3802.9V32.8423H3792.31V43.4412H3781.72V54.04V64.6388V75.2376V85.8364V96.4352V107.034V117.633H3792.31V128.204H3802.9V138.802H3813.49V149.401H3824.08V160H3834.64H3845.23H3855.82H3866.41H3877H3887.59H3898.19V149.401H3908.78V138.802H3919.37V128.204H3929.96V117.633H3940.55V107.034V96.4352V85.8364V75.2376V64.6388V54.04V43.4412H3929.96V32.8423V32.8423ZM3887.59 117.633H3877H3866.41V128.204V138.802H3855.82V128.204V117.633H3845.23H3834.64H3824.08V107.034H3834.64V96.4352H3845.23V85.8364H3834.64H3824.08V75.2376H3834.64V64.6388H3845.23V54.04H3834.64V43.4412H3845.23V32.8423H3855.82V22.2435H3866.41V32.8423H3877V43.4412H3887.59V54.04H3877V64.6388H3887.59V75.2376H3898.19V85.8364H3887.59H3877V96.4352H3887.59V107.034H3898.19V117.633H3887.59Z" fill="#398B67"/>
<path d="M2668.74 32.8423H2658.15V22.2435H2647.55V11.6447H2636.96V1.0459H2626.37H2615.78H2605.19H2594.6H2584.01H2573.42H2562.86V11.6447H2552.27V22.2435H2541.68V32.8423H2531.09V43.4412H2520.5V54.0401V64.6388V75.2377V85.8364V96.4353V107.034V117.633H2531.09V128.204H2541.68V138.803H2552.27V149.401H2562.86V160H2573.42H2584.01H2594.6H2605.19H2615.78H2626.37H2636.96V149.401H2647.55V138.803H2658.15V128.204H2668.74V117.633H2679.33V107.034V96.4353V85.8364V75.2377V64.6388V54.0401V43.4412H2668.74V32.8423ZM2594.6 149.401V138.803V128.204H2584.01V117.633H2573.42V107.034H2584.01V117.633H2594.6V107.034V96.4353V85.8364V75.2377H2584.01H2573.42V64.6388H2562.86V54.0401H2573.42V43.4412V32.8423H2584.01H2594.6H2605.19H2615.78V43.4412H2626.37V54.0401V64.6388H2615.78V75.2377H2605.19V85.8364V96.4353V107.034H2615.78V96.4353H2626.37V107.034H2615.78V117.633H2605.19V128.204V138.803V149.401H2594.6Z" fill="#E51041"/>
<path d="M3749.18 32.8423H3738.59V22.2435H3728V11.6447H3717.41V1.0459H3706.82H3696.23H3685.64H3675.05H3664.46H3653.87H3643.31V11.6447H3632.72V22.2435H3622.13V32.8423H3611.54V43.4412H3600.95V54.0401V64.6388V75.2377V85.8364V96.4353V107.034V117.633H3611.54V128.204H3622.13V138.803H3632.72V149.401H3643.31V160H3653.87H3664.46H3675.05H3685.64H3696.23H3706.82H3717.41V149.401H3728V138.803H3738.59V128.204H3749.18V117.633H3759.78V107.034V96.4353V85.8364V75.2377V64.6388V54.0401V43.4412H3749.18V32.8423ZM3675.05 149.401V138.803V128.204H3664.46V117.633H3653.87V107.034H3664.46V117.633H3675.05V107.034V96.4353V85.8364V75.2377H3664.46H3653.87V64.6388H3643.31V54.0401H3653.87V43.4412V32.8423H3664.46H3675.05H3685.64H3696.23V43.4412H3706.82V54.0401V64.6388H3696.23V75.2377H3685.64V85.8364V96.4353V107.034H3696.23V96.4353H3706.82V107.034H3696.23V117.633H3685.64V128.204V138.803V149.401H3675.05Z" fill="#E51041"/>
<path d="M2487.96 32.8423H2477.37V22.2435H2466.78V11.6447H2456.19V1.0459H2445.6H2435.01H2424.42H2413.83H2403.24H2392.65H2382.09V11.6447H2371.5V22.2435H2360.91V32.8423H2350.32V43.4412H2339.73V54.04V64.6388V75.2376V85.8364V96.4352V107.034V117.633H2350.32V128.204H2360.91V138.803H2371.5V149.401H2382.09V160H2392.65H2403.24H2413.83H2424.42H2435.01H2445.6H2456.19V149.401H2466.78V138.803H2477.37V128.204H2487.96V117.633H2498.55V107.034V96.4352V85.8364V75.2376V64.6388V54.04V43.4412H2487.96V32.8423ZM2392.65 128.204V117.633H2403.24V128.204H2413.83V117.633V107.034V96.4352V85.8364V75.2376H2403.24H2392.65H2382.09V85.8364H2371.5V75.2376V64.6388V54.04H2382.09V43.4412H2392.65V32.8423H2403.24H2413.83V22.2435H2424.42V32.8423H2435.01H2445.6V43.4412H2456.19V54.04H2466.78V64.6388V75.2376V85.8364H2456.19V75.2376H2445.6H2435.01H2424.42V85.8364V96.4352V107.034V117.633V128.204V138.803H2413.83H2403.24H2392.65V128.204Z" fill="#6FCBF5"/>
<path d="M3568.41 32.8423H3557.82V22.2435H3547.23V11.6447H3536.64V1.0459H3526.05H3515.46H3504.87H3494.28H3483.69H3473.1H3462.54V11.6447H3451.95V22.2435H3441.36V32.8423H3430.77V43.4412H3420.18V54.04V64.6388V75.2376V85.8364V96.4352V107.034V117.633H3430.77V128.204H3441.36V138.803H3451.95V149.401H3462.54V160H3473.1H3483.69H3494.28H3504.87H3515.46H3526.05H3536.64V149.401H3547.23V138.803H3557.82V128.204H3568.41V117.633H3579V107.034V96.4352V85.8364V75.2376V64.6388V54.04V43.4412H3568.41V32.8423ZM3473.1 128.204V117.633H3483.69V128.204H3494.28V117.633V107.034V96.4352V85.8364V75.2376H3483.69H3473.1H3462.54V85.8364H3451.95V75.2376V64.6388V54.04H3462.54V43.4412H3473.1V32.8423H3483.69H3494.28V22.2435H3504.87V32.8423H3515.46H3526.05V43.4412H3536.64V54.04H3547.23V64.6388V75.2376V85.8364H3536.64V75.2376H3526.05H3515.46H3504.87V85.8364V96.4352V107.034V117.633V128.204V138.803H3494.28H3483.69H3473.1V128.204Z" fill="#6FCBF5"/>
<path d="M2244.7 75.2379V64.639V54.0402H2234.11V43.4414H2223.52H2212.92V54.0402H2202.36V64.639V75.2379H2212.92V85.8367H2223.52H2234.11V75.2379H2244.7Z" fill="#013AEC"/>
<path d="M2308.24 32.8424H2297.65V22.2435H2287.06V11.6447H2276.47V1.0459H2265.88H2255.29H2244.7H2234.1H2223.51H2212.92H2202.36V11.6447H2191.77V22.2435H2181.18V32.8424H2170.59V43.4412H2160V54.04V64.6388V75.2376V85.8364V96.4353V107.034V117.633H2170.59V128.204H2181.18V138.803H2191.77V149.401H2202.36V160H2212.92H2223.51H2234.1H2244.7H2255.29H2265.88H2276.47V149.401H2287.06V138.803H2297.65V128.204H2308.24V117.633H2318.83V107.034V96.4353V85.8364V75.2376V64.6388V54.04V43.4412H2308.24V32.8424V32.8424ZM2276.47 128.204V117.633H2265.88V107.034H2255.29V96.4353H2244.7V85.8364H2234.1V96.4353H2223.51H2212.92V85.8364H2202.36V75.2376H2191.77V64.6388V54.04H2202.36V43.4412H2212.92V32.8424H2223.51H2234.1V43.4412H2244.7V54.04H2255.29V64.6388V75.2376H2244.7V85.8364H2255.29V96.4353H2265.88V107.034H2276.47V117.633H2287.06V128.204H2276.47V128.204Z" fill="#013AEC"/>
<path d="M3325.15 75.2379V64.639V54.0402H3314.55V43.4414H3303.96H3293.37V54.0402H3282.81V64.639V75.2379H3293.37V85.8367H3303.96H3314.55V75.2379H3325.15Z" fill="#013AEC"/>
<path d="M3388.69 32.8424H3378.1V22.2435H3367.51V11.6447H3356.92V1.0459H3346.33H3335.73H3325.14H3314.55H3303.96H3293.37H3282.81V11.6447H3272.22V22.2435H3261.63V32.8424H3251.04V43.4412H3240.45V54.04V64.6388V75.2376V85.8364V96.4353V107.034V117.633H3251.04V128.204H3261.63V138.803H3272.22V149.401H3282.81V160H3293.37H3303.96H3314.55H3325.14H3335.73H3346.33H3356.92V149.401H3367.51V138.803H3378.1V128.204H3388.69V117.633H3399.28V107.034V96.4353V85.8364V75.2376V64.6388V54.04V43.4412H3388.69V32.8424V32.8424ZM3356.92 128.204V117.633H3346.33V107.034H3335.73V96.4353H3325.14V85.8364H3314.55V96.4353H3303.96H3293.37V85.8364H3282.81V75.2376H3272.22V64.6388V54.04H3282.81V43.4412H3293.37V32.8424H3303.96H3314.55V43.4412H3325.14V54.04H3335.73V64.6388V75.2376H3325.14V85.8364H3335.73V96.4353H3346.33V107.034H3356.92V117.633H3367.51V128.204H3356.92V128.204Z" fill="#013AEC"/>
</g>
<g clip-path="url(#clip1_313_2699)">
<path d="M953.333 96.0156H942.674V106.673H953.333V96.0156Z" fill="#FFD200"/>
<path d="M964.031 106.673H953.353V117.331H964.031V106.673Z" fill="#FFD200"/>
<path d="M953.353 96.0149H964.012V106.673H974.69H985.349V96.0149H996.027V85.338H1006.69V74.6803H996.027V64.0034H985.349V53.3457H974.69V64.0034H964.012V74.6803H953.353V85.338V96.0149Z" fill="#FFD200"/>
<path d="M996.027 53.3468V64.0045H1006.69V74.6814H1017.36V64.0045V53.3468H1006.69V42.6699H996.027H985.349V53.3468H996.027Z" fill="#FFD200"/>
<path d="M1049.34 42.6692V32.0115H1038.7V21.3346H1028.04V10.6769H1017.36V0H1006.7H996.027H985.368H974.69H964.031H953.352H942.693V10.6769H932.015V21.3346H921.337V32.0115H910.678V42.6692H900V53.3461V64.0038V74.6616V85.3384V96.0153V106.673V117.331H910.678V128.008H921.337V138.665H932.015V149.342H942.693V160H953.352H964.031H974.69H985.368H996.027H1006.7H1017.36V149.342H1028.04V138.665H1038.7V128.008H1049.34V117.331H1060V106.673V96.0153V85.3384V74.6616V64.0038V53.3461V42.6692H1049.34V42.6692ZM932.015 117.35V106.692V96.0344V85.3576H942.693V74.6807H953.352V64.023H964.031V53.3652H974.69V42.6884H985.368V32.0306H996.027H1006.7V42.6884H1017.36V53.3652H1028.04V64.023V74.6807H1017.36V85.3576H1006.7V96.0344H996.027V106.692H985.368V117.35H974.69V128.027H964.031H953.352H942.693H932.015V117.35Z" fill="#FFD200"/>
<path d="M2033.33 96.0156H2022.67V106.673H2033.33V96.0156Z" fill="#FFD200"/>
<path d="M2044.03 106.673H2033.35V117.331H2044.03V106.673Z" fill="#FFD200"/>
<path d="M2033.35 96.0149H2044.01V106.673H2054.69H2065.35V96.0149H2076.03V85.338H2086.69V74.6803H2076.03V64.0034H2065.35V53.3457H2054.69V64.0034H2044.01V74.6803H2033.35V85.338V96.0149Z" fill="#FFD200"/>
<path d="M2076.03 53.3468V64.0045H2086.69V74.6814H2097.36V64.0045V53.3468H2086.69V42.6699H2076.03H2065.35V53.3468H2076.03Z" fill="#FFD200"/>
<path d="M2129.34 42.6692V32.0115H2118.7V21.3346H2108.04V10.6769H2097.36V0H2086.7H2076.03H2065.37H2054.69H2044.03H2033.35H2022.69V10.6769H2012.02V21.3346H2001.34V32.0115H1990.68V42.6692H1980V53.3461V64.0038V74.6616V85.3384V96.0153V106.673V117.331H1990.68V128.008H2001.34V138.665H2012.02V149.342H2022.69V160H2033.35H2044.03H2054.69H2065.37H2076.03H2086.7H2097.36V149.342H2108.04V138.665H2118.7V128.008H2129.34V117.331H2140V106.673V96.0153V85.3384V74.6616V64.0038V53.3461V42.6692H2129.34V42.6692ZM2012.02 117.35V106.692V96.0344V85.3576H2022.69V74.6807H2033.35V64.023H2044.03V53.3652H2054.69V42.6884H2065.37V32.0306H2076.03H2086.7V42.6884H2097.36V53.3652H2108.04V64.023V74.6807H2097.36V85.3576H2086.7V96.0344H2076.03V106.692H2065.37V117.35H2054.69V128.027H2044.03H2033.35H2022.69H2012.02V117.35Z" fill="#FFD200"/>
<path d="M794.652 118.401V107.732V97.0635V86.3949V75.7264V65.0578V54.3893H783.983V43.7207H773.315H762.674H752.006V54.3893V65.0578V75.7264V86.3949V97.0635V107.732V118.401H762.674H773.315H783.983V129.041H794.652V118.401Z" fill="#013AEC"/>
<path d="M847.995 97.0635V86.3949V75.7264V65.0578V54.3893V43.7207H837.326H826.657H815.989V54.3893H805.32V65.0578V75.7264V86.3949V97.0635V107.732V118.401V129.041H815.989V118.401H826.657H837.326H847.995V107.732V97.0635Z" fill="#013AEC"/>
<path d="M869.331 33.0515H858.663V22.383H847.994V11.7144H837.326V1.0459H826.657H815.989H805.32H794.652H783.983H773.315H762.674V11.7144H752.006V22.383H741.337V33.0515H730.669V43.7201H720V54.3887V65.0572V75.7258V86.3943V97.0629V107.731V118.4H730.669V129.04H741.337V139.709H752.006V150.377H762.674V161.046H773.315H783.983H794.652H805.32H815.989H826.657H837.326V150.377H847.994V139.709H858.663V129.04H869.331V118.4H880V107.731V97.0629V86.3943V75.7258V65.0572V54.3887V43.7201H869.331V33.0515V33.0515ZM858.663 54.3887V65.0572V75.7258V86.3943V97.0629V107.731V118.4H847.994V129.04H837.326H826.657H815.989V139.709H805.32H794.652H783.983V129.04H773.315H762.674H752.006V118.4H741.337V107.731V97.0629V86.3943V75.7258V65.0572V54.3887V43.7201H752.006V33.0515H762.674H773.315H783.983V43.7201H794.652H805.32H815.989V33.0515H826.657H837.326H847.994V43.7201H858.663V54.3887V54.3887Z" fill="#013AEC"/>
<path d="M1874.65 118.401V107.732V97.0635V86.3949V75.7264V65.0578V54.3893H1863.98V43.7207H1853.31H1842.67H1832.01V54.3893V65.0578V75.7264V86.3949V97.0635V107.732V118.401H1842.67H1853.31H1863.98V129.041H1874.65V118.401Z" fill="#013AEC"/>
<path d="M1927.99 97.0635V86.3949V75.7264V65.0578V54.3893V43.7207H1917.33H1906.66H1895.99V54.3893H1885.32V65.0578V75.7264V86.3949V97.0635V107.732V118.401V129.041H1895.99V118.401H1906.66H1917.33H1927.99V107.732V97.0635Z" fill="#013AEC"/>
<path d="M1949.33 33.0515H1938.66V22.383H1927.99V11.7144H1917.33V1.0459H1906.66H1895.99H1885.32H1874.65H1863.98H1853.31H1842.67V11.7144H1832.01V22.383H1821.34V33.0515H1810.67V43.7201H1800V54.3887V65.0572V75.7258V86.3943V97.0629V107.731V118.4H1810.67V129.04H1821.34V139.709H1832.01V150.377H1842.67V161.046H1853.31H1863.98H1874.65H1885.32H1895.99H1906.66H1917.33V150.377H1927.99V139.709H1938.66V129.04H1949.33V118.4H1960V107.731V97.0629V86.3943V75.7258V65.0572V54.3887V43.7201H1949.33V33.0515V33.0515ZM1938.66 54.3887V65.0572V75.7258V86.3943V97.0629V107.731V118.4H1927.99V129.04H1917.33H1906.66H1895.99V139.709H1885.32H1874.65H1863.98V129.04H1853.31H1842.67H1832.01V118.4H1821.34V107.731V97.0629V86.3943V75.7258V65.0572V54.3887V43.7201H1832.01V33.0515H1842.67H1853.31H1863.98V43.7201H1874.65H1885.32H1895.99V33.0515H1906.66H1917.33H1927.99V43.7201H1938.66V54.3887V54.3887Z" fill="#013AEC"/>
<path d="M689.331 33.0515H678.663V22.383H667.994V11.7144H657.326V1.0459H646.657H635.989H625.32H614.652H603.983H593.315H582.674V11.7144H572.006V22.383H561.337V33.0515H550.669V43.7201H540V54.3886V65.0572V75.7257V86.3943V97.0628V107.731V118.4H550.669V129.04H561.337V139.709H572.006V150.377H582.674V161.046H593.315H603.983H614.652H625.32H635.989H646.657H657.326V150.377H667.994V139.709H678.663V129.04H689.331V118.4H700V107.731V97.0628V86.3943V75.7257V65.0572V54.3886V43.7201H689.331V33.0515V33.0515ZM646.657 118.4H635.989H625.32V129.04V139.709H614.652V129.04V118.4H603.983H593.315H582.674V107.731H593.315V97.0628H603.983V86.3943H593.315H582.674V75.7257H593.315V65.0572H603.983V54.3886H593.315V43.7201H603.983V33.0515H614.652V22.383H625.32V33.0515H635.989V43.7201H646.657V54.3886H635.989V65.0572H646.657V75.7257H657.326V86.3943H646.657H635.989V97.0628H646.657V107.731H657.326V118.4H646.657Z" fill="#398B67"/>
<path d="M1769.33 33.0515H1758.66V22.383H1747.99V11.7144H1737.33V1.0459H1726.66H1715.99H1705.32H1694.65H1683.98H1673.31H1662.67V11.7144H1652.01V22.383H1641.34V33.0515H1630.67V43.7201H1620V54.3886V65.0572V75.7257V86.3943V97.0628V107.731V118.4H1630.67V129.04H1641.34V139.709H1652.01V150.377H1662.67V161.046H1673.31H1683.98H1694.65H1705.32H1715.99H1726.66H1737.33V150.377H1747.99V139.709H1758.66V129.04H1769.33V118.4H1780V107.731V97.0628V86.3943V75.7257V65.0572V54.3886V43.7201H1769.33V33.0515V33.0515ZM1726.66 118.4H1715.99H1705.32V129.04V139.709H1694.65V129.04V118.4H1683.98H1673.31H1662.67V107.731H1673.31V97.0628H1683.98V86.3943H1673.31H1662.67V75.7257H1673.31V65.0572H1683.98V54.3886H1673.31V43.7201H1683.98V33.0515H1694.65V22.383H1705.32V33.0515H1715.99V43.7201H1726.66V54.3886H1715.99V65.0572H1726.66V75.7257H1737.33V86.3943H1726.66H1715.99V97.0628H1726.66V107.731H1737.33V118.4H1726.66Z" fill="#398B67"/>
<path d="M509.331 33.0515H498.663V22.383H487.994V11.7144H477.326V1.0459H466.657H455.989H445.32H434.652H423.983H413.315H402.674V11.7144H392.006V22.383H381.337V33.0515H370.669V43.7201H360V54.3887V65.0572V75.7258V86.3943V97.0629V107.731V118.4H370.669V129.04H381.337V139.709H392.006V150.377H402.674V161.046H413.315H423.983H434.652H445.32H455.989H466.657H477.326V150.377H487.994V139.709H498.663V129.04H509.331V118.4H520V107.731V97.0629V86.3943V75.7258V65.0572V54.3887V43.7201H509.331V33.0515ZM434.652 150.377V139.709V129.04H423.983V118.4H413.315V107.731H423.983V118.4H434.652V107.731V97.0629V86.3943V75.7258H423.983H413.315V65.0572H402.674V54.3887H413.315V43.7201V33.0515H423.983H434.652H445.32H455.989V43.7201H466.657V54.3887V65.0572H455.989V75.7258H445.32V86.3943V97.0629V107.731H455.989V97.0629H466.657V107.731H455.989V118.4H445.32V129.04V139.709V150.377H434.652Z" fill="#E51041"/>
<path d="M1589.33 33.0515H1578.66V22.383H1567.99V11.7144H1557.33V1.0459H1546.66H1535.99H1525.32H1514.65H1503.98H1493.31H1482.67V11.7144H1472.01V22.383H1461.34V33.0515H1450.67V43.7201H1440V54.3887V65.0572V75.7258V86.3943V97.0629V107.731V118.4H1450.67V129.04H1461.34V139.709H1472.01V150.377H1482.67V161.046H1493.31H1503.98H1514.65H1525.32H1535.99H1546.66H1557.33V150.377H1567.99V139.709H1578.66V129.04H1589.33V118.4H1600V107.731V97.0629V86.3943V75.7258V65.0572V54.3887V43.7201H1589.33V33.0515ZM1514.65 150.377V139.709V129.04H1503.98V118.4H1493.31V107.731H1503.98V118.4H1514.65V107.731V97.0629V86.3943V75.7258H1503.98H1493.31V65.0572H1482.67V54.3887H1493.31V43.7201V33.0515H1503.98H1514.65H1525.32H1535.99V43.7201H1546.66V54.3887V65.0572H1535.99V75.7258H1525.32V86.3943V97.0629V107.731H1535.99V97.0629H1546.66V107.731H1535.99V118.4H1525.32V129.04V139.709V150.377H1514.65Z" fill="#E51041"/>
<path d="M329.331 33.0515H318.663V22.383H307.994V11.7144H297.326V1.0459H286.657H275.989H265.32H254.652H243.983H233.315H222.674V11.7144H212.006V22.383H201.337V33.0515H190.669V43.7201H180V54.3886V65.0572V75.7257V86.3943V97.0628V107.731V118.4H190.669V129.04H201.337V139.709H212.006V150.377H222.674V161.046H233.315H243.983H254.652H265.32H275.989H286.657H297.326V150.377H307.994V139.709H318.663V129.04H329.331V118.4H340V107.731V97.0628V86.3943V75.7257V65.0572V54.3886V43.7201H329.331V33.0515ZM233.315 129.04V118.4H243.983V129.04H254.652V118.4V107.731V97.0628V86.3943V75.7257H243.983H233.315H222.674V86.3943H212.006V75.7257V65.0572V54.3886H222.674V43.7201H233.315V33.0515H243.983H254.652V22.383H265.32V33.0515H275.989H286.657V43.7201H297.326V54.3886H307.994V65.0572V75.7257V86.3943H297.326V75.7257H286.657H275.989H265.32V86.3943V97.0628V107.731V118.4V129.04V139.709H254.652H243.983H233.315V129.04Z" fill="#6FCBF5"/>
<path d="M1409.33 33.0515H1398.66V22.383H1387.99V11.7144H1377.33V1.0459H1366.66H1355.99H1345.32H1334.65H1323.98H1313.31H1302.67V11.7144H1292.01V22.383H1281.34V33.0515H1270.67V43.7201H1260V54.3886V65.0572V75.7257V86.3943V97.0628V107.731V118.4H1270.67V129.04H1281.34V139.709H1292.01V150.377H1302.67V161.046H1313.31H1323.98H1334.65H1345.32H1355.99H1366.66H1377.33V150.377H1387.99V139.709H1398.66V129.04H1409.33V118.4H1420V107.731V97.0628V86.3943V75.7257V65.0572V54.3886V43.7201H1409.33V33.0515ZM1313.31 129.04V118.4H1323.98V129.04H1334.65V118.4V107.731V97.0628V86.3943V75.7257H1323.98H1313.31H1302.67V86.3943H1292.01V75.7257V65.0572V54.3886H1302.67V43.7201H1313.31V33.0515H1323.98H1334.65V22.383H1345.32V33.0515H1355.99H1366.66V43.7201H1377.33V54.3886H1387.99V65.0572V75.7257V86.3943H1377.33V75.7257H1366.66H1355.99H1345.32V86.3943V97.0628V107.731V118.4V129.04V139.709H1334.65H1323.98H1313.31V129.04Z" fill="#6FCBF5"/>
<path d="M85.3208 75.7264V65.0578V54.3893H74.6522V43.7207H63.9837H53.3151V54.3893H42.6748V65.0578V75.7264H53.3151V86.3949H63.9837H74.6522V75.7264H85.3208Z" fill="#013AEC"/>
<path d="M149.331 33.0515H138.663V22.383H127.994V11.7144H117.326V1.0459H106.657H95.9887H85.3202H74.6516H63.9831H53.3145H42.6742V11.7144H32.0056V22.383H21.3371V33.0515H10.6685V43.7201H0V54.3886V65.0572V75.7257V86.3943V97.0628V107.731V118.4H10.6685V129.04H21.3371V139.709H32.0056V150.377H42.6742V161.046H53.3145H63.9831H74.6516H85.3202H95.9887H106.657H117.326V150.377H127.994V139.709H138.663V129.04H149.331V118.4H160V107.731V97.0628V86.3943V75.7257V65.0572V54.3886V43.7201H149.331V33.0515V33.0515ZM117.326 129.04V118.4H106.657V107.731H95.9887V97.0628H85.3202V86.3943H74.6516V97.0628H63.9831H53.3145V86.3943H42.6742V75.7257H32.0056V65.0572V54.3886H42.6742V43.7201H53.3145V33.0515H63.9831H74.6516V43.7201H85.3202V54.3886H95.9887V65.0572V75.7257H85.3202V86.3943H95.9887V97.0628H106.657V107.731H117.326V118.4H127.994V129.04H117.326V129.04Z" fill="#013AEC"/>
<path d="M1165.32 75.7264V65.0578V54.3893H1154.65V43.7207H1143.98H1133.32V54.3893H1122.67V65.0578V75.7264H1133.32V86.3949H1143.98H1154.65V75.7264H1165.32Z" fill="#013AEC"/>
<path d="M1229.33 33.0515H1218.66V22.383H1207.99V11.7144H1197.33V1.0459H1186.66H1175.99H1165.32H1154.65H1143.98H1133.31H1122.67V11.7144H1112.01V22.383H1101.34V33.0515H1090.67V43.7201H1080V54.3886V65.0572V75.7257V86.3943V97.0628V107.731V118.4H1090.67V129.04H1101.34V139.709H1112.01V150.377H1122.67V161.046H1133.31H1143.98H1154.65H1165.32H1175.99H1186.66H1197.33V150.377H1207.99V139.709H1218.66V129.04H1229.33V118.4H1240V107.731V97.0628V86.3943V75.7257V65.0572V54.3886V43.7201H1229.33V33.0515V33.0515ZM1197.33 129.04V118.4H1186.66V107.731H1175.99V97.0628H1165.32V86.3943H1154.65V97.0628H1143.98H1133.31V86.3943H1122.67V75.7257H1112.01V65.0572V54.3886H1122.67V43.7201H1133.31V33.0515H1143.98H1154.65V43.7201H1165.32V54.3886H1175.99V65.0572V75.7257H1165.32V86.3943H1175.99V97.0628H1186.66V107.731H1197.33V118.4H1207.99V129.04H1197.33V129.04Z" fill="#013AEC"/>
</g>
<defs>
<clipPath id="clip0_313_2699">
<rect width="1920" height="160" fill="white" transform="translate(2160)"/>
</clipPath>
<clipPath id="clip1_313_2699">
<rect width="2140" height="160" fill="white"/>
</clipPath>
</defs>
</svg>
