<svg width="3961" height="160" viewBox="0 0 3961 160" fill="none" xmlns="http://www.w3.org/2000/svg">
<g clip-path="url(#clip0_320_2959)">
<path d="M3563.03 85.375V74.6179V63.8607V53.1035H3552.32H3541.61V63.8607V74.6179V85.375V96.1322V106.889H3552.32H3563.03V96.1322V85.375Z" fill="#013AEC"/>
<path d="M3408.02 74.6179V85.375V96.1322V106.889H3418.73V96.1322V85.375V74.6179V63.8607V53.1035H3408.02V63.8607V74.6179Z" fill="#013AEC"/>
<path d="M3691.57 42.6872V32.0154H3680.94V21.3436H3670.32V10.7003H3659.72V10.6718V0C3649.4 0 3525.42 0 3375.46 0V10.6718H3365.09V21.3436H3354.71V32.0154H3344.34V42.6588H3333.97C3333.97 67.0759 3333.97 92.9158 3333.97 117.304H3344.34V127.948H3354.71V138.591H3365.09V149.263H3375.46V159.935C3525.42 159.935 3649.4 159.935 3659.72 159.935V149.291H3670.32V138.62H3680.94V127.948H3691.57V117.333H3702.17C3702.17 92.9159 3702.17 67.0758 3702.17 42.6872H3691.57ZM3605.88 20.8314H3616.59H3627.3V31.5886H3616.59H3605.88V20.8314ZM3440.15 117.646H3429.44H3418.73H3408.02H3397.31H3386.59V106.889H3397.31V96.1316V85.3744V74.6173V63.8601V53.1029H3408.02V42.3457H3418.73H3429.44V53.1029V63.8601V74.6173V85.3744V96.1316V106.889H3440.15V117.646ZM3509.47 53.1029V63.8601V74.6173H3498.76V85.3744H3509.47V96.1316V106.889V117.646H3498.76V106.889V96.1316V85.3744H3488.05V96.1316V106.889V117.646H3477.33V106.889V96.1316V85.3744H3466.62V96.1316V106.889V117.646H3455.91V106.889V96.1316V85.3744H3466.62V74.6173H3455.91V63.8601V53.1029V42.3457H3466.62V53.1029V63.8601V74.6173H3477.33V63.8601V53.1029V42.3457H3488.05V53.1029V63.8601V74.6173H3498.76V63.8601V53.1029V42.3457H3509.47V53.1029ZM3573.74 63.8601V74.6173V85.3744V96.1316V106.889H3563.03V117.646H3552.32H3541.6V106.889H3530.89V96.1316V85.3744V74.6173V63.8601V53.1029H3541.6V42.3457H3552.32H3563.03V53.1029H3573.74V63.8601ZM3638.01 53.1029V63.8601V74.6173V85.3744V96.1316V106.889V117.646H3627.3V106.889V96.1316V85.3744H3616.59V96.1316H3605.88V106.889V117.646H3595.16V106.889V96.1316V85.3744V74.6173V63.8601V53.1029V42.3457H3605.88V53.1029V63.8601V74.6173V85.3744H3616.59V74.6173H3627.3V63.8601V53.1029V42.3457H3638.01V53.1029Z" fill="#013AEC"/>
<path d="M2815.38 85.6949V74.9333V64.1717V53.4102H2804.67H2793.96V64.1717V74.9333V85.6949V96.4565V107.218H2804.67H2815.38V96.4565V85.6949Z" fill="#013AEC"/>
<path d="M2729.68 85.6953V96.4569V107.218H2740.4H2751.11V96.4569V85.6953H2740.4H2729.68Z" fill="#013AEC"/>
<path d="M2751.11 53.4102H2740.4H2729.68V64.1717V74.9333H2740.4H2751.11V64.1717V53.4102Z" fill="#013AEC"/>
<path d="M2943.56 42.7046V32.0285H2932.96V21.3808H2922.33V10.7046H2911.71V10.6762C2911.73 10.6762 2911.76 10.6762 2911.79 10.6762V0C2901.5 0 2772.19 0 2622.22 0V10.6762H2611.85V21.3523H2601.47V32H2591.1V42.6761H2580.73C2580.73 67.0747 2580.73 92.9253 2580.73 117.352H2591.1V127.972H2601.47V138.648H2611.85V149.324H2622.22V160C2772.19 160 2901.5 160 2911.79 160V149.352H2922.33V138.676H2932.96V128H2943.56V117.381H2954.19C2954.19 92.9537 2954.19 67.1032 2954.19 42.7046H2943.56ZM2858.23 21.1245H2868.94H2879.65V31.8861H2868.94H2858.23V21.1245ZM2697.54 53.4092H2686.83H2676.12V64.1708V74.9324V85.6939V96.4555V107.217V117.979H2665.41V107.217V96.4555V85.6939V74.9324V64.1708V53.4092H2654.69H2643.98V42.6477H2654.69H2665.41H2676.12H2686.83H2697.54V53.4092ZM2761.82 64.1708V74.9324H2751.11V85.6939H2761.82V96.4555V107.217V117.979H2751.11H2740.39H2729.68H2718.97V107.217V96.4555V85.6939V74.9324V64.1708V53.4092V42.6477H2729.68H2740.39H2751.11V53.4092H2761.82V64.1708ZM2826.09 64.1708V74.9324V85.6939V96.4555V107.217H2815.38V117.979H2804.67H2793.95V107.217H2783.24V96.4555V85.6939V74.9324V64.1708V53.4092H2793.95V42.6477H2804.67H2815.38V53.4092H2826.09V64.1708ZM2890.37 53.4092V64.1708V74.9324V85.6939V96.4555V107.217V117.979H2879.65V107.217V96.4555V85.6939H2868.94V96.4555H2858.23V107.217V117.979H2847.52V107.217V96.4555V85.6939V74.9324V64.1708V53.4092V42.6477H2858.23V53.4092V64.1708V74.9324V85.6939H2868.94V74.9324H2879.65V64.1708V53.4092V42.6477H2890.37V53.4092Z" fill="#013AEC"/>
<path d="M2464.78 106.687H2475.44H2486.1H2496.77V96.0182H2507.43V85.3496H2496.77H2486.1H2475.44H2464.78V96.0182H2454.12V106.687H2464.78Z" fill="#013AEC"/>
<path d="M2496.76 74.684H2507.42V64.0154V53.3469V42.6783V32.0098H2496.76H2486.1H2475.44V42.6783V53.3469V64.0154V74.684H2486.1H2496.76Z" fill="#013AEC"/>
<path d="M2550.07 32.0056H2539.41V21.3371H2528.75V10.6685H2518.09V0H2507.42H2496.76H2486.1H2475.44H2464.78H2454.11H2443.48V10.6685H2432.82V21.3371H2422.16V32.0056H2411.49V42.6742H2400.83V53.3427V64.0113V74.6798V85.3484V96.0169V106.685V117.354H2411.49V127.994H2422.16V138.663H2432.82V149.331H2443.48V160H2454.11H2464.78H2475.44H2486.1H2496.76H2507.42H2518.09V149.331H2528.75V138.663H2539.41V127.994H2550.07V117.354H2560.74V106.685V96.0169V85.3484V74.6798V64.0113V53.3427V42.6742H2550.07V32.0056V32.0056ZM2443.48 127.994V117.354V106.685V96.0169H2454.11V85.3484H2464.78V74.6798V64.0113V53.3427V42.6742V32.0056V21.3371H2475.44H2486.1H2496.76H2507.42H2518.09V32.0056V42.6742V53.3427V64.0113V74.6798V85.3484V96.0169V106.685V117.354V127.994H2507.42V117.354V106.685H2496.76V117.354V127.994V138.663H2486.1V127.994V117.354H2475.44H2464.78H2454.11V127.994V138.663H2443.48V127.994V127.994Z" fill="#013AEC"/>
<path d="M3164.74 127.994H3175.4V138.663H3186.06V149.331H3196.72V160H3207.36H3218.02H3228.68H3239.34H3250.01H3260.67H3271.33V149.331H3281.99V138.663H3292.65V127.994H3303.32V117.354H3313.98V106.685V96.0169V85.3484V74.6798V64.0113V53.3427V42.6742H3303.32V32.0056H3292.65V21.3371H3281.99V10.6685H3271.33V0H3260.67H3250.01H3239.34H3228.68H3218.02H3207.36H3196.72V10.6685H3186.06V21.3371H3175.4V32.0056H3164.74V42.6742H3154.07V53.3427V64.0113V74.6798V85.3484V96.0169V106.685V117.354H3164.74V127.994ZM3271.33 127.994H3260.67H3250.01H3239.34H3228.68V117.354V106.685V96.0169H3218.02H3207.36V106.685V117.354V127.994H3196.72V117.354V106.685V96.0169V85.3484H3186.06V74.6798H3196.72V64.0113H3207.36V53.3427H3218.02V42.6742H3228.68V32.0056H3239.34V42.6742H3250.01V53.3427H3260.67V64.0113H3271.33V74.6798H3281.99V85.3484H3271.33V96.0169V106.685V117.354V127.994Z" fill="#013AEC"/>
<path d="M3279.32 96.0156V106.684V117.353H3289.98H3300.64V106.684V96.0156H3289.98H3279.32Z" fill="#013AEC"/>
<path d="M3027.46 106.685H3038.12H3048.78H3059.44H3070.1H3080.77H3091.43H3102.09V96.0161V85.3475V74.6789V64.0104V53.3418H3091.43H3080.77H3070.1H3059.44H3048.78H3038.12H3027.46H3016.82H3006.16V64.0104V74.6789V85.3475V96.0161V106.685H3016.82H3027.46ZM3059.44 85.3475H3048.78V74.6789H3059.44V85.3475ZM3091.43 85.3475H3080.77V74.6789H3091.43V85.3475ZM3016.82 74.6789H3027.46V85.3475H3016.82V74.6789V74.6789Z" fill="#6FCBF5"/>
<path d="M3123.42 42.6742V32.0057H3112.76V21.3371H3102.1V10.6686H3091.43V0H3080.77H3070.11H3059.45H3048.79H3038.12H3027.46H3016.83V10.6686H3006.17V21.3371H2995.5V32.0057H2984.84V42.6742H2974.18V53.3427V64.0113V74.6799V85.3484V96.0169V106.685V117.354H2984.84V127.994H2995.5V138.663H3006.17V149.331H3016.83V160H3027.46H3038.12H3048.79H3059.45H3070.11H3080.77H3091.43V149.331H3102.1V138.663H3112.76V127.994H3123.42V117.354H3134.08V106.685V96.0169V85.3484V74.6799V64.0113V53.3427V42.6742H3123.42ZM3027.46 149.331V138.663V127.994V117.354H3016.83H3006.17V106.685H2995.5V96.0169V85.3484V74.6799V64.0113V53.3427H3006.17V42.6742H3016.83H3027.46H3038.12H3048.79H3059.45H3070.11H3080.77H3091.43H3102.1V53.3427H3112.76V64.0113V74.6799V85.3484V96.0169V106.685H3102.1V117.354H3091.43H3080.77H3070.11H3059.45V127.994H3048.79V138.663H3038.12V149.331H3027.46V149.331Z" fill="#6FCBF5"/>
<path d="M3871.4 32.0056H3860.74V21.3371H3850.08V10.6685H3839.42V0H3828.75H3818.09H3807.43H3796.77H3786.11H3775.44H3764.81V10.6685H3754.15V21.3371H3743.49V32.0056H3732.82V42.6742H3722.16V53.3427V64.0113V74.6798V85.3484V96.0169V106.685V117.354H3732.82V127.994H3743.49V138.663H3754.15V149.331H3764.81V160H3775.44H3786.11H3796.77H3807.43H3818.09H3828.75H3839.42V149.331H3850.08V138.663H3860.74V127.994H3871.4V117.354H3882.06V106.685V96.0169V85.3484V74.6798V64.0113V53.3427V42.6742H3871.4V32.0056V32.0056ZM3786.11 127.994V117.354H3775.44V106.685H3764.81V96.0169H3754.15V85.3484V74.6798V64.0113V53.3427H3764.81V42.6742H3775.44H3786.11H3796.77V53.3427H3807.43V42.6742H3818.09H3828.75H3839.42V53.3427H3850.08V64.0113V74.6798V85.3484V96.0169H3839.42V106.685H3828.75V117.354H3818.09V127.994H3807.43V138.663H3796.77V127.994H3786.11Z" fill="#E51041"/>
<path d="M2338.19 85.3488V74.6803H2327.53V64.0117H2316.87H2306.2H2295.54H2284.88H2274.22V74.6803H2263.58V85.3488V96.0173V106.686H2274.22V117.354H2284.88H2295.54H2306.2H2316.87H2327.53V106.686H2338.19V96.0173V85.3488ZM2306.2 106.686H2295.54H2284.88V96.0173V85.3488V74.6803H2295.54H2306.2H2316.87V85.3488V96.0173V106.686H2306.2Z" fill="#6FCBF5"/>
<path d="M2370.18 42.6742V32.0056H2359.52V21.3371H2348.85V10.6685H2338.19V0H2327.53H2316.87H2306.2H2295.54H2284.88H2274.22H2263.58V10.6685H2252.92V21.3371H2242.26V32.0056H2231.6V42.6742H2220.94V53.3427V64.0113V74.6798V85.3484V96.0169V106.685V117.354H2231.6V127.994H2242.26V138.663H2252.92V149.331H2263.58V160H2274.22H2284.88H2295.54H2306.2H2316.87H2327.53H2338.19V149.331H2348.85V138.663H2359.52V127.994H2370.18V117.354H2380.84V106.685V96.0169V85.3484V74.6798V64.0113V53.3427V42.6742H2370.18ZM2338.19 106.685V117.354H2327.53V127.994H2316.87H2306.2H2295.54H2284.88H2274.22V117.354H2263.58V106.685H2252.92V96.0169V85.3484V74.6798H2263.58V64.0113H2252.92V53.3427H2263.58V64.0113H2274.22V53.3427V42.6742H2284.88V53.3427H2295.54V42.6742H2306.2V53.3427H2316.87V42.6742H2327.53V53.3427V64.0113H2338.19V53.3427H2348.85V64.0113H2338.19V74.6798H2348.85V85.3484V96.0169V106.685H2338.19Z" fill="#6FCBF5"/>
<path d="M3955.35 64.0117H3944.72V74.6802H3955.35V64.0117Z" fill="#398B67"/>
<path d="M4051.34 32.0053H4040.67V21.3368H4030.01V10.6684H4019.34V0H4008.68H3998.01H3987.35H3976.68H3966.02H3955.35H3944.72V10.6684H3934.05V21.3368H3923.39V32.0053H3912.72V42.6737H3902.06V53.3432V64.0116V74.6801V85.3485V96.0169V106.685V117.354H3912.72V127.995H3923.39V138.663H3934.05V149.332H3944.72V160H3955.35H3966.02H3976.68H3987.35H3998.01H4008.68H4019.34V149.332H4030.01V138.663H4040.67V127.995H4051.34V117.354H4062V106.685V96.0169V85.3485V74.6801V64.0116V53.3432V42.6737H4051.34V32.0053ZM4008.68 138.663H3998.01V127.995V117.354H3987.35V106.685H3976.68V117.354H3966.02V127.995V138.663H3955.35H3944.72V127.995V117.354H3955.35V106.685V96.0169H3944.72V85.3485H3934.05V74.6801V64.0116V53.3432V42.6737H3944.72H3955.35V53.3432H3966.02H3976.68V42.6737H3966.02V32.0053H3976.68V42.6737H3987.35V32.0053H3998.01V42.6737H3987.35V53.3432H3998.01H4008.68V42.6737H4019.34H4030.01V53.3432V64.0116V74.6801V85.3485H4019.34V96.0169H4008.68V106.685V117.354H4019.34V127.995V138.663H4008.68Z" fill="#398B67"/>
<path d="M2158.28 96.0166H2147.62V106.685V117.353H2158.28V106.685V96.0166Z" fill="#E51041"/>
<path d="M2190.28 32.0053H2179.61V21.3368H2168.95V10.6684H2158.28V0H2147.62H2136.95H2126.29H2115.63H2104.96H2094.3H2083.66V10.6684H2072.99V21.3368H2062.33V32.0053H2051.66V42.6737H2041V53.3432V64.0116V74.68V85.3484V96.0168V106.685V117.354H2051.66V127.995H2062.33V138.663H2072.99V149.332H2083.66V160H2094.3H2104.96H2115.63H2126.29H2136.95H2147.62H2158.28V149.332H2168.95V138.663H2179.61V127.995H2190.28V117.354H2200.94V106.685V96.0168V85.3484V74.68V64.0116V53.3432V42.6737H2190.28V32.0053ZM2168.95 117.354H2158.28V127.995H2147.62V138.663H2136.95H2126.29H2115.63H2104.96H2094.3V127.995H2083.66V117.354V106.685V96.0168V85.3484H2094.3H2104.96H2115.63H2126.29H2136.95H2147.62H2158.28V96.0168H2168.95V106.685V117.354ZM2104.96 64.0116V53.3432H2115.63V42.6737H2126.29V53.3432H2115.63V64.0116H2126.29V74.68H2115.63V64.0116H2104.96Z" fill="#E51041"/>
</g>
<path d="M1522.03 85.375V74.6179V63.8607V53.1035H1511.32H1500.61V63.8607V74.6179V85.375V96.1322V106.889H1511.32H1522.03V96.1322V85.375Z" fill="#013AEC"/>
<path d="M1367.02 74.6179V85.375V96.1322V106.889H1377.73V96.1322V85.375V74.6179V63.8607V53.1035H1367.02V63.8607V74.6179Z" fill="#013AEC"/>
<path d="M1650.57 42.6872V32.0154H1639.94V21.3436H1629.32V10.7003H1618.72V10.6718V0C1608.4 0 1484.42 0 1334.46 0V10.6718H1324.09V21.3436H1313.71V32.0154H1303.34V42.6588H1292.97C1292.97 67.0759 1292.97 92.9158 1292.97 117.304H1303.34V127.948H1313.71V138.591H1324.09V149.263H1334.46V159.935C1484.42 159.935 1608.4 159.935 1618.72 159.935V149.291H1629.32V138.62H1639.94V127.948H1650.57V117.333H1661.17C1661.17 92.9159 1661.17 67.0758 1661.17 42.6872H1650.57ZM1564.88 20.8314H1575.59H1586.3V31.5886H1575.59H1564.88V20.8314ZM1399.15 117.646H1388.44H1377.73H1367.02H1356.31H1345.59V106.889H1356.31V96.1316V85.3744V74.6173V63.8601V53.1029H1367.02V42.3457H1377.73H1388.44V53.1029V63.8601V74.6173V85.3744V96.1316V106.889H1399.15V117.646ZM1468.47 53.1029V63.8601V74.6173H1457.76V85.3744H1468.47V96.1316V106.889V117.646H1457.76V106.889V96.1316V85.3744H1447.05V96.1316V106.889V117.646H1436.33V106.889V96.1316V85.3744H1425.62V96.1316V106.889V117.646H1414.91V106.889V96.1316V85.3744H1425.62V74.6173H1414.91V63.8601V53.1029V42.3457H1425.62V53.1029V63.8601V74.6173H1436.33V63.8601V53.1029V42.3457H1447.05V53.1029V63.8601V74.6173H1457.76V63.8601V53.1029V42.3457H1468.47V53.1029ZM1532.74 63.8601V74.6173V85.3744V96.1316V106.889H1522.03V117.646H1511.32H1500.6V106.889H1489.89V96.1316V85.3744V74.6173V63.8601V53.1029H1500.6V42.3457H1511.32H1522.03V53.1029H1532.74V63.8601ZM1597.01 53.1029V63.8601V74.6173V85.3744V96.1316V106.889V117.646H1586.3V106.889V96.1316V85.3744H1575.59V96.1316H1564.88V106.889V117.646H1554.16V106.889V96.1316V85.3744V74.6173V63.8601V53.1029V42.3457H1564.88V53.1029V63.8601V74.6173V85.3744H1575.59V74.6173H1586.3V63.8601V53.1029V42.3457H1597.01V53.1029Z" fill="#013AEC"/>
<path d="M774.382 85.6949V74.9333V64.1717V53.4102H763.669H752.957V64.1717V74.9333V85.6949V96.4565V107.218H763.669H774.382V96.4565V85.6949Z" fill="#013AEC"/>
<path d="M688.684 85.6953V96.4569V107.218H699.396H710.109V96.4569V85.6953H699.396H688.684Z" fill="#013AEC"/>
<path d="M710.109 53.4102H699.396H688.684V64.1717V74.9333H699.396H710.109V64.1717V53.4102Z" fill="#013AEC"/>
<path d="M902.559 42.7046V32.0285H891.96V21.3808H881.333V10.7046H870.705V10.6762C870.734 10.6762 870.762 10.6762 870.79 10.6762V0C860.503 0 731.19 0 581.218 0V10.6762H570.845V21.3523H560.473V32H550.101V42.6761H539.729C539.729 67.0747 539.729 92.9253 539.729 117.352H550.101V127.972H560.473V138.648H570.845V149.324H581.218V160C731.19 160 860.503 160 870.79 160V149.352H881.333V138.676H891.96V128H902.559V117.381H913.186C913.186 92.9537 913.186 67.1032 913.186 42.7046H902.559ZM817.229 21.1245H827.941H838.653V31.8861H827.941H817.229V21.1245ZM656.544 53.4092H645.832H635.119V64.1708V74.9324V85.6939V96.4555V107.217V117.979H624.407V107.217V96.4555V85.6939V74.9324V64.1708V53.4092H613.695H602.982V42.6477H613.695H624.407H635.119H645.832H656.544V53.4092ZM720.818 64.1708V74.9324H710.105V85.6939H720.818V96.4555V107.217V117.979H710.105H699.393H688.681H677.968V107.217V96.4555V85.6939V74.9324V64.1708V53.4092V42.6477H688.681H699.393H710.105V53.4092H720.818V64.1708ZM785.092 64.1708V74.9324V85.6939V96.4555V107.217H774.379V117.979H763.667H752.955V107.217H742.242V96.4555V85.6939V74.9324V64.1708V53.4092H752.955V42.6477H763.667H774.379V53.4092H785.092V64.1708ZM849.366 53.4092V64.1708V74.9324V85.6939V96.4555V107.217V117.979H838.653V107.217V96.4555V85.6939H827.941V96.4555H817.229V107.217V117.979H806.516V107.217V96.4555V85.6939V74.9324V64.1708V53.4092V42.6477H817.229V53.4092V64.1708V74.9324V85.6939H827.941V74.9324H838.653V64.1708V53.4092V42.6477H849.366V53.4092Z" fill="#013AEC"/>
<path d="M423.779 106.687H434.441H445.103H455.766V96.0182H466.428V85.3496H455.766H445.103H434.441H423.779V96.0182H413.117V106.687H423.779Z" fill="#013AEC"/>
<path d="M455.761 74.684H466.423V64.0154V53.3469V42.6783V32.0098H455.761H445.099H434.437V42.6783V53.3469V64.0154V74.684H445.099H455.761Z" fill="#013AEC"/>
<path d="M509.073 32.0056H498.411V21.3371H487.749V10.6685H477.087V0H466.425H455.763H445.1H434.438H423.776H413.114H402.48V10.6685H391.818V21.3371H381.156V32.0056H370.494V42.6742H359.832V53.3427V64.0113V74.6798V85.3484V96.0169V106.685V117.354H370.494V127.994H381.156V138.663H391.818V149.331H402.48V160H413.114H423.776H434.438H445.1H455.763H466.425H477.087V149.331H487.749V138.663H498.411V127.994H509.073V117.354H519.735V106.685V96.0169V85.3484V74.6798V64.0113V53.3427V42.6742H509.073V32.0056V32.0056ZM402.48 127.994V117.354V106.685V96.0169H413.114V85.3484H423.776V74.6798V64.0113V53.3427V42.6742V32.0056V21.3371H434.438H445.1H455.763H466.425H477.087V32.0056V42.6742V53.3427V64.0113V74.6798V85.3484V96.0169V106.685V117.354V127.994H466.425V117.354V106.685H455.763V117.354V127.994V138.663H445.1V127.994V117.354H434.438H423.776H413.114V127.994V138.663H402.48V127.994V127.994Z" fill="#013AEC"/>
<path d="M1123.74 127.994H1134.4V138.663H1145.06V149.331H1155.72V160H1166.36H1177.02H1187.68H1198.34H1209.01H1219.67H1230.33V149.331H1240.99V138.663H1251.65V127.994H1262.32V117.354H1272.98V106.685V96.0169V85.3484V74.6798V64.0113V53.3427V42.6742H1262.32V32.0056H1251.65V21.3371H1240.99V10.6685H1230.33V0H1219.67H1209.01H1198.34H1187.68H1177.02H1166.36H1155.72V10.6685H1145.06V21.3371H1134.4V32.0056H1123.74V42.6742H1113.07V53.3427V64.0113V74.6798V85.3484V96.0169V106.685V117.354H1123.74V127.994ZM1230.33 127.994H1219.67H1209.01H1198.34H1187.68V117.354V106.685V96.0169H1177.02H1166.36V106.685V117.354V127.994H1155.72V117.354V106.685V96.0169V85.3484H1145.06V74.6798H1155.72V64.0113H1166.36V53.3427H1177.02V42.6742H1187.68V32.0056H1198.34V42.6742H1209.01V53.3427H1219.67V64.0113H1230.33V74.6798H1240.99V85.3484H1230.33V96.0169V106.685V117.354V127.994Z" fill="#013AEC"/>
<path d="M1238.32 96.0156V106.684V117.353H1248.98H1259.64V106.684V96.0156H1248.98H1238.32Z" fill="#013AEC"/>
<path d="M986.455 106.685H997.117H1007.78H1018.44H1029.1H1039.77H1050.43H1061.09V96.0161V85.3475V74.6789V64.0104V53.3418H1050.43H1039.77H1029.1H1018.44H1007.78H997.117H986.455H975.821H965.159V64.0104V74.6789V85.3475V96.0161V106.685H975.821H986.455ZM1018.44 85.3475H1007.78V74.6789H1018.44V85.3475ZM1050.43 85.3475H1039.77V74.6789H1050.43V85.3475ZM975.821 74.6789H986.455V85.3475H975.821V74.6789V74.6789Z" fill="#6FCBF5"/>
<path d="M1082.42 42.6742V32.0057H1071.76V21.3371H1061.1V10.6686H1050.43V0H1039.77H1029.11H1018.45H1007.79H997.123H986.461H975.828V10.6686H965.165V21.3371H954.503V32.0057H943.841V42.6742H933.179V53.3427V64.0113V74.6799V85.3484V96.0169V106.685V117.354H943.841V127.994H954.503V138.663H965.165V149.331H975.828V160H986.461H997.123H1007.79H1018.45H1029.11H1039.77H1050.43V149.331H1061.1V138.663H1071.76V127.994H1082.42V117.354H1093.08V106.685V96.0169V85.3484V74.6799V64.0113V53.3427V42.6742H1082.42ZM986.461 149.331V138.663V127.994V117.354H975.828H965.165V106.685H954.503V96.0169V85.3484V74.6799V64.0113V53.3427H965.165V42.6742H975.828H986.461H997.123H1007.79H1018.45H1029.11H1039.77H1050.43H1061.1V53.3427H1071.76V64.0113V74.6799V85.3484V96.0169V106.685H1061.1V117.354H1050.43H1039.77H1029.11H1018.45V127.994H1007.79V138.663H997.123V149.331H986.461V149.331Z" fill="#6FCBF5"/>
<path d="M1830.4 32.0056H1819.74V21.3371H1809.08V10.6685H1798.42V0H1787.75H1777.09H1766.43H1755.77H1745.11H1734.44H1723.81V10.6685H1713.15V21.3371H1702.49V32.0056H1691.82V42.6742H1681.16V53.3427V64.0113V74.6798V85.3484V96.0169V106.685V117.354H1691.82V127.994H1702.49V138.663H1713.15V149.331H1723.81V160H1734.44H1745.11H1755.77H1766.43H1777.09H1787.75H1798.42V149.331H1809.08V138.663H1819.74V127.994H1830.4V117.354H1841.06V106.685V96.0169V85.3484V74.6798V64.0113V53.3427V42.6742H1830.4V32.0056V32.0056ZM1745.11 127.994V117.354H1734.44V106.685H1723.81V96.0169H1713.15V85.3484V74.6798V64.0113V53.3427H1723.81V42.6742H1734.44H1745.11H1755.77V53.3427H1766.43V42.6742H1777.09H1787.75H1798.42V53.3427H1809.08V64.0113V74.6798V85.3484V96.0169H1798.42V106.685H1787.75V117.354H1777.09V127.994H1766.43V138.663H1755.77V127.994H1745.11Z" fill="#E51041"/>
<path d="M297.19 85.3488V74.6803H286.528V64.0117H275.866H265.204H254.542H243.88H233.218V74.6803H222.584V85.3488V96.0173V106.686H233.218V117.354H243.88H254.542H265.204H275.866H286.528V106.686H297.19V96.0173V85.3488ZM265.204 106.686H254.542H243.88V96.0173V85.3488V74.6803H254.542H265.204H275.866V85.3488V96.0173V106.686H265.204Z" fill="#6FCBF5"/>
<path d="M329.177 42.6742V32.0056H318.515V21.3371H307.853V10.6685H297.191V0H286.529H275.867H265.205H254.543H243.881H233.219H222.585V10.6685H211.923V21.3371H201.261V32.0056H190.599V42.6742H179.937V53.3427V64.0113V74.6798V85.3484V96.0169V106.685V117.354H190.599V127.994H201.261V138.663H211.923V149.331H222.585V160H233.219H243.881H254.543H265.205H275.867H286.529H297.191V149.331H307.853V138.663H318.515V127.994H329.177V117.354H339.839V106.685V96.0169V85.3484V74.6798V64.0113V53.3427V42.6742H329.177ZM297.191 106.685V117.354H286.529V127.994H275.867H265.205H254.543H243.881H233.219V117.354H222.585V106.685H211.923V96.0169V85.3484V74.6798H222.585V64.0113H211.923V53.3427H222.585V64.0113H233.219V53.3427V42.6742H243.881V53.3427H254.543V42.6742H265.205V53.3427H275.867V42.6742H286.529V53.3427V64.0113H297.191V53.3427H307.853V64.0113H297.191V74.6798H307.853V85.3484V96.0169V106.685H297.191Z" fill="#6FCBF5"/>
<path d="M1914.35 64.0117H1903.72V74.6802H1914.35V64.0117Z" fill="#398B67"/>
<path d="M1935.68 74.6806V85.349V96.0175H1946.35V85.349V74.6806V64.0122V53.3438H1935.68V64.0122V74.6806Z" fill="#398B67"/>
<path d="M1978.34 64.0117H1967.68V74.6802H1978.34V64.0117Z" fill="#398B67"/>
<path d="M2010.34 32.0053H1999.67V21.3368H1989.01V10.6684H1978.34V0H1967.68H1957.01H1946.35H1935.68H1925.02H1914.35H1903.72V10.6684H1893.05V21.3368H1882.39V32.0053H1871.72V42.6737H1861.06V53.3432V64.0116V74.6801V85.3485V96.0169V106.685V117.354H1871.72V127.995H1882.39V138.663H1893.05V149.332H1903.72V160H1914.35H1925.02H1935.68H1946.35H1957.01H1967.68H1978.34V149.332H1989.01V138.663H1999.67V127.995H2010.34V117.354H2021V106.685V96.0169V85.3485V74.6801V64.0116V53.3432V42.6737H2010.34V32.0053ZM1967.68 138.663H1957.01V127.995V117.354H1946.35V106.685H1935.68V117.354H1925.02V127.995V138.663H1914.35H1903.72V127.995V117.354H1914.35V106.685V96.0169H1903.72V85.3485H1893.05V74.6801V64.0116V53.3432V42.6737H1903.72H1914.35V53.3432H1925.02H1935.68V42.6737H1925.02V32.0053H1935.68V42.6737H1946.35V32.0053H1957.01V42.6737H1946.35V53.3432H1957.01H1967.68V42.6737H1978.34H1989.01V53.3432V64.0116V74.6801V85.3485H1978.34V96.0169H1967.68V106.685V117.354H1978.34V127.995V138.663H1967.68Z" fill="#398B67"/>
<path d="M117.285 96.0166H106.619V106.685V117.353H117.285V106.685V96.0166Z" fill="#E51041"/>
<path d="M149.279 32.0053H138.614V21.3368H127.949V10.6684H117.285V0H106.619H95.9544H85.2898H74.6251H63.9605H53.2958H42.6586V10.6684H31.9939V21.3368H21.3295V32.0053H10.6647V42.6737H0V53.3432V64.0116V74.68V85.3484V96.0168V106.685V117.354H10.6647V127.995H21.3295V138.663H31.9939V149.332H42.6586V160H53.2958H63.9605H74.6251H85.2898H95.9544H106.619H117.285V149.332H127.949V138.663H138.614V127.995H149.279V117.354H159.943V106.685V96.0168V85.3484V74.68V64.0116V53.3432V42.6737H149.279V32.0053ZM127.949 117.354H117.285V127.995H106.619V138.663H95.9544H85.2898H74.6251H63.9605H53.2958V127.995H42.6586V117.354V106.685V96.0168V85.3484H53.2958H63.9605H74.6251H85.2898H95.9544H106.619H117.285V96.0168H127.949V106.685V117.354ZM63.9605 64.0116V53.3432H74.6251V42.6737H85.2898V53.3432H74.6251V64.0116H85.2898V74.68H74.6251V64.0116H63.9605Z" fill="#E51041"/>
<defs>
<clipPath id="clip0_320_2959">
<rect width="1920" height="160" fill="white" transform="translate(2041)"/>
</clipPath>
</defs>
</svg>
