<svg width="3040" height="142" viewBox="0 0 3040 142" fill="none" xmlns="http://www.w3.org/2000/svg">
<path d="M130.665 28.0361H121.33V18.6908H111.995V9.34537H102.66V0H93.3251H83.9901H74.6551H65.3202H55.9852H46.6502H37.3399V9.34537H28.0049V18.6908H18.67V28.0361H9.33498V37.3815H0V46.7269V56.0722V65.4176V74.763V84.1083V93.4537V102.799H9.33498V112.12H18.67V121.465H28.0049V130.81H37.3399V140.156H46.6502H55.9852H65.3202H74.6551H83.9901H93.3251H102.66V130.81H111.995V121.465H121.33V112.12H130.665V102.799H140V93.4537V84.1083V74.763V65.4176V56.0722V46.7269V37.3815H130.665V28.0361V28.0361ZM111.995 102.799V112.12H102.66V121.465H93.3251H83.9901H74.6551H65.3202H55.9852H46.6502H37.3399V112.12H28.0049V102.799H18.67V93.4537H28.0049H37.3399H46.6502H55.9852V84.1083V74.763H46.6502V65.4176H37.3399V56.0722H28.0049V46.7269H37.3399V37.3815H46.6502V28.0361H55.9852V18.6908H65.3202V28.0361V37.3815V46.7269V56.0722V65.4176V74.763V84.1083V93.4537H74.6551H83.9901H93.3251V84.1083V74.763H83.9901V65.4176H74.6551V56.0722V46.7269H83.9901V37.3815H93.3251V28.0361H102.66V37.3815V46.7269V56.0722V65.4176V74.763V84.1083V93.4537H111.995V84.1083H121.33V93.4537V102.799H111.995Z" fill="#6FCBF5"/>
<path d="M234.655 46.7266H225.32V56.072H215.985V65.4173H225.32V74.7627H234.655V65.4173H243.99V56.072H234.655V46.7266Z" fill="#FFD200"/>
<path d="M290.665 28.0361H281.33V18.6907H271.995V9.34537H262.66V0H253.325H243.99H234.655H225.32H215.985H206.65H197.34V9.34537H188.005V18.6907H178.67V28.0361H169.335V37.3815H160V46.7268V56.0722V65.4176V74.763V84.1083V93.4537V102.799H169.335V112.12H178.67V121.465H188.005V130.81H197.34V140.156H206.65H215.985H225.32H234.655H243.99H253.325H262.66V130.81H271.995V121.465H281.33V112.12H290.665V102.799H300V93.4537V84.1083V74.763V65.4176V56.0722V46.7268V37.3815H290.665V28.0361ZM271.995 46.7268V56.0722V65.4176V74.763H262.66V84.1083V93.4537H253.325V102.799H243.99V112.12H234.655V121.465H225.32V112.12H215.985V102.799H206.65V93.4537H197.34V84.1083V74.763H188.005V65.4176V56.0722V46.7268V37.3815H197.34V28.0361H206.65V18.6907H215.985H225.32H234.655H243.99H253.325V28.0361H262.66V37.3815H271.995V46.7268Z" fill="#FFD200"/>
<path d="M366.65 84.1074H357.34V93.4528H366.65V84.1074Z" fill="#013AEC"/>
<path d="M357.34 46.7269V56.0722V65.4176V74.763H366.65H375.985H385.32H394.655H403.99H413.325H422.66V65.4176V56.0722V46.7269V37.3815V28.0361H413.325H403.99H394.655H385.32H375.985H366.65H357.34V37.3815V46.7269Z" fill="#013AEC"/>
<path d="M422.66 84.1074H413.325V93.4528H422.66V84.1074Z" fill="#013AEC"/>
<path d="M450.665 28.0361H441.33V18.6907H431.995V9.34537H422.66V0H413.325H403.99H394.655H385.32H375.985H366.65H357.34V9.34537H348.005V18.6907H338.67V28.0361H329.335V37.3815H320V46.7269V56.0723V65.4176V74.763V84.1084V93.4537V102.799H329.335V112.12H338.67V121.465H348.005V130.81H357.34V140.156H366.65H375.985H385.32H394.655H403.99H413.325H422.66V130.81H431.995V121.465H441.33V112.12H450.665V102.799H460V93.4537V84.1084V74.763V65.4176V56.0723V46.7269V37.3815H450.665V28.0361ZM357.34 28.0361V18.6907H366.65H375.985H385.32H394.655H403.99H413.325H422.66V28.0361H431.995V37.3815V46.7269V56.0723V65.4176V74.763V84.1084V93.4537V102.799H422.66V112.12H413.325V102.799H403.99H394.655H385.32H375.985H366.65V112.12H357.34V102.799H348.005V93.4537V84.1084V74.763V65.4176V56.0723V46.7269V37.3815V28.0361H357.34Z" fill="#013AEC"/>
<path d="M508.006 65.418H498.671V74.7633H508.006V65.418Z" fill="#E51041"/>
<path d="M526.651 65.418H517.34V74.7633H526.651V65.418Z" fill="#E51041"/>
<path d="M545.32 65.418H535.985V74.7633H545.32V65.418Z" fill="#E51041"/>
<path d="M610.665 28.0361H601.33V18.6907H591.995V9.34537H582.66V0H573.325H563.99H554.655H545.32H535.985H526.65H517.34V9.34537H508.005V18.6907H498.67V28.0361H489.335V37.3815H480V46.7268V56.0722V65.4176V74.7629V84.1083V93.4537V102.799H489.335V112.12H498.67V121.465H508.005V130.81H517.34V140.156H526.65H535.985H545.32H554.655H563.99H573.325H582.66V130.81H591.995V121.465H601.33V112.12H610.665V102.799H620V93.4537V84.1083V74.7629V65.4176V56.0722V46.7268V37.3815H610.665V28.0361ZM489.335 74.7629V65.4176H498.67V56.0722H508.005H517.34H526.65H535.985V46.7268H545.32V37.3815H554.655V28.0361H563.99H573.325V37.3815V46.7268H563.99V56.0722H573.325H582.66H591.995V46.7268H601.33V56.0722V65.4176V74.7629H591.995V84.1083H582.66H573.325H563.99V93.4537H573.325V102.799V112.12H563.99H554.655V102.799H545.32V93.4537H535.985V84.1083H526.65H517.34H508.005H498.67H489.335V74.7629V74.7629Z" fill="#E51041"/>
<path d="M770.665 28.0361H761.33V18.6907H751.995V9.34537H742.66V0H733.325H723.99H714.655H705.32H695.985H686.65H677.34V9.34537H668.005V18.6907H658.67V28.0361H649.335V37.3815H640V46.7269V56.0723V65.4176V74.763V84.1084V93.4537V102.799H649.335V112.12H658.67V121.465H668.005V130.81H677.34V140.156H686.65H695.985H705.32H714.655H723.99H733.325H742.66V130.81H751.995V121.465H761.33V112.12H770.665V102.799H780V93.4537V84.1084V74.763V65.4176V56.0723V46.7269V37.3815H770.665V28.0361ZM742.66 112.12H733.325V102.799H723.99V93.4537H714.655H705.32H695.985H686.65H677.34H668.005V84.1084H677.34H686.65H695.985H705.32H714.655H723.99H733.325V93.4537H742.66V102.799V112.12ZM658.67 65.4176H668.005H677.34H686.65H695.985H705.32H714.655H723.99H733.325H742.66H751.995V74.763H742.66H733.325H723.99H714.655H705.32H695.985H686.65H677.34H668.005H658.67V65.4176ZM677.34 46.7269H686.65H695.985H705.32H714.655H723.99V37.3815H733.325V28.0361H742.66V37.3815V46.7269H733.325V56.0723H723.99H714.655H705.32H695.985H686.65H677.34H668.005V46.7269H677.34Z" fill="#6FCBF5"/>
<path d="M930.665 28.009H921.33V18.6727H911.995V9.33627H902.66V0H893.325H883.99H874.655H865.32H855.985H846.65H837.34V9.33627H828.005V18.6727H818.67V28.009H809.335V37.3454H800V46.6817V56.0181V65.3544V74.6908V84.0271V93.3635V102.7H809.335V112.011H818.67V121.348H828.005V130.684H837.34V140.021H846.65H855.985H865.32H874.655H883.99H893.325H902.66V130.684H911.995V121.348H921.33V112.011H930.665V102.7H940V93.3635V84.0271V74.6908V65.3544V56.0181V46.6817V37.3454H930.665V28.009V28.009ZM902.66 112.011H893.325H883.99V102.7H893.325V93.3635V84.0271V74.6908H883.99V65.3544H893.325V56.0181V46.6817H883.99V56.0181H874.655H865.32H855.985V46.6817H846.65V56.0181V65.3544H855.985V74.6908H846.65V84.0271V93.3635V102.7H855.985V112.011H846.65H837.34H828.005V102.7H837.34V93.3635V84.0271V74.6908H828.005V65.3544H837.34V56.0181V46.6817H828.005V37.3454V28.009H837.34H846.65V37.3454H855.985H865.32H874.655H883.99H893.325V28.009H902.66H911.995V37.3454V46.6817H902.66V56.0181V65.3544H911.995V74.6908H902.66V84.0271V93.3635V102.7H911.995V112.011H902.66Z" fill="#398B67"/>
<path d="M1090.67 29.8799H1081.33V20.5345H1072V11.1891H1062.66V1.84375H1053.33H1043.99H1034.66H1025.32H1015.99H1006.65H997.34V11.1891H988.005V20.5345H978.67V29.8799H969.335V39.2252H960V48.5706V57.916V67.2613V76.6067V85.9521V95.2975V104.643H969.335V113.963H978.67V123.309H988.005V132.654H997.34V142H1006.65H1015.99H1025.32H1034.66H1043.99H1053.33H1062.66V132.654H1072V123.309H1081.33V113.963H1090.67V104.643H1100V95.2975V85.9521V76.6067V67.2613V57.916V48.5706V39.2252H1090.67V29.8799V29.8799ZM1072 104.643V113.963H1062.66V123.309H1053.33H1043.99H1034.66H1025.32H1015.99H1006.65H997.34V113.963H988.005V104.643H978.67V95.2975H988.005H997.34H1006.65H1015.99V85.9521V76.6067H1006.65V67.2613H997.34V57.916H988.005V48.5706H997.34V39.2252H1006.65V29.8799H1015.99V20.5345H1025.32V29.8799V39.2252V48.5706V57.916V67.2613V76.6067V85.9521V95.2975H1034.66H1043.99H1053.33V85.9521V76.6067H1043.99V67.2613H1034.66V57.916V48.5706H1043.99V39.2252H1053.33V29.8799H1062.66V39.2252V48.5706V57.916V67.2613V76.6067V85.9521V95.2975H1072V85.9521H1081.33V95.2975V104.643H1072Z" fill="#6FCBF5"/>
<path d="M1194.65 48.5703H1185.32V57.9157H1175.99V67.2611H1185.32V76.6065H1194.65V67.2611H1203.99V57.9157H1194.65V48.5703Z" fill="#FFD200"/>
<path d="M1250.67 29.8799H1241.33V20.5345H1232V11.1891H1222.66V1.84375H1213.33H1203.99H1194.66H1185.32H1175.99H1166.65H1157.34V11.1891H1148V20.5345H1138.67V29.8799H1129.33V39.2252H1120V48.5706V57.916V67.2614V76.6067V85.9521V95.2975V104.643H1129.33V113.963H1138.67V123.309H1148V132.654H1157.34V142H1166.65H1175.99H1185.32H1194.66H1203.99H1213.33H1222.66V132.654H1232V123.309H1241.33V113.963H1250.67V104.643H1260V95.2975V85.9521V76.6067V67.2614V57.916V48.5706V39.2252H1250.67V29.8799ZM1232 48.5706V57.916V67.2614V76.6067H1222.66V85.9521V95.2975H1213.33V104.643H1203.99V113.963H1194.66V123.309H1185.32V113.963H1175.99V104.643H1166.65V95.2975H1157.34V85.9521V76.6067H1148V67.2614V57.916V48.5706V39.2252H1157.34V29.8799H1166.65V20.5345H1175.99H1185.32H1194.66H1203.99H1213.33V29.8799H1222.66V39.2252H1232V48.5706Z" fill="#FFD200"/>
<path d="M1326.65 85.9512H1317.34V95.2965H1326.65V85.9512Z" fill="#013AEC"/>
<path d="M1317.34 48.5706V57.916V67.2614V76.6067H1326.65H1335.99H1345.32H1354.66H1363.99H1373.33H1382.66V67.2614V57.916V48.5706V39.2253V29.8799H1373.33H1363.99H1354.66H1345.32H1335.99H1326.65H1317.34V39.2253V48.5706Z" fill="#013AEC"/>
<path d="M1382.66 85.9512H1373.32V95.2965H1382.66V85.9512Z" fill="#013AEC"/>
<path d="M1410.67 29.8799H1401.33V20.5345H1392V11.1891H1382.66V1.84375H1373.33H1363.99H1354.66H1345.32H1335.99H1326.65H1317.34V11.1891H1308V20.5345H1298.67V29.8799H1289.33V39.2253H1280V48.5706V57.916V67.2614V76.6067V85.9521V95.2975V104.643H1289.33V113.963H1298.67V123.309H1308V132.654H1317.34V142H1326.65H1335.99H1345.32H1354.66H1363.99H1373.33H1382.66V132.654H1392V123.309H1401.33V113.963H1410.67V104.643H1420V95.2975V85.9521V76.6067V67.2614V57.916V48.5706V39.2253H1410.67V29.8799ZM1317.34 29.8799V20.5345H1326.65H1335.99H1345.32H1354.66H1363.99H1373.33H1382.66V29.8799H1392V39.2253V48.5706V57.916V67.2614V76.6067V85.9521V95.2975V104.643H1382.66V113.963H1373.33V104.643H1363.99H1354.66H1345.32H1335.99H1326.65V113.963H1317.34V104.643H1308V95.2975V85.9521V76.6067V67.2614V57.916V48.5706V39.2253V29.8799H1317.34Z" fill="#013AEC"/>
<path d="M1468.01 65.418H1458.67V74.7633H1468.01V65.418Z" fill="#E51041"/>
<path d="M1486.65 65.418H1477.34V74.7633H1486.65V65.418Z" fill="#E51041"/>
<path d="M1505.32 65.418H1495.99V74.7633H1505.32V65.418Z" fill="#E51041"/>
<path d="M1570.67 28.0361H1561.33V18.6907H1552V9.34537H1542.66V0H1533.33H1523.99H1514.66H1505.32H1495.99H1486.65H1477.34V9.34537H1468V18.6907H1458.67V28.0361H1449.33V37.3815H1440V46.7268V56.0722V65.4176V74.7629V84.1083V93.4537V102.799H1449.33V112.12H1458.67V121.465H1468V130.81H1477.34V140.156H1486.65H1495.99H1505.32H1514.66H1523.99H1533.33H1542.66V130.81H1552V121.465H1561.33V112.12H1570.67V102.799H1580V93.4537V84.1083V74.7629V65.4176V56.0722V46.7268V37.3815H1570.67V28.0361ZM1449.33 74.7629V65.4176H1458.67V56.0722H1468H1477.34H1486.65H1495.99V46.7268H1505.32V37.3815H1514.66V28.0361H1523.99H1533.33V37.3815V46.7268H1523.99V56.0722H1533.33H1542.66H1552V46.7268H1561.33V56.0722V65.4176V74.7629H1552V84.1083H1542.66H1533.33H1523.99V93.4537H1533.33V102.799V112.12H1523.99H1514.66V102.799H1505.32V93.4537H1495.99V84.1083H1486.65H1477.34H1468H1458.67H1449.33V74.7629V74.7629Z" fill="#E51041"/>
<g clip-path="url(#clip0_336_3539)">
<path d="M1730.67 28.0361H1721.33V18.6908H1712V9.34537H1702.66V0H1693.33H1683.99H1674.66H1665.32H1655.99H1646.65H1637.34V9.34537H1628V18.6908H1618.67V28.0361H1609.33V37.3815H1600V46.7269V56.0722V65.4176V74.763V84.1083V93.4537V102.799H1609.33V112.12H1618.67V121.465H1628V130.81H1637.34V140.156H1646.65H1655.99H1665.32H1674.66H1683.99H1693.33H1702.66V130.81H1712V121.465H1721.33V112.12H1730.67V102.799H1740V93.4537V84.1083V74.763V65.4176V56.0722V46.7269V37.3815H1730.67V28.0361V28.0361ZM1712 102.799V112.12H1702.66V121.465H1693.33H1683.99H1674.66H1665.32H1655.99H1646.65H1637.34V112.12H1628V102.799H1618.67V93.4537H1628H1637.34H1646.65H1655.99V84.1083V74.763H1646.65V65.4176H1637.34V56.0722H1628V46.7269H1637.34V37.3815H1646.65V28.0361H1655.99V18.6908H1665.32V28.0361V37.3815V46.7269V56.0722V65.4176V74.763V84.1083V93.4537H1674.66H1683.99H1693.33V84.1083V74.763H1683.99V65.4176H1674.66V56.0722V46.7269H1683.99V37.3815H1693.33V28.0361H1702.66V37.3815V46.7269V56.0722V65.4176V74.763V84.1083V93.4537H1712V84.1083H1721.33V93.4537V102.799H1712Z" fill="#6FCBF5"/>
<path d="M1834.66 46.7266H1825.32V56.072H1815.99V65.4173H1825.32V74.7627H1834.66V65.4173H1843.99V56.072H1834.66V46.7266Z" fill="#FFD200"/>
<path d="M1890.67 28.0361H1881.33V18.6907H1872V9.34537H1862.66V0H1853.33H1843.99H1834.66H1825.32H1815.99H1806.65H1797.34V9.34537H1788V18.6907H1778.67V28.0361H1769.33V37.3815H1760V46.7268V56.0722V65.4176V74.763V84.1083V93.4537V102.799H1769.33V112.12H1778.67V121.465H1788V130.81H1797.34V140.156H1806.65H1815.99H1825.32H1834.66H1843.99H1853.33H1862.66V130.81H1872V121.465H1881.33V112.12H1890.67V102.799H1900V93.4537V84.1083V74.763V65.4176V56.0722V46.7268V37.3815H1890.67V28.0361ZM1872 46.7268V56.0722V65.4176V74.763H1862.66V84.1083V93.4537H1853.33V102.799H1843.99V112.12H1834.66V121.465H1825.32V112.12H1815.99V102.799H1806.65V93.4537H1797.34V84.1083V74.763H1788V65.4176V56.0722V46.7268V37.3815H1797.34V28.0361H1806.65V18.6907H1815.99H1825.32H1834.66H1843.99H1853.33V28.0361H1862.66V37.3815H1872V46.7268Z" fill="#FFD200"/>
<path d="M1966.65 84.1074H1957.34V93.4528H1966.65V84.1074Z" fill="#013AEC"/>
<path d="M1957.34 46.7269V56.0722V65.4176V74.763H1966.65H1975.99H1985.32H1994.66H2003.99H2013.32H2022.66V65.4176V56.0722V46.7269V37.3815V28.0361H2013.32H2003.99H1994.66H1985.32H1975.99H1966.65H1957.34V37.3815V46.7269Z" fill="#013AEC"/>
<path d="M2022.66 84.1074H2013.32V93.4528H2022.66V84.1074Z" fill="#013AEC"/>
<path d="M2050.67 28.0361H2041.33V18.6907H2032V9.34537H2022.66V0H2013.33H2003.99H1994.66H1985.32H1975.99H1966.65H1957.34V9.34537H1948V18.6907H1938.67V28.0361H1929.33V37.3815H1920V46.7269V56.0723V65.4176V74.763V84.1084V93.4537V102.799H1929.33V112.12H1938.67V121.465H1948V130.81H1957.34V140.156H1966.65H1975.99H1985.32H1994.66H2003.99H2013.33H2022.66V130.81H2032V121.465H2041.33V112.12H2050.67V102.799H2060V93.4537V84.1084V74.763V65.4176V56.0723V46.7269V37.3815H2050.67V28.0361ZM1957.34 28.0361V18.6907H1966.65H1975.99H1985.32H1994.66H2003.99H2013.33H2022.66V28.0361H2032V37.3815V46.7269V56.0723V65.4176V74.763V84.1084V93.4537V102.799H2022.66V112.12H2013.33V102.799H2003.99H1994.66H1985.32H1975.99H1966.65V112.12H1957.34V102.799H1948V93.4537V84.1084V74.763V65.4176V56.0723V46.7269V37.3815V28.0361H1957.34Z" fill="#013AEC"/>
<path d="M2108.01 65.418H2098.67V74.7633H2108.01V65.418Z" fill="#E51041"/>
<path d="M2126.65 65.418H2117.34V74.7633H2126.65V65.418Z" fill="#E51041"/>
<path d="M2145.32 65.418H2135.99V74.7633H2145.32V65.418Z" fill="#E51041"/>
<path d="M2210.67 28.0361H2201.33V18.6907H2192V9.34537H2182.66V0H2173.33H2163.99H2154.66H2145.32H2135.99H2126.65H2117.34V9.34537H2108V18.6907H2098.67V28.0361H2089.33V37.3815H2080V46.7268V56.0722V65.4176V74.7629V84.1083V93.4537V102.799H2089.33V112.12H2098.67V121.465H2108V130.81H2117.34V140.156H2126.65H2135.99H2145.32H2154.66H2163.99H2173.33H2182.66V130.81H2192V121.465H2201.33V112.12H2210.67V102.799H2220V93.4537V84.1083V74.7629V65.4176V56.0722V46.7268V37.3815H2210.67V28.0361ZM2089.33 74.7629V65.4176H2098.67V56.0722H2108H2117.34H2126.65H2135.99V46.7268H2145.32V37.3815H2154.66V28.0361H2163.99H2173.33V37.3815V46.7268H2163.99V56.0722H2173.33H2182.66H2192V46.7268H2201.33V56.0722V65.4176V74.7629H2192V84.1083H2182.66H2173.33H2163.99V93.4537H2173.33V102.799V112.12H2163.99H2154.66V102.799H2145.32V93.4537H2135.99V84.1083H2126.65H2117.34H2108H2098.67H2089.33V74.7629V74.7629Z" fill="#E51041"/>
<path d="M2370.67 28.0361H2361.33V18.6907H2352V9.34537H2342.66V0H2333.33H2323.99H2314.66H2305.32H2295.99H2286.65H2277.34V9.34537H2268V18.6907H2258.67V28.0361H2249.33V37.3815H2240V46.7269V56.0723V65.4176V74.763V84.1084V93.4537V102.799H2249.33V112.12H2258.67V121.465H2268V130.81H2277.34V140.156H2286.65H2295.99H2305.32H2314.66H2323.99H2333.33H2342.66V130.81H2352V121.465H2361.33V112.12H2370.67V102.799H2380V93.4537V84.1084V74.763V65.4176V56.0723V46.7269V37.3815H2370.67V28.0361ZM2342.66 112.12H2333.33V102.799H2323.99V93.4537H2314.66H2305.32H2295.99H2286.65H2277.34H2268V84.1084H2277.34H2286.65H2295.99H2305.32H2314.66H2323.99H2333.33V93.4537H2342.66V102.799V112.12ZM2258.67 65.4176H2268H2277.34H2286.65H2295.99H2305.32H2314.66H2323.99H2333.33H2342.66H2352V74.763H2342.66H2333.33H2323.99H2314.66H2305.32H2295.99H2286.65H2277.34H2268H2258.67V65.4176ZM2277.34 46.7269H2286.65H2295.99H2305.32H2314.66H2323.99V37.3815H2333.33V28.0361H2342.66V37.3815V46.7269H2333.33V56.0723H2323.99H2314.66H2305.32H2295.99H2286.65H2277.34H2268V46.7269H2277.34Z" fill="#6FCBF5"/>
<path d="M2530.67 28.009H2521.33V18.6727H2512V9.33627H2502.66V0H2493.33H2483.99H2474.66H2465.32H2455.99H2446.65H2437.34V9.33627H2428V18.6727H2418.67V28.009H2409.33V37.3454H2400V46.6817V56.0181V65.3544V74.6908V84.0271V93.3635V102.7H2409.33V112.011H2418.67V121.348H2428V130.684H2437.34V140.021H2446.65H2455.99H2465.32H2474.66H2483.99H2493.33H2502.66V130.684H2512V121.348H2521.33V112.011H2530.67V102.7H2540V93.3635V84.0271V74.6908V65.3544V56.0181V46.6817V37.3454H2530.67V28.009V28.009ZM2502.66 112.011H2493.33H2483.99V102.7H2493.33V93.3635V84.0271V74.6908H2483.99V65.3544H2493.33V56.0181V46.6817H2483.99V56.0181H2474.66H2465.32H2455.99V46.6817H2446.65V56.0181V65.3544H2455.99V74.6908H2446.65V84.0271V93.3635V102.7H2455.99V112.011H2446.65H2437.34H2428V102.7H2437.34V93.3635V84.0271V74.6908H2428V65.3544H2437.34V56.0181V46.6817H2428V37.3454V28.009H2437.34H2446.65V37.3454H2455.99H2465.32H2474.66H2483.99H2493.33V28.009H2502.66H2512V37.3454V46.6817H2502.66V56.0181V65.3544H2512V74.6908H2502.66V84.0271V93.3635V102.7H2512V112.011H2502.66Z" fill="#398B67"/>
<path d="M2690.67 29.8799H2681.33V20.5345H2672V11.1891H2662.66V1.84375H2653.33H2643.99H2634.66H2625.32H2615.99H2606.65H2597.34V11.1891H2588V20.5345H2578.67V29.8799H2569.33V39.2252H2560V48.5706V57.916V67.2613V76.6067V85.9521V95.2975V104.643H2569.33V113.963H2578.67V123.309H2588V132.654H2597.34V142H2606.65H2615.99H2625.32H2634.66H2643.99H2653.33H2662.66V132.654H2672V123.309H2681.33V113.963H2690.67V104.643H2700V95.2975V85.9521V76.6067V67.2613V57.916V48.5706V39.2252H2690.67V29.8799V29.8799ZM2672 104.643V113.963H2662.66V123.309H2653.33H2643.99H2634.66H2625.32H2615.99H2606.65H2597.34V113.963H2588V104.643H2578.67V95.2975H2588H2597.34H2606.65H2615.99V85.9521V76.6067H2606.65V67.2613H2597.34V57.916H2588V48.5706H2597.34V39.2252H2606.65V29.8799H2615.99V20.5345H2625.32V29.8799V39.2252V48.5706V57.916V67.2613V76.6067V85.9521V95.2975H2634.66H2643.99H2653.33V85.9521V76.6067H2643.99V67.2613H2634.66V57.916V48.5706H2643.99V39.2252H2653.33V29.8799H2662.66V39.2252V48.5706V57.916V67.2613V76.6067V85.9521V95.2975H2672V85.9521H2681.33V95.2975V104.643H2672Z" fill="#6FCBF5"/>
<path d="M2794.66 48.5703H2785.32V57.9157H2775.99V67.2611H2785.32V76.6065H2794.66V67.2611H2803.99V57.9157H2794.66V48.5703Z" fill="#FFD200"/>
<path d="M2850.67 29.8799H2841.33V20.5345H2832V11.1891H2822.66V1.84375H2813.33H2803.99H2794.66H2785.32H2775.99H2766.65H2757.34V11.1891H2748V20.5345H2738.67V29.8799H2729.33V39.2252H2720V48.5706V57.916V67.2614V76.6067V85.9521V95.2975V104.643H2729.33V113.963H2738.67V123.309H2748V132.654H2757.34V142H2766.65H2775.99H2785.32H2794.66H2803.99H2813.33H2822.66V132.654H2832V123.309H2841.33V113.963H2850.67V104.643H2860V95.2975V85.9521V76.6067V67.2614V57.916V48.5706V39.2252H2850.67V29.8799ZM2832 48.5706V57.916V67.2614V76.6067H2822.66V85.9521V95.2975H2813.33V104.643H2803.99V113.963H2794.66V123.309H2785.32V113.963H2775.99V104.643H2766.65V95.2975H2757.34V85.9521V76.6067H2748V67.2614V57.916V48.5706V39.2252H2757.34V29.8799H2766.65V20.5345H2775.99H2785.32H2794.66H2803.99H2813.33V29.8799H2822.66V39.2252H2832V48.5706Z" fill="#FFD200"/>
<path d="M2926.65 85.9512H2917.34V95.2965H2926.65V85.9512Z" fill="#013AEC"/>
<path d="M2917.34 48.5706V57.916V67.2614V76.6067H2926.65H2935.99H2945.32H2954.66H2963.99H2973.33H2982.66V67.2614V57.916V48.5706V39.2253V29.8799H2973.33H2963.99H2954.66H2945.32H2935.99H2926.65H2917.34V39.2253V48.5706Z" fill="#013AEC"/>
<path d="M2982.66 85.9512H2973.32V95.2965H2982.66V85.9512Z" fill="#013AEC"/>
<path d="M3010.67 29.8799H3001.33V20.5345H2992V11.1891H2982.66V1.84375H2973.33H2963.99H2954.66H2945.32H2935.99H2926.65H2917.34V11.1891H2908V20.5345H2898.67V29.8799H2889.33V39.2253H2880V48.5706V57.916V67.2614V76.6067V85.9521V95.2975V104.643H2889.33V113.963H2898.67V123.309H2908V132.654H2917.34V142H2926.65H2935.99H2945.32H2954.66H2963.99H2973.33H2982.66V132.654H2992V123.309H3001.33V113.963H3010.67V104.643H3020V95.2975V85.9521V76.6067V67.2614V57.916V48.5706V39.2253H3010.67V29.8799ZM2917.34 29.8799V20.5345H2926.65H2935.99H2945.32H2954.66H2963.99H2973.33H2982.66V29.8799H2992V39.2253V48.5706V57.916V67.2614V76.6067V85.9521V95.2975V104.643H2982.66V113.963H2973.33V104.643H2963.99H2954.66H2945.32H2935.99H2926.65V113.963H2917.34V104.643H2908V95.2975V85.9521V76.6067V67.2614V57.916V48.5706V39.2253V29.8799H2917.34Z" fill="#013AEC"/>
</g>
<defs>
<clipPath id="clip0_336_3539">
<rect width="1440" height="142" fill="white" transform="translate(1600)"/>
</clipPath>
</defs>
</svg>
