<svg width="2720" height="195" viewBox="0 0 2720 195" fill="none" xmlns="http://www.w3.org/2000/svg">
<g clip-path="url(#clip0_357_5030)">
<rect x="1440" width="1440" height="195" fill="#6FCBF5"/>
<rect x="1506.43" y="57.4775" width="132.071" height="85.979" fill="white"/>
<path d="M1589.17 110.948V120.012H1598.23V110.948V101.885H1589.17V110.948Z" fill="#013AEC"/>
<path d="M1670.31 65.9424V56.9508H1661.33V47.9832H1652.34V38.9916H1643.36V30C1634.66 30 1624.9 30 1498.08 30V38.9916H1489.31V47.9592H1480.54V56.9508H1471.77V65.9424H1463C1463 86.4912 1463 108.263 1463 128.836H1471.77V137.779H1480.54V146.771H1489.31V155.762H1498.08V164.73C1624.9 164.73 1634.66 164.73 1643.36 164.73V155.762H1652.34V146.771H1661.33V137.803H1670.31V128.836H1679.28C1679.28 108.287 1679.28 86.5151 1679.28 65.9424H1670.31V65.9424ZM1562 74.6942H1552.94H1543.88V83.7577V92.8212V101.885V110.948V120.012V129.075H1534.82V120.012V110.948V101.885V92.8212V83.7577V74.6942H1525.76H1516.7V65.6307H1525.76H1534.82H1543.88H1552.94H1562V74.6942ZM1607.29 101.885V110.948V120.012V129.075H1598.23H1589.17H1580.11V120.012V110.948V101.885V92.8212V83.7577V74.6942V65.6307H1589.17V74.6942V83.7577V92.8212H1598.23H1607.29V101.885ZM1625.41 74.6942V83.7577V92.8212V101.885V110.948V120.012V129.075H1616.35V120.012V110.948V101.885V92.8212V83.7577V74.6942V65.6307H1625.41V74.6942Z" fill="#013AEC"/>
<rect x="1745.75" y="57.5" width="551.763" height="86.0466" fill="white"/>
<path d="M1868.46 74.998V84.06V93.1219H1877.52H1886.59V84.06V74.998H1877.52H1868.46Z" fill="#013AEC"/>
<path d="M2149.36 102.184V111.246V120.307H2158.42H2167.48V111.246V102.184H2158.42H2149.36Z" fill="#013AEC"/>
<path d="M1977.18 102.184V111.246V120.307H1986.24H1995.3V111.246V102.184H1986.24H1977.18Z" fill="#013AEC"/>
<path d="M1995.3 74.998H1986.24H1977.18V84.06V93.1219H1986.24H1995.3V84.06V74.998Z" fill="#013AEC"/>
<path d="M1922.83 93.1219V102.184H1931.9H1940.96V93.1219V84.06V74.998H1931.9H1922.83V84.06V93.1219Z" fill="#013AEC"/>
<path d="M2276.2 93.1219V84.06V74.998H2267.14H2258.08V84.06V93.1219H2267.14H2276.2Z" fill="#013AEC"/>
<path d="M2330.21 65.888V56.8981H2321.22V47.932H2312.26V38.942H2303.27V30C2294.56 30 1858.92 30 1732.08 30V38.99H1723.3V47.98H1714.53V56.946H1705.76V65.936H1696.96C1696.96 86.5051 1696.96 108.249 1696.96 128.818H1705.76V137.784H1714.53V146.75H1723.3V155.74H1732.08V164.73C1858.92 164.73 2294.56 164.73 2303.27 164.73V155.74V155.692H2312.26V146.702H2321.22V137.736H2330.21V128.77H2339.2C2339.2 108.201 2339.2 86.4571 2339.2 65.888H2330.21V65.888ZM1786.91 74.9979H1777.84H1768.78H1759.72V84.0598V93.1217V102.184V111.246V120.307H1768.78H1777.84H1786.91V129.369H1777.84H1768.78H1759.72V120.307H1750.66V111.246V102.184V93.1217V84.0598V74.9979H1759.72V65.936H1768.78H1777.84H1786.91V74.9979ZM1841.28 74.9979V84.0598V93.1217V102.184V111.246V120.307V129.369H1832.21V120.307V111.246V102.184V93.1217V84.0598V74.9979H1823.15H1814.09V84.0598V93.1217V102.184V111.246V120.307V129.369H1805.03V120.307V111.246V102.184V93.1217V84.0598V74.9979V65.936H1814.09H1823.15H1832.21H1841.28V74.9979ZM1895.65 74.9979V84.0598V93.1217V102.184H1886.59H1877.52H1868.46V111.246V120.307V129.369H1859.4V120.307V111.246V102.184V93.1217V84.0598V74.9979V65.936H1868.46H1877.52H1886.59H1895.65V74.9979ZM1950.02 84.0598V93.1217V102.184V111.246V120.307V129.369H1940.96V120.307V111.246H1931.9H1922.83V120.307V129.369H1913.77V120.307V111.246V102.184V93.1217V84.0598V74.9979H1922.83V65.936H1931.9H1940.96V74.9979H1950.02V84.0598ZM2004.37 84.0598V93.1217H1995.31V102.184H2004.37V111.246V120.307V129.369H1995.31H1986.24H1977.18H1968.12V120.307V111.246V102.184V93.1217V84.0598V74.9979V65.936H1977.18H1986.24H1995.31V74.9979H2004.37V84.0598ZM2058.74 74.9979V84.0598V93.1217V102.184V111.246V120.307V129.369H2049.68V120.307V111.246V102.184H2040.61V111.246H2031.55V120.307V129.369H2022.49V120.307V111.246V102.184V93.1217V84.0598V74.9979V65.936H2031.55V74.9979V84.0598V93.1217V102.184H2040.61V93.1217H2049.68V84.0598V74.9979V65.936H2058.74V74.9979ZM2122.17 74.9979V84.0598V93.1217V102.184V111.246V120.307V129.369H2113.11H2104.05H2094.99H2085.92H2076.86V120.307V111.246V102.184V93.1217V84.0598V74.9979V65.936H2085.92V74.9979V84.0598V93.1217V102.184V111.246V120.307H2094.99V111.246V102.184V93.1217V84.0598V74.9979V65.936H2104.05V74.9979V84.0598V93.1217V102.184V111.246V120.307H2113.11V111.246V102.184V93.1217V84.0598V74.9979V65.936H2122.17V74.9979ZM2176.54 102.184V111.246V120.307V129.369H2167.48H2158.42H2149.36H2140.3V120.307V111.246V102.184V93.1457V84.0838V75.0219V65.96H2149.36V75.0219V84.0838V93.1457H2158.42H2167.48H2176.54V102.184ZM2230.89 74.9979H2221.83H2212.77H2203.71V84.0598V93.1217V102.184V111.246V120.307H2212.77H2221.83H2230.89V129.369H2221.83H2212.77H2203.71V120.307H2194.64V111.246V102.184V93.1217V84.0598V74.9979H2203.71V65.936H2212.77H2221.83H2230.89V74.9979ZM2285.26 74.9979V84.0598V93.1217V102.184V111.246V120.307V129.369H2276.2V120.307V111.246V102.184H2267.14H2258.08V111.246V120.307V129.369H2249.01V120.307V111.246V102.184H2258.08V93.1217H2249.01V84.0598V74.9979H2258.08V65.936H2267.14H2276.2H2285.26V74.9979Z" fill="#013AEC"/>
<rect x="2397.79" y="57.6816" width="66.7043" height="86.2709" fill="white"/>
<path d="M2491.97 66.9424V57.9508H2482.98V48.9592H2474.01V39.9916H2465.02V39.9676V31C2455.02 31 2433.78 31 2392.01 31V39.9676H2383.23V48.9592H2374.46V57.9508H2365.68V66.9184H2356.88C2356.88 87.4912 2356.88 109.263 2356.88 129.812H2365.68V138.779H2374.46V147.771H2383.23V156.738H2392.01V165.73C2433.78 165.73 2455.02 165.73 2465.02 165.73V156.762H2474.01V156.738V147.771H2482.98V138.779H2491.97V129.836H2500.96C2500.96 109.263 2500.96 87.4912 2500.96 66.9424H2491.97V66.9424ZM2444.64 75.7182H2435.58H2426.51H2417.45V84.7817V93.8452V102.909V111.972V121.036H2426.51H2435.58H2444.64V130.099H2435.58H2426.51H2417.45V121.036H2408.39V111.972V102.909V93.8452V84.7817V75.7182H2417.45V66.6547H2426.51H2435.58H2444.64V75.7182Z" fill="#013AEC"/>
<rect x="2567.39" y="57.4775" width="250.846" height="85.979" fill="white"/>
<path d="M2848.29 65.9424V56.9508H2839.32V47.9592H2830.35V38.9676H2821.4H2821.37V30C2812.69 30 2680.31 30 2553.68 30V38.9676H2544.92V47.9592H2536.16V56.9508H2527.4V65.9424H2518.64C2518.64 86.4912 2518.64 108.263 2518.64 128.812H2527.4V137.779H2536.16V146.771H2544.92V155.762H2553.68V164.73C2680.31 164.73 2812.69 164.73 2821.4 164.73V155.762H2830.35V146.771H2839.32V137.779H2848.29V128.812H2857.24C2857.24 108.263 2857.24 86.4912 2857.24 65.9424H2848.29V65.9424ZM2608.43 84.0694V93.133V102.196V111.26V120.324H2599.38V129.387H2590.34H2581.29H2572.25V120.324H2581.29H2590.34H2599.38V111.26V102.196H2590.34H2581.29V93.133H2590.34H2599.38V84.0694V75.0059H2590.34H2581.29H2572.25V65.9424H2581.29H2590.34H2599.38V75.0059H2608.43V84.0694ZM2671.72 75.0059H2662.67H2653.63V84.0694V93.133V102.196V111.26V120.324V129.387H2644.58V120.324V111.26V102.196V93.133V84.0694V75.0059H2635.54H2626.49V65.9424H2635.54H2644.58H2653.63H2662.67H2671.72V75.0059ZM2726.56 75.0059V84.0694V93.133V102.196V111.26V120.324V129.387H2717.52V120.324V111.26V102.196H2708.47V111.26H2699.43V120.324V129.387H2690.38V120.324V111.26V102.196V93.133V84.0694V75.0059V65.9424H2699.43V75.0059V84.0694V93.133V102.196H2708.47V93.133H2717.52V84.0694V75.0059V65.9424H2726.56V75.0059ZM2803.45 75.0059V84.0694V93.133V102.196V111.26V120.324V129.387H2794.4V120.324V111.26V102.196V93.133V84.0694H2785.36V93.133H2776.31V84.0694H2767.27V93.133V102.196V111.26V120.324V129.387H2758.22V120.324V111.26V102.196V93.133V84.0694V75.0059V65.9424H2767.27V75.0059H2776.31V84.0694H2785.36V75.0059H2794.4V65.9424H2803.45V75.0059Z" fill="#013AEC"/>
</g>
<g clip-path="url(#clip1_357_5030)">
<rect width="1440" height="195" fill="#6FCBF5"/>
<rect x="66.4329" y="57.4775" width="132.071" height="85.979" fill="white"/>
<path d="M149.172 110.948V120.012H158.231V110.948V101.885H149.172V110.948Z" fill="#013AEC"/>
<path d="M230.315 65.9424V56.9508H221.328V47.9832H212.342V38.9916H203.355V30C194.656 30 184.903 30 58.0839 30V38.9916H49.313V47.9592H40.5421V56.9508H31.7711V65.9424H23.0002C23.0002 86.4912 23.0002 108.263 23.0002 128.836H31.7711V137.779H40.5421V146.771H49.313V155.762H58.0839V164.73C184.903 164.73 194.656 164.73 203.355 164.73V155.762H212.342V146.771H221.328V137.803H230.315V128.836H239.277C239.277 108.287 239.277 86.5151 239.277 65.9424H230.315V65.9424ZM121.996 74.6942H112.938H103.879V83.7577V92.8212V101.885V110.948V120.012V129.075H94.821V120.012V110.948V101.885V92.8212V83.7577V74.6942H85.7625H76.7041V65.6307H85.7625H94.821H103.879H112.938H121.996V74.6942ZM167.289 101.885V110.948V120.012V129.075H158.23H149.172H140.113V120.012V110.948V101.885V92.8212V83.7577V74.6942V65.6307H149.172V74.6942V83.7577V92.8212H158.23H167.289V101.885ZM185.406 74.6942V83.7577V92.8212V101.885V110.948V120.012V129.075H176.347V120.012V110.948V101.885V92.8212V83.7577V74.6942V65.6307H185.406V74.6942Z" fill="#013AEC"/>
<rect x="305.747" y="57.5" width="551.763" height="86.0466" fill="white"/>
<path d="M428.463 74.998V84.06V93.1219H437.525H446.587V84.06V74.998H437.525H428.463Z" fill="#013AEC"/>
<path d="M709.358 102.184V111.246V120.307H718.42H727.482V111.246V102.184H718.42H709.358Z" fill="#013AEC"/>
<path d="M537.181 102.184V111.246V120.307H546.243H555.305V111.246V102.184H546.243H537.181Z" fill="#013AEC"/>
<path d="M555.305 74.998H546.243H537.181V84.06V93.1219H546.243H555.305V84.06V74.998Z" fill="#013AEC"/>
<path d="M482.834 93.1219V102.184H491.896H500.958V93.1219V84.06V74.998H491.896H482.834V84.06V93.1219Z" fill="#013AEC"/>
<path d="M836.2 93.1219V84.06V74.998H827.139H818.077V84.06V93.1219H827.139H836.2Z" fill="#013AEC"/>
<path d="M890.212 65.888V56.8981H881.222V47.932H872.256V38.942H863.266V30C854.564 30 418.921 30 292.078 30V38.99H283.304V47.98H274.53V56.946H265.756V65.936H256.957C256.957 86.5051 256.957 108.249 256.957 128.818H265.756V137.784H274.53V146.75H283.304V155.74H292.078V164.73C418.921 164.73 854.564 164.73 863.266 164.73V155.74V155.692H872.256V146.702H881.222V137.736H890.212V128.77H899.202C899.202 108.201 899.202 86.4571 899.202 65.888H890.212V65.888ZM346.905 74.9979H337.843H328.781H319.72V84.0598V93.1217V102.184V111.246V120.307H328.781H337.843H346.905V129.369H337.843H328.781H319.72V120.307H310.658V111.246V102.184V93.1217V84.0598V74.9979H319.72V65.936H328.781H337.843H346.905V74.9979ZM401.277 74.9979V84.0598V93.1217V102.184V111.246V120.307V129.369H392.215V120.307V111.246V102.184V93.1217V84.0598V74.9979H383.153H374.091V84.0598V93.1217V102.184V111.246V120.307V129.369H365.029V120.307V111.246V102.184V93.1217V84.0598V74.9979V65.936H374.091H383.153H392.215H401.277V74.9979ZM455.648 74.9979V84.0598V93.1217V102.184H446.586H437.524H428.462V111.246V120.307V129.369H419.401V120.307V111.246V102.184V93.1217V84.0598V74.9979V65.936H428.462H437.524H446.586H455.648V74.9979ZM510.02 84.0598V93.1217V102.184V111.246V120.307V129.369H500.958V120.307V111.246H491.896H482.834V120.307V129.369H473.772V120.307V111.246V102.184V93.1217V84.0598V74.9979H482.834V65.936H491.896H500.958V74.9979H510.02V84.0598ZM564.367 84.0598V93.1217H555.305V102.184H564.367V111.246V120.307V129.369H555.305H546.243H537.181H528.12V120.307V111.246V102.184V93.1217V84.0598V74.9979V65.936H537.181H546.243H555.305V74.9979H564.367V84.0598ZM618.739 74.9979V84.0598V93.1217V102.184V111.246V120.307V129.369H609.677V120.307V111.246V102.184H600.615V111.246H591.553V120.307V129.369H582.491V120.307V111.246V102.184V93.1217V84.0598V74.9979V65.936H591.553V74.9979V84.0598V93.1217V102.184H600.615V93.1217H609.677V84.0598V74.9979V65.936H618.739V74.9979ZM682.172 74.9979V84.0598V93.1217V102.184V111.246V120.307V129.369H673.11H664.048H654.986H645.924H636.862V120.307V111.246V102.184V93.1217V84.0598V74.9979V65.936H645.924V74.9979V84.0598V93.1217V102.184V111.246V120.307H654.986V111.246V102.184V93.1217V84.0598V74.9979V65.936H664.048V74.9979V84.0598V93.1217V102.184V111.246V120.307H673.11V111.246V102.184V93.1217V84.0598V74.9979V65.936H682.172V74.9979ZM736.543 102.184V111.246V120.307V129.369H727.482H718.42H709.358H700.296V120.307V111.246V102.184V93.1457V84.0838V75.0219V65.96H709.358V75.0219V84.0838V93.1457H718.42H727.482H736.543V102.184ZM790.891 74.9979H781.829H772.767H763.705V84.0598V93.1217V102.184V111.246V120.307H772.767H781.829H790.891V129.369H781.829H772.767H763.705V120.307H754.643V111.246V102.184V93.1217V84.0598V74.9979H763.705V65.936H772.767H781.829H790.891V74.9979ZM845.262 74.9979V84.0598V93.1217V102.184V111.246V120.307V129.369H836.201V120.307V111.246V102.184H827.139H818.077V111.246V120.307V129.369H809.015V120.307V111.246V102.184H818.077V93.1217H809.015V84.0598V74.9979H818.077V65.936H827.139H836.201H845.262V74.9979Z" fill="#013AEC"/>
<rect x="957.795" y="57.6816" width="66.7043" height="86.2709" fill="white"/>
<path d="M1051.97 66.9424V57.9508H1042.98V48.9592H1034.01V39.9916H1025.02V39.9676V31C1015.02 31 993.779 31 952.01 31V39.9676H943.234V48.9592H934.458V57.9508H925.682V66.9184H916.883C916.883 87.4912 916.883 109.263 916.883 129.812H925.682V138.779H934.458V147.771H943.234V156.738H952.01V165.73C993.779 165.73 1015.02 165.73 1025.02 165.73V156.762H1034.01V156.738V147.771H1042.98V138.779H1051.97V129.836H1060.96C1060.96 109.263 1060.96 87.4912 1060.96 66.9424H1051.97V66.9424ZM1004.64 75.7182H995.577H986.514H977.45V84.7817V93.8452V102.909V111.972V121.036H986.514H995.577H1004.64V130.099H995.577H986.514H977.45V121.036H968.386V111.972V102.909V93.8452V84.7817V75.7182H977.45V66.6547H986.514H995.577H1004.64V75.7182Z" fill="#013AEC"/>
<rect x="1127.39" y="57.4775" width="250.846" height="85.979" fill="white"/>
<path d="M1408.29 65.9424V56.9508H1399.32V47.9592H1390.35V38.9676H1381.4H1381.37V30C1372.69 30 1240.31 30 1113.68 30V38.9676H1104.92V47.9592H1096.16V56.9508H1087.4V65.9424H1078.64C1078.64 86.4912 1078.64 108.263 1078.64 128.812H1087.4V137.779H1096.16V146.771H1104.92V155.762H1113.68V164.73C1240.31 164.73 1372.69 164.73 1381.4 164.73V155.762H1390.35V146.771H1399.32V137.779H1408.29V128.812H1417.24C1417.24 108.263 1417.24 86.4912 1417.24 65.9424H1408.29V65.9424ZM1168.43 84.0694V93.133V102.196V111.26V120.324H1159.38V129.387H1150.34H1141.29H1132.25V120.324H1141.29H1150.34H1159.38V111.26V102.196H1150.34H1141.29V93.133H1150.34H1159.38V84.0694V75.0059H1150.34H1141.29H1132.25V65.9424H1141.29H1150.34H1159.38V75.0059H1168.43V84.0694ZM1231.72 75.0059H1222.67H1213.63V84.0694V93.133V102.196V111.26V120.324V129.387H1204.58V120.324V111.26V102.196V93.133V84.0694V75.0059H1195.54H1186.49V65.9424H1195.54H1204.58H1213.63H1222.67H1231.72V75.0059ZM1286.56 75.0059V84.0694V93.133V102.196V111.26V120.324V129.387H1277.52V120.324V111.26V102.196H1268.47V111.26H1259.43V120.324V129.387H1250.38V120.324V111.26V102.196V93.133V84.0694V75.0059V65.9424H1259.43V75.0059V84.0694V93.133V102.196H1268.47V93.133H1277.52V84.0694V75.0059V65.9424H1286.56V75.0059ZM1363.45 75.0059V84.0694V93.133V102.196V111.26V120.324V129.387H1354.4V120.324V111.26V102.196V93.133V84.0694H1345.36V93.133H1336.31V84.0694H1327.27V93.133V102.196V111.26V120.324V129.387H1318.22V120.324V111.26V102.196V93.133V84.0694V75.0059V65.9424H1327.27V75.0059H1336.31V84.0694H1345.36V75.0059H1354.4V65.9424H1363.45V75.0059Z" fill="#013AEC"/>
</g>
<defs>
<clipPath id="clip0_357_5030">
<rect width="1280" height="195" fill="white" transform="translate(1440)"/>
</clipPath>
<clipPath id="clip1_357_5030">
<rect width="1440" height="195" fill="white"/>
</clipPath>
</defs>
</svg>
